G04*
G04 #@! TF.GenerationSoftware,Altium Limited,Altium Designer,18.0.9 (584)*
G04*
G04 Layer_Physical_Order=2*
G04 Layer_Color=16711680*
%FSLAX25Y25*%
%MOIN*%
G70*
G01*
G75*
%ADD10C,0.01000*%
%ADD12C,0.02000*%
%ADD26C,0.02500*%
%ADD27C,0.05000*%
%ADD28C,0.05906*%
%ADD29R,0.05906X0.05906*%
%ADD30C,0.06000*%
%ADD31R,0.05906X0.05906*%
%ADD32C,0.15000*%
%ADD33R,0.10000X0.05000*%
%ADD34O,0.10000X0.05000*%
%ADD35C,0.04724*%
%ADD36C,0.05500*%
%ADD37O,0.05000X0.10000*%
G36*
X305600Y323698D02*
X236550D01*
Y310701D01*
X305600D01*
Y237949D01*
X271034D01*
X270864Y238449D01*
X271253Y238747D01*
X271894Y239583D01*
X272297Y240556D01*
X272434Y241600D01*
X272297Y242644D01*
X271894Y243617D01*
X271253Y244453D01*
X270417Y245094D01*
X269444Y245497D01*
X268400Y245635D01*
X267356Y245497D01*
X266383Y245094D01*
X265547Y244453D01*
X264906Y243617D01*
X264503Y242644D01*
X264366Y241600D01*
X264503Y240556D01*
X264906Y239583D01*
X265547Y238747D01*
X265936Y238449D01*
X265766Y237949D01*
X231034D01*
X230864Y238449D01*
X231253Y238747D01*
X231894Y239583D01*
X232297Y240556D01*
X232435Y241600D01*
X232297Y242644D01*
X231894Y243617D01*
X231253Y244453D01*
X230417Y245094D01*
X229444Y245497D01*
X228400Y245635D01*
X227356Y245497D01*
X226383Y245094D01*
X225547Y244453D01*
X224906Y243617D01*
X224503Y242644D01*
X224365Y241600D01*
X224503Y240556D01*
X224906Y239583D01*
X225547Y238747D01*
X225936Y238449D01*
X225766Y237949D01*
X216268D01*
X216098Y238449D01*
X216355Y238645D01*
X216974Y239452D01*
X217363Y240392D01*
X217495Y241400D01*
X217363Y242408D01*
X216974Y243348D01*
X216355Y244155D01*
X215548Y244774D01*
X214608Y245163D01*
X213600Y245296D01*
X212592Y245163D01*
X211652Y244774D01*
X210845Y244155D01*
X210226Y243348D01*
X209837Y242408D01*
X209704Y241400D01*
X209837Y240392D01*
X210226Y239452D01*
X210845Y238645D01*
X211102Y238449D01*
X210932Y237949D01*
X193655D01*
X193377Y238365D01*
X193510Y238686D01*
X193564Y239100D01*
X187600D01*
Y239600D01*
X187100D01*
Y243130D01*
X185100D01*
X184186Y243010D01*
X183335Y242657D01*
X182604Y242096D01*
X182043Y241365D01*
X181910Y241043D01*
X181419Y240946D01*
X180963Y241402D01*
X180136Y241955D01*
X179160Y242149D01*
X163186D01*
X162953Y242453D01*
X162117Y243094D01*
X161144Y243497D01*
X160100Y243635D01*
X155100D01*
X154056Y243497D01*
X153083Y243094D01*
X152247Y242453D01*
X151606Y241617D01*
X151203Y240644D01*
X151066Y239600D01*
X151203Y238556D01*
X151606Y237583D01*
X151768Y237372D01*
X146798Y232402D01*
X146245Y231575D01*
X146051Y230600D01*
Y194600D01*
X146245Y193624D01*
X146798Y192798D01*
X167768Y171828D01*
X167606Y171617D01*
X167203Y170644D01*
X167066Y169600D01*
X167203Y168556D01*
X167606Y167583D01*
X168247Y166747D01*
X169083Y166106D01*
X170056Y165703D01*
X171100Y165566D01*
X176100D01*
X177144Y165703D01*
X178117Y166106D01*
X178953Y166747D01*
X179594Y167583D01*
X179997Y168556D01*
X180134Y169600D01*
X179997Y170644D01*
X179594Y171617D01*
X178953Y172453D01*
X178117Y173094D01*
X177144Y173497D01*
X176100Y173635D01*
X173170D01*
X171235Y175570D01*
X171442Y176070D01*
X173100D01*
Y179600D01*
Y183130D01*
X171100D01*
X170186Y183010D01*
X169335Y182657D01*
X168604Y182096D01*
X168043Y181365D01*
X167690Y180514D01*
X167610Y179902D01*
X167082Y179723D01*
X151149Y195656D01*
Y197104D01*
X151565Y197382D01*
X151756Y197303D01*
X152800Y197166D01*
X153844Y197303D01*
X154817Y197706D01*
X155653Y198347D01*
X156277Y199161D01*
X167100D01*
Y195600D01*
X180100D01*
Y203216D01*
X180845Y203961D01*
X199935D01*
X200056Y203497D01*
X199083Y203094D01*
X198247Y202453D01*
X197606Y201617D01*
X197203Y200644D01*
X197065Y199600D01*
X197203Y198556D01*
X197606Y197583D01*
X198247Y196747D01*
X199083Y196106D01*
X200056Y195703D01*
X201100Y195565D01*
X206100D01*
X207144Y195703D01*
X208117Y196106D01*
X208953Y196747D01*
X209594Y197583D01*
X209997Y198556D01*
X210135Y199600D01*
X209997Y200644D01*
X209594Y201617D01*
X208953Y202453D01*
X208117Y203094D01*
X207144Y203497D01*
X207265Y203961D01*
X232511D01*
X232733Y203512D01*
X232506Y203217D01*
X232103Y202244D01*
X231965Y201200D01*
X232103Y200156D01*
X232506Y199183D01*
X233147Y198347D01*
X233983Y197706D01*
X234956Y197303D01*
X236000Y197166D01*
X237044Y197303D01*
X238017Y197706D01*
X238853Y198347D01*
X239494Y199183D01*
X239897Y200156D01*
X240035Y201200D01*
X239897Y202244D01*
X239494Y203217D01*
X239267Y203512D01*
X239489Y203961D01*
X254755D01*
X256499Y202217D01*
X256365Y201200D01*
X256503Y200156D01*
X256906Y199183D01*
X257547Y198347D01*
X258383Y197706D01*
X259356Y197303D01*
X260400Y197166D01*
X261444Y197303D01*
X262417Y197706D01*
X263253Y198347D01*
X263894Y199183D01*
X264297Y200156D01*
X264435Y201200D01*
X264297Y202244D01*
X263894Y203217D01*
X263253Y204053D01*
X262417Y204694D01*
X261444Y205097D01*
X260400Y205235D01*
X259383Y205101D01*
X257042Y207442D01*
X256380Y207884D01*
X255600Y208039D01*
X180000D01*
X180000Y208039D01*
X179220Y207884D01*
X178558Y207442D01*
X174716Y203600D01*
X167100D01*
Y203239D01*
X156277D01*
X155653Y204053D01*
X154817Y204694D01*
X153844Y205097D01*
X152800Y205235D01*
X151756Y205097D01*
X151565Y205018D01*
X151149Y205296D01*
Y229544D01*
X157170Y235565D01*
X160100D01*
X161144Y235703D01*
X162117Y236106D01*
X162953Y236747D01*
X163186Y237051D01*
X178104D01*
X181558Y233598D01*
X182385Y233045D01*
X183360Y232851D01*
X305600D01*
Y110400D01*
X121600D01*
Y5200D01*
X29573D01*
X29459Y5687D01*
X30493Y6197D01*
X32427Y7489D01*
X34177Y9023D01*
X35711Y10773D01*
X37003Y12707D01*
X38032Y14794D01*
X38780Y16997D01*
X39234Y19278D01*
X39386Y21600D01*
X39234Y23922D01*
X38780Y26203D01*
X38032Y28407D01*
X37003Y30493D01*
X35711Y32427D01*
X34177Y34177D01*
X32427Y35711D01*
X30493Y37003D01*
X28407Y38032D01*
X26203Y38780D01*
X23922Y39234D01*
X21600Y39386D01*
X19278Y39234D01*
X16997Y38780D01*
X14794Y38032D01*
X12707Y37003D01*
X10773Y35711D01*
X9023Y34177D01*
X7489Y32427D01*
X6197Y30493D01*
X5687Y29459D01*
X5200Y29573D01*
Y313627D01*
X5687Y313741D01*
X6197Y312707D01*
X7489Y310772D01*
X9023Y309023D01*
X10773Y307489D01*
X12707Y306197D01*
X14794Y305168D01*
X16997Y304420D01*
X19278Y303966D01*
X21600Y303814D01*
X23922Y303966D01*
X26203Y304420D01*
X28407Y305168D01*
X30493Y306197D01*
X32427Y307489D01*
X34177Y309023D01*
X35711Y310772D01*
X37003Y312707D01*
X38032Y314794D01*
X38780Y316997D01*
X39234Y319279D01*
X39386Y321600D01*
X39234Y323921D01*
X38780Y326203D01*
X38032Y328406D01*
X37003Y330493D01*
X35711Y332428D01*
X34177Y334177D01*
X32427Y335711D01*
X30493Y337003D01*
X29459Y337513D01*
X29573Y338000D01*
X305600D01*
Y323698D01*
D02*
G37*
G36*
X420827Y338000D02*
X420941Y337513D01*
X419907Y337003D01*
X417973Y335711D01*
X416223Y334177D01*
X414689Y332428D01*
X413397Y330493D01*
X412368Y328406D01*
X411620Y326203D01*
X411166Y323921D01*
X411014Y321600D01*
X411166Y319279D01*
X411620Y316997D01*
X412368Y314794D01*
X413397Y312707D01*
X414689Y310772D01*
X416223Y309023D01*
X417973Y307489D01*
X419907Y306197D01*
X421993Y305168D01*
X424197Y304420D01*
X426478Y303966D01*
X428800Y303814D01*
X431122Y303966D01*
X433403Y304420D01*
X435606Y305168D01*
X437693Y306197D01*
X439628Y307489D01*
X441377Y309023D01*
X442911Y310772D01*
X444203Y312707D01*
X445100Y314525D01*
X445600Y314409D01*
X445600Y29984D01*
X445113Y29871D01*
X445003Y30093D01*
X443711Y32028D01*
X442177Y33777D01*
X440427Y35311D01*
X438493Y36603D01*
X436407Y37632D01*
X434203Y38380D01*
X431922Y38834D01*
X429600Y38986D01*
X427278Y38834D01*
X424997Y38380D01*
X422793Y37632D01*
X420707Y36603D01*
X418773Y35311D01*
X417023Y33777D01*
X415489Y32028D01*
X414197Y30093D01*
X413168Y28007D01*
X412420Y25803D01*
X411966Y23521D01*
X411814Y21200D01*
X411966Y18879D01*
X412420Y16597D01*
X413168Y14393D01*
X414197Y12307D01*
X415489Y10373D01*
X417023Y8623D01*
X418773Y7089D01*
X420707Y5797D01*
X420930Y5687D01*
X420816Y5200D01*
X131200Y5200D01*
X131200Y10400D01*
Y102000D01*
X172635D01*
X172766Y101500D01*
X172110Y100646D01*
X171662Y99562D01*
X171509Y98400D01*
X171662Y97238D01*
X172110Y96154D01*
X172824Y95224D01*
X173754Y94511D01*
X174838Y94062D01*
X176000Y93909D01*
X177162Y94062D01*
X178246Y94511D01*
X179176Y95224D01*
X179890Y96154D01*
X180338Y97238D01*
X180491Y98400D01*
X180338Y99562D01*
X179890Y100646D01*
X179234Y101500D01*
X179365Y102000D01*
X182635D01*
X182766Y101500D01*
X182111Y100646D01*
X181662Y99562D01*
X181509Y98400D01*
X181662Y97238D01*
X182111Y96154D01*
X182824Y95224D01*
X183754Y94511D01*
X184838Y94062D01*
X186000Y93909D01*
X187162Y94062D01*
X188246Y94511D01*
X189176Y95224D01*
X189890Y96154D01*
X190338Y97238D01*
X190491Y98400D01*
X190338Y99562D01*
X189890Y100646D01*
X189234Y101500D01*
X189365Y102000D01*
X193377D01*
X193547Y101500D01*
X193181Y101219D01*
X192547Y100393D01*
X192149Y99432D01*
X192079Y98900D01*
X196000D01*
X199921D01*
X199851Y99432D01*
X199453Y100393D01*
X198819Y101219D01*
X198453Y101500D01*
X198623Y102000D01*
X202635D01*
X202766Y101500D01*
X202111Y100646D01*
X201662Y99562D01*
X201509Y98400D01*
X201662Y97238D01*
X202111Y96154D01*
X202824Y95224D01*
X203754Y94511D01*
X204838Y94062D01*
X206000Y93909D01*
X207162Y94062D01*
X208246Y94511D01*
X209176Y95224D01*
X209890Y96154D01*
X210338Y97238D01*
X210491Y98400D01*
X210338Y99562D01*
X209890Y100646D01*
X209234Y101500D01*
X209365Y102000D01*
X212635D01*
X212766Y101500D01*
X212110Y100646D01*
X211662Y99562D01*
X211509Y98400D01*
X211662Y97238D01*
X212110Y96154D01*
X212824Y95224D01*
X213754Y94511D01*
X214838Y94062D01*
X216000Y93909D01*
X217162Y94062D01*
X218246Y94511D01*
X219176Y95224D01*
X219889Y96154D01*
X220338Y97238D01*
X220491Y98400D01*
X220338Y99562D01*
X219889Y100646D01*
X219234Y101500D01*
X219365Y102000D01*
X222635D01*
X222766Y101500D01*
X222111Y100646D01*
X221662Y99562D01*
X221509Y98400D01*
X221662Y97238D01*
X222111Y96154D01*
X222824Y95224D01*
X223754Y94511D01*
X224838Y94062D01*
X226000Y93909D01*
X227162Y94062D01*
X228246Y94511D01*
X229176Y95224D01*
X229889Y96154D01*
X230338Y97238D01*
X230491Y98400D01*
X230338Y99562D01*
X229889Y100646D01*
X229234Y101500D01*
X229365Y102000D01*
X232635D01*
X232766Y101500D01*
X232111Y100646D01*
X231662Y99562D01*
X231509Y98400D01*
X231662Y97238D01*
X232111Y96154D01*
X232824Y95224D01*
X233754Y94511D01*
X234838Y94062D01*
X236000Y93909D01*
X237162Y94062D01*
X238246Y94511D01*
X239176Y95224D01*
X239890Y96154D01*
X240338Y97238D01*
X240491Y98400D01*
X240338Y99562D01*
X239890Y100646D01*
X239234Y101500D01*
X239365Y102000D01*
X242635D01*
X242766Y101500D01*
X242110Y100646D01*
X241662Y99562D01*
X241509Y98400D01*
X241662Y97238D01*
X242110Y96154D01*
X242824Y95224D01*
X243754Y94511D01*
X244838Y94062D01*
X246000Y93909D01*
X247162Y94062D01*
X248246Y94511D01*
X249176Y95224D01*
X249889Y96154D01*
X250338Y97238D01*
X250491Y98400D01*
X250338Y99562D01*
X249889Y100646D01*
X249234Y101500D01*
X249365Y102000D01*
X252635D01*
X252766Y101500D01*
X252111Y100646D01*
X251662Y99562D01*
X251509Y98400D01*
X251662Y97238D01*
X252111Y96154D01*
X252824Y95224D01*
X253754Y94511D01*
X254838Y94062D01*
X256000Y93909D01*
X257162Y94062D01*
X258246Y94511D01*
X259176Y95224D01*
X259890Y96154D01*
X260338Y97238D01*
X260491Y98400D01*
X260338Y99562D01*
X259890Y100646D01*
X259234Y101500D01*
X259365Y102000D01*
X262635D01*
X262766Y101500D01*
X262110Y100646D01*
X261662Y99562D01*
X261509Y98400D01*
X261662Y97238D01*
X262110Y96154D01*
X262824Y95224D01*
X263754Y94511D01*
X264838Y94062D01*
X266000Y93909D01*
X267162Y94062D01*
X268246Y94511D01*
X269176Y95224D01*
X269889Y96154D01*
X270338Y97238D01*
X270491Y98400D01*
X270338Y99562D01*
X269889Y100646D01*
X269234Y101500D01*
X269365Y102000D01*
X272635D01*
X272766Y101500D01*
X272111Y100646D01*
X271662Y99562D01*
X271509Y98400D01*
X271662Y97238D01*
X272111Y96154D01*
X272824Y95224D01*
X273754Y94511D01*
X274838Y94062D01*
X276000Y93909D01*
X277162Y94062D01*
X278217Y94499D01*
X285511Y87205D01*
X285511Y87205D01*
X286172Y86763D01*
X286953Y86608D01*
X286953Y86608D01*
X329671D01*
X329831Y86135D01*
X329624Y85976D01*
X328910Y85046D01*
X328462Y83962D01*
X328309Y82800D01*
X328462Y81638D01*
X328910Y80554D01*
X329624Y79624D01*
X330554Y78910D01*
X331638Y78462D01*
X332800Y78309D01*
X333962Y78462D01*
X335046Y78910D01*
X335976Y79624D01*
X336689Y80554D01*
X337138Y81638D01*
X337291Y82800D01*
X337138Y83962D01*
X336689Y85046D01*
X335976Y85976D01*
X335769Y86135D01*
X335929Y86608D01*
X339671D01*
X339831Y86135D01*
X339624Y85976D01*
X338911Y85046D01*
X338462Y83962D01*
X338309Y82800D01*
X338462Y81638D01*
X338911Y80554D01*
X339624Y79624D01*
X340554Y78910D01*
X341638Y78462D01*
X342800Y78309D01*
X343962Y78462D01*
X345046Y78910D01*
X345976Y79624D01*
X346690Y80554D01*
X347138Y81638D01*
X347291Y82800D01*
X347138Y83962D01*
X346690Y85046D01*
X345976Y85976D01*
X345769Y86135D01*
X345929Y86608D01*
X388647D01*
X389428Y86763D01*
X390089Y87205D01*
X401431Y98547D01*
X401638Y98462D01*
X402800Y98309D01*
X403962Y98462D01*
X405046Y98910D01*
X405976Y99624D01*
X406690Y100554D01*
X407138Y101638D01*
X407291Y102800D01*
X407138Y103962D01*
X406690Y105046D01*
X405976Y105976D01*
X405046Y106690D01*
X403962Y107138D01*
X402800Y107291D01*
X401638Y107138D01*
X400554Y106690D01*
X399624Y105976D01*
X398910Y105046D01*
X398462Y103962D01*
X398309Y102800D01*
X398462Y101638D01*
X398547Y101431D01*
X387803Y90686D01*
X347194D01*
X346916Y91102D01*
X347138Y91638D01*
X347291Y92800D01*
X347138Y93962D01*
X346690Y95046D01*
X346064Y95861D01*
X346233Y96361D01*
X388400D01*
X389180Y96516D01*
X389842Y96958D01*
X401431Y108547D01*
X401638Y108462D01*
X402800Y108309D01*
X403962Y108462D01*
X405046Y108911D01*
X405976Y109624D01*
X406690Y110554D01*
X407138Y111638D01*
X407291Y112800D01*
X407138Y113962D01*
X406690Y115046D01*
X405976Y115976D01*
X405046Y116690D01*
X403962Y117138D01*
X402800Y117291D01*
X401638Y117138D01*
X400554Y116690D01*
X399624Y115976D01*
X398910Y115046D01*
X398462Y113962D01*
X398309Y112800D01*
X398462Y111638D01*
X398547Y111431D01*
X387555Y100439D01*
X347183D01*
X346849Y100939D01*
X347138Y101638D01*
X347291Y102800D01*
X347138Y103962D01*
X346690Y105046D01*
X345976Y105976D01*
X345046Y106690D01*
X343962Y107138D01*
X342800Y107291D01*
X341638Y107138D01*
X340554Y106690D01*
X339624Y105976D01*
X338911Y105046D01*
X338462Y103962D01*
X338309Y102800D01*
X338462Y101638D01*
X338751Y100939D01*
X338417Y100439D01*
X337183D01*
X336849Y100939D01*
X337138Y101638D01*
X337291Y102800D01*
X337138Y103962D01*
X336689Y105046D01*
X335976Y105976D01*
X335046Y106690D01*
X333962Y107138D01*
X332800Y107291D01*
X331638Y107138D01*
X330554Y106690D01*
X329624Y105976D01*
X328910Y105046D01*
X328462Y103962D01*
X328309Y102800D01*
X328462Y101638D01*
X328751Y100939D01*
X328417Y100439D01*
X290453D01*
Y102000D01*
X318000D01*
X318000Y232851D01*
X345289D01*
X345664Y232351D01*
X345566Y231600D01*
X345703Y230556D01*
X346106Y229583D01*
X346747Y228747D01*
X347583Y228106D01*
X348556Y227703D01*
X349600Y227566D01*
X350644Y227703D01*
X351617Y228106D01*
X352453Y228747D01*
X353094Y229583D01*
X353497Y230556D01*
X353635Y231600D01*
X353497Y232644D01*
X353094Y233617D01*
X352453Y234453D01*
X351617Y235094D01*
X351426Y235173D01*
X351329Y235664D01*
X359115Y243449D01*
X359364Y243429D01*
X359690Y242914D01*
X359636Y242500D01*
X371564D01*
X371510Y242914D01*
X371377Y243235D01*
X371655Y243651D01*
X380344D01*
X389768Y234228D01*
X389606Y234017D01*
X389203Y233044D01*
X389066Y232000D01*
X389203Y230956D01*
X389606Y229983D01*
X390247Y229147D01*
X391083Y228506D01*
X392056Y228103D01*
X393051Y227972D01*
Y214256D01*
X390780Y211984D01*
X390400Y212035D01*
X389356Y211897D01*
X388383Y211494D01*
X387547Y210853D01*
X386906Y210017D01*
X386503Y209044D01*
X386366Y208000D01*
X386503Y206956D01*
X386906Y205983D01*
X387547Y205147D01*
X388383Y204506D01*
X389356Y204103D01*
X390400Y203965D01*
X391444Y204103D01*
X392417Y204506D01*
X393253Y205147D01*
X393894Y205983D01*
X394297Y206956D01*
X394434Y208000D01*
X394385Y208380D01*
X397402Y211398D01*
X397955Y212225D01*
X398149Y213200D01*
Y227972D01*
X399144Y228103D01*
X400117Y228506D01*
X400953Y229147D01*
X401186Y229451D01*
X430042D01*
X430695Y228600D01*
X431583Y227919D01*
X432617Y227491D01*
X433726Y227345D01*
X434835Y227491D01*
X435869Y227919D01*
X436757Y228600D01*
X437438Y229488D01*
X437867Y230522D01*
X438013Y231631D01*
X437867Y232741D01*
X437438Y233775D01*
X436757Y234663D01*
X435869Y235344D01*
X434835Y235772D01*
X433726Y235918D01*
X432617Y235772D01*
X431583Y235344D01*
X430695Y234663D01*
X430608Y234549D01*
X401186D01*
X400953Y234853D01*
X400117Y235494D01*
X399144Y235897D01*
X398100Y236034D01*
X395170D01*
X393701Y237504D01*
X393893Y237965D01*
X398100D01*
X399144Y238103D01*
X400117Y238506D01*
X400953Y239147D01*
X401594Y239983D01*
X401997Y240956D01*
X402135Y242000D01*
X401997Y243044D01*
X401594Y244017D01*
X400953Y244853D01*
X400117Y245494D01*
X399144Y245897D01*
X398100Y246035D01*
X393100D01*
X392056Y245897D01*
X391083Y245494D01*
X390247Y244853D01*
X389606Y244017D01*
X389203Y243044D01*
X389156Y242684D01*
X388682Y242523D01*
X383202Y248002D01*
X382376Y248555D01*
X381400Y248749D01*
X371187D01*
X371031Y249249D01*
X371594Y249983D01*
X371997Y250956D01*
X372134Y252000D01*
X371997Y253044D01*
X371594Y254017D01*
X370953Y254853D01*
X370117Y255494D01*
X369144Y255897D01*
X368100Y256034D01*
X363100D01*
X362056Y255897D01*
X361083Y255494D01*
X360247Y254853D01*
X359606Y254017D01*
X359203Y253044D01*
X359066Y252000D01*
X359203Y250956D01*
X359606Y249983D01*
X360169Y249249D01*
X360013Y248749D01*
X358260D01*
X357285Y248555D01*
X356458Y248002D01*
X346405Y237949D01*
X318000D01*
X318000Y310701D01*
X396500D01*
Y323698D01*
X318000D01*
Y338000D01*
X420827Y338000D01*
D02*
G37*
%LPC*%
G36*
X192800Y315634D02*
X191756Y315497D01*
X190783Y315094D01*
X189947Y314453D01*
X189306Y313617D01*
X188903Y312644D01*
X188766Y311600D01*
X188903Y310556D01*
X189306Y309583D01*
X189947Y308747D01*
X190783Y308106D01*
X191756Y307703D01*
X192800Y307565D01*
X193844Y307703D01*
X194817Y308106D01*
X195653Y308747D01*
X196294Y309583D01*
X196697Y310556D01*
X196835Y311600D01*
X196697Y312644D01*
X196294Y313617D01*
X195653Y314453D01*
X194817Y315094D01*
X193844Y315497D01*
X192800Y315634D01*
D02*
G37*
G36*
X152800D02*
X151756Y315497D01*
X150783Y315094D01*
X149947Y314453D01*
X149306Y313617D01*
X148903Y312644D01*
X148766Y311600D01*
X148903Y310556D01*
X149306Y309583D01*
X149947Y308747D01*
X150783Y308106D01*
X151756Y307703D01*
X152800Y307565D01*
X153844Y307703D01*
X154817Y308106D01*
X155653Y308747D01*
X156294Y309583D01*
X156697Y310556D01*
X156834Y311600D01*
X156697Y312644D01*
X156294Y313617D01*
X155653Y314453D01*
X154817Y315094D01*
X153844Y315497D01*
X152800Y315634D01*
D02*
G37*
G36*
X213600Y275295D02*
X212592Y275163D01*
X211652Y274774D01*
X210845Y274155D01*
X210226Y273348D01*
X209837Y272408D01*
X209704Y271400D01*
X209837Y270392D01*
X210226Y269452D01*
X210845Y268645D01*
X211652Y268026D01*
X212592Y267637D01*
X213600Y267505D01*
X214608Y267637D01*
X215548Y268026D01*
X216355Y268645D01*
X216974Y269452D01*
X217363Y270392D01*
X217495Y271400D01*
X217363Y272408D01*
X216974Y273348D01*
X216355Y274155D01*
X215548Y274774D01*
X214608Y275163D01*
X213600Y275295D01*
D02*
G37*
G36*
X164100Y273600D02*
X151100D01*
Y265600D01*
X164100D01*
Y273600D01*
D02*
G37*
G36*
X190100Y273635D02*
X185100D01*
X184056Y273497D01*
X183083Y273094D01*
X182247Y272453D01*
X181606Y271617D01*
X181203Y270644D01*
X181065Y269600D01*
X181203Y268556D01*
X181606Y267583D01*
X182247Y266747D01*
X183083Y266106D01*
X184056Y265703D01*
X185100Y265565D01*
X190100D01*
X191144Y265703D01*
X192117Y266106D01*
X192953Y266747D01*
X193594Y267583D01*
X193997Y268556D01*
X194134Y269600D01*
X193997Y270644D01*
X193594Y271617D01*
X192953Y272453D01*
X192117Y273094D01*
X191144Y273497D01*
X190100Y273635D01*
D02*
G37*
G36*
X30526Y273918D02*
X29416Y273772D01*
X28383Y273344D01*
X27495Y272663D01*
X26814Y271775D01*
X26385Y270741D01*
X26239Y269632D01*
X26385Y268522D01*
X26814Y267488D01*
X27495Y266600D01*
X28383Y265919D01*
X29416Y265491D01*
X30526Y265345D01*
X31635Y265491D01*
X32669Y265919D01*
X33557Y266600D01*
X34238Y267488D01*
X34667Y268522D01*
X34813Y269632D01*
X34667Y270741D01*
X34238Y271775D01*
X33557Y272663D01*
X32669Y273344D01*
X31635Y273772D01*
X30526Y273918D01*
D02*
G37*
G36*
X190100Y263634D02*
X185100D01*
X184056Y263497D01*
X183083Y263094D01*
X182247Y262453D01*
X181606Y261617D01*
X181203Y260644D01*
X181065Y259600D01*
X181203Y258556D01*
X181606Y257583D01*
X182247Y256747D01*
X183083Y256106D01*
X184056Y255703D01*
X185100Y255566D01*
X190100D01*
X191144Y255703D01*
X192117Y256106D01*
X192953Y256747D01*
X193594Y257583D01*
X193997Y258556D01*
X194134Y259600D01*
X193997Y260644D01*
X193594Y261617D01*
X192953Y262453D01*
X192117Y263094D01*
X191144Y263497D01*
X190100Y263634D01*
D02*
G37*
G36*
X160100D02*
X155100D01*
X154056Y263497D01*
X153083Y263094D01*
X152247Y262453D01*
X151606Y261617D01*
X151203Y260644D01*
X151066Y259600D01*
X151203Y258556D01*
X151606Y257583D01*
X152247Y256747D01*
X153083Y256106D01*
X154056Y255703D01*
X155100Y255566D01*
X160100D01*
X161144Y255703D01*
X162117Y256106D01*
X162953Y256747D01*
X163594Y257583D01*
X163997Y258556D01*
X164135Y259600D01*
X163997Y260644D01*
X163594Y261617D01*
X162953Y262453D01*
X162117Y263094D01*
X161144Y263497D01*
X160100Y263634D01*
D02*
G37*
G36*
X190100Y253635D02*
X185100D01*
X184056Y253497D01*
X183083Y253094D01*
X182247Y252453D01*
X181606Y251617D01*
X181203Y250644D01*
X181065Y249600D01*
X181203Y248556D01*
X181606Y247583D01*
X182247Y246747D01*
X183083Y246106D01*
X184056Y245703D01*
X185100Y245566D01*
X190100D01*
X191144Y245703D01*
X192117Y246106D01*
X192953Y246747D01*
X193594Y247583D01*
X193997Y248556D01*
X194134Y249600D01*
X193997Y250644D01*
X193594Y251617D01*
X192953Y252453D01*
X192117Y253094D01*
X191144Y253497D01*
X190100Y253635D01*
D02*
G37*
G36*
X160100D02*
X155100D01*
X154056Y253497D01*
X153083Y253094D01*
X152247Y252453D01*
X151606Y251617D01*
X151203Y250644D01*
X151066Y249600D01*
X151203Y248556D01*
X151606Y247583D01*
X152247Y246747D01*
X153083Y246106D01*
X154056Y245703D01*
X155100Y245566D01*
X160100D01*
X161144Y245703D01*
X162117Y246106D01*
X162953Y246747D01*
X163594Y247583D01*
X163997Y248556D01*
X164135Y249600D01*
X163997Y250644D01*
X163594Y251617D01*
X162953Y252453D01*
X162117Y253094D01*
X161144Y253497D01*
X160100Y253635D01*
D02*
G37*
G36*
X30526Y253918D02*
X29416Y253772D01*
X28383Y253344D01*
X27495Y252663D01*
X26814Y251775D01*
X26385Y250741D01*
X26239Y249632D01*
X26385Y248522D01*
X26814Y247488D01*
X27495Y246600D01*
X28383Y245919D01*
X29416Y245491D01*
X30526Y245345D01*
X31635Y245491D01*
X32669Y245919D01*
X33557Y246600D01*
X34238Y247488D01*
X34667Y248522D01*
X34813Y249632D01*
X34667Y250741D01*
X34238Y251775D01*
X33557Y252663D01*
X32669Y253344D01*
X31635Y253772D01*
X30526Y253918D01*
D02*
G37*
G36*
X190100Y243130D02*
X188100D01*
Y240100D01*
X193564D01*
X193510Y240514D01*
X193157Y241365D01*
X192596Y242096D01*
X191865Y242657D01*
X191014Y243010D01*
X190100Y243130D01*
D02*
G37*
G36*
X30900Y233316D02*
Y230100D01*
X34117D01*
X34054Y230579D01*
X33676Y231491D01*
X33075Y232275D01*
X32291Y232876D01*
X31379Y233254D01*
X30900Y233316D01*
D02*
G37*
G36*
X29900Y233316D02*
X29421Y233254D01*
X28509Y232876D01*
X27725Y232275D01*
X27124Y231491D01*
X26746Y230579D01*
X26684Y230100D01*
X29900D01*
Y233316D01*
D02*
G37*
G36*
Y229100D02*
X26684D01*
X26746Y228621D01*
X27124Y227709D01*
X27725Y226925D01*
X28509Y226324D01*
X29421Y225946D01*
X29900Y225884D01*
Y229100D01*
D02*
G37*
G36*
X34117D02*
X30900D01*
Y225884D01*
X31379Y225946D01*
X32291Y226324D01*
X33075Y226925D01*
X33676Y227709D01*
X34054Y228621D01*
X34117Y229100D01*
D02*
G37*
G36*
X291700Y224264D02*
Y221300D01*
X294664D01*
X294610Y221714D01*
X294257Y222565D01*
X293696Y223296D01*
X292965Y223857D01*
X292114Y224210D01*
X291700Y224264D01*
D02*
G37*
G36*
X290700D02*
X290286Y224210D01*
X289435Y223857D01*
X288704Y223296D01*
X288143Y222565D01*
X287790Y221714D01*
X287736Y221300D01*
X290700D01*
Y224264D01*
D02*
G37*
G36*
X294664Y220300D02*
X291700D01*
Y217336D01*
X292114Y217390D01*
X292965Y217743D01*
X293696Y218304D01*
X294257Y219035D01*
X294610Y219886D01*
X294664Y220300D01*
D02*
G37*
G36*
X290700D02*
X287736D01*
X287790Y219886D01*
X288143Y219035D01*
X288704Y218304D01*
X289435Y217743D01*
X290286Y217390D01*
X290700Y217336D01*
Y220300D01*
D02*
G37*
G36*
X275600Y205235D02*
X274556Y205097D01*
X273583Y204694D01*
X272747Y204053D01*
X272106Y203217D01*
X271703Y202244D01*
X271566Y201200D01*
X271703Y200156D01*
X272106Y199183D01*
X272747Y198347D01*
X273583Y197706D01*
X274556Y197303D01*
X275600Y197166D01*
X276644Y197303D01*
X277617Y197706D01*
X278453Y198347D01*
X279094Y199183D01*
X279497Y200156D01*
X279634Y201200D01*
X279497Y202244D01*
X279094Y203217D01*
X278453Y204053D01*
X277617Y204694D01*
X276644Y205097D01*
X275600Y205235D01*
D02*
G37*
G36*
X137200Y204895D02*
X136192Y204763D01*
X135252Y204374D01*
X134445Y203755D01*
X133826Y202948D01*
X133437Y202008D01*
X133305Y201000D01*
X133437Y199992D01*
X133826Y199052D01*
X134445Y198245D01*
X135252Y197626D01*
X136192Y197237D01*
X137200Y197105D01*
X138208Y197237D01*
X139148Y197626D01*
X139955Y198245D01*
X140574Y199052D01*
X140963Y199992D01*
X141095Y201000D01*
X140963Y202008D01*
X140574Y202948D01*
X139955Y203755D01*
X139148Y204374D01*
X138208Y204763D01*
X137200Y204895D01*
D02*
G37*
G36*
X291200Y204434D02*
X290156Y204297D01*
X289183Y203894D01*
X288347Y203253D01*
X287706Y202417D01*
X287303Y201444D01*
X287165Y200400D01*
X287303Y199356D01*
X287706Y198383D01*
X288347Y197547D01*
X289183Y196906D01*
X290156Y196503D01*
X291200Y196365D01*
X292244Y196503D01*
X293217Y196906D01*
X294053Y197547D01*
X294694Y198383D01*
X295097Y199356D01*
X295234Y200400D01*
X295097Y201444D01*
X294694Y202417D01*
X294053Y203253D01*
X293217Y203894D01*
X292244Y204297D01*
X291200Y204434D01*
D02*
G37*
G36*
X31026Y193348D02*
Y190131D01*
X34242D01*
X34179Y190610D01*
X33802Y191523D01*
X33200Y192306D01*
X32417Y192907D01*
X31505Y193285D01*
X31026Y193348D01*
D02*
G37*
G36*
X30026Y193348D02*
X29547Y193285D01*
X28635Y192907D01*
X27851Y192306D01*
X27250Y191523D01*
X26873Y190610D01*
X26809Y190131D01*
X30026D01*
Y193348D01*
D02*
G37*
G36*
X34242Y189131D02*
X31026D01*
Y185915D01*
X31505Y185978D01*
X32417Y186356D01*
X33200Y186957D01*
X33802Y187740D01*
X34179Y188653D01*
X34242Y189131D01*
D02*
G37*
G36*
X30026D02*
X26809D01*
X26873Y188653D01*
X27250Y187740D01*
X27851Y186957D01*
X28635Y186356D01*
X29547Y185978D01*
X30026Y185915D01*
Y189131D01*
D02*
G37*
G36*
X206100Y193634D02*
X201100D01*
X200056Y193497D01*
X199083Y193094D01*
X198247Y192453D01*
X197606Y191617D01*
X197203Y190644D01*
X197065Y189600D01*
X197203Y188556D01*
X197606Y187583D01*
X198247Y186747D01*
X199083Y186106D01*
X200056Y185703D01*
X201100Y185565D01*
X206100D01*
X207144Y185703D01*
X208117Y186106D01*
X208953Y186747D01*
X209594Y187583D01*
X209997Y188556D01*
X210135Y189600D01*
X209997Y190644D01*
X209594Y191617D01*
X208953Y192453D01*
X208117Y193094D01*
X207144Y193497D01*
X206100Y193634D01*
D02*
G37*
G36*
X176100D02*
X171100D01*
X170056Y193497D01*
X169083Y193094D01*
X168247Y192453D01*
X167606Y191617D01*
X167203Y190644D01*
X167066Y189600D01*
X167203Y188556D01*
X167606Y187583D01*
X168247Y186747D01*
X169083Y186106D01*
X170056Y185703D01*
X171100Y185565D01*
X176100D01*
X177144Y185703D01*
X178117Y186106D01*
X178953Y186747D01*
X179594Y187583D01*
X179997Y188556D01*
X180134Y189600D01*
X179997Y190644D01*
X179594Y191617D01*
X178953Y192453D01*
X178117Y193094D01*
X177144Y193497D01*
X176100Y193634D01*
D02*
G37*
G36*
Y183130D02*
X174100D01*
Y180100D01*
X179564D01*
X179510Y180514D01*
X179157Y181365D01*
X178596Y182096D01*
X177865Y182657D01*
X177014Y183010D01*
X176100Y183130D01*
D02*
G37*
G36*
X179564Y179100D02*
X174100D01*
Y176070D01*
X176100D01*
X177014Y176190D01*
X177865Y176543D01*
X178596Y177104D01*
X179157Y177835D01*
X179510Y178686D01*
X179564Y179100D01*
D02*
G37*
G36*
X206100Y183634D02*
X201100D01*
X200056Y183497D01*
X199083Y183094D01*
X198247Y182453D01*
X197606Y181617D01*
X197203Y180644D01*
X197065Y179600D01*
X197203Y178556D01*
X197606Y177583D01*
X198247Y176747D01*
X199083Y176106D01*
X200056Y175703D01*
X201100Y175566D01*
X206100D01*
X207144Y175703D01*
X208117Y176106D01*
X208953Y176747D01*
X209594Y177583D01*
X209997Y178556D01*
X210135Y179600D01*
X209997Y180644D01*
X209594Y181617D01*
X208953Y182453D01*
X208117Y183094D01*
X207144Y183497D01*
X206100Y183634D01*
D02*
G37*
G36*
X30400Y178687D02*
X29291Y178541D01*
X28257Y178112D01*
X27369Y177431D01*
X26688Y176543D01*
X26259Y175510D01*
X26113Y174400D01*
X26259Y173291D01*
X26688Y172257D01*
X27369Y171369D01*
X28257Y170688D01*
X29291Y170259D01*
X30400Y170113D01*
X31510Y170259D01*
X32543Y170688D01*
X33431Y171369D01*
X34112Y172257D01*
X34541Y173291D01*
X34687Y174400D01*
X34541Y175510D01*
X34112Y176543D01*
X33431Y177431D01*
X32543Y178112D01*
X31510Y178541D01*
X30400Y178687D01*
D02*
G37*
G36*
X137200Y174896D02*
X136192Y174763D01*
X135252Y174374D01*
X134445Y173755D01*
X133826Y172948D01*
X133437Y172008D01*
X133305Y171000D01*
X133437Y169992D01*
X133826Y169052D01*
X134445Y168245D01*
X135252Y167626D01*
X136192Y167237D01*
X137200Y167104D01*
X138208Y167237D01*
X139148Y167626D01*
X139955Y168245D01*
X140574Y169052D01*
X140963Y169992D01*
X141095Y171000D01*
X140963Y172008D01*
X140574Y172948D01*
X139955Y173755D01*
X139148Y174374D01*
X138208Y174763D01*
X137200Y174896D01*
D02*
G37*
G36*
X206100Y173635D02*
X201100D01*
X200056Y173497D01*
X199083Y173094D01*
X198247Y172453D01*
X197606Y171617D01*
X197203Y170644D01*
X197065Y169600D01*
X197203Y168556D01*
X197606Y167583D01*
X198247Y166747D01*
X199083Y166106D01*
X200056Y165703D01*
X201100Y165566D01*
X206100D01*
X207144Y165703D01*
X208117Y166106D01*
X208953Y166747D01*
X209594Y167583D01*
X209997Y168556D01*
X210135Y169600D01*
X209997Y170644D01*
X209594Y171617D01*
X208953Y172453D01*
X208117Y173094D01*
X207144Y173497D01*
X206100Y173635D01*
D02*
G37*
G36*
X275600Y165234D02*
X274556Y165097D01*
X273583Y164694D01*
X272747Y164053D01*
X272106Y163217D01*
X271703Y162244D01*
X271566Y161200D01*
X271703Y160156D01*
X272106Y159183D01*
X272747Y158347D01*
X273583Y157706D01*
X274556Y157303D01*
X275600Y157166D01*
X276644Y157303D01*
X277617Y157706D01*
X278453Y158347D01*
X279094Y159183D01*
X279497Y160156D01*
X279634Y161200D01*
X279497Y162244D01*
X279094Y163217D01*
X278453Y164053D01*
X277617Y164694D01*
X276644Y165097D01*
X275600Y165234D01*
D02*
G37*
G36*
X260400D02*
X259356Y165097D01*
X258383Y164694D01*
X257547Y164053D01*
X256906Y163217D01*
X256503Y162244D01*
X256365Y161200D01*
X256503Y160156D01*
X256906Y159183D01*
X257547Y158347D01*
X258383Y157706D01*
X259356Y157303D01*
X260400Y157166D01*
X261444Y157303D01*
X262417Y157706D01*
X263253Y158347D01*
X263894Y159183D01*
X264297Y160156D01*
X264435Y161200D01*
X264297Y162244D01*
X263894Y163217D01*
X263253Y164053D01*
X262417Y164694D01*
X261444Y165097D01*
X260400Y165234D01*
D02*
G37*
G36*
X236000D02*
X234956Y165097D01*
X233983Y164694D01*
X233147Y164053D01*
X232506Y163217D01*
X232103Y162244D01*
X231965Y161200D01*
X232103Y160156D01*
X232506Y159183D01*
X233147Y158347D01*
X233983Y157706D01*
X234956Y157303D01*
X236000Y157166D01*
X237044Y157303D01*
X238017Y157706D01*
X238853Y158347D01*
X239494Y159183D01*
X239897Y160156D01*
X240035Y161200D01*
X239897Y162244D01*
X239494Y163217D01*
X238853Y164053D01*
X238017Y164694D01*
X237044Y165097D01*
X236000Y165234D01*
D02*
G37*
G36*
X152800D02*
X151756Y165097D01*
X150783Y164694D01*
X149947Y164053D01*
X149306Y163217D01*
X148903Y162244D01*
X148766Y161200D01*
X148903Y160156D01*
X149306Y159183D01*
X149947Y158347D01*
X150783Y157706D01*
X151756Y157303D01*
X152800Y157166D01*
X153844Y157303D01*
X154817Y157706D01*
X155653Y158347D01*
X156294Y159183D01*
X156697Y160156D01*
X156834Y161200D01*
X156697Y162244D01*
X156294Y163217D01*
X155653Y164053D01*
X154817Y164694D01*
X153844Y165097D01*
X152800Y165234D01*
D02*
G37*
G36*
X30400Y163487D02*
X29291Y163341D01*
X28257Y162912D01*
X27369Y162231D01*
X26688Y161343D01*
X26259Y160310D01*
X26113Y159200D01*
X26259Y158090D01*
X26688Y157057D01*
X27369Y156169D01*
X28257Y155488D01*
X29291Y155059D01*
X30400Y154913D01*
X31510Y155059D01*
X32543Y155488D01*
X33431Y156169D01*
X34112Y157057D01*
X34541Y158090D01*
X34687Y159200D01*
X34541Y160310D01*
X34112Y161343D01*
X33431Y162231D01*
X32543Y162912D01*
X31510Y163341D01*
X30400Y163487D01*
D02*
G37*
G36*
X169700Y151064D02*
Y148100D01*
X172664D01*
X172610Y148514D01*
X172257Y149365D01*
X171696Y150096D01*
X170965Y150657D01*
X170114Y151010D01*
X169700Y151064D01*
D02*
G37*
G36*
X168700Y151064D02*
X168286Y151010D01*
X167435Y150657D01*
X166704Y150096D01*
X166143Y149365D01*
X165790Y148514D01*
X165736Y148100D01*
X168700D01*
Y151064D01*
D02*
G37*
G36*
Y147100D02*
X165736D01*
X165790Y146686D01*
X166143Y145835D01*
X166704Y145104D01*
X167435Y144543D01*
X168286Y144190D01*
X168700Y144136D01*
Y147100D01*
D02*
G37*
G36*
X172664D02*
X169700D01*
Y144136D01*
X170114Y144190D01*
X170965Y144543D01*
X171696Y145104D01*
X172257Y145835D01*
X172610Y146686D01*
X172664Y147100D01*
D02*
G37*
G36*
X209200Y151635D02*
X208156Y151497D01*
X207183Y151094D01*
X206347Y150453D01*
X205706Y149617D01*
X205303Y148644D01*
X205166Y147600D01*
X205303Y146556D01*
X205706Y145583D01*
X206347Y144747D01*
X207183Y144106D01*
X208156Y143703D01*
X209200Y143565D01*
X210244Y143703D01*
X211217Y144106D01*
X212053Y144747D01*
X212694Y145583D01*
X213097Y146556D01*
X213234Y147600D01*
X213097Y148644D01*
X212694Y149617D01*
X212053Y150453D01*
X211217Y151094D01*
X210244Y151497D01*
X209200Y151635D01*
D02*
G37*
G36*
X30800Y147887D02*
X29691Y147741D01*
X28657Y147312D01*
X27769Y146631D01*
X27088Y145743D01*
X26659Y144710D01*
X26513Y143600D01*
X26659Y142490D01*
X27088Y141457D01*
X27769Y140569D01*
X28657Y139888D01*
X29691Y139459D01*
X30800Y139313D01*
X31909Y139459D01*
X32943Y139888D01*
X33831Y140569D01*
X34512Y141457D01*
X34941Y142490D01*
X35087Y143600D01*
X34941Y144710D01*
X34512Y145743D01*
X33831Y146631D01*
X32943Y147312D01*
X31909Y147741D01*
X30800Y147887D01*
D02*
G37*
G36*
X66900Y43164D02*
Y37700D01*
X69930D01*
Y39700D01*
X69810Y40614D01*
X69457Y41465D01*
X68896Y42196D01*
X68165Y42757D01*
X67314Y43110D01*
X66900Y43164D01*
D02*
G37*
G36*
X65900Y43164D02*
X65486Y43110D01*
X64635Y42757D01*
X63904Y42196D01*
X63343Y41465D01*
X62990Y40614D01*
X62870Y39700D01*
Y37700D01*
X65900D01*
Y43164D01*
D02*
G37*
G36*
Y36700D02*
X62870D01*
Y34700D01*
X62990Y33786D01*
X63343Y32935D01*
X63904Y32204D01*
X64635Y31643D01*
X65486Y31290D01*
X65900Y31236D01*
Y36700D01*
D02*
G37*
G36*
X69930D02*
X66900D01*
Y31236D01*
X67314Y31290D01*
X68165Y31643D01*
X68896Y32204D01*
X69457Y32935D01*
X69810Y33786D01*
X69930Y34700D01*
Y36700D01*
D02*
G37*
G36*
X86400Y43734D02*
X85356Y43597D01*
X84383Y43194D01*
X83547Y42553D01*
X82906Y41717D01*
X82503Y40744D01*
X82366Y39700D01*
Y34700D01*
X82503Y33656D01*
X82906Y32683D01*
X83547Y31847D01*
X84383Y31206D01*
X85356Y30803D01*
X86400Y30665D01*
X87444Y30803D01*
X88417Y31206D01*
X89253Y31847D01*
X89894Y32683D01*
X90297Y33656D01*
X90434Y34700D01*
Y39700D01*
X90297Y40744D01*
X89894Y41717D01*
X89253Y42553D01*
X88417Y43194D01*
X87444Y43597D01*
X86400Y43734D01*
D02*
G37*
G36*
X76400D02*
X75356Y43597D01*
X74383Y43194D01*
X73547Y42553D01*
X72906Y41717D01*
X72503Y40744D01*
X72365Y39700D01*
Y34700D01*
X72503Y33656D01*
X72906Y32683D01*
X73547Y31847D01*
X74383Y31206D01*
X75356Y30803D01*
X76400Y30665D01*
X77444Y30803D01*
X78417Y31206D01*
X79253Y31847D01*
X79894Y32683D01*
X80297Y33656D01*
X80435Y34700D01*
Y39700D01*
X80297Y40744D01*
X79894Y41717D01*
X79253Y42553D01*
X78417Y43194D01*
X77444Y43597D01*
X76400Y43734D01*
D02*
G37*
G36*
X56400D02*
X55356Y43597D01*
X54383Y43194D01*
X53547Y42553D01*
X52906Y41717D01*
X52503Y40744D01*
X52365Y39700D01*
Y34700D01*
X52503Y33656D01*
X52906Y32683D01*
X53547Y31847D01*
X54383Y31206D01*
X55356Y30803D01*
X56400Y30665D01*
X57444Y30803D01*
X58417Y31206D01*
X59253Y31847D01*
X59894Y32683D01*
X60297Y33656D01*
X60435Y34700D01*
Y39700D01*
X60297Y40744D01*
X59894Y41717D01*
X59253Y42553D01*
X58417Y43194D01*
X57444Y43597D01*
X56400Y43734D01*
D02*
G37*
G36*
X372100Y266000D02*
X359100D01*
Y258000D01*
X372100D01*
Y266000D01*
D02*
G37*
G36*
X398100Y266035D02*
X393100D01*
X392056Y265897D01*
X391083Y265494D01*
X390247Y264853D01*
X389606Y264017D01*
X389203Y263044D01*
X389066Y262000D01*
X389203Y260956D01*
X389606Y259983D01*
X390247Y259147D01*
X391083Y258506D01*
X392056Y258103D01*
X393100Y257965D01*
X398100D01*
X399144Y258103D01*
X400117Y258506D01*
X400953Y259147D01*
X401594Y259983D01*
X401997Y260956D01*
X402135Y262000D01*
X401997Y263044D01*
X401594Y264017D01*
X400953Y264853D01*
X400117Y265494D01*
X399144Y265897D01*
X398100Y266035D01*
D02*
G37*
G36*
Y256034D02*
X393100D01*
X392056Y255897D01*
X391083Y255494D01*
X390247Y254853D01*
X389606Y254017D01*
X389203Y253044D01*
X389066Y252000D01*
X389203Y250956D01*
X389606Y249983D01*
X390247Y249147D01*
X391083Y248506D01*
X392056Y248103D01*
X393100Y247966D01*
X398100D01*
X399144Y248103D01*
X400117Y248506D01*
X400953Y249147D01*
X401594Y249983D01*
X401997Y250956D01*
X402135Y252000D01*
X401997Y253044D01*
X401594Y254017D01*
X400953Y254853D01*
X400117Y255494D01*
X399144Y255897D01*
X398100Y256034D01*
D02*
G37*
G36*
X349600Y255634D02*
X348556Y255497D01*
X347583Y255094D01*
X346747Y254453D01*
X346106Y253617D01*
X345703Y252644D01*
X345566Y251600D01*
X345703Y250556D01*
X346106Y249583D01*
X346747Y248747D01*
X347583Y248106D01*
X348556Y247703D01*
X349600Y247566D01*
X350644Y247703D01*
X351617Y248106D01*
X352453Y248747D01*
X353094Y249583D01*
X353497Y250556D01*
X353635Y251600D01*
X353497Y252644D01*
X353094Y253617D01*
X352453Y254453D01*
X351617Y255094D01*
X350644Y255497D01*
X349600Y255634D01*
D02*
G37*
G36*
X371564Y241500D02*
X366100D01*
Y238470D01*
X368100D01*
X369014Y238590D01*
X369865Y238943D01*
X370596Y239504D01*
X371157Y240235D01*
X371510Y241086D01*
X371564Y241500D01*
D02*
G37*
G36*
X365100D02*
X359636D01*
X359690Y241086D01*
X360043Y240235D01*
X360604Y239504D01*
X361335Y238943D01*
X362186Y238590D01*
X363100Y238470D01*
X365100D01*
Y241500D01*
D02*
G37*
G36*
X368100Y236034D02*
X363100D01*
X362056Y235897D01*
X361083Y235494D01*
X360247Y234853D01*
X359606Y234017D01*
X359203Y233044D01*
X359066Y232000D01*
X359203Y230956D01*
X359606Y229983D01*
X360247Y229147D01*
X361083Y228506D01*
X362056Y228103D01*
X363100Y227965D01*
X368100D01*
X369144Y228103D01*
X370117Y228506D01*
X370953Y229147D01*
X371594Y229983D01*
X371997Y230956D01*
X372134Y232000D01*
X371997Y233044D01*
X371594Y234017D01*
X370953Y234853D01*
X370117Y235494D01*
X369144Y235897D01*
X368100Y236034D01*
D02*
G37*
G36*
X331700Y224264D02*
Y221300D01*
X334664D01*
X334610Y221714D01*
X334257Y222565D01*
X333696Y223296D01*
X332965Y223857D01*
X332114Y224210D01*
X331700Y224264D01*
D02*
G37*
G36*
X330700D02*
X330286Y224210D01*
X329435Y223857D01*
X328704Y223296D01*
X328143Y222565D01*
X327790Y221714D01*
X327736Y221300D01*
X330700D01*
Y224264D01*
D02*
G37*
G36*
X334664Y220300D02*
X331700D01*
Y217336D01*
X332114Y217390D01*
X332965Y217743D01*
X333696Y218304D01*
X334257Y219035D01*
X334610Y219886D01*
X334664Y220300D01*
D02*
G37*
G36*
X330700D02*
X327736D01*
X327790Y219886D01*
X328143Y219035D01*
X328704Y218304D01*
X329435Y217743D01*
X330286Y217390D01*
X330700Y217336D01*
Y220300D01*
D02*
G37*
G36*
X370900Y211464D02*
Y208500D01*
X373864D01*
X373810Y208914D01*
X373457Y209765D01*
X372896Y210496D01*
X372165Y211057D01*
X371314Y211410D01*
X370900Y211464D01*
D02*
G37*
G36*
X369900D02*
X369486Y211410D01*
X368635Y211057D01*
X367904Y210496D01*
X367343Y209765D01*
X366990Y208914D01*
X366936Y208500D01*
X369900D01*
Y211464D01*
D02*
G37*
G36*
X373864Y207500D02*
X370900D01*
Y204536D01*
X371314Y204590D01*
X372165Y204943D01*
X372896Y205504D01*
X373457Y206235D01*
X373810Y207086D01*
X373864Y207500D01*
D02*
G37*
G36*
X369900D02*
X366936D01*
X366990Y207086D01*
X367343Y206235D01*
X367904Y205504D01*
X368635Y204943D01*
X369486Y204590D01*
X369900Y204536D01*
Y207500D01*
D02*
G37*
G36*
X331200Y204434D02*
X330156Y204297D01*
X329183Y203894D01*
X328347Y203253D01*
X327706Y202417D01*
X327303Y201444D01*
X327166Y200400D01*
X327303Y199356D01*
X327706Y198383D01*
X328347Y197547D01*
X329183Y196906D01*
X330156Y196503D01*
X331200Y196365D01*
X332244Y196503D01*
X333217Y196906D01*
X334053Y197547D01*
X334694Y198383D01*
X335097Y199356D01*
X335234Y200400D01*
X335097Y201444D01*
X334694Y202417D01*
X334053Y203253D01*
X333217Y203894D01*
X332244Y204297D01*
X331200Y204434D01*
D02*
G37*
G36*
X412800Y187291D02*
X411638Y187138D01*
X410554Y186689D01*
X409624Y185976D01*
X408911Y185046D01*
X408462Y183962D01*
X408309Y182800D01*
X408462Y181638D01*
X408911Y180554D01*
X409624Y179624D01*
X410554Y178911D01*
X411638Y178462D01*
X412800Y178309D01*
X413962Y178462D01*
X415046Y178911D01*
X415976Y179624D01*
X416689Y180554D01*
X417138Y181638D01*
X417291Y182800D01*
X417138Y183962D01*
X416689Y185046D01*
X415976Y185976D01*
X415046Y186689D01*
X413962Y187138D01*
X412800Y187291D01*
D02*
G37*
G36*
X402800D02*
X401638Y187138D01*
X400554Y186689D01*
X399624Y185976D01*
X398910Y185046D01*
X398462Y183962D01*
X398309Y182800D01*
X398462Y181638D01*
X398910Y180554D01*
X399624Y179624D01*
X400554Y178911D01*
X401638Y178462D01*
X402800Y178309D01*
X403962Y178462D01*
X405046Y178911D01*
X405976Y179624D01*
X406690Y180554D01*
X407138Y181638D01*
X407291Y182800D01*
X407138Y183962D01*
X406690Y185046D01*
X405976Y185976D01*
X405046Y186689D01*
X403962Y187138D01*
X402800Y187291D01*
D02*
G37*
G36*
X342800D02*
X341638Y187138D01*
X340554Y186689D01*
X339624Y185976D01*
X338911Y185046D01*
X338462Y183962D01*
X338309Y182800D01*
X338462Y181638D01*
X338911Y180554D01*
X339624Y179624D01*
X340554Y178911D01*
X341638Y178462D01*
X342800Y178309D01*
X343962Y178462D01*
X345046Y178911D01*
X345976Y179624D01*
X346690Y180554D01*
X347138Y181638D01*
X347291Y182800D01*
X347138Y183962D01*
X346690Y185046D01*
X345976Y185976D01*
X345046Y186689D01*
X343962Y187138D01*
X342800Y187291D01*
D02*
G37*
G36*
X332800D02*
X331638Y187138D01*
X330554Y186689D01*
X329624Y185976D01*
X328910Y185046D01*
X328462Y183962D01*
X328309Y182800D01*
X328462Y181638D01*
X328910Y180554D01*
X329624Y179624D01*
X330554Y178911D01*
X331638Y178462D01*
X332800Y178309D01*
X333962Y178462D01*
X335046Y178911D01*
X335976Y179624D01*
X336689Y180554D01*
X337138Y181638D01*
X337291Y182800D01*
X337138Y183962D01*
X336689Y185046D01*
X335976Y185976D01*
X335046Y186689D01*
X333962Y187138D01*
X332800Y187291D01*
D02*
G37*
G36*
X412800Y177291D02*
X411638Y177138D01*
X410554Y176690D01*
X409624Y175976D01*
X408911Y175046D01*
X408462Y173962D01*
X408309Y172800D01*
X408462Y171638D01*
X408911Y170554D01*
X409624Y169624D01*
X410554Y168911D01*
X411638Y168462D01*
X412800Y168309D01*
X413962Y168462D01*
X415046Y168911D01*
X415976Y169624D01*
X416689Y170554D01*
X417138Y171638D01*
X417291Y172800D01*
X417138Y173962D01*
X416689Y175046D01*
X415976Y175976D01*
X415046Y176690D01*
X413962Y177138D01*
X412800Y177291D01*
D02*
G37*
G36*
X402800D02*
X401638Y177138D01*
X400554Y176690D01*
X399624Y175976D01*
X398910Y175046D01*
X398462Y173962D01*
X398309Y172800D01*
X398462Y171638D01*
X398910Y170554D01*
X399624Y169624D01*
X400554Y168911D01*
X401638Y168462D01*
X402800Y168309D01*
X403962Y168462D01*
X405046Y168911D01*
X405976Y169624D01*
X406690Y170554D01*
X407138Y171638D01*
X407291Y172800D01*
X407138Y173962D01*
X406690Y175046D01*
X405976Y175976D01*
X405046Y176690D01*
X403962Y177138D01*
X402800Y177291D01*
D02*
G37*
G36*
X342800D02*
X341638Y177138D01*
X340554Y176690D01*
X339624Y175976D01*
X338911Y175046D01*
X338462Y173962D01*
X338309Y172800D01*
X338462Y171638D01*
X338911Y170554D01*
X339624Y169624D01*
X340554Y168911D01*
X341638Y168462D01*
X342800Y168309D01*
X343962Y168462D01*
X345046Y168911D01*
X345976Y169624D01*
X346690Y170554D01*
X347138Y171638D01*
X347291Y172800D01*
X347138Y173962D01*
X346690Y175046D01*
X345976Y175976D01*
X345046Y176690D01*
X343962Y177138D01*
X342800Y177291D01*
D02*
G37*
G36*
X332800D02*
X331638Y177138D01*
X330554Y176690D01*
X329624Y175976D01*
X328910Y175046D01*
X328462Y173962D01*
X328309Y172800D01*
X328462Y171638D01*
X328910Y170554D01*
X329624Y169624D01*
X330554Y168911D01*
X331638Y168462D01*
X332800Y168309D01*
X333962Y168462D01*
X335046Y168911D01*
X335976Y169624D01*
X336689Y170554D01*
X337138Y171638D01*
X337291Y172800D01*
X337138Y173962D01*
X336689Y175046D01*
X335976Y175976D01*
X335046Y176690D01*
X333962Y177138D01*
X332800Y177291D01*
D02*
G37*
G36*
X412800Y167291D02*
X411638Y167138D01*
X410554Y166690D01*
X409624Y165976D01*
X408911Y165046D01*
X408462Y163962D01*
X408309Y162800D01*
X408462Y161638D01*
X408911Y160554D01*
X409624Y159624D01*
X410554Y158911D01*
X411638Y158462D01*
X412800Y158309D01*
X413962Y158462D01*
X415046Y158911D01*
X415976Y159624D01*
X416689Y160554D01*
X417138Y161638D01*
X417291Y162800D01*
X417138Y163962D01*
X416689Y165046D01*
X415976Y165976D01*
X415046Y166690D01*
X413962Y167138D01*
X412800Y167291D01*
D02*
G37*
G36*
X402800D02*
X401638Y167138D01*
X400554Y166690D01*
X399624Y165976D01*
X398910Y165046D01*
X398462Y163962D01*
X398309Y162800D01*
X398462Y161638D01*
X398910Y160554D01*
X399624Y159624D01*
X400554Y158911D01*
X401638Y158462D01*
X402800Y158309D01*
X403962Y158462D01*
X405046Y158911D01*
X405976Y159624D01*
X406690Y160554D01*
X407138Y161638D01*
X407291Y162800D01*
X407138Y163962D01*
X406690Y165046D01*
X405976Y165976D01*
X405046Y166690D01*
X403962Y167138D01*
X402800Y167291D01*
D02*
G37*
G36*
X342800D02*
X341638Y167138D01*
X340554Y166690D01*
X339624Y165976D01*
X338911Y165046D01*
X338462Y163962D01*
X338309Y162800D01*
X338462Y161638D01*
X338911Y160554D01*
X339624Y159624D01*
X340554Y158911D01*
X341638Y158462D01*
X342800Y158309D01*
X343962Y158462D01*
X345046Y158911D01*
X345976Y159624D01*
X346690Y160554D01*
X347138Y161638D01*
X347291Y162800D01*
X347138Y163962D01*
X346690Y165046D01*
X345976Y165976D01*
X345046Y166690D01*
X343962Y167138D01*
X342800Y167291D01*
D02*
G37*
G36*
X332800D02*
X331638Y167138D01*
X330554Y166690D01*
X329624Y165976D01*
X328910Y165046D01*
X328462Y163962D01*
X328309Y162800D01*
X328462Y161638D01*
X328910Y160554D01*
X329624Y159624D01*
X330554Y158911D01*
X331638Y158462D01*
X332800Y158309D01*
X333962Y158462D01*
X335046Y158911D01*
X335976Y159624D01*
X336689Y160554D01*
X337138Y161638D01*
X337291Y162800D01*
X337138Y163962D01*
X336689Y165046D01*
X335976Y165976D01*
X335046Y166690D01*
X333962Y167138D01*
X332800Y167291D01*
D02*
G37*
G36*
X412800Y157291D02*
X411638Y157138D01*
X410554Y156690D01*
X409624Y155976D01*
X408911Y155046D01*
X408462Y153962D01*
X408309Y152800D01*
X408462Y151638D01*
X408911Y150554D01*
X409624Y149624D01*
X410554Y148910D01*
X411638Y148462D01*
X412800Y148309D01*
X413962Y148462D01*
X415046Y148910D01*
X415976Y149624D01*
X416689Y150554D01*
X417138Y151638D01*
X417291Y152800D01*
X417138Y153962D01*
X416689Y155046D01*
X415976Y155976D01*
X415046Y156690D01*
X413962Y157138D01*
X412800Y157291D01*
D02*
G37*
G36*
X402800D02*
X401638Y157138D01*
X400554Y156690D01*
X399624Y155976D01*
X398910Y155046D01*
X398462Y153962D01*
X398309Y152800D01*
X398462Y151638D01*
X398910Y150554D01*
X399624Y149624D01*
X400554Y148910D01*
X401638Y148462D01*
X402800Y148309D01*
X403962Y148462D01*
X405046Y148910D01*
X405976Y149624D01*
X406690Y150554D01*
X407138Y151638D01*
X407291Y152800D01*
X407138Y153962D01*
X406690Y155046D01*
X405976Y155976D01*
X405046Y156690D01*
X403962Y157138D01*
X402800Y157291D01*
D02*
G37*
G36*
X342800D02*
X341638Y157138D01*
X340554Y156690D01*
X339624Y155976D01*
X338911Y155046D01*
X338462Y153962D01*
X338309Y152800D01*
X338462Y151638D01*
X338911Y150554D01*
X339624Y149624D01*
X340554Y148910D01*
X341638Y148462D01*
X342800Y148309D01*
X343962Y148462D01*
X345046Y148910D01*
X345976Y149624D01*
X346690Y150554D01*
X347138Y151638D01*
X347291Y152800D01*
X347138Y153962D01*
X346690Y155046D01*
X345976Y155976D01*
X345046Y156690D01*
X343962Y157138D01*
X342800Y157291D01*
D02*
G37*
G36*
X332800D02*
X331638Y157138D01*
X330554Y156690D01*
X329624Y155976D01*
X328910Y155046D01*
X328462Y153962D01*
X328309Y152800D01*
X328462Y151638D01*
X328910Y150554D01*
X329624Y149624D01*
X330554Y148910D01*
X331638Y148462D01*
X332800Y148309D01*
X333962Y148462D01*
X335046Y148910D01*
X335976Y149624D01*
X336689Y150554D01*
X337138Y151638D01*
X337291Y152800D01*
X337138Y153962D01*
X336689Y155046D01*
X335976Y155976D01*
X335046Y156690D01*
X333962Y157138D01*
X332800Y157291D01*
D02*
G37*
G36*
X412800Y147291D02*
X411638Y147138D01*
X410554Y146689D01*
X409624Y145976D01*
X408911Y145046D01*
X408462Y143962D01*
X408309Y142800D01*
X408462Y141638D01*
X408911Y140554D01*
X409624Y139624D01*
X410554Y138910D01*
X411638Y138462D01*
X412800Y138309D01*
X413962Y138462D01*
X415046Y138910D01*
X415976Y139624D01*
X416689Y140554D01*
X417138Y141638D01*
X417291Y142800D01*
X417138Y143962D01*
X416689Y145046D01*
X415976Y145976D01*
X415046Y146689D01*
X413962Y147138D01*
X412800Y147291D01*
D02*
G37*
G36*
X402800D02*
X401638Y147138D01*
X400554Y146689D01*
X399624Y145976D01*
X398910Y145046D01*
X398462Y143962D01*
X398309Y142800D01*
X398462Y141638D01*
X398910Y140554D01*
X399624Y139624D01*
X400554Y138910D01*
X401638Y138462D01*
X402800Y138309D01*
X403962Y138462D01*
X405046Y138910D01*
X405976Y139624D01*
X406690Y140554D01*
X407138Y141638D01*
X407291Y142800D01*
X407138Y143962D01*
X406690Y145046D01*
X405976Y145976D01*
X405046Y146689D01*
X403962Y147138D01*
X402800Y147291D01*
D02*
G37*
G36*
X342800D02*
X341638Y147138D01*
X340554Y146689D01*
X339624Y145976D01*
X338911Y145046D01*
X338462Y143962D01*
X338309Y142800D01*
X338462Y141638D01*
X338911Y140554D01*
X339624Y139624D01*
X340554Y138910D01*
X341638Y138462D01*
X342800Y138309D01*
X343962Y138462D01*
X345046Y138910D01*
X345976Y139624D01*
X346690Y140554D01*
X347138Y141638D01*
X347291Y142800D01*
X347138Y143962D01*
X346690Y145046D01*
X345976Y145976D01*
X345046Y146689D01*
X343962Y147138D01*
X342800Y147291D01*
D02*
G37*
G36*
X332800D02*
X331638Y147138D01*
X330554Y146689D01*
X329624Y145976D01*
X328910Y145046D01*
X328462Y143962D01*
X328309Y142800D01*
X328462Y141638D01*
X328910Y140554D01*
X329624Y139624D01*
X330554Y138910D01*
X331638Y138462D01*
X332800Y138309D01*
X333962Y138462D01*
X335046Y138910D01*
X335976Y139624D01*
X336689Y140554D01*
X337138Y141638D01*
X337291Y142800D01*
X337138Y143962D01*
X336689Y145046D01*
X335976Y145976D01*
X335046Y146689D01*
X333962Y147138D01*
X332800Y147291D01*
D02*
G37*
G36*
X412800Y137291D02*
X411638Y137138D01*
X410554Y136689D01*
X409624Y135976D01*
X408911Y135046D01*
X408462Y133962D01*
X408309Y132800D01*
X408462Y131638D01*
X408911Y130554D01*
X409624Y129624D01*
X410554Y128911D01*
X411638Y128462D01*
X412800Y128309D01*
X413962Y128462D01*
X415046Y128911D01*
X415976Y129624D01*
X416689Y130554D01*
X417138Y131638D01*
X417291Y132800D01*
X417138Y133962D01*
X416689Y135046D01*
X415976Y135976D01*
X415046Y136689D01*
X413962Y137138D01*
X412800Y137291D01*
D02*
G37*
G36*
X402800D02*
X401638Y137138D01*
X400554Y136689D01*
X399624Y135976D01*
X398910Y135046D01*
X398462Y133962D01*
X398309Y132800D01*
X398462Y131638D01*
X398910Y130554D01*
X399624Y129624D01*
X400554Y128911D01*
X401638Y128462D01*
X402800Y128309D01*
X403962Y128462D01*
X405046Y128911D01*
X405976Y129624D01*
X406690Y130554D01*
X407138Y131638D01*
X407291Y132800D01*
X407138Y133962D01*
X406690Y135046D01*
X405976Y135976D01*
X405046Y136689D01*
X403962Y137138D01*
X402800Y137291D01*
D02*
G37*
G36*
X342800D02*
X341638Y137138D01*
X340554Y136689D01*
X339624Y135976D01*
X338911Y135046D01*
X338462Y133962D01*
X338309Y132800D01*
X338462Y131638D01*
X338911Y130554D01*
X339624Y129624D01*
X340554Y128911D01*
X341638Y128462D01*
X342800Y128309D01*
X343962Y128462D01*
X345046Y128911D01*
X345976Y129624D01*
X346690Y130554D01*
X347138Y131638D01*
X347291Y132800D01*
X347138Y133962D01*
X346690Y135046D01*
X345976Y135976D01*
X345046Y136689D01*
X343962Y137138D01*
X342800Y137291D01*
D02*
G37*
G36*
X332800D02*
X331638Y137138D01*
X330554Y136689D01*
X329624Y135976D01*
X328910Y135046D01*
X328462Y133962D01*
X328309Y132800D01*
X328462Y131638D01*
X328910Y130554D01*
X329624Y129624D01*
X330554Y128911D01*
X331638Y128462D01*
X332800Y128309D01*
X333962Y128462D01*
X335046Y128911D01*
X335976Y129624D01*
X336689Y130554D01*
X337138Y131638D01*
X337291Y132800D01*
X337138Y133962D01*
X336689Y135046D01*
X335976Y135976D01*
X335046Y136689D01*
X333962Y137138D01*
X332800Y137291D01*
D02*
G37*
G36*
X412800Y127291D02*
X411638Y127138D01*
X410554Y126690D01*
X409624Y125976D01*
X408911Y125046D01*
X408462Y123962D01*
X408309Y122800D01*
X408462Y121638D01*
X408911Y120554D01*
X409624Y119624D01*
X410554Y118911D01*
X411638Y118462D01*
X412800Y118309D01*
X413962Y118462D01*
X415046Y118911D01*
X415976Y119624D01*
X416689Y120554D01*
X417138Y121638D01*
X417291Y122800D01*
X417138Y123962D01*
X416689Y125046D01*
X415976Y125976D01*
X415046Y126690D01*
X413962Y127138D01*
X412800Y127291D01*
D02*
G37*
G36*
X402800D02*
X401638Y127138D01*
X400554Y126690D01*
X399624Y125976D01*
X398910Y125046D01*
X398462Y123962D01*
X398309Y122800D01*
X398462Y121638D01*
X398910Y120554D01*
X399624Y119624D01*
X400554Y118911D01*
X401638Y118462D01*
X402800Y118309D01*
X403962Y118462D01*
X405046Y118911D01*
X405976Y119624D01*
X406690Y120554D01*
X407138Y121638D01*
X407291Y122800D01*
X407138Y123962D01*
X406690Y125046D01*
X405976Y125976D01*
X405046Y126690D01*
X403962Y127138D01*
X402800Y127291D01*
D02*
G37*
G36*
X342800D02*
X341638Y127138D01*
X340554Y126690D01*
X339624Y125976D01*
X338911Y125046D01*
X338462Y123962D01*
X338309Y122800D01*
X338462Y121638D01*
X338911Y120554D01*
X339624Y119624D01*
X340554Y118911D01*
X341638Y118462D01*
X342800Y118309D01*
X343962Y118462D01*
X345046Y118911D01*
X345976Y119624D01*
X346690Y120554D01*
X347138Y121638D01*
X347291Y122800D01*
X347138Y123962D01*
X346690Y125046D01*
X345976Y125976D01*
X345046Y126690D01*
X343962Y127138D01*
X342800Y127291D01*
D02*
G37*
G36*
X332800D02*
X331638Y127138D01*
X330554Y126690D01*
X329624Y125976D01*
X328910Y125046D01*
X328462Y123962D01*
X328309Y122800D01*
X328462Y121638D01*
X328910Y120554D01*
X329624Y119624D01*
X330554Y118911D01*
X331638Y118462D01*
X332800Y118309D01*
X333962Y118462D01*
X335046Y118911D01*
X335976Y119624D01*
X336689Y120554D01*
X337138Y121638D01*
X337291Y122800D01*
X337138Y123962D01*
X336689Y125046D01*
X335976Y125976D01*
X335046Y126690D01*
X333962Y127138D01*
X332800Y127291D01*
D02*
G37*
G36*
X412800Y117291D02*
X411638Y117138D01*
X410554Y116690D01*
X409624Y115976D01*
X408911Y115046D01*
X408462Y113962D01*
X408309Y112800D01*
X408462Y111638D01*
X408911Y110554D01*
X409624Y109624D01*
X410554Y108911D01*
X411638Y108462D01*
X412800Y108309D01*
X413962Y108462D01*
X415046Y108911D01*
X415976Y109624D01*
X416689Y110554D01*
X417138Y111638D01*
X417291Y112800D01*
X417138Y113962D01*
X416689Y115046D01*
X415976Y115976D01*
X415046Y116690D01*
X413962Y117138D01*
X412800Y117291D01*
D02*
G37*
G36*
X342800D02*
X341638Y117138D01*
X340554Y116690D01*
X339624Y115976D01*
X338911Y115046D01*
X338462Y113962D01*
X338309Y112800D01*
X338462Y111638D01*
X338911Y110554D01*
X339624Y109624D01*
X340554Y108911D01*
X341638Y108462D01*
X342800Y108309D01*
X343962Y108462D01*
X345046Y108911D01*
X345976Y109624D01*
X346690Y110554D01*
X347138Y111638D01*
X347291Y112800D01*
X347138Y113962D01*
X346690Y115046D01*
X345976Y115976D01*
X345046Y116690D01*
X343962Y117138D01*
X342800Y117291D01*
D02*
G37*
G36*
X332800D02*
X331638Y117138D01*
X330554Y116690D01*
X329624Y115976D01*
X328910Y115046D01*
X328462Y113962D01*
X328309Y112800D01*
X328462Y111638D01*
X328910Y110554D01*
X329624Y109624D01*
X330554Y108911D01*
X331638Y108462D01*
X332800Y108309D01*
X333962Y108462D01*
X335046Y108911D01*
X335976Y109624D01*
X336689Y110554D01*
X337138Y111638D01*
X337291Y112800D01*
X337138Y113962D01*
X336689Y115046D01*
X335976Y115976D01*
X335046Y116690D01*
X333962Y117138D01*
X332800Y117291D01*
D02*
G37*
G36*
X412800Y107291D02*
X411638Y107138D01*
X410554Y106690D01*
X409624Y105976D01*
X408911Y105046D01*
X408462Y103962D01*
X408309Y102800D01*
X408462Y101638D01*
X408911Y100554D01*
X409624Y99624D01*
X410554Y98910D01*
X411638Y98462D01*
X412800Y98309D01*
X413962Y98462D01*
X415046Y98910D01*
X415976Y99624D01*
X416689Y100554D01*
X417138Y101638D01*
X417291Y102800D01*
X417138Y103962D01*
X416689Y105046D01*
X415976Y105976D01*
X415046Y106690D01*
X413962Y107138D01*
X412800Y107291D01*
D02*
G37*
G36*
X195500Y97900D02*
X192079D01*
X192149Y97368D01*
X192547Y96407D01*
X193181Y95581D01*
X194007Y94947D01*
X194968Y94549D01*
X195500Y94479D01*
Y97900D01*
D02*
G37*
G36*
X199921D02*
X196500D01*
Y94479D01*
X197032Y94549D01*
X197993Y94947D01*
X198819Y95581D01*
X199453Y96407D01*
X199851Y97368D01*
X199921Y97900D01*
D02*
G37*
G36*
X412800Y97291D02*
X411638Y97138D01*
X410554Y96689D01*
X409624Y95976D01*
X408911Y95046D01*
X408462Y93962D01*
X408309Y92800D01*
X408462Y91638D01*
X408911Y90554D01*
X409624Y89624D01*
X410554Y88911D01*
X411638Y88462D01*
X412800Y88309D01*
X413962Y88462D01*
X415046Y88911D01*
X415976Y89624D01*
X416689Y90554D01*
X417138Y91638D01*
X417291Y92800D01*
X417138Y93962D01*
X416689Y95046D01*
X415976Y95976D01*
X415046Y96689D01*
X413962Y97138D01*
X412800Y97291D01*
D02*
G37*
G36*
X402800D02*
X401638Y97138D01*
X400554Y96689D01*
X399624Y95976D01*
X398910Y95046D01*
X398462Y93962D01*
X398309Y92800D01*
X398462Y91638D01*
X398910Y90554D01*
X399624Y89624D01*
X400554Y88911D01*
X401638Y88462D01*
X402800Y88309D01*
X403962Y88462D01*
X405046Y88911D01*
X405976Y89624D01*
X406690Y90554D01*
X407138Y91638D01*
X407291Y92800D01*
X407138Y93962D01*
X406690Y95046D01*
X405976Y95976D01*
X405046Y96689D01*
X403962Y97138D01*
X402800Y97291D01*
D02*
G37*
G36*
X196500Y89169D02*
Y85700D01*
X199969D01*
X199897Y86244D01*
X199494Y87217D01*
X198853Y88053D01*
X198017Y88694D01*
X197044Y89097D01*
X196500Y89169D01*
D02*
G37*
G36*
X195500Y89169D02*
X194956Y89097D01*
X193983Y88694D01*
X193147Y88053D01*
X192506Y87217D01*
X192103Y86244D01*
X192031Y85700D01*
X195500D01*
Y89169D01*
D02*
G37*
G36*
Y84700D02*
X192031D01*
X192103Y84156D01*
X192506Y83183D01*
X193147Y82347D01*
X193983Y81706D01*
X194956Y81303D01*
X195500Y81231D01*
Y84700D01*
D02*
G37*
G36*
X199969D02*
X196500D01*
Y81231D01*
X197044Y81303D01*
X198017Y81706D01*
X198853Y82347D01*
X199494Y83183D01*
X199897Y84156D01*
X199969Y84700D01*
D02*
G37*
G36*
X266000Y89739D02*
X264825Y89584D01*
X263731Y89131D01*
X262791Y88409D01*
X262069Y87469D01*
X261616Y86375D01*
X261461Y85200D01*
X261616Y84025D01*
X262069Y82931D01*
X262791Y81991D01*
X263731Y81269D01*
X264825Y80816D01*
X266000Y80661D01*
X267175Y80816D01*
X268269Y81269D01*
X269209Y81991D01*
X269931Y82931D01*
X270384Y84025D01*
X270539Y85200D01*
X270384Y86375D01*
X269931Y87469D01*
X269209Y88409D01*
X268269Y89131D01*
X267175Y89584D01*
X266000Y89739D01*
D02*
G37*
G36*
X256000D02*
X254825Y89584D01*
X253731Y89131D01*
X252791Y88409D01*
X252069Y87469D01*
X251616Y86375D01*
X251461Y85200D01*
X251616Y84025D01*
X252069Y82931D01*
X252791Y81991D01*
X253731Y81269D01*
X254825Y80816D01*
X256000Y80661D01*
X257175Y80816D01*
X258269Y81269D01*
X259209Y81991D01*
X259931Y82931D01*
X260384Y84025D01*
X260539Y85200D01*
X260384Y86375D01*
X259931Y87469D01*
X259209Y88409D01*
X258269Y89131D01*
X257175Y89584D01*
X256000Y89739D01*
D02*
G37*
G36*
X246000D02*
X244825Y89584D01*
X243731Y89131D01*
X242791Y88409D01*
X242069Y87469D01*
X241616Y86375D01*
X241461Y85200D01*
X241616Y84025D01*
X242069Y82931D01*
X242791Y81991D01*
X243731Y81269D01*
X244825Y80816D01*
X246000Y80661D01*
X247175Y80816D01*
X248269Y81269D01*
X249209Y81991D01*
X249931Y82931D01*
X250384Y84025D01*
X250539Y85200D01*
X250384Y86375D01*
X249931Y87469D01*
X249209Y88409D01*
X248269Y89131D01*
X247175Y89584D01*
X246000Y89739D01*
D02*
G37*
G36*
X236000D02*
X234825Y89584D01*
X233731Y89131D01*
X232791Y88409D01*
X232069Y87469D01*
X231616Y86375D01*
X231461Y85200D01*
X231616Y84025D01*
X232069Y82931D01*
X232791Y81991D01*
X233731Y81269D01*
X234825Y80816D01*
X236000Y80661D01*
X237175Y80816D01*
X238269Y81269D01*
X239209Y81991D01*
X239931Y82931D01*
X240384Y84025D01*
X240539Y85200D01*
X240384Y86375D01*
X239931Y87469D01*
X239209Y88409D01*
X238269Y89131D01*
X237175Y89584D01*
X236000Y89739D01*
D02*
G37*
G36*
X226000D02*
X224825Y89584D01*
X223731Y89131D01*
X222791Y88409D01*
X222069Y87469D01*
X221616Y86375D01*
X221461Y85200D01*
X221616Y84025D01*
X222069Y82931D01*
X222791Y81991D01*
X223731Y81269D01*
X224825Y80816D01*
X226000Y80661D01*
X227175Y80816D01*
X228269Y81269D01*
X229209Y81991D01*
X229931Y82931D01*
X230384Y84025D01*
X230539Y85200D01*
X230384Y86375D01*
X229931Y87469D01*
X229209Y88409D01*
X228269Y89131D01*
X227175Y89584D01*
X226000Y89739D01*
D02*
G37*
G36*
X216000D02*
X214825Y89584D01*
X213731Y89131D01*
X212791Y88409D01*
X212069Y87469D01*
X211616Y86375D01*
X211461Y85200D01*
X211616Y84025D01*
X212069Y82931D01*
X212791Y81991D01*
X213731Y81269D01*
X214825Y80816D01*
X216000Y80661D01*
X217175Y80816D01*
X218269Y81269D01*
X219209Y81991D01*
X219931Y82931D01*
X220384Y84025D01*
X220539Y85200D01*
X220384Y86375D01*
X219931Y87469D01*
X219209Y88409D01*
X218269Y89131D01*
X217175Y89584D01*
X216000Y89739D01*
D02*
G37*
G36*
X186000D02*
X184825Y89584D01*
X183731Y89131D01*
X182791Y88409D01*
X182069Y87469D01*
X181616Y86375D01*
X181461Y85200D01*
X181616Y84025D01*
X182069Y82931D01*
X182791Y81991D01*
X183731Y81269D01*
X184825Y80816D01*
X186000Y80661D01*
X187175Y80816D01*
X188269Y81269D01*
X189209Y81991D01*
X189931Y82931D01*
X190384Y84025D01*
X190539Y85200D01*
X190384Y86375D01*
X189931Y87469D01*
X189209Y88409D01*
X188269Y89131D01*
X187175Y89584D01*
X186000Y89739D01*
D02*
G37*
G36*
X176000D02*
X174825Y89584D01*
X173731Y89131D01*
X172791Y88409D01*
X172069Y87469D01*
X171616Y86375D01*
X171461Y85200D01*
X171616Y84025D01*
X172069Y82931D01*
X172791Y81991D01*
X173731Y81269D01*
X174825Y80816D01*
X176000Y80661D01*
X177175Y80816D01*
X178269Y81269D01*
X179209Y81991D01*
X179931Y82931D01*
X180384Y84025D01*
X180539Y85200D01*
X180384Y86375D01*
X179931Y87469D01*
X179209Y88409D01*
X178269Y89131D01*
X177175Y89584D01*
X176000Y89739D01*
D02*
G37*
G36*
X148400D02*
X147225Y89584D01*
X146131Y89131D01*
X145191Y88409D01*
X144469Y87469D01*
X144016Y86375D01*
X143861Y85200D01*
X144016Y84025D01*
X144469Y82931D01*
X145191Y81991D01*
X146131Y81269D01*
X147225Y80816D01*
X148400Y80661D01*
X149575Y80816D01*
X150669Y81269D01*
X151609Y81991D01*
X152331Y82931D01*
X152784Y84025D01*
X152939Y85200D01*
X152784Y86375D01*
X152331Y87469D01*
X151609Y88409D01*
X150669Y89131D01*
X149575Y89584D01*
X148400Y89739D01*
D02*
G37*
G36*
X412800Y87291D02*
X411638Y87138D01*
X410554Y86690D01*
X409624Y85976D01*
X408911Y85046D01*
X408462Y83962D01*
X408309Y82800D01*
X408462Y81638D01*
X408911Y80554D01*
X409624Y79624D01*
X410554Y78910D01*
X411638Y78462D01*
X412800Y78309D01*
X413962Y78462D01*
X415046Y78910D01*
X415976Y79624D01*
X416689Y80554D01*
X417138Y81638D01*
X417291Y82800D01*
X417138Y83962D01*
X416689Y85046D01*
X415976Y85976D01*
X415046Y86690D01*
X413962Y87138D01*
X412800Y87291D01*
D02*
G37*
G36*
X402800D02*
X401638Y87138D01*
X400554Y86690D01*
X399624Y85976D01*
X398910Y85046D01*
X398462Y83962D01*
X398309Y82800D01*
X398462Y81638D01*
X398910Y80554D01*
X399624Y79624D01*
X400554Y78910D01*
X401638Y78462D01*
X402800Y78309D01*
X403962Y78462D01*
X405046Y78910D01*
X405976Y79624D01*
X406690Y80554D01*
X407138Y81638D01*
X407291Y82800D01*
X407138Y83962D01*
X406690Y85046D01*
X405976Y85976D01*
X405046Y86690D01*
X403962Y87138D01*
X402800Y87291D01*
D02*
G37*
G36*
X413300Y76721D02*
Y73300D01*
X416721D01*
X416651Y73832D01*
X416253Y74793D01*
X415619Y75619D01*
X414793Y76253D01*
X413832Y76651D01*
X413300Y76721D01*
D02*
G37*
G36*
X403300D02*
Y73300D01*
X406721D01*
X406651Y73832D01*
X406253Y74793D01*
X405619Y75619D01*
X404793Y76253D01*
X403832Y76651D01*
X403300Y76721D01*
D02*
G37*
G36*
X412300Y76721D02*
X411768Y76651D01*
X410807Y76253D01*
X409981Y75619D01*
X409347Y74793D01*
X408949Y73832D01*
X408879Y73300D01*
X412300D01*
Y76721D01*
D02*
G37*
G36*
X402300D02*
X401768Y76651D01*
X400807Y76253D01*
X399981Y75619D01*
X399347Y74793D01*
X398949Y73832D01*
X398879Y73300D01*
X402300D01*
Y76721D01*
D02*
G37*
G36*
X148400Y79739D02*
X147225Y79584D01*
X146131Y79131D01*
X145191Y78409D01*
X144469Y77469D01*
X144016Y76375D01*
X143861Y75200D01*
X144016Y74025D01*
X144469Y72931D01*
X145191Y71991D01*
X146131Y71269D01*
X147225Y70816D01*
X148400Y70661D01*
X149575Y70816D01*
X150669Y71269D01*
X151609Y71991D01*
X152331Y72931D01*
X152784Y74025D01*
X152939Y75200D01*
X152784Y76375D01*
X152331Y77469D01*
X151609Y78409D01*
X150669Y79131D01*
X149575Y79584D01*
X148400Y79739D01*
D02*
G37*
G36*
X412300Y72300D02*
X408879D01*
X408949Y71768D01*
X409347Y70807D01*
X409981Y69981D01*
X410807Y69347D01*
X411768Y68949D01*
X412300Y68879D01*
Y72300D01*
D02*
G37*
G36*
X402300D02*
X398879D01*
X398949Y71768D01*
X399347Y70807D01*
X399981Y69981D01*
X400807Y69347D01*
X401768Y68949D01*
X402300Y68879D01*
Y72300D01*
D02*
G37*
G36*
X416721D02*
X413300D01*
Y68879D01*
X413832Y68949D01*
X414793Y69347D01*
X415619Y69981D01*
X416253Y70807D01*
X416651Y71768D01*
X416721Y72300D01*
D02*
G37*
G36*
X406721D02*
X403300D01*
Y68879D01*
X403832Y68949D01*
X404793Y69347D01*
X405619Y69981D01*
X406253Y70807D01*
X406651Y71768D01*
X406721Y72300D01*
D02*
G37*
G36*
X342800Y77291D02*
X341638Y77138D01*
X340554Y76689D01*
X339624Y75976D01*
X338911Y75046D01*
X338462Y73962D01*
X338309Y72800D01*
X338462Y71638D01*
X338911Y70554D01*
X339624Y69624D01*
X340554Y68910D01*
X341638Y68462D01*
X342800Y68309D01*
X343962Y68462D01*
X345046Y68910D01*
X345976Y69624D01*
X346690Y70554D01*
X347138Y71638D01*
X347291Y72800D01*
X347138Y73962D01*
X346690Y75046D01*
X345976Y75976D01*
X345046Y76689D01*
X343962Y77138D01*
X342800Y77291D01*
D02*
G37*
G36*
X332800D02*
X331638Y77138D01*
X330554Y76689D01*
X329624Y75976D01*
X328910Y75046D01*
X328462Y73962D01*
X328309Y72800D01*
X328462Y71638D01*
X328910Y70554D01*
X329624Y69624D01*
X330554Y68910D01*
X331638Y68462D01*
X332800Y68309D01*
X333962Y68462D01*
X335046Y68910D01*
X335976Y69624D01*
X336689Y70554D01*
X337138Y71638D01*
X337291Y72800D01*
X337138Y73962D01*
X336689Y75046D01*
X335976Y75976D01*
X335046Y76689D01*
X333962Y77138D01*
X332800Y77291D01*
D02*
G37*
G36*
X412800Y67291D02*
X411638Y67138D01*
X410554Y66689D01*
X409624Y65976D01*
X408911Y65046D01*
X408462Y63962D01*
X408309Y62800D01*
X408462Y61638D01*
X408911Y60554D01*
X409624Y59624D01*
X410554Y58911D01*
X411638Y58462D01*
X412800Y58309D01*
X413962Y58462D01*
X415046Y58911D01*
X415976Y59624D01*
X416689Y60554D01*
X417138Y61638D01*
X417291Y62800D01*
X417138Y63962D01*
X416689Y65046D01*
X415976Y65976D01*
X415046Y66689D01*
X413962Y67138D01*
X412800Y67291D01*
D02*
G37*
G36*
X402800D02*
X401638Y67138D01*
X400554Y66689D01*
X399624Y65976D01*
X398910Y65046D01*
X398462Y63962D01*
X398309Y62800D01*
X398462Y61638D01*
X398910Y60554D01*
X399624Y59624D01*
X400554Y58911D01*
X401638Y58462D01*
X402800Y58309D01*
X403962Y58462D01*
X405046Y58911D01*
X405976Y59624D01*
X406690Y60554D01*
X407138Y61638D01*
X407291Y62800D01*
X407138Y63962D01*
X406690Y65046D01*
X405976Y65976D01*
X405046Y66689D01*
X403962Y67138D01*
X402800Y67291D01*
D02*
G37*
G36*
X342800D02*
X341638Y67138D01*
X340554Y66689D01*
X339624Y65976D01*
X338911Y65046D01*
X338462Y63962D01*
X338309Y62800D01*
X338462Y61638D01*
X338911Y60554D01*
X339624Y59624D01*
X340554Y58911D01*
X341638Y58462D01*
X342800Y58309D01*
X343962Y58462D01*
X345046Y58911D01*
X345976Y59624D01*
X346690Y60554D01*
X347138Y61638D01*
X347291Y62800D01*
X347138Y63962D01*
X346690Y65046D01*
X345976Y65976D01*
X345046Y66689D01*
X343962Y67138D01*
X342800Y67291D01*
D02*
G37*
G36*
X332800D02*
X331638Y67138D01*
X330554Y66689D01*
X329624Y65976D01*
X328910Y65046D01*
X328462Y63962D01*
X328309Y62800D01*
X328462Y61638D01*
X328910Y60554D01*
X329624Y59624D01*
X330554Y58911D01*
X331638Y58462D01*
X332800Y58309D01*
X333962Y58462D01*
X335046Y58911D01*
X335976Y59624D01*
X336689Y60554D01*
X337138Y61638D01*
X337291Y62800D01*
X337138Y63962D01*
X336689Y65046D01*
X335976Y65976D01*
X335046Y66689D01*
X333962Y67138D01*
X332800Y67291D01*
D02*
G37*
G36*
X258400Y64834D02*
X257356Y64697D01*
X256383Y64294D01*
X255547Y63653D01*
X254906Y62817D01*
X254503Y61844D01*
X254365Y60800D01*
X254503Y59756D01*
X254906Y58783D01*
X255547Y57947D01*
X256383Y57306D01*
X257356Y56903D01*
X258400Y56766D01*
X259444Y56903D01*
X260417Y57306D01*
X261253Y57947D01*
X261894Y58783D01*
X262297Y59756D01*
X262435Y60800D01*
X262297Y61844D01*
X261894Y62817D01*
X261253Y63653D01*
X260417Y64294D01*
X259444Y64697D01*
X258400Y64834D01*
D02*
G37*
G36*
X218400D02*
X217356Y64697D01*
X216383Y64294D01*
X215547Y63653D01*
X214906Y62817D01*
X214503Y61844D01*
X214366Y60800D01*
X214503Y59756D01*
X214906Y58783D01*
X215547Y57947D01*
X216383Y57306D01*
X217356Y56903D01*
X218400Y56766D01*
X219444Y56903D01*
X220417Y57306D01*
X221253Y57947D01*
X221894Y58783D01*
X222297Y59756D01*
X222434Y60800D01*
X222297Y61844D01*
X221894Y62817D01*
X221253Y63653D01*
X220417Y64294D01*
X219444Y64697D01*
X218400Y64834D01*
D02*
G37*
G36*
X206000Y89739D02*
X204825Y89584D01*
X203731Y89131D01*
X202791Y88409D01*
X202069Y87469D01*
X201616Y86375D01*
X201461Y85200D01*
X201616Y84025D01*
X202069Y82931D01*
X202791Y81991D01*
X203226Y81656D01*
Y63714D01*
X203147Y63653D01*
X202506Y62817D01*
X202103Y61844D01*
X201965Y60800D01*
X202103Y59756D01*
X202506Y58783D01*
X203147Y57947D01*
X203983Y57306D01*
X204956Y56903D01*
X206000Y56766D01*
X207044Y56903D01*
X208017Y57306D01*
X208853Y57947D01*
X209494Y58783D01*
X209897Y59756D01*
X210034Y60800D01*
X209897Y61844D01*
X209494Y62817D01*
X208853Y63653D01*
X208774Y63714D01*
Y81656D01*
X209209Y81991D01*
X209931Y82931D01*
X210384Y84025D01*
X210539Y85200D01*
X210384Y86375D01*
X209931Y87469D01*
X209209Y88409D01*
X208269Y89131D01*
X207175Y89584D01*
X206000Y89739D01*
D02*
G37*
G36*
X166000Y64834D02*
X164956Y64697D01*
X163983Y64294D01*
X163147Y63653D01*
X162506Y62817D01*
X162103Y61844D01*
X161966Y60800D01*
X162103Y59756D01*
X162506Y58783D01*
X163147Y57947D01*
X163983Y57306D01*
X164956Y56903D01*
X166000Y56766D01*
X167044Y56903D01*
X168017Y57306D01*
X168853Y57947D01*
X169494Y58783D01*
X169897Y59756D01*
X170035Y60800D01*
X169897Y61844D01*
X169494Y62817D01*
X168853Y63653D01*
X168017Y64294D01*
X167044Y64697D01*
X166000Y64834D01*
D02*
G37*
G36*
X343300Y56721D02*
Y53300D01*
X346721D01*
X346651Y53832D01*
X346253Y54793D01*
X345619Y55619D01*
X344793Y56253D01*
X343832Y56651D01*
X343300Y56721D01*
D02*
G37*
G36*
X333300D02*
Y53300D01*
X336721D01*
X336651Y53832D01*
X336253Y54793D01*
X335619Y55619D01*
X334793Y56253D01*
X333832Y56651D01*
X333300Y56721D01*
D02*
G37*
G36*
X342300Y56721D02*
X341768Y56651D01*
X340807Y56253D01*
X339981Y55619D01*
X339347Y54793D01*
X338949Y53832D01*
X338879Y53300D01*
X342300D01*
Y56721D01*
D02*
G37*
G36*
X332300D02*
X331768Y56651D01*
X330807Y56253D01*
X329981Y55619D01*
X329347Y54793D01*
X328949Y53832D01*
X328879Y53300D01*
X332300D01*
Y56721D01*
D02*
G37*
G36*
X342300Y52300D02*
X338879D01*
X338949Y51768D01*
X339347Y50807D01*
X339981Y49981D01*
X340807Y49347D01*
X341768Y48949D01*
X342300Y48879D01*
Y52300D01*
D02*
G37*
G36*
X332300D02*
X328879D01*
X328949Y51768D01*
X329347Y50807D01*
X329981Y49981D01*
X330807Y49347D01*
X331768Y48949D01*
X332300Y48879D01*
Y52300D01*
D02*
G37*
G36*
X346721D02*
X343300D01*
Y48879D01*
X343832Y48949D01*
X344793Y49347D01*
X345619Y49981D01*
X346253Y50807D01*
X346651Y51768D01*
X346721Y52300D01*
D02*
G37*
G36*
X336721D02*
X333300D01*
Y48879D01*
X333832Y48949D01*
X334793Y49347D01*
X335619Y49981D01*
X336253Y50807D01*
X336651Y51768D01*
X336721Y52300D01*
D02*
G37*
G36*
X412800Y57291D02*
X411638Y57138D01*
X410554Y56690D01*
X409624Y55976D01*
X408911Y55046D01*
X408462Y53962D01*
X408309Y52800D01*
X408462Y51638D01*
X408911Y50554D01*
X409624Y49624D01*
X410554Y48910D01*
X411638Y48462D01*
X412800Y48309D01*
X413962Y48462D01*
X415046Y48910D01*
X415976Y49624D01*
X416689Y50554D01*
X417138Y51638D01*
X417291Y52800D01*
X417138Y53962D01*
X416689Y55046D01*
X415976Y55976D01*
X415046Y56690D01*
X413962Y57138D01*
X412800Y57291D01*
D02*
G37*
G36*
X402800D02*
X401638Y57138D01*
X400554Y56690D01*
X399624Y55976D01*
X398910Y55046D01*
X398462Y53962D01*
X398309Y52800D01*
X398462Y51638D01*
X398910Y50554D01*
X399624Y49624D01*
X400554Y48910D01*
X401638Y48462D01*
X402800Y48309D01*
X403962Y48462D01*
X405046Y48910D01*
X405976Y49624D01*
X406690Y50554D01*
X407138Y51638D01*
X407291Y52800D01*
X407138Y53962D01*
X406690Y55046D01*
X405976Y55976D01*
X405046Y56690D01*
X403962Y57138D01*
X402800Y57291D01*
D02*
G37*
G36*
X203700Y50721D02*
Y47300D01*
X207121D01*
X207051Y47832D01*
X206653Y48793D01*
X206019Y49619D01*
X205193Y50253D01*
X204232Y50651D01*
X203700Y50721D01*
D02*
G37*
G36*
X202700Y50721D02*
X202168Y50651D01*
X201207Y50253D01*
X200381Y49619D01*
X199747Y48793D01*
X199349Y47832D01*
X199279Y47300D01*
X202700D01*
Y50721D01*
D02*
G37*
G36*
X417253Y47253D02*
X408347D01*
Y38347D01*
X417253D01*
Y47253D01*
D02*
G37*
G36*
X407253D02*
X398347D01*
Y38347D01*
X407253D01*
Y47253D01*
D02*
G37*
G36*
X342800Y47291D02*
X341638Y47138D01*
X340554Y46690D01*
X339624Y45976D01*
X338911Y45046D01*
X338462Y43962D01*
X338309Y42800D01*
X338462Y41638D01*
X338911Y40554D01*
X339624Y39624D01*
X340554Y38910D01*
X341638Y38462D01*
X342800Y38309D01*
X343962Y38462D01*
X345046Y38910D01*
X345976Y39624D01*
X346690Y40554D01*
X347138Y41638D01*
X347291Y42800D01*
X347138Y43962D01*
X346690Y45046D01*
X345976Y45976D01*
X345046Y46690D01*
X343962Y47138D01*
X342800Y47291D01*
D02*
G37*
G36*
X332800D02*
X331638Y47138D01*
X330554Y46690D01*
X329624Y45976D01*
X328910Y45046D01*
X328462Y43962D01*
X328309Y42800D01*
X328462Y41638D01*
X328910Y40554D01*
X329624Y39624D01*
X330554Y38910D01*
X331638Y38462D01*
X332800Y38309D01*
X333962Y38462D01*
X335046Y38910D01*
X335976Y39624D01*
X336689Y40554D01*
X337138Y41638D01*
X337291Y42800D01*
X337138Y43962D01*
X336689Y45046D01*
X335976Y45976D01*
X335046Y46690D01*
X333962Y47138D01*
X332800Y47291D01*
D02*
G37*
G36*
X207121Y46300D02*
X203200D01*
X199279D01*
X199349Y45768D01*
X199747Y44807D01*
X200381Y43981D01*
X201161Y43382D01*
Y40218D01*
X200381Y39619D01*
X199747Y38793D01*
X199349Y37832D01*
X199279Y37300D01*
X203200D01*
X207121D01*
X207051Y37832D01*
X206653Y38793D01*
X206019Y39619D01*
X205239Y40218D01*
Y43382D01*
X206019Y43981D01*
X206653Y44807D01*
X207051Y45768D01*
X207121Y46300D01*
D02*
G37*
G36*
X202700Y36300D02*
X199279D01*
X199349Y35768D01*
X199747Y34807D01*
X200381Y33981D01*
X201207Y33347D01*
X202168Y32949D01*
X202700Y32879D01*
Y36300D01*
D02*
G37*
G36*
X207121D02*
X203700D01*
Y32879D01*
X204232Y32949D01*
X205193Y33347D01*
X206019Y33981D01*
X206653Y34807D01*
X207051Y35768D01*
X207121Y36300D01*
D02*
G37*
G36*
X247653Y51253D02*
X238747D01*
Y42347D01*
X241161D01*
Y40775D01*
X240954Y40690D01*
X240024Y39976D01*
X239311Y39046D01*
X238862Y37962D01*
X238709Y36800D01*
X238862Y35638D01*
X239311Y34554D01*
X240024Y33624D01*
X240954Y32910D01*
X242038Y32462D01*
X243200Y32309D01*
X244362Y32462D01*
X245446Y32910D01*
X246376Y33624D01*
X247090Y34554D01*
X247538Y35638D01*
X247691Y36800D01*
X247538Y37962D01*
X247090Y39046D01*
X246376Y39976D01*
X245446Y40690D01*
X245239Y40775D01*
Y42347D01*
X247653D01*
Y51253D01*
D02*
G37*
G36*
X233200Y51291D02*
X232038Y51138D01*
X230954Y50690D01*
X230024Y49976D01*
X229310Y49046D01*
X228862Y47962D01*
X228709Y46800D01*
X228862Y45638D01*
X229310Y44554D01*
X230024Y43624D01*
X230954Y42911D01*
X231161Y42825D01*
Y40775D01*
X230954Y40690D01*
X230024Y39976D01*
X229310Y39046D01*
X228862Y37962D01*
X228709Y36800D01*
X228862Y35638D01*
X229310Y34554D01*
X230024Y33624D01*
X230954Y32910D01*
X232038Y32462D01*
X233200Y32309D01*
X234362Y32462D01*
X235446Y32910D01*
X236376Y33624D01*
X237089Y34554D01*
X237538Y35638D01*
X237691Y36800D01*
X237538Y37962D01*
X237089Y39046D01*
X236376Y39976D01*
X235446Y40690D01*
X235239Y40775D01*
Y42825D01*
X235446Y42911D01*
X236376Y43624D01*
X237089Y44554D01*
X237538Y45638D01*
X237691Y46800D01*
X237538Y47962D01*
X237089Y49046D01*
X236376Y49976D01*
X235446Y50690D01*
X234362Y51138D01*
X233200Y51291D01*
D02*
G37*
G36*
X223200D02*
X222038Y51138D01*
X220954Y50690D01*
X220024Y49976D01*
X219310Y49046D01*
X218862Y47962D01*
X218709Y46800D01*
X218862Y45638D01*
X219310Y44554D01*
X220024Y43624D01*
X220954Y42911D01*
X221161Y42825D01*
Y40775D01*
X220954Y40690D01*
X220024Y39976D01*
X219310Y39046D01*
X218862Y37962D01*
X218709Y36800D01*
X218862Y35638D01*
X219310Y34554D01*
X220024Y33624D01*
X220954Y32910D01*
X222038Y32462D01*
X223200Y32309D01*
X224362Y32462D01*
X225446Y32910D01*
X226376Y33624D01*
X227090Y34554D01*
X227538Y35638D01*
X227691Y36800D01*
X227538Y37962D01*
X227090Y39046D01*
X226376Y39976D01*
X225446Y40690D01*
X225239Y40775D01*
Y42825D01*
X225446Y42911D01*
X226376Y43624D01*
X227090Y44554D01*
X227538Y45638D01*
X227691Y46800D01*
X227538Y47962D01*
X227090Y49046D01*
X226376Y49976D01*
X225446Y50690D01*
X224362Y51138D01*
X223200Y51291D01*
D02*
G37*
G36*
X213200D02*
X212038Y51138D01*
X210954Y50690D01*
X210024Y49976D01*
X209311Y49046D01*
X208862Y47962D01*
X208709Y46800D01*
X208862Y45638D01*
X209311Y44554D01*
X210024Y43624D01*
X210954Y42911D01*
X211161Y42825D01*
Y40775D01*
X210954Y40690D01*
X210024Y39976D01*
X209311Y39046D01*
X208862Y37962D01*
X208709Y36800D01*
X208862Y35638D01*
X209311Y34554D01*
X210024Y33624D01*
X210954Y32910D01*
X212038Y32462D01*
X213200Y32309D01*
X214362Y32462D01*
X215446Y32910D01*
X216376Y33624D01*
X217090Y34554D01*
X217538Y35638D01*
X217691Y36800D01*
X217538Y37962D01*
X217090Y39046D01*
X216376Y39976D01*
X215446Y40690D01*
X215239Y40775D01*
Y42825D01*
X215446Y42911D01*
X216376Y43624D01*
X217090Y44554D01*
X217538Y45638D01*
X217691Y46800D01*
X217538Y47962D01*
X217090Y49046D01*
X216376Y49976D01*
X215446Y50690D01*
X214362Y51138D01*
X213200Y51291D01*
D02*
G37*
G36*
X193200D02*
X192038Y51138D01*
X190954Y50690D01*
X190024Y49976D01*
X189311Y49046D01*
X188862Y47962D01*
X188709Y46800D01*
X188862Y45638D01*
X189311Y44554D01*
X190024Y43624D01*
X190954Y42911D01*
X191161Y42825D01*
Y40775D01*
X190954Y40690D01*
X190024Y39976D01*
X189311Y39046D01*
X188862Y37962D01*
X188709Y36800D01*
X188862Y35638D01*
X189311Y34554D01*
X190024Y33624D01*
X190954Y32910D01*
X192038Y32462D01*
X193200Y32309D01*
X194362Y32462D01*
X195446Y32910D01*
X196376Y33624D01*
X197090Y34554D01*
X197538Y35638D01*
X197691Y36800D01*
X197538Y37962D01*
X197090Y39046D01*
X196376Y39976D01*
X195446Y40690D01*
X195239Y40775D01*
Y42825D01*
X195446Y42911D01*
X196376Y43624D01*
X197090Y44554D01*
X197538Y45638D01*
X197691Y46800D01*
X197538Y47962D01*
X197090Y49046D01*
X196376Y49976D01*
X195446Y50690D01*
X194362Y51138D01*
X193200Y51291D01*
D02*
G37*
G36*
X183200D02*
X182038Y51138D01*
X180954Y50690D01*
X180024Y49976D01*
X179311Y49046D01*
X178862Y47962D01*
X178709Y46800D01*
X178862Y45638D01*
X179311Y44554D01*
X180024Y43624D01*
X180954Y42911D01*
X181161Y42825D01*
Y40775D01*
X180954Y40690D01*
X180024Y39976D01*
X179311Y39046D01*
X178862Y37962D01*
X178709Y36800D01*
X178862Y35638D01*
X179311Y34554D01*
X180024Y33624D01*
X180954Y32910D01*
X182038Y32462D01*
X183200Y32309D01*
X184362Y32462D01*
X185446Y32910D01*
X186376Y33624D01*
X187090Y34554D01*
X187538Y35638D01*
X187691Y36800D01*
X187538Y37962D01*
X187090Y39046D01*
X186376Y39976D01*
X185446Y40690D01*
X185239Y40775D01*
Y42825D01*
X185446Y42911D01*
X186376Y43624D01*
X187090Y44554D01*
X187538Y45638D01*
X187691Y46800D01*
X187538Y47962D01*
X187090Y49046D01*
X186376Y49976D01*
X185446Y50690D01*
X184362Y51138D01*
X183200Y51291D01*
D02*
G37*
%LPD*%
D10*
X277200Y98400D02*
X286953Y88647D01*
X388647D02*
X402800Y102800D01*
X286953Y88647D02*
X388647D01*
X286000Y98400D02*
X388400D01*
X276000D02*
X277200D01*
X388400D02*
X402800Y112800D01*
X243200Y36800D02*
Y46800D01*
X233200Y36800D02*
Y46800D01*
X223200Y36800D02*
Y46800D01*
X213200Y36800D02*
Y46800D01*
X203200Y36800D02*
Y46800D01*
X193200Y36800D02*
Y46800D01*
X183200Y36800D02*
Y46800D01*
X311200Y106000D02*
X311600Y106400D01*
X173600Y199600D02*
X180000Y206000D01*
X255600D01*
X260400Y201200D01*
X172000D02*
X173600Y199600D01*
X152800Y201200D02*
X172000D01*
X390001Y320198D02*
X391001Y321198D01*
X393000D01*
X394000Y320198D01*
Y316200D01*
X393000Y315200D01*
X391001D01*
X390001Y316200D01*
X388002Y319199D02*
Y315200D01*
Y317199D01*
X387002Y318199D01*
X386003Y319199D01*
X385003D01*
X379005Y315200D02*
X381004D01*
X382004Y316200D01*
Y318199D01*
X381004Y319199D01*
X379005D01*
X378005Y318199D01*
Y317199D01*
X382004D01*
X375006Y319199D02*
X373007D01*
X372007Y318199D01*
Y315200D01*
X375006D01*
X376006Y316200D01*
X375006Y317199D01*
X372007D01*
X369008Y320198D02*
Y319199D01*
X370008D01*
X368008D01*
X369008D01*
Y316200D01*
X368008Y315200D01*
X362010D02*
X364010D01*
X365009Y316200D01*
Y318199D01*
X364010Y319199D01*
X362010D01*
X361011Y318199D01*
Y317199D01*
X365009D01*
X355013Y321198D02*
Y315200D01*
X358012D01*
X359011Y316200D01*
Y318199D01*
X358012Y319199D01*
X355013D01*
X347015Y321198D02*
Y315200D01*
X344016D01*
X343017Y316200D01*
Y317199D01*
Y318199D01*
X344016Y319199D01*
X347015D01*
X341017D02*
Y316200D01*
X340018Y315200D01*
X337018D01*
Y314200D01*
X338018Y313201D01*
X339018D01*
X337018Y315200D02*
Y319199D01*
X335019D02*
X334019D01*
Y318199D01*
X335019D01*
Y319199D01*
Y316200D02*
X334019D01*
Y315200D01*
X335019D01*
Y316200D01*
X324023Y321198D02*
X320024D01*
Y320198D01*
X324023Y316200D01*
Y315200D01*
X320024D01*
X317025Y319199D02*
X315026D01*
X314026Y318199D01*
Y315200D01*
X317025D01*
X318025Y316200D01*
X317025Y317199D01*
X314026D01*
X308028Y319199D02*
X311027D01*
X312027Y318199D01*
Y316200D01*
X311027Y315200D01*
X308028D01*
X306029Y321198D02*
Y315200D01*
Y318199D01*
X305029Y319199D01*
X303029D01*
X302030Y318199D01*
Y315200D01*
X294032Y321198D02*
Y315200D01*
X291033D01*
X290034Y316200D01*
Y317199D01*
X291033Y318199D01*
X294032D01*
X291033D01*
X290034Y319199D01*
Y320198D01*
X291033Y321198D01*
X294032D01*
X288034Y319199D02*
Y316200D01*
X287035Y315200D01*
X284036D01*
Y319199D01*
X282036D02*
Y315200D01*
Y317199D01*
X281036Y318199D01*
X280037Y319199D01*
X279037D01*
X276038Y315200D02*
Y319199D01*
X275039D01*
X274039Y318199D01*
Y315200D01*
Y318199D01*
X273039Y319199D01*
X272039Y318199D01*
Y315200D01*
X267041D02*
X269040D01*
X270040Y316200D01*
Y318199D01*
X269040Y319199D01*
X267041D01*
X266041Y318199D01*
Y317199D01*
X270040D01*
X264042Y315200D02*
X262043D01*
X263042D01*
Y319199D01*
X264042D01*
X259044Y315200D02*
X256045D01*
X255045Y316200D01*
X256045Y317199D01*
X258044D01*
X259044Y318199D01*
X258044Y319199D01*
X255045D01*
X252046Y320198D02*
Y319199D01*
X253046D01*
X251046D01*
X252046D01*
Y316200D01*
X251046Y315200D01*
X245048D02*
X247047D01*
X248047Y316200D01*
Y318199D01*
X247047Y319199D01*
X245048D01*
X244049Y318199D01*
Y317199D01*
X248047D01*
X242049Y319199D02*
Y315200D01*
Y317199D01*
X241050Y318199D01*
X240050Y319199D01*
X239050D01*
D12*
X148600Y230600D02*
X157600Y239600D01*
X148600Y194600D02*
Y230600D01*
X395600Y232000D02*
X433357D01*
X433726Y231631D01*
X381400Y246200D02*
X395600Y232000D01*
X358260Y246200D02*
X381400D01*
X395600Y213200D02*
Y232000D01*
X390400Y208000D02*
X395600Y213200D01*
X347460Y235400D02*
X358260Y246200D01*
X148600Y194600D02*
X173600Y169600D01*
X157600Y239600D02*
X179160D01*
X183360Y235400D01*
X347460D01*
D26*
X206000Y60800D02*
Y85200D01*
D27*
X166000Y60800D02*
D03*
X206000D02*
D03*
X218400D02*
D03*
X258400D02*
D03*
X331200Y200400D02*
D03*
X291200D02*
D03*
X169200Y147600D02*
D03*
X209200D02*
D03*
X331200Y220800D02*
D03*
X291200D02*
D03*
X349600Y251600D02*
D03*
Y231600D02*
D03*
X390400Y208000D02*
D03*
X370400D02*
D03*
X275600Y161200D02*
D03*
Y201200D02*
D03*
X260400Y161200D02*
D03*
Y201200D02*
D03*
X152800Y161200D02*
D03*
Y201200D02*
D03*
X228400Y241600D02*
D03*
X268400D02*
D03*
X192800Y311600D02*
D03*
X152800D02*
D03*
X236000Y161200D02*
D03*
Y201200D02*
D03*
D28*
X176000Y98400D02*
D03*
X186000D02*
D03*
X196000D02*
D03*
X206000D02*
D03*
X216000D02*
D03*
X226000D02*
D03*
X236000D02*
D03*
X246000D02*
D03*
X256000D02*
D03*
X266000D02*
D03*
X276000D02*
D03*
X183200Y36800D02*
D03*
Y46800D02*
D03*
X193200Y36800D02*
D03*
Y46800D02*
D03*
X203200Y36800D02*
D03*
Y46800D02*
D03*
X213200Y36800D02*
D03*
Y46800D02*
D03*
X223200Y36800D02*
D03*
Y46800D02*
D03*
X233200Y36800D02*
D03*
Y46800D02*
D03*
X243200Y36800D02*
D03*
X332800Y182800D02*
D03*
Y42800D02*
D03*
Y52800D02*
D03*
Y172800D02*
D03*
Y162800D02*
D03*
Y152800D02*
D03*
Y142800D02*
D03*
Y132800D02*
D03*
Y122800D02*
D03*
Y112800D02*
D03*
Y102800D02*
D03*
Y92800D02*
D03*
Y82800D02*
D03*
Y72800D02*
D03*
Y62800D02*
D03*
X412800D02*
D03*
Y72800D02*
D03*
Y82800D02*
D03*
Y92800D02*
D03*
Y102800D02*
D03*
Y112800D02*
D03*
Y122800D02*
D03*
Y132800D02*
D03*
Y142800D02*
D03*
Y152800D02*
D03*
Y162800D02*
D03*
Y172800D02*
D03*
Y52800D02*
D03*
Y182800D02*
D03*
X342800Y62800D02*
D03*
Y72800D02*
D03*
Y82800D02*
D03*
Y92800D02*
D03*
Y102800D02*
D03*
Y112800D02*
D03*
Y122800D02*
D03*
Y132800D02*
D03*
Y142800D02*
D03*
Y152800D02*
D03*
Y162800D02*
D03*
Y172800D02*
D03*
Y52800D02*
D03*
Y42800D02*
D03*
Y182800D02*
D03*
X402800D02*
D03*
Y52800D02*
D03*
Y172800D02*
D03*
Y162800D02*
D03*
Y152800D02*
D03*
Y142800D02*
D03*
Y132800D02*
D03*
Y122800D02*
D03*
Y112800D02*
D03*
Y102800D02*
D03*
Y92800D02*
D03*
Y82800D02*
D03*
Y72800D02*
D03*
Y62800D02*
D03*
D29*
X286000Y98400D02*
D03*
X243200Y46800D02*
D03*
D30*
X148400Y75200D02*
D03*
Y85200D02*
D03*
X196000D02*
D03*
X176000D02*
D03*
X266000D02*
D03*
X256000D02*
D03*
X246000D02*
D03*
X236000D02*
D03*
X226000D02*
D03*
X216000D02*
D03*
X206000D02*
D03*
X186000D02*
D03*
D31*
X412800Y42800D02*
D03*
X402800D02*
D03*
D32*
X21600Y321600D02*
D03*
X428800D02*
D03*
X429600Y21200D02*
D03*
X21600Y21600D02*
D03*
D33*
X157600Y269600D02*
D03*
X365600Y262000D02*
D03*
X173600Y199600D02*
D03*
D34*
X157600Y259600D02*
D03*
Y249600D02*
D03*
Y239600D02*
D03*
X187600Y269600D02*
D03*
Y259600D02*
D03*
Y249600D02*
D03*
Y239600D02*
D03*
X395600Y232000D02*
D03*
Y242000D02*
D03*
Y252000D02*
D03*
Y262000D02*
D03*
X365600Y232000D02*
D03*
Y242000D02*
D03*
Y252000D02*
D03*
X173600Y189600D02*
D03*
Y179600D02*
D03*
Y169600D02*
D03*
X203600Y199600D02*
D03*
Y189600D02*
D03*
Y179600D02*
D03*
Y169600D02*
D03*
D35*
X137200Y171000D02*
D03*
Y201000D02*
D03*
X213600Y241400D02*
D03*
Y271400D02*
D03*
D36*
X433726Y231631D02*
D03*
X30800Y143600D02*
D03*
X30400Y159200D02*
D03*
Y174400D02*
D03*
X30526Y189631D02*
D03*
X30400Y229600D02*
D03*
X30526Y269632D02*
D03*
Y249632D02*
D03*
D37*
X56400Y37200D02*
D03*
X66400D02*
D03*
X76400D02*
D03*
X86400D02*
D03*
M02*
