M48
;Layer_Color=9474304
;FILE_FORMAT=2:5
INCH,LZ
;TYPE=PLATED
T1F00S00C0.02500
T2F00S00C0.02756
T3F00S00C0.02800
T4F00S00C0.03543
T5F00S00C0.03900
T6F00S00C0.03937
T7F00S00C0.05000
T8F00S00C0.11000
%
T01
X0166Y00608
X0206
X02184
X02584
X02604Y01612
X02756
X0236
Y02012
X02604
X02756
X02912Y02004
Y02208
X03312
Y02004
X02036Y01996
Y01896
Y01796
Y01696
X02092Y01476
X01692
X01736Y01696
Y01796
Y01896
Y01996
X01528Y02012
Y01612
X01576Y02396
Y02496
Y02596
Y02696
X01876
Y02596
Y02496
Y02396
X01528Y03116
X01928
X02284Y02416
X02684
X03656Y0242
Y0232
Y0252
Y0262
X03956
Y0252
Y0242
Y0232
T02
X01372Y0171
Y0201
X02136Y02414
Y02714
T03
X03704Y0208
X03904
X03496Y02316
Y02516
T04
X01832Y00368
Y00468
X01932
Y00368
X02032
Y00468
X02132
Y00368
X02232
Y00468
X02332
Y00368
X02432
Y00468
X0246Y00984
X0236
X0226
X0216
X0206
X0196
X0256
X0266
X0276
X0286
X0186
X0176
T05
X0196Y00852
X0206
X0216
X0226
X0236
X0246
X0256
X0266
X0186
X0176
X01484
Y00752
T06
X03328Y00428
Y00528
Y00628
X03428
Y00528
Y00428
X04028
X04128
Y00528
Y00628
X04028
Y00528
Y00728
X04128
Y00828
Y00928
Y01028
Y01128
Y01228
Y01328
Y01428
Y01528
Y01628
Y01728
Y01828
X04028
Y01728
Y01628
Y01528
Y01428
Y01328
Y01228
Y01128
Y01028
Y00928
Y00828
X03428
X03328
Y00928
Y01028
Y01128
Y01228
Y01328
Y01428
Y01528
Y01628
Y01728
Y01828
X03428
Y01728
Y01628
Y01528
Y01428
Y01328
Y01228
Y01128
Y01028
Y00928
Y00728
X03328
T07
X00564Y00372
X00664
X00764
X00864
X00308Y01436
X00304Y01592
Y01744
X0030526Y0189631
X00304Y02296
X0030526Y0249632
Y0269632
X0433726Y0231631
T08
X00216Y00216
X04296Y00212
X00216Y03216
X04288
M30
