G04*
G04 #@! TF.GenerationSoftware,Altium Limited,Altium Designer,19.1.5 (86)*
G04*
G04 Layer_Color=65535*
%FSLAX43Y43*%
%MOMM*%
G71*
G01*
G75*
%ADD10C,0.254*%
%ADD11C,0.200*%
%ADD12C,0.508*%
%ADD13C,0.203*%
%ADD14C,0.381*%
G36*
X26667Y27750D02*
X25931D01*
Y28123D01*
X26667D01*
Y27750D01*
D02*
G37*
G36*
X25758D02*
X25022D01*
Y28123D01*
X25758D01*
Y27750D01*
D02*
G37*
G36*
X13635Y27750D02*
X12898D01*
Y28123D01*
X13635D01*
Y27750D01*
D02*
G37*
G36*
X12725D02*
X11989D01*
Y28123D01*
X12725D01*
Y27750D01*
D02*
G37*
G36*
X22987Y28153D02*
Y28148D01*
Y28138D01*
Y28120D01*
Y28097D01*
Y28067D01*
X22984Y28034D01*
Y27998D01*
X22982Y27960D01*
X22979Y27879D01*
X22974Y27795D01*
X22969Y27757D01*
X22964Y27719D01*
X22959Y27686D01*
X22954Y27656D01*
Y27653D01*
X22951Y27650D01*
Y27643D01*
X22946Y27633D01*
X22939Y27605D01*
X22926Y27572D01*
X22911Y27531D01*
X22890Y27490D01*
X22865Y27450D01*
X22835Y27409D01*
X22832Y27404D01*
X22819Y27394D01*
X22802Y27374D01*
X22774Y27353D01*
X22743Y27328D01*
X22703Y27300D01*
X22657Y27275D01*
X22606Y27252D01*
X22603D01*
X22598Y27249D01*
X22591Y27247D01*
X22581Y27242D01*
X22565Y27239D01*
X22548Y27234D01*
X22527Y27229D01*
X22504Y27224D01*
X22479Y27216D01*
X22451Y27211D01*
X22388Y27203D01*
X22314Y27196D01*
X22230Y27193D01*
X22184D01*
X22162Y27196D01*
X22134D01*
X22103Y27198D01*
X22070Y27201D01*
X22001Y27208D01*
X21930Y27221D01*
X21864Y27236D01*
X21831Y27247D01*
X21803Y27257D01*
X21801D01*
X21798Y27259D01*
X21791Y27264D01*
X21781Y27269D01*
X21753Y27282D01*
X21720Y27302D01*
X21684Y27325D01*
X21646Y27353D01*
X21608Y27386D01*
X21575Y27424D01*
X21572Y27429D01*
X21562Y27442D01*
X21547Y27462D01*
X21529Y27490D01*
X21511Y27523D01*
X21493Y27559D01*
X21478Y27600D01*
X21466Y27640D01*
Y27643D01*
X21463Y27648D01*
Y27658D01*
X21460Y27673D01*
X21458Y27691D01*
X21453Y27711D01*
X21450Y27737D01*
X21448Y27767D01*
X21443Y27800D01*
X21440Y27836D01*
X21438Y27876D01*
X21433Y27922D01*
X21430Y27970D01*
Y28024D01*
X21427Y28080D01*
Y28138D01*
Y29182D01*
X21821D01*
Y28123D01*
Y28120D01*
Y28113D01*
Y28100D01*
Y28082D01*
Y28062D01*
Y28039D01*
X21824Y27986D01*
Y27932D01*
X21826Y27876D01*
X21829Y27854D01*
Y27831D01*
X21831Y27810D01*
X21834Y27795D01*
Y27793D01*
X21836Y27790D01*
X21839Y27775D01*
X21847Y27755D01*
X21859Y27727D01*
X21874Y27696D01*
X21897Y27663D01*
X21923Y27633D01*
X21956Y27602D01*
X21961Y27600D01*
X21974Y27592D01*
X21994Y27579D01*
X22024Y27567D01*
X22062Y27554D01*
X22108Y27541D01*
X22159Y27534D01*
X22217Y27531D01*
X22245D01*
X22276Y27534D01*
X22311Y27539D01*
X22352Y27549D01*
X22395Y27559D01*
X22436Y27577D01*
X22471Y27600D01*
X22476Y27602D01*
X22484Y27612D01*
X22499Y27628D01*
X22517Y27645D01*
X22535Y27671D01*
X22553Y27699D01*
X22565Y27732D01*
X22576Y27767D01*
Y27772D01*
X22578Y27788D01*
X22581Y27798D01*
Y27810D01*
X22583Y27828D01*
X22586Y27846D01*
Y27869D01*
X22588Y27892D01*
Y27920D01*
X22591Y27950D01*
Y27983D01*
X22593Y28019D01*
Y28057D01*
Y28100D01*
Y29182D01*
X22987D01*
Y28153D01*
D02*
G37*
G36*
X17531Y28153D02*
Y28148D01*
Y28138D01*
Y28120D01*
Y28097D01*
Y28067D01*
X17529Y28034D01*
Y27998D01*
X17526Y27960D01*
X17523Y27879D01*
X17518Y27795D01*
X17513Y27757D01*
X17508Y27719D01*
X17503Y27686D01*
X17498Y27656D01*
Y27653D01*
X17496Y27650D01*
Y27643D01*
X17490Y27633D01*
X17483Y27605D01*
X17470Y27572D01*
X17455Y27531D01*
X17435Y27490D01*
X17409Y27450D01*
X17379Y27409D01*
X17376Y27404D01*
X17363Y27394D01*
X17346Y27374D01*
X17318Y27353D01*
X17287Y27328D01*
X17247Y27300D01*
X17201Y27275D01*
X17150Y27252D01*
X17148D01*
X17142Y27249D01*
X17135Y27247D01*
X17125Y27242D01*
X17109Y27239D01*
X17092Y27234D01*
X17071Y27229D01*
X17048Y27224D01*
X17023Y27216D01*
X16995Y27211D01*
X16932Y27203D01*
X16858Y27196D01*
X16774Y27193D01*
X16728D01*
X16706Y27196D01*
X16678D01*
X16647Y27198D01*
X16614Y27201D01*
X16546Y27208D01*
X16474Y27221D01*
X16408Y27236D01*
X16375Y27247D01*
X16347Y27257D01*
X16345D01*
X16342Y27259D01*
X16335Y27264D01*
X16325Y27269D01*
X16297Y27282D01*
X16264Y27302D01*
X16228Y27325D01*
X16190Y27353D01*
X16152Y27386D01*
X16119Y27424D01*
X16116Y27429D01*
X16106Y27442D01*
X16091Y27462D01*
X16073Y27490D01*
X16055Y27523D01*
X16038Y27559D01*
X16022Y27600D01*
X16010Y27640D01*
Y27643D01*
X16007Y27648D01*
Y27658D01*
X16005Y27673D01*
X16002Y27691D01*
X15997Y27711D01*
X15994Y27737D01*
X15992Y27767D01*
X15987Y27800D01*
X15984Y27836D01*
X15982Y27876D01*
X15977Y27922D01*
X15974Y27970D01*
Y28024D01*
X15972Y28080D01*
Y28138D01*
Y29182D01*
X16365D01*
Y28123D01*
Y28120D01*
Y28113D01*
Y28100D01*
Y28082D01*
Y28062D01*
Y28039D01*
X16368Y27986D01*
Y27932D01*
X16370Y27876D01*
X16373Y27854D01*
Y27831D01*
X16375Y27810D01*
X16378Y27795D01*
Y27793D01*
X16380Y27790D01*
X16383Y27775D01*
X16391Y27755D01*
X16403Y27727D01*
X16419Y27696D01*
X16441Y27663D01*
X16467Y27633D01*
X16500Y27602D01*
X16505Y27600D01*
X16518Y27592D01*
X16538Y27579D01*
X16568Y27567D01*
X16607Y27554D01*
X16652Y27541D01*
X16703Y27534D01*
X16761Y27531D01*
X16789D01*
X16820Y27534D01*
X16855Y27539D01*
X16896Y27549D01*
X16939Y27559D01*
X16980Y27577D01*
X17015Y27600D01*
X17021Y27602D01*
X17028Y27612D01*
X17043Y27628D01*
X17061Y27645D01*
X17079Y27671D01*
X17097Y27699D01*
X17109Y27732D01*
X17120Y27767D01*
Y27772D01*
X17122Y27788D01*
X17125Y27798D01*
Y27810D01*
X17127Y27828D01*
X17130Y27846D01*
Y27869D01*
X17132Y27892D01*
Y27920D01*
X17135Y27950D01*
Y27983D01*
X17137Y28019D01*
Y28057D01*
Y28100D01*
Y29182D01*
X17531D01*
Y28153D01*
D02*
G37*
G36*
X24813Y28852D02*
X24237D01*
Y27229D01*
X23843D01*
Y28852D01*
X23264D01*
Y29182D01*
X24813D01*
Y28852D01*
D02*
G37*
G36*
X20363Y29180D02*
X20437D01*
X20518Y29174D01*
X20594Y29169D01*
X20630Y29167D01*
X20663Y29162D01*
X20691Y29157D01*
X20714Y29152D01*
X20716D01*
X20721Y29149D01*
X20729Y29146D01*
X20742Y29141D01*
X20754Y29136D01*
X20772Y29131D01*
X20810Y29111D01*
X20853Y29086D01*
X20902Y29053D01*
X20947Y29012D01*
X20993Y28961D01*
X20996Y28959D01*
X20998Y28953D01*
X21003Y28946D01*
X21011Y28936D01*
X21018Y28920D01*
X21029Y28903D01*
X21039Y28882D01*
X21052Y28859D01*
X21062Y28832D01*
X21072Y28804D01*
X21082Y28773D01*
X21090Y28738D01*
X21102Y28664D01*
X21107Y28623D01*
Y28580D01*
Y28578D01*
Y28572D01*
Y28562D01*
Y28550D01*
X21105Y28534D01*
Y28517D01*
X21100Y28476D01*
X21092Y28428D01*
X21079Y28377D01*
X21064Y28326D01*
X21041Y28278D01*
Y28275D01*
X21039Y28273D01*
X21029Y28257D01*
X21016Y28235D01*
X20996Y28209D01*
X20970Y28176D01*
X20942Y28146D01*
X20909Y28113D01*
X20874Y28085D01*
X20869Y28082D01*
X20856Y28075D01*
X20838Y28062D01*
X20810Y28047D01*
X20780Y28031D01*
X20747Y28016D01*
X20709Y28003D01*
X20671Y27993D01*
X20663D01*
X20655Y27991D01*
X20645Y27988D01*
X20630Y27986D01*
X20612D01*
X20592Y27983D01*
X20566Y27981D01*
X20541Y27978D01*
X20510Y27976D01*
X20477Y27973D01*
X20439Y27970D01*
X20401Y27968D01*
X20358D01*
X20312Y27965D01*
X20008D01*
Y27229D01*
X19614D01*
Y29182D01*
X20330D01*
X20363Y29180D01*
D02*
G37*
G36*
X19357Y28852D02*
X18781Y28852D01*
Y27229D01*
X18387D01*
Y28852D01*
X17808D01*
Y29182D01*
X19357Y29182D01*
Y28852D01*
D02*
G37*
G36*
X14757Y29215D02*
X14788Y29213D01*
X14826Y29210D01*
X14867Y29202D01*
X14915Y29195D01*
X14966Y29185D01*
X15019Y29169D01*
X15075Y29152D01*
X15133Y29131D01*
X15192Y29103D01*
X15248Y29073D01*
X15304Y29037D01*
X15357Y28997D01*
X15408Y28948D01*
X15410Y28946D01*
X15418Y28936D01*
X15431Y28920D01*
X15448Y28900D01*
X15469Y28872D01*
X15489Y28839D01*
X15514Y28799D01*
X15537Y28755D01*
X15563Y28705D01*
X15585Y28649D01*
X15606Y28588D01*
X15626Y28519D01*
X15644Y28448D01*
X15657Y28372D01*
X15664Y28288D01*
X15667Y28202D01*
Y28199D01*
Y28197D01*
Y28181D01*
X15664Y28156D01*
X15662Y28123D01*
X15659Y28082D01*
X15654Y28037D01*
X15644Y27986D01*
X15634Y27930D01*
X15621Y27871D01*
X15603Y27813D01*
X15583Y27750D01*
X15557Y27689D01*
X15527Y27628D01*
X15494Y27569D01*
X15453Y27513D01*
X15408Y27460D01*
X15405Y27457D01*
X15395Y27450D01*
X15382Y27435D01*
X15362Y27419D01*
X15334Y27399D01*
X15304Y27376D01*
X15268Y27351D01*
X15225Y27328D01*
X15179Y27302D01*
X15128Y27277D01*
X15072Y27254D01*
X15011Y27234D01*
X14945Y27219D01*
X14874Y27206D01*
X14801Y27196D01*
X14722Y27193D01*
X14702D01*
X14681Y27196D01*
X14651Y27198D01*
X14613Y27201D01*
X14572Y27208D01*
X14524Y27216D01*
X14473Y27226D01*
X14420Y27242D01*
X14361Y27257D01*
X14305Y27280D01*
X14247Y27305D01*
X14191Y27335D01*
X14135Y27371D01*
X14082Y27412D01*
X14031Y27457D01*
X14028Y27460D01*
X14021Y27470D01*
X14008Y27485D01*
X13990Y27506D01*
X13973Y27534D01*
X13950Y27567D01*
X13927Y27605D01*
X13904Y27650D01*
X13879Y27699D01*
X13856Y27755D01*
X13833Y27813D01*
X13815Y27879D01*
X13797Y27950D01*
X13785Y28026D01*
X13777Y28105D01*
X13774Y28191D01*
Y28194D01*
Y28204D01*
Y28219D01*
X13777Y28242D01*
Y28268D01*
X13780Y28298D01*
X13782Y28331D01*
X13785Y28367D01*
X13797Y28445D01*
X13813Y28529D01*
X13833Y28616D01*
X13863Y28694D01*
Y28697D01*
X13866Y28702D01*
X13871Y28710D01*
X13876Y28720D01*
X13891Y28748D01*
X13912Y28783D01*
X13937Y28826D01*
X13967Y28870D01*
X14003Y28915D01*
X14044Y28961D01*
X14046Y28964D01*
X14049Y28966D01*
X14064Y28981D01*
X14087Y29002D01*
X14117Y29027D01*
X14155Y29058D01*
X14199Y29086D01*
X14244Y29113D01*
X14295Y29139D01*
X14298D01*
X14303Y29141D01*
X14313Y29146D01*
X14328Y29152D01*
X14346Y29157D01*
X14366Y29164D01*
X14389Y29172D01*
X14417Y29180D01*
X14445Y29185D01*
X14478Y29192D01*
X14549Y29205D01*
X14630Y29215D01*
X14717Y29218D01*
X14737D01*
X14757Y29215D01*
D02*
G37*
G36*
X99841Y78515D02*
X99866D01*
X99898Y78508D01*
X99933Y78502D01*
X99974Y78496D01*
X100016Y78483D01*
X100060Y78467D01*
X100108Y78448D01*
X100155Y78426D01*
X100203Y78397D01*
X100251Y78365D01*
X100295Y78327D01*
X100336Y78286D01*
X100378Y78235D01*
X100381Y78232D01*
X100387Y78222D01*
X100397Y78203D01*
X100413Y78181D01*
X100428Y78149D01*
X100444Y78111D01*
X100463Y78067D01*
X100486Y78019D01*
X100505Y77962D01*
X100524Y77895D01*
X100540Y77826D01*
X100559Y77749D01*
X100571Y77667D01*
X100581Y77578D01*
X100587Y77483D01*
X100590Y77381D01*
Y77378D01*
Y77368D01*
Y77349D01*
Y77327D01*
X100587Y77299D01*
X100584Y77267D01*
X100581Y77229D01*
X100578Y77184D01*
X100571Y77140D01*
X100565Y77089D01*
X100546Y76984D01*
X100521Y76870D01*
X100486Y76756D01*
X100441Y76638D01*
X100387Y76524D01*
X100355Y76470D01*
X100320Y76419D01*
X100282Y76368D01*
X100241Y76324D01*
X100193Y76279D01*
X100146Y76241D01*
X100092Y76210D01*
X100035Y76181D01*
X99971Y76159D01*
X99905Y76140D01*
X99835Y76130D01*
X99758Y76127D01*
X99730D01*
X99708Y76130D01*
X99682D01*
X99651Y76133D01*
X99619Y76140D01*
X99584Y76146D01*
X99508Y76162D01*
X99428Y76187D01*
X99355Y76225D01*
X99320Y76248D01*
X99289Y76273D01*
Y76276D01*
X99282Y76279D01*
X99276Y76289D01*
X99266Y76298D01*
X99254Y76314D01*
X99241Y76333D01*
X99225Y76352D01*
X99209Y76378D01*
X99193Y76406D01*
X99177Y76441D01*
X99162Y76476D01*
X99143Y76514D01*
X99130Y76559D01*
X99114Y76606D01*
X99101Y76657D01*
X99092Y76711D01*
X99381D01*
Y76708D01*
Y76705D01*
Y76686D01*
X99387Y76660D01*
X99393Y76625D01*
X99406Y76587D01*
X99428Y76549D01*
X99457Y76508D01*
X99495Y76473D01*
X99501Y76470D01*
X99517Y76460D01*
X99539Y76444D01*
X99574Y76432D01*
X99616Y76416D01*
X99663Y76400D01*
X99717Y76391D01*
X99778Y76387D01*
X99787D01*
X99800Y76391D01*
X99816D01*
X99838Y76394D01*
X99860Y76400D01*
X99914Y76416D01*
X99943Y76429D01*
X99974Y76444D01*
X100006Y76464D01*
X100038Y76486D01*
X100070Y76511D01*
X100101Y76543D01*
X100130Y76578D01*
X100159Y76619D01*
X100162Y76622D01*
X100165Y76629D01*
X100171Y76645D01*
X100181Y76664D01*
X100193Y76686D01*
X100206Y76714D01*
X100219Y76749D01*
X100235Y76787D01*
X100251Y76832D01*
X100263Y76879D01*
X100276Y76933D01*
X100289Y76991D01*
X100301Y77054D01*
X100311Y77121D01*
X100317Y77191D01*
X100320Y77267D01*
X100317Y77264D01*
X100311Y77254D01*
X100295Y77241D01*
X100279Y77222D01*
X100254Y77203D01*
X100228Y77178D01*
X100197Y77152D01*
X100162Y77127D01*
X100124Y77102D01*
X100082Y77076D01*
X100038Y77051D01*
X99990Y77032D01*
X99939Y77013D01*
X99889Y77000D01*
X99835Y76991D01*
X99781Y76987D01*
X99749D01*
X99727Y76991D01*
X99698Y76994D01*
X99666Y76997D01*
X99628Y77003D01*
X99590Y77013D01*
X99508Y77038D01*
X99463Y77054D01*
X99419Y77073D01*
X99374Y77095D01*
X99330Y77124D01*
X99289Y77156D01*
X99251Y77191D01*
X99247Y77194D01*
X99241Y77200D01*
X99231Y77213D01*
X99219Y77229D01*
X99203Y77248D01*
X99187Y77273D01*
X99168Y77302D01*
X99152Y77337D01*
X99133Y77375D01*
X99114Y77416D01*
X99098Y77460D01*
X99082Y77508D01*
X99070Y77559D01*
X99060Y77616D01*
X99054Y77673D01*
X99050Y77737D01*
Y77740D01*
Y77753D01*
Y77768D01*
X99054Y77794D01*
X99057Y77822D01*
X99063Y77857D01*
X99070Y77892D01*
X99076Y77934D01*
X99101Y78022D01*
X99120Y78070D01*
X99139Y78115D01*
X99165Y78162D01*
X99193Y78210D01*
X99225Y78254D01*
X99263Y78296D01*
X99266Y78299D01*
X99273Y78305D01*
X99285Y78315D01*
X99301Y78330D01*
X99324Y78346D01*
X99349Y78365D01*
X99378Y78388D01*
X99412Y78407D01*
X99451Y78429D01*
X99492Y78448D01*
X99536Y78467D01*
X99584Y78483D01*
X99635Y78499D01*
X99689Y78508D01*
X99746Y78515D01*
X99806Y78518D01*
X99822D01*
X99841Y78515D01*
D02*
G37*
G36*
X98241Y76200D02*
X97965D01*
Y77835D01*
X97441D01*
Y78057D01*
X97444D01*
X97453Y78061D01*
X97473Y78064D01*
X97492Y78067D01*
X97520Y78070D01*
X97549Y78076D01*
X97615Y78089D01*
X97685Y78105D01*
X97752Y78124D01*
X97784Y78134D01*
X97809Y78143D01*
X97834Y78156D01*
X97854Y78165D01*
X97860Y78169D01*
X97873Y78181D01*
X97892Y78203D01*
X97904Y78219D01*
X97917Y78238D01*
X97933Y78261D01*
X97949Y78286D01*
X97965Y78315D01*
X97980Y78346D01*
X98000Y78381D01*
X98015Y78423D01*
X98034Y78467D01*
X98050Y78518D01*
X98241D01*
Y76200D01*
D02*
G37*
G36*
X94482Y78515D02*
X94504Y78511D01*
X94532Y78508D01*
X94561Y78505D01*
X94593Y78499D01*
X94666Y78476D01*
X94742Y78448D01*
X94783Y78429D01*
X94821Y78407D01*
X94859Y78381D01*
X94898Y78353D01*
X94901Y78349D01*
X94907Y78343D01*
X94920Y78334D01*
X94936Y78318D01*
X94952Y78299D01*
X94974Y78273D01*
X94996Y78245D01*
X95018Y78213D01*
X95040Y78178D01*
X95060Y78137D01*
X95082Y78092D01*
X95098Y78045D01*
X95113Y77994D01*
X95126Y77940D01*
X95133Y77883D01*
X95136Y77819D01*
Y77816D01*
Y77810D01*
Y77797D01*
X95133Y77781D01*
Y77762D01*
X95129Y77737D01*
X95117Y77683D01*
X95101Y77619D01*
X95072Y77549D01*
X95037Y77480D01*
X95012Y77441D01*
X94986Y77407D01*
X94980Y77400D01*
X94967Y77384D01*
X94945Y77359D01*
X94913Y77327D01*
X94875Y77292D01*
X94831Y77254D01*
X94780Y77216D01*
X94723Y77181D01*
X94291Y76943D01*
X94288Y76940D01*
X94275Y76933D01*
X94256Y76921D01*
X94234Y76908D01*
X94205Y76886D01*
X94174Y76864D01*
X94139Y76838D01*
X94101Y76806D01*
X94031Y76740D01*
X93996Y76698D01*
X93964Y76660D01*
X93936Y76616D01*
X93910Y76571D01*
X93894Y76524D01*
X93882Y76476D01*
X95120Y76476D01*
Y76200D01*
X93577Y76200D01*
Y76203D01*
Y76206D01*
Y76216D01*
X93580Y76229D01*
X93583Y76260D01*
X93586Y76302D01*
X93596Y76352D01*
X93605Y76410D01*
X93621Y76473D01*
X93640Y76540D01*
X93662Y76610D01*
X93691Y76683D01*
X93726Y76752D01*
X93767Y76822D01*
X93815Y76889D01*
X93869Y76952D01*
X93929Y77010D01*
X93999Y77057D01*
X94545Y77384D01*
X94548Y77387D01*
X94558Y77394D01*
X94574Y77403D01*
X94593Y77416D01*
X94615Y77432D01*
X94640Y77454D01*
X94666Y77480D01*
X94694Y77505D01*
X94748Y77568D01*
X94774Y77603D01*
X94796Y77641D01*
X94815Y77683D01*
X94831Y77727D01*
X94840Y77772D01*
X94844Y77819D01*
Y77822D01*
Y77829D01*
Y77838D01*
X94840Y77851D01*
X94837Y77889D01*
X94828Y77934D01*
X94812Y77984D01*
X94790Y78038D01*
X94758Y78089D01*
X94713Y78137D01*
X94707Y78143D01*
X94691Y78156D01*
X94663Y78175D01*
X94621Y78197D01*
X94574Y78219D01*
X94513Y78238D01*
X94447Y78251D01*
X94367Y78257D01*
X94348D01*
X94326Y78254D01*
X94301Y78248D01*
X94266Y78242D01*
X94228Y78229D01*
X94190Y78213D01*
X94148Y78191D01*
X94107Y78159D01*
X94066Y78124D01*
X94024Y78080D01*
X93990Y78026D01*
X93958Y77965D01*
X93932Y77892D01*
X93913Y77807D01*
X93907Y77762D01*
X93904Y77711D01*
X93631D01*
Y77714D01*
Y77721D01*
Y77730D01*
X93634Y77746D01*
Y77765D01*
X93637Y77784D01*
X93643Y77838D01*
X93656Y77899D01*
X93675Y77965D01*
X93701Y78038D01*
X93736Y78115D01*
X93777Y78191D01*
X93831Y78264D01*
X93863Y78299D01*
X93897Y78330D01*
X93936Y78362D01*
X93974Y78391D01*
X94018Y78419D01*
X94066Y78445D01*
X94120Y78464D01*
X94174Y78483D01*
X94234Y78499D01*
X94298Y78508D01*
X94364Y78515D01*
X94437Y78518D01*
X94463D01*
X94482Y78515D01*
D02*
G37*
G36*
X92332Y76200D02*
X92056D01*
Y78584D01*
X92332D01*
Y76200D01*
D02*
G37*
G36*
X91605D02*
X91329D01*
Y78584D01*
X91605D01*
Y76200D01*
D02*
G37*
G36*
X89176Y78311D02*
X87887D01*
Y77559D01*
X89017D01*
Y77286D01*
X87887D01*
Y76200D01*
X87579D01*
Y78584D01*
X89176D01*
Y78311D01*
D02*
G37*
G36*
X96222Y78515D02*
X96247D01*
X96279Y78508D01*
X96314Y78502D01*
X96352Y78492D01*
X96393Y78480D01*
X96437Y78464D01*
X96485Y78445D01*
X96533Y78419D01*
X96577Y78391D01*
X96625Y78356D01*
X96669Y78315D01*
X96711Y78270D01*
X96749Y78216D01*
X96752Y78213D01*
X96758Y78203D01*
X96768Y78184D01*
X96780Y78159D01*
X96793Y78130D01*
X96812Y78092D01*
X96828Y78045D01*
X96847Y77994D01*
X96866Y77937D01*
X96882Y77873D01*
X96901Y77800D01*
X96914Y77724D01*
X96926Y77638D01*
X96936Y77549D01*
X96942Y77451D01*
X96945Y77349D01*
Y77346D01*
Y77337D01*
Y77321D01*
Y77295D01*
X96942Y77270D01*
X96939Y77238D01*
Y77200D01*
X96933Y77159D01*
X96930Y77114D01*
X96923Y77067D01*
X96904Y76962D01*
X96882Y76851D01*
X96850Y76740D01*
X96809Y76625D01*
X96761Y76514D01*
X96698Y76410D01*
X96663Y76362D01*
X96625Y76317D01*
X96584Y76276D01*
X96539Y76241D01*
X96488Y76206D01*
X96437Y76181D01*
X96380Y76159D01*
X96320Y76140D01*
X96256Y76130D01*
X96187Y76127D01*
X96168D01*
X96155Y76130D01*
X96136Y76133D01*
X96117Y76136D01*
X96069Y76146D01*
X96012Y76165D01*
X95945Y76194D01*
X95914Y76213D01*
X95879Y76232D01*
X95844Y76257D01*
X95809Y76283D01*
X95771Y76314D01*
X95736Y76349D01*
X95701Y76391D01*
X95669Y76432D01*
X95634Y76483D01*
X95602Y76533D01*
X95574Y76594D01*
X95545Y76657D01*
X95520Y76724D01*
X95498Y76800D01*
X95479Y76879D01*
X95460Y76968D01*
X95447Y77060D01*
X95437Y77162D01*
X95431Y77267D01*
X95428Y77381D01*
Y77387D01*
Y77403D01*
Y77432D01*
X95431Y77470D01*
X95434Y77514D01*
X95437Y77565D01*
X95444Y77622D01*
X95453Y77686D01*
X95463Y77753D01*
X95475Y77819D01*
X95494Y77889D01*
X95514Y77959D01*
X95536Y78026D01*
X95561Y78092D01*
X95593Y78156D01*
X95628Y78216D01*
X95631Y78219D01*
X95637Y78229D01*
X95650Y78245D01*
X95666Y78264D01*
X95685Y78286D01*
X95710Y78311D01*
X95739Y78340D01*
X95774Y78369D01*
X95812Y78394D01*
X95853Y78423D01*
X95901Y78448D01*
X95949Y78470D01*
X96002Y78489D01*
X96060Y78505D01*
X96123Y78515D01*
X96187Y78518D01*
X96202D01*
X96222Y78515D01*
D02*
G37*
G36*
X90224Y77962D02*
X90253Y77959D01*
X90284Y77956D01*
X90319Y77953D01*
X90399Y77940D01*
X90478Y77924D01*
X90561Y77899D01*
X90640Y77864D01*
X90643D01*
X90649Y77861D01*
X90659Y77854D01*
X90672Y77845D01*
X90703Y77822D01*
X90742Y77794D01*
X90776Y77759D01*
X90808Y77718D01*
X90821Y77692D01*
X90830Y77670D01*
X90837Y77641D01*
X90840Y77616D01*
Y76454D01*
Y76448D01*
X90843Y76432D01*
X90853Y76413D01*
X90872Y76391D01*
X90875D01*
X90878Y76387D01*
X90894Y76375D01*
X90919Y76365D01*
X90951Y76356D01*
X90957D01*
X90973Y76352D01*
X90999D01*
X91030Y76356D01*
Y76152D01*
X91027D01*
X91011Y76149D01*
X90992Y76143D01*
X90967Y76140D01*
X90935Y76133D01*
X90897Y76127D01*
X90818Y76124D01*
X90802D01*
X90786Y76127D01*
X90764Y76133D01*
X90738Y76143D01*
X90710Y76159D01*
X90681Y76178D01*
X90649Y76203D01*
X90646Y76206D01*
X90637Y76216D01*
X90624Y76232D01*
X90608Y76254D01*
X90592Y76279D01*
X90580Y76308D01*
X90567Y76340D01*
X90561Y76371D01*
X90557Y76368D01*
X90548Y76362D01*
X90532Y76349D01*
X90510Y76333D01*
X90484Y76314D01*
X90453Y76292D01*
X90418Y76270D01*
X90376Y76248D01*
X90335Y76225D01*
X90291Y76203D01*
X90192Y76162D01*
X90141Y76146D01*
X90091Y76133D01*
X90037Y76127D01*
X89986Y76124D01*
X89960D01*
X89941Y76127D01*
X89922D01*
X89897Y76130D01*
X89837Y76140D01*
X89770Y76156D01*
X89703Y76181D01*
X89633Y76213D01*
X89573Y76257D01*
X89570Y76260D01*
X89567Y76263D01*
X89551Y76283D01*
X89525Y76311D01*
X89497Y76352D01*
X89468Y76406D01*
X89446Y76470D01*
X89427Y76543D01*
X89424Y76584D01*
X89421Y76629D01*
Y76635D01*
Y76648D01*
X89424Y76670D01*
X89430Y76698D01*
X89437Y76733D01*
X89449Y76775D01*
X89465Y76816D01*
X89487Y76860D01*
X89516Y76905D01*
X89551Y76949D01*
X89592Y76994D01*
X89643Y77035D01*
X89706Y77070D01*
X89776Y77102D01*
X89859Y77127D01*
X89951Y77146D01*
X90434Y77210D01*
X90440D01*
X90453Y77216D01*
X90472Y77226D01*
X90494Y77241D01*
X90513Y77264D01*
X90532Y77295D01*
X90545Y77340D01*
X90551Y77368D01*
Y77397D01*
Y77400D01*
Y77403D01*
Y77419D01*
Y77445D01*
Y77473D01*
X90548Y77502D01*
X90545Y77530D01*
X90541Y77553D01*
X90538Y77565D01*
Y77568D01*
X90532Y77578D01*
X90522Y77591D01*
X90510Y77607D01*
X90488Y77622D01*
X90462Y77641D01*
X90427Y77660D01*
X90386Y77676D01*
X90380Y77680D01*
X90364Y77683D01*
X90338Y77689D01*
X90307Y77699D01*
X90265Y77708D01*
X90218Y77714D01*
X90167Y77718D01*
X90110Y77721D01*
X90084D01*
X90053Y77718D01*
X90018Y77711D01*
X89976Y77702D01*
X89935Y77689D01*
X89897Y77670D01*
X89862Y77645D01*
X89859Y77641D01*
X89849Y77632D01*
X89833Y77613D01*
X89818Y77587D01*
X89799Y77553D01*
X89779Y77511D01*
X89764Y77464D01*
X89751Y77403D01*
X89503D01*
Y77407D01*
Y77416D01*
Y77429D01*
Y77445D01*
Y77467D01*
X89506Y77492D01*
X89516Y77549D01*
X89532Y77613D01*
X89548Y77648D01*
X89564Y77683D01*
X89583Y77714D01*
X89605Y77749D01*
X89633Y77781D01*
X89665Y77810D01*
X89668Y77813D01*
X89675Y77816D01*
X89684Y77826D01*
X89700Y77835D01*
X89719Y77845D01*
X89741Y77861D01*
X89767Y77873D01*
X89795Y77889D01*
X89830Y77902D01*
X89865Y77918D01*
X89906Y77930D01*
X89948Y77940D01*
X90043Y77959D01*
X90097Y77962D01*
X90151Y77965D01*
X90199D01*
X90224Y77962D01*
D02*
G37*
G36*
X97124Y82434D02*
X97150D01*
X97179Y82426D01*
X97251Y82413D01*
X97336Y82388D01*
X97425Y82350D01*
X97471Y82329D01*
X97522Y82299D01*
X97568Y82269D01*
X97615Y82231D01*
X97619Y82227D01*
X97628Y82223D01*
X97640Y82206D01*
X97657Y82189D01*
X97678Y82168D01*
X97704Y82138D01*
X97729Y82109D01*
X97759Y82071D01*
X97788Y82028D01*
X97814Y81986D01*
X97869Y81880D01*
X97911Y81762D01*
X97924Y81698D01*
X97937Y81630D01*
X97535D01*
Y81635D01*
Y81639D01*
X97539Y81660D01*
X97535Y81694D01*
X97530Y81740D01*
X97513Y81787D01*
X97488Y81842D01*
X97450Y81897D01*
X97425Y81922D01*
X97395Y81948D01*
X97386Y81952D01*
X97365Y81969D01*
X97331Y81990D01*
X97285Y82020D01*
X97226Y82045D01*
X97162Y82066D01*
X97090Y82083D01*
X97014Y82087D01*
X96984D01*
X96963Y82083D01*
X96934Y82079D01*
X96904Y82071D01*
X96832Y82049D01*
X96794Y82032D01*
X96752Y82011D01*
X96709Y81986D01*
X96667Y81952D01*
X96625Y81918D01*
X96582Y81876D01*
X96544Y81825D01*
X96506Y81770D01*
Y81766D01*
X96498Y81757D01*
X96489Y81736D01*
X96477Y81711D01*
X96460Y81681D01*
X96447Y81639D01*
X96426Y81597D01*
X96409Y81542D01*
X96388Y81482D01*
X96371Y81419D01*
X96354Y81347D01*
X96337Y81267D01*
X96324Y81186D01*
X96312Y81093D01*
X96299Y81000D01*
X96295Y80898D01*
X96299Y80903D01*
X96312Y80915D01*
X96333Y80932D01*
X96358Y80958D01*
X96396Y80987D01*
X96434Y81021D01*
X96481Y81055D01*
X96532Y81089D01*
X96587Y81123D01*
X96646Y81161D01*
X96705Y81190D01*
X96769Y81220D01*
X96836Y81245D01*
X96904Y81262D01*
X96972Y81275D01*
X97039Y81279D01*
X97078D01*
X97107Y81275D01*
X97141Y81271D01*
X97179Y81262D01*
X97226Y81254D01*
X97272Y81245D01*
X97378Y81207D01*
X97437Y81186D01*
X97492Y81157D01*
X97552Y81127D01*
X97607Y81085D01*
X97662Y81042D01*
X97717Y80991D01*
X97721Y80987D01*
X97729Y80979D01*
X97742Y80962D01*
X97759Y80941D01*
X97780Y80911D01*
X97805Y80877D01*
X97831Y80839D01*
X97856Y80797D01*
X97882Y80746D01*
X97907Y80695D01*
X97932Y80636D01*
X97954Y80577D01*
X97970Y80509D01*
X97983Y80441D01*
X97992Y80369D01*
X97996Y80293D01*
Y80289D01*
Y80272D01*
Y80251D01*
X97992Y80217D01*
X97987Y80179D01*
X97983Y80132D01*
X97975Y80082D01*
X97962Y80031D01*
X97928Y79912D01*
X97907Y79849D01*
X97877Y79785D01*
X97848Y79726D01*
X97810Y79663D01*
X97767Y79604D01*
X97717Y79548D01*
X97712Y79544D01*
X97704Y79536D01*
X97687Y79519D01*
X97666Y79502D01*
X97636Y79481D01*
X97602Y79455D01*
X97560Y79426D01*
X97518Y79400D01*
X97467Y79371D01*
X97408Y79341D01*
X97348Y79316D01*
X97281Y79295D01*
X97209Y79278D01*
X97133Y79261D01*
X97048Y79252D01*
X96963Y79248D01*
X96938D01*
X96921Y79252D01*
X96896D01*
X96870Y79257D01*
X96803Y79273D01*
X96726Y79295D01*
X96642Y79328D01*
X96549Y79375D01*
X96502Y79405D01*
X96456Y79438D01*
X96405Y79477D01*
X96358Y79519D01*
X96312Y79565D01*
X96265Y79620D01*
X96223Y79675D01*
X96180Y79743D01*
X96138Y79811D01*
X96104Y79887D01*
X96070Y79972D01*
X96037Y80065D01*
X96011Y80162D01*
X95986Y80268D01*
X95969Y80378D01*
X95956Y80501D01*
X95948Y80628D01*
X95943Y80767D01*
Y80771D01*
Y80784D01*
Y80810D01*
X95948Y80839D01*
Y80877D01*
X95952Y80920D01*
X95956Y80970D01*
X95960Y81030D01*
X95969Y81089D01*
X95977Y81157D01*
X96003Y81296D01*
X96037Y81449D01*
X96083Y81605D01*
X96147Y81757D01*
X96219Y81910D01*
X96261Y81982D01*
X96312Y82049D01*
X96362Y82117D01*
X96422Y82176D01*
X96481Y82236D01*
X96549Y82286D01*
X96621Y82329D01*
X96701Y82367D01*
X96786Y82396D01*
X96874Y82422D01*
X96972Y82434D01*
X97073Y82439D01*
X97103D01*
X97124Y82434D01*
D02*
G37*
G36*
X87755Y82570D02*
X87793Y82566D01*
X87836Y82561D01*
X87886Y82553D01*
X87941Y82540D01*
X88064Y82511D01*
X88128Y82489D01*
X88195Y82460D01*
X88263Y82430D01*
X88327Y82396D01*
X88394Y82354D01*
X88458Y82308D01*
X88462Y82303D01*
X88475Y82295D01*
X88492Y82282D01*
X88513Y82261D01*
X88542Y82231D01*
X88572Y82198D01*
X88606Y82159D01*
X88644Y82113D01*
X88686Y82062D01*
X88724Y82007D01*
X88767Y81944D01*
X88809Y81876D01*
X88847Y81800D01*
X88885Y81724D01*
X88919Y81635D01*
X88953Y81546D01*
X88525D01*
X88521Y81554D01*
X88513Y81575D01*
X88496Y81609D01*
X88475Y81652D01*
X88449Y81698D01*
X88411Y81757D01*
X88369Y81817D01*
X88322Y81880D01*
X88263Y81939D01*
X88200Y81999D01*
X88132Y82058D01*
X88051Y82109D01*
X87967Y82151D01*
X87874Y82181D01*
X87772Y82202D01*
X87662Y82210D01*
X87641D01*
X87620Y82206D01*
X87590D01*
X87552Y82198D01*
X87510Y82189D01*
X87459Y82181D01*
X87408Y82164D01*
X87353Y82147D01*
X87298Y82121D01*
X87239Y82092D01*
X87180Y82058D01*
X87121Y82016D01*
X87061Y81965D01*
X87006Y81910D01*
X86955Y81846D01*
X86951Y81842D01*
X86943Y81829D01*
X86930Y81808D01*
X86913Y81779D01*
X86896Y81745D01*
X86871Y81698D01*
X86850Y81647D01*
X86824Y81588D01*
X86799Y81525D01*
X86778Y81453D01*
X86752Y81372D01*
X86735Y81288D01*
X86719Y81195D01*
X86706Y81097D01*
X86697Y80991D01*
X86693Y80881D01*
Y80877D01*
Y80856D01*
Y80826D01*
X86697Y80788D01*
X86702Y80742D01*
X86706Y80687D01*
X86714Y80623D01*
X86727Y80556D01*
X86761Y80412D01*
X86782Y80336D01*
X86807Y80255D01*
X86837Y80179D01*
X86875Y80103D01*
X86917Y80031D01*
X86964Y79963D01*
X86968Y79959D01*
X86977Y79946D01*
X86994Y79929D01*
X87015Y79908D01*
X87040Y79883D01*
X87074Y79853D01*
X87112Y79819D01*
X87154Y79790D01*
X87205Y79756D01*
X87256Y79722D01*
X87315Y79692D01*
X87379Y79667D01*
X87446Y79646D01*
X87518Y79629D01*
X87594Y79616D01*
X87675Y79612D01*
X87704D01*
X87743Y79616D01*
X87789Y79625D01*
X87848Y79642D01*
X87912Y79659D01*
X87984Y79688D01*
X88056Y79726D01*
X88136Y79773D01*
X88212Y79832D01*
X88293Y79904D01*
X88365Y79993D01*
X88403Y80044D01*
X88437Y80094D01*
X88470Y80154D01*
X88500Y80217D01*
X88530Y80285D01*
X88555Y80357D01*
X88580Y80433D01*
X88602Y80513D01*
X89016D01*
Y80509D01*
X89012Y80501D01*
X89008Y80484D01*
X89004Y80458D01*
X88995Y80429D01*
X88982Y80399D01*
X88970Y80357D01*
X88953Y80314D01*
X88915Y80221D01*
X88868Y80116D01*
X88809Y80001D01*
X88741Y79883D01*
X88657Y79764D01*
X88559Y79650D01*
X88449Y79544D01*
X88327Y79451D01*
X88259Y79409D01*
X88187Y79371D01*
X88115Y79337D01*
X88035Y79307D01*
X87950Y79282D01*
X87861Y79265D01*
X87772Y79257D01*
X87675Y79252D01*
X87645D01*
X87616Y79257D01*
X87569Y79261D01*
X87518Y79265D01*
X87455Y79278D01*
X87387Y79290D01*
X87311Y79307D01*
X87231Y79333D01*
X87150Y79362D01*
X87066Y79400D01*
X86981Y79443D01*
X86896Y79493D01*
X86812Y79557D01*
X86735Y79625D01*
X86659Y79705D01*
X86655Y79709D01*
X86642Y79726D01*
X86625Y79752D01*
X86600Y79790D01*
X86570Y79832D01*
X86537Y79887D01*
X86503Y79955D01*
X86469Y80027D01*
X86431Y80107D01*
X86397Y80200D01*
X86363Y80297D01*
X86333Y80403D01*
X86308Y80518D01*
X86291Y80640D01*
X86278Y80771D01*
X86274Y80907D01*
Y80915D01*
Y80936D01*
X86278Y80975D01*
Y81025D01*
X86287Y81085D01*
X86291Y81157D01*
X86304Y81233D01*
X86317Y81317D01*
X86338Y81406D01*
X86359Y81504D01*
X86388Y81597D01*
X86422Y81698D01*
X86460Y81795D01*
X86507Y81889D01*
X86562Y81982D01*
X86621Y82071D01*
X86625Y82075D01*
X86638Y82092D01*
X86659Y82117D01*
X86693Y82151D01*
X86731Y82189D01*
X86778Y82231D01*
X86833Y82274D01*
X86896Y82324D01*
X86968Y82371D01*
X87049Y82413D01*
X87137Y82456D01*
X87231Y82494D01*
X87332Y82528D01*
X87442Y82553D01*
X87556Y82570D01*
X87679Y82574D01*
X87721D01*
X87755Y82570D01*
D02*
G37*
G36*
X78729Y79350D02*
X78310D01*
Y81910D01*
X77439Y79350D01*
X77020D01*
X76156Y81922D01*
Y79350D01*
X75737D01*
Y82528D01*
X76313D01*
X77227Y79819D01*
X78145Y82528D01*
X78729D01*
Y79350D01*
D02*
G37*
G36*
X99536Y82434D02*
X99566Y82430D01*
X99604Y82426D01*
X99642Y82422D01*
X99684Y82413D01*
X99782Y82384D01*
X99883Y82346D01*
X99938Y82320D01*
X99989Y82291D01*
X100040Y82257D01*
X100090Y82219D01*
X100095Y82214D01*
X100103Y82206D01*
X100120Y82193D01*
X100141Y82172D01*
X100162Y82147D01*
X100192Y82113D01*
X100222Y82075D01*
X100251Y82032D01*
X100281Y81986D01*
X100306Y81931D01*
X100336Y81872D01*
X100357Y81808D01*
X100378Y81740D01*
X100395Y81669D01*
X100404Y81592D01*
X100408Y81508D01*
Y81504D01*
Y81495D01*
Y81478D01*
X100404Y81457D01*
Y81432D01*
X100399Y81398D01*
X100382Y81326D01*
X100361Y81241D01*
X100323Y81148D01*
X100277Y81055D01*
X100243Y81004D01*
X100209Y80958D01*
X100201Y80949D01*
X100184Y80928D01*
X100154Y80894D01*
X100112Y80852D01*
X100061Y80805D01*
X100002Y80755D01*
X99934Y80704D01*
X99858Y80657D01*
X99282Y80340D01*
X99278Y80336D01*
X99261Y80327D01*
X99236Y80310D01*
X99206Y80293D01*
X99168Y80264D01*
X99126Y80234D01*
X99079Y80200D01*
X99028Y80158D01*
X98935Y80069D01*
X98889Y80014D01*
X98846Y79963D01*
X98808Y79904D01*
X98774Y79845D01*
X98753Y79781D01*
X98736Y79718D01*
X100387D01*
Y79350D01*
X98330D01*
Y79354D01*
Y79358D01*
Y79371D01*
X98334Y79388D01*
X98339Y79430D01*
X98343Y79485D01*
X98356Y79553D01*
X98368Y79629D01*
X98389Y79714D01*
X98415Y79802D01*
X98444Y79895D01*
X98482Y79993D01*
X98529Y80086D01*
X98584Y80179D01*
X98648Y80268D01*
X98719Y80353D01*
X98800Y80429D01*
X98893Y80492D01*
X99621Y80928D01*
X99625Y80932D01*
X99638Y80941D01*
X99659Y80953D01*
X99684Y80970D01*
X99714Y80991D01*
X99748Y81021D01*
X99782Y81055D01*
X99820Y81089D01*
X99892Y81173D01*
X99925Y81220D01*
X99955Y81271D01*
X99980Y81326D01*
X100002Y81385D01*
X100014Y81444D01*
X100019Y81508D01*
Y81512D01*
Y81520D01*
Y81533D01*
X100014Y81550D01*
X100010Y81601D01*
X99997Y81660D01*
X99976Y81728D01*
X99947Y81800D01*
X99904Y81867D01*
X99845Y81931D01*
X99837Y81939D01*
X99815Y81956D01*
X99777Y81982D01*
X99722Y82011D01*
X99659Y82041D01*
X99578Y82066D01*
X99490Y82083D01*
X99384Y82092D01*
X99358D01*
X99329Y82087D01*
X99295Y82079D01*
X99248Y82071D01*
X99198Y82054D01*
X99147Y82032D01*
X99092Y82003D01*
X99037Y81961D01*
X98982Y81914D01*
X98927Y81855D01*
X98880Y81783D01*
X98838Y81702D01*
X98804Y81605D01*
X98779Y81491D01*
X98770Y81432D01*
X98766Y81364D01*
X98402D01*
Y81368D01*
Y81377D01*
Y81389D01*
X98406Y81410D01*
Y81436D01*
X98411Y81461D01*
X98419Y81533D01*
X98436Y81614D01*
X98461Y81702D01*
X98495Y81800D01*
X98542Y81901D01*
X98597Y82003D01*
X98669Y82100D01*
X98711Y82147D01*
X98758Y82189D01*
X98808Y82231D01*
X98859Y82269D01*
X98918Y82308D01*
X98982Y82341D01*
X99054Y82367D01*
X99126Y82392D01*
X99206Y82413D01*
X99291Y82426D01*
X99380Y82434D01*
X99477Y82439D01*
X99511D01*
X99536Y82434D01*
D02*
G37*
G36*
X95156Y80437D02*
X95601D01*
Y80077D01*
X95156D01*
Y79350D01*
X94788D01*
Y80077D01*
X93460Y80077D01*
Y80479D01*
X94860Y82439D01*
X95156D01*
Y80437D01*
D02*
G37*
G36*
X91809Y82164D02*
X90015D01*
Y81161D01*
X91737D01*
Y80797D01*
X90015D01*
Y79709D01*
X91881D01*
Y79350D01*
X89604D01*
Y82528D01*
X91809D01*
Y82164D01*
D02*
G37*
G36*
X85754D02*
X83959D01*
Y81161D01*
X85682D01*
Y80797D01*
X83959D01*
Y79709D01*
X85826D01*
Y79350D01*
X83549D01*
Y82528D01*
X85754D01*
Y82164D01*
D02*
G37*
G36*
X81636D02*
X79842Y82164D01*
Y81161D01*
X81564Y81161D01*
Y80797D01*
X79842Y80797D01*
Y79709D01*
X81708Y79709D01*
Y79350D01*
X79432Y79350D01*
Y82528D01*
X81636Y82528D01*
Y82164D01*
D02*
G37*
G36*
X74320Y82523D02*
X74341D01*
X74371Y82519D01*
X74438Y82502D01*
X74514Y82481D01*
X74603Y82443D01*
X74692Y82396D01*
X74739Y82363D01*
X74785Y82329D01*
X74790Y82324D01*
X74798Y82316D01*
X74811Y82303D01*
X74832Y82286D01*
X74853Y82261D01*
X74878Y82231D01*
X74908Y82197D01*
X74933Y82159D01*
X74963Y82117D01*
X74988Y82071D01*
X75035Y81965D01*
X75056Y81910D01*
X75069Y81846D01*
X75077Y81779D01*
X75082Y81711D01*
Y81707D01*
Y81690D01*
X75077Y81664D01*
Y81630D01*
X75069Y81592D01*
X75060Y81546D01*
X75048Y81495D01*
X75031Y81444D01*
X75010Y81385D01*
X74980Y81330D01*
X74950Y81275D01*
X74908Y81220D01*
X74861Y81165D01*
X74806Y81118D01*
X74743Y81072D01*
X74671Y81034D01*
X74675Y81030D01*
X74696Y81025D01*
X74722Y81008D01*
X74756Y80991D01*
X74798Y80966D01*
X74845Y80936D01*
X74895Y80898D01*
X74946Y80856D01*
X74997Y80805D01*
X75043Y80750D01*
X75090Y80687D01*
X75132Y80615D01*
X75166Y80539D01*
X75192Y80454D01*
X75213Y80361D01*
X75217Y80264D01*
Y80259D01*
Y80247D01*
Y80230D01*
X75213Y80200D01*
X75208Y80171D01*
X75204Y80132D01*
X75196Y80090D01*
X75183Y80044D01*
X75153Y79942D01*
X75132Y79891D01*
X75107Y79836D01*
X75077Y79781D01*
X75039Y79726D01*
X75001Y79671D01*
X74955Y79616D01*
X74950Y79612D01*
X74942Y79604D01*
X74929Y79591D01*
X74912Y79574D01*
X74887Y79553D01*
X74861Y79532D01*
X74794Y79485D01*
X74718Y79434D01*
X74624Y79392D01*
X74574Y79375D01*
X74523Y79362D01*
X74472Y79354D01*
X74417Y79350D01*
X72847D01*
Y82528D01*
X74299D01*
X74320Y82523D01*
D02*
G37*
G36*
X82153Y79257D02*
X81916D01*
X82948Y82430D01*
X83185D01*
X82153Y79257D01*
D02*
G37*
%LPC*%
G36*
X20269Y28852D02*
X20008D01*
Y28296D01*
X20277D01*
X20300Y28298D01*
X20348Y28301D01*
X20399Y28303D01*
X20450Y28308D01*
X20475Y28311D01*
X20495Y28316D01*
X20516Y28321D01*
X20531Y28326D01*
X20533Y28329D01*
X20544Y28331D01*
X20559Y28339D01*
X20577Y28349D01*
X20597Y28362D01*
X20617Y28379D01*
X20638Y28397D01*
X20655Y28420D01*
X20658Y28423D01*
X20663Y28433D01*
X20671Y28445D01*
X20678Y28463D01*
X20686Y28486D01*
X20693Y28514D01*
X20698Y28542D01*
X20701Y28575D01*
Y28580D01*
Y28593D01*
X20698Y28613D01*
X20693Y28636D01*
X20686Y28664D01*
X20673Y28694D01*
X20658Y28722D01*
X20638Y28750D01*
X20635Y28753D01*
X20627Y28760D01*
X20612Y28773D01*
X20594Y28786D01*
X20571Y28801D01*
X20544Y28816D01*
X20513Y28829D01*
X20480Y28837D01*
X20477D01*
X20465Y28839D01*
X20447Y28842D01*
X20419Y28844D01*
X20399Y28847D01*
X20378D01*
X20356Y28849D01*
X20302D01*
X20269Y28852D01*
D02*
G37*
G36*
X14722Y28880D02*
X14699D01*
X14681Y28877D01*
X14661Y28875D01*
X14638Y28872D01*
X14610Y28867D01*
X14582Y28859D01*
X14519Y28839D01*
X14486Y28826D01*
X14453Y28809D01*
X14420Y28791D01*
X14389Y28768D01*
X14356Y28743D01*
X14328Y28712D01*
X14326Y28710D01*
X14323Y28705D01*
X14315Y28694D01*
X14305Y28682D01*
X14295Y28664D01*
X14282Y28641D01*
X14267Y28616D01*
X14254Y28585D01*
X14242Y28552D01*
X14227Y28514D01*
X14214Y28473D01*
X14204Y28428D01*
X14194Y28379D01*
X14188Y28326D01*
X14183Y28268D01*
X14181Y28207D01*
Y28204D01*
Y28191D01*
Y28174D01*
X14183Y28153D01*
X14186Y28125D01*
X14188Y28092D01*
X14194Y28057D01*
X14201Y28019D01*
X14219Y27937D01*
X14232Y27894D01*
X14244Y27854D01*
X14262Y27813D01*
X14282Y27772D01*
X14305Y27734D01*
X14333Y27701D01*
X14336Y27699D01*
X14341Y27694D01*
X14348Y27686D01*
X14361Y27676D01*
X14376Y27661D01*
X14394Y27648D01*
X14415Y27633D01*
X14440Y27617D01*
X14465Y27600D01*
X14496Y27584D01*
X14526Y27572D01*
X14562Y27559D01*
X14597Y27546D01*
X14638Y27539D01*
X14679Y27534D01*
X14722Y27531D01*
X14745D01*
X14760Y27534D01*
X14780Y27536D01*
X14806Y27541D01*
X14831Y27546D01*
X14859Y27551D01*
X14920Y27572D01*
X14953Y27587D01*
X14983Y27602D01*
X15016Y27622D01*
X15050Y27645D01*
X15080Y27671D01*
X15108Y27701D01*
X15110Y27704D01*
X15116Y27709D01*
X15123Y27719D01*
X15131Y27734D01*
X15143Y27752D01*
X15156Y27772D01*
X15169Y27800D01*
X15184Y27828D01*
X15199Y27864D01*
X15212Y27902D01*
X15225Y27943D01*
X15237Y27988D01*
X15245Y28039D01*
X15253Y28092D01*
X15258Y28151D01*
X15260Y28212D01*
Y28217D01*
Y28227D01*
Y28245D01*
X15258Y28268D01*
X15255Y28296D01*
X15253Y28326D01*
X15248Y28362D01*
X15243Y28400D01*
X15225Y28481D01*
X15212Y28524D01*
X15199Y28565D01*
X15182Y28605D01*
X15161Y28644D01*
X15138Y28679D01*
X15113Y28712D01*
X15110Y28715D01*
X15105Y28720D01*
X15098Y28727D01*
X15085Y28738D01*
X15072Y28750D01*
X15055Y28765D01*
X15032Y28781D01*
X15009Y28796D01*
X14983Y28811D01*
X14953Y28826D01*
X14920Y28842D01*
X14887Y28854D01*
X14849Y28865D01*
X14808Y28872D01*
X14768Y28877D01*
X14722Y28880D01*
D02*
G37*
G36*
X99819Y78254D02*
X99758D01*
X99746Y78251D01*
X99711Y78248D01*
X99666Y78238D01*
X99616Y78219D01*
X99562Y78194D01*
X99511Y78162D01*
X99485Y78140D01*
X99460Y78115D01*
X99454Y78108D01*
X99441Y78089D01*
X99422Y78057D01*
X99400Y78016D01*
X99378Y77962D01*
X99358Y77895D01*
X99346Y77822D01*
X99339Y77737D01*
Y77734D01*
Y77727D01*
Y77714D01*
X99343Y77699D01*
Y77676D01*
X99346Y77654D01*
X99355Y77600D01*
X99371Y77540D01*
X99393Y77476D01*
X99425Y77416D01*
X99470Y77362D01*
X99476Y77356D01*
X99492Y77343D01*
X99517Y77321D01*
X99555Y77299D01*
X99600Y77276D01*
X99654Y77254D01*
X99714Y77241D01*
X99784Y77235D01*
X99806D01*
X99822Y77238D01*
X99838D01*
X99860Y77241D01*
X99911Y77254D01*
X99968Y77270D01*
X100028Y77295D01*
X100089Y77333D01*
X100117Y77356D01*
X100143Y77381D01*
X100146Y77384D01*
X100149Y77387D01*
X100155Y77397D01*
X100165Y77407D01*
X100187Y77438D01*
X100213Y77483D01*
X100238Y77534D01*
X100260Y77594D01*
X100276Y77664D01*
X100282Y77699D01*
Y77737D01*
Y77740D01*
Y77746D01*
Y77759D01*
X100279Y77775D01*
Y77794D01*
X100276Y77819D01*
X100267Y77870D01*
X100247Y77930D01*
X100222Y77994D01*
X100190Y78054D01*
X100168Y78083D01*
X100143Y78111D01*
Y78115D01*
X100136Y78118D01*
X100117Y78134D01*
X100086Y78156D01*
X100044Y78184D01*
X99993Y78210D01*
X99930Y78232D01*
X99857Y78248D01*
X99819Y78254D01*
D02*
G37*
G36*
X96196Y78235D02*
X96183D01*
X96168Y78232D01*
X96149D01*
X96126Y78226D01*
X96101Y78219D01*
X96069Y78210D01*
X96041Y78200D01*
X96006Y78184D01*
X95974Y78165D01*
X95939Y78143D01*
X95907Y78115D01*
X95875Y78083D01*
X95847Y78045D01*
X95818Y78000D01*
X95796Y77949D01*
Y77946D01*
X95793Y77940D01*
X95790Y77927D01*
X95783Y77908D01*
X95777Y77886D01*
X95768Y77857D01*
X95761Y77826D01*
X95755Y77787D01*
X95745Y77743D01*
X95739Y77695D01*
X95729Y77641D01*
X95723Y77581D01*
X95720Y77518D01*
X95714Y77451D01*
X95710Y77378D01*
Y77299D01*
Y77295D01*
Y77289D01*
Y77276D01*
Y77260D01*
X95714Y77238D01*
Y77213D01*
X95717Y77187D01*
Y77156D01*
X95723Y77086D01*
X95736Y77010D01*
X95748Y76927D01*
X95768Y76841D01*
X95793Y76759D01*
X95825Y76676D01*
X95860Y76597D01*
X95907Y76530D01*
X95933Y76498D01*
X95958Y76473D01*
X95990Y76448D01*
X96022Y76429D01*
X96056Y76413D01*
X96091Y76400D01*
X96133Y76394D01*
X96174Y76391D01*
X96187D01*
X96199Y76394D01*
X96215D01*
X96237Y76397D01*
X96260Y76403D01*
X96317Y76419D01*
X96345Y76432D01*
X96377Y76448D01*
X96406Y76467D01*
X96437Y76486D01*
X96466Y76511D01*
X96495Y76543D01*
X96523Y76578D01*
X96545Y76616D01*
Y76619D01*
X96552Y76625D01*
X96555Y76641D01*
X96564Y76657D01*
X96574Y76683D01*
X96584Y76711D01*
X96593Y76746D01*
X96606Y76787D01*
X96615Y76835D01*
X96625Y76886D01*
X96634Y76943D01*
X96644Y77006D01*
X96653Y77076D01*
X96657Y77149D01*
X96663Y77232D01*
Y77318D01*
Y77321D01*
Y77327D01*
Y77340D01*
Y77356D01*
X96660Y77378D01*
Y77403D01*
X96657Y77429D01*
Y77460D01*
X96650Y77530D01*
X96637Y77607D01*
X96625Y77692D01*
X96606Y77778D01*
X96580Y77861D01*
X96549Y77946D01*
X96510Y78022D01*
X96466Y78092D01*
X96441Y78124D01*
X96412Y78149D01*
X96383Y78175D01*
X96352Y78197D01*
X96317Y78213D01*
X96279Y78226D01*
X96237Y78232D01*
X96196Y78235D01*
D02*
G37*
G36*
X90545Y77032D02*
X90541D01*
X90535Y77029D01*
X90522Y77025D01*
X90507Y77022D01*
X90488Y77019D01*
X90462Y77013D01*
X90430Y77006D01*
X90399Y76997D01*
X90357Y76991D01*
X90313Y76981D01*
X90265Y76972D01*
X90211Y76962D01*
X90154Y76949D01*
X90094Y76940D01*
X90027Y76930D01*
X89954Y76918D01*
X89951D01*
X89938Y76914D01*
X89916Y76908D01*
X89894Y76898D01*
X89865Y76886D01*
X89833Y76867D01*
X89805Y76845D01*
X89776Y76816D01*
X89773Y76813D01*
X89764Y76800D01*
X89754Y76784D01*
X89741Y76762D01*
X89726Y76733D01*
X89716Y76705D01*
X89706Y76670D01*
X89703Y76632D01*
Y76625D01*
Y76613D01*
X89706Y76591D01*
X89713Y76562D01*
X89726Y76530D01*
X89738Y76495D01*
X89760Y76464D01*
X89789Y76432D01*
X89792Y76429D01*
X89805Y76419D01*
X89824Y76406D01*
X89849Y76394D01*
X89881Y76381D01*
X89919Y76368D01*
X89964Y76359D01*
X90011Y76356D01*
X90033D01*
X90049Y76359D01*
X90068D01*
X90091Y76362D01*
X90141Y76371D01*
X90202Y76387D01*
X90265Y76406D01*
X90332Y76438D01*
X90392Y76479D01*
X90395D01*
X90399Y76486D01*
X90418Y76502D01*
X90443Y76527D01*
X90472Y76562D01*
X90503Y76603D01*
X90529Y76651D01*
X90545Y76708D01*
X90551Y76737D01*
Y76765D01*
X90545Y77032D01*
D02*
G37*
G36*
X97044Y80932D02*
X96963D01*
X96946Y80928D01*
X96900Y80924D01*
X96841Y80911D01*
X96773Y80890D01*
X96697Y80860D01*
X96625Y80818D01*
X96553Y80759D01*
X96549D01*
X96544Y80750D01*
X96523Y80725D01*
X96489Y80683D01*
X96451Y80628D01*
X96413Y80556D01*
X96384Y80475D01*
X96358Y80378D01*
X96354Y80323D01*
X96350Y80268D01*
Y80264D01*
Y80255D01*
Y80238D01*
X96354Y80217D01*
Y80192D01*
X96358Y80166D01*
X96371Y80094D01*
X96396Y80018D01*
X96426Y79938D01*
X96472Y79857D01*
X96498Y79819D01*
X96532Y79781D01*
X96536D01*
X96540Y79773D01*
X96566Y79752D01*
X96604Y79722D01*
X96659Y79688D01*
X96726Y79650D01*
X96807Y79620D01*
X96896Y79599D01*
X96946Y79595D01*
X96997Y79591D01*
X97018D01*
X97035Y79595D01*
X97078Y79599D01*
X97133Y79608D01*
X97192Y79629D01*
X97260Y79654D01*
X97327Y79688D01*
X97391Y79739D01*
X97395Y79743D01*
X97399Y79747D01*
X97412Y79760D01*
X97425Y79773D01*
X97441Y79794D01*
X97458Y79815D01*
X97480Y79845D01*
X97501Y79874D01*
X97518Y79912D01*
X97539Y79955D01*
X97556Y79997D01*
X97573Y80048D01*
X97585Y80103D01*
X97598Y80158D01*
X97602Y80221D01*
X97607Y80289D01*
Y80293D01*
Y80302D01*
Y80319D01*
X97602Y80336D01*
Y80361D01*
X97598Y80391D01*
X97585Y80458D01*
X97568Y80530D01*
X97539Y80606D01*
X97501Y80683D01*
X97450Y80750D01*
Y80755D01*
X97441Y80759D01*
X97420Y80780D01*
X97382Y80810D01*
X97331Y80843D01*
X97264Y80873D01*
X97188Y80903D01*
X97094Y80924D01*
X97044Y80932D01*
D02*
G37*
G36*
X94788Y81817D02*
X93807Y80437D01*
X94788Y80437D01*
Y81817D01*
D02*
G37*
G36*
X73998Y82164D02*
X73258D01*
Y81161D01*
X74206D01*
X74239Y81165D01*
X74286Y81173D01*
X74337Y81190D01*
X74392Y81207D01*
X74451Y81237D01*
X74506Y81275D01*
X74514Y81283D01*
X74531Y81300D01*
X74557Y81330D01*
X74591Y81372D01*
X74620Y81423D01*
X74646Y81482D01*
X74663Y81550D01*
X74671Y81630D01*
Y81635D01*
Y81643D01*
Y81656D01*
X74667Y81673D01*
X74658Y81719D01*
X74641Y81779D01*
X74616Y81846D01*
X74578Y81914D01*
X74553Y81948D01*
X74523Y81982D01*
X74485Y82011D01*
X74447Y82041D01*
X74438Y82045D01*
X74413Y82062D01*
X74375Y82079D01*
X74320Y82104D01*
X74252Y82126D01*
X74176Y82147D01*
X74091Y82159D01*
X73998Y82164D01*
D02*
G37*
G36*
X74163Y80797D02*
X73258D01*
Y79709D01*
X74328D01*
X74354Y79714D01*
X74396Y79718D01*
X74443Y79730D01*
X74502Y79747D01*
X74561Y79777D01*
X74620Y79815D01*
X74675Y79870D01*
X74679Y79879D01*
X74696Y79900D01*
X74722Y79934D01*
X74747Y79980D01*
X74773Y80035D01*
X74798Y80103D01*
X74815Y80179D01*
X74819Y80259D01*
Y80264D01*
Y80281D01*
X74815Y80310D01*
X74811Y80344D01*
X74798Y80382D01*
X74785Y80429D01*
X74764Y80479D01*
X74739Y80530D01*
X74701Y80577D01*
X74658Y80628D01*
X74608Y80674D01*
X74544Y80712D01*
X74468Y80746D01*
X74379Y80776D01*
X74277Y80793D01*
X74163Y80797D01*
D02*
G37*
%LPD*%
D10*
X43205Y69748D02*
G03*
X44475Y69748I635J0D01*
G01*
X96037Y67818D02*
G03*
X97307Y67818I635J0D01*
G01*
X47269Y51968D02*
G03*
X48539Y51968I635J0D01*
G01*
X45466Y16713D02*
X49403D01*
Y14046D02*
Y16713D01*
X45466Y14046D02*
X49403D01*
X45466D02*
Y15443D01*
X49403D02*
X51054D01*
X43688D02*
X45466D01*
Y16713D01*
X58776D02*
X62713D01*
Y14046D02*
Y16713D01*
X58776Y14046D02*
X62713D01*
X58776D02*
Y15443D01*
X62713D02*
X64364D01*
X56998D02*
X58776D01*
Y16713D01*
X77267Y50902D02*
Y52172D01*
X75489Y50902D02*
X77267D01*
X81204D02*
X82855D01*
X77267Y49505D02*
Y50902D01*
Y49505D02*
X81204D01*
Y52172D01*
X77267D02*
X81204D01*
X0Y0D02*
X114503D01*
Y87173D01*
X0D02*
X114503D01*
X0Y0D02*
Y87173D01*
X39319Y73660D02*
X48666D01*
X42189Y69748D02*
X43205D01*
X44475D02*
X45491D01*
Y59588D02*
Y69748D01*
X42189Y59588D02*
X45491D01*
X42189D02*
Y69748D01*
X92456Y71120D02*
X101092D01*
X95021Y57658D02*
Y67818D01*
Y57658D02*
X98323D01*
Y67818D01*
X97307D02*
X98323D01*
X95021D02*
X96037D01*
X38913Y55067D02*
X48260D01*
X49835Y36220D02*
Y37490D01*
X51613D01*
X44247D02*
X45898D01*
X49835D02*
Y38887D01*
X45898D02*
X49835D01*
X45898Y36220D02*
Y38887D01*
Y36220D02*
X49835D01*
X46253Y51968D02*
X47269D01*
X48539D02*
X49555D01*
Y41808D02*
Y51968D01*
X46253Y41808D02*
X49555D01*
X46253D02*
Y51968D01*
X77267Y56083D02*
Y57353D01*
X75489Y56083D02*
X77267D01*
X81204D02*
X82855D01*
X77267Y54686D02*
Y56083D01*
Y54686D02*
X81204D01*
Y57353D01*
X77267D02*
X81204D01*
X88798Y61874D02*
Y63906D01*
Y58826D02*
Y60731D01*
X87909Y61874D02*
X89687D01*
X87909Y60858D02*
X89687D01*
X97130Y52832D02*
X99162D01*
X94082D02*
X95987D01*
X97130Y51943D02*
Y53721D01*
X96114Y51943D02*
Y53721D01*
X68732Y44247D02*
Y48184D01*
X71399D01*
Y44247D02*
Y48184D01*
X70002Y44247D02*
X71399D01*
X70002Y48184D02*
Y49835D01*
Y42469D02*
Y44247D01*
X68732D02*
X70002D01*
X64872D02*
Y48184D01*
X67539D01*
Y44247D02*
Y48184D01*
X66142Y44247D02*
X67539D01*
X66142Y48184D02*
Y49835D01*
Y42469D02*
Y44247D01*
X64872D02*
X66142D01*
X37541D02*
Y48184D01*
X40208D01*
Y44247D02*
Y48184D01*
X38811Y44247D02*
X40208D01*
X38811Y48184D02*
Y49835D01*
Y42469D02*
Y44247D01*
X37541D02*
X38811D01*
X61316Y62636D02*
X65253D01*
Y59969D02*
Y62636D01*
X61316Y59969D02*
X65253D01*
X61316D02*
Y61366D01*
X65253D02*
X66904D01*
X59538D02*
X61316D01*
Y62636D01*
X41732Y77876D02*
X45669D01*
X41732D02*
Y80543D01*
X45669D01*
Y79146D02*
Y80543D01*
X40081Y79146D02*
X41732D01*
X45669D02*
X47447D01*
X45669Y77876D02*
Y79146D01*
X58674Y44247D02*
Y48184D01*
X61341D01*
Y44247D02*
Y48184D01*
X59944Y44247D02*
X61341D01*
X59944Y48184D02*
Y49835D01*
Y42469D02*
Y44247D01*
X58674D02*
X59944D01*
X70662Y30582D02*
X70916Y30836D01*
Y31344D01*
X70662Y31598D01*
X70408D01*
X70155Y31344D01*
Y30836D01*
X69901Y30582D01*
X69647D01*
X69393Y30836D01*
Y31344D01*
X69647Y31598D01*
X70916Y30074D02*
X69393D01*
Y29312D01*
X69647Y29058D01*
X70662D01*
X70916Y29312D01*
Y30074D01*
X69393Y28551D02*
X70408D01*
X70916Y28043D01*
X70408Y27535D01*
X69393D01*
X70155D01*
Y28551D01*
X73202Y30582D02*
X73456Y30836D01*
Y31344D01*
X73202Y31598D01*
X72948D01*
X72695Y31344D01*
Y30836D01*
X72441Y30582D01*
X72187D01*
X71933Y30836D01*
Y31344D01*
X72187Y31598D01*
X73202Y29058D02*
X73456Y29312D01*
Y29820D01*
X73202Y30074D01*
X72187D01*
X71933Y29820D01*
Y29312D01*
X72187Y29058D01*
X73456Y28551D02*
X71933D01*
Y27535D01*
X30886Y16256D02*
X29871D01*
X29363Y16764D01*
X29871Y17272D01*
X30886D01*
X30125D01*
Y16256D01*
X30886Y17780D02*
X29363D01*
X30886Y18795D01*
X29363D01*
X30886Y19303D02*
X29871D01*
X29363Y19811D01*
X29871Y20319D01*
X30886D01*
X30125D01*
Y19303D01*
X29363Y20827D02*
X30886D01*
Y21842D01*
X29363Y23112D02*
Y22604D01*
X29617Y22350D01*
X30632D01*
X30886Y22604D01*
Y23112D01*
X30632Y23366D01*
X29617D01*
X29363Y23112D01*
X29617Y24889D02*
X29363Y24635D01*
Y24127D01*
X29617Y23874D01*
X30632D01*
X30886Y24127D01*
Y24635D01*
X30632Y24889D01*
X30125D01*
Y24381D01*
X33427Y16256D02*
X34950D01*
Y17018D01*
X34696Y17272D01*
X33681D01*
X33427Y17018D01*
Y16256D01*
Y17780D02*
Y18287D01*
Y18033D01*
X34950D01*
Y17780D01*
Y18287D01*
X33681Y20065D02*
X33427Y19811D01*
Y19303D01*
X33681Y19049D01*
X34696D01*
X34950Y19303D01*
Y19811D01*
X34696Y20065D01*
X34189D01*
Y19557D01*
X33427Y20573D02*
Y21080D01*
Y20827D01*
X34950D01*
Y20573D01*
Y21080D01*
X33427Y21842D02*
Y22858D01*
Y22350D01*
X34950D01*
Y23366D02*
X33935D01*
X33427Y23874D01*
X33935Y24381D01*
X34950D01*
X34189D01*
Y23366D01*
X33427Y24889D02*
X34950D01*
Y25905D01*
X80874Y62078D02*
X82398D01*
Y62839D01*
X82144Y63093D01*
X81128D01*
X80874Y62839D01*
Y62078D01*
Y63601D02*
Y64109D01*
Y63855D01*
X82398D01*
Y63601D01*
Y64109D01*
X81128Y65886D02*
X80874Y65632D01*
Y65125D01*
X81128Y64871D01*
X82144D01*
X82398Y65125D01*
Y65632D01*
X82144Y65886D01*
X81636D01*
Y65379D01*
X80874Y66394D02*
Y66902D01*
Y66648D01*
X82398D01*
Y66394D01*
Y66902D01*
X80874Y67664D02*
Y68679D01*
Y68172D01*
X82398D01*
Y69187D02*
X81382D01*
X80874Y69695D01*
X81382Y70203D01*
X82398D01*
X81636D01*
Y69187D01*
X80874Y70711D02*
X82398D01*
Y71726D01*
X77521Y62078D02*
X76505D01*
X75997Y62585D01*
X76505Y63093D01*
X77521D01*
X76759D01*
Y62078D01*
X77521Y63601D02*
X75997D01*
X77521Y64617D01*
X75997D01*
X77521Y65125D02*
X76505D01*
X75997Y65632D01*
X76505Y66140D01*
X77521D01*
X76759D01*
Y65125D01*
X75997Y66648D02*
X77521D01*
Y67664D01*
X75997Y68933D02*
Y68426D01*
X76251Y68172D01*
X77267D01*
X77521Y68426D01*
Y68933D01*
X77267Y69187D01*
X76251D01*
X75997Y68933D01*
X76251Y70711D02*
X75997Y70457D01*
Y69949D01*
X76251Y69695D01*
X77267D01*
X77521Y69949D01*
Y70457D01*
X77267Y70711D01*
X76759D01*
Y70203D01*
X50495Y20320D02*
X51172D01*
Y20150D01*
X50495Y19473D01*
Y19304D01*
X51511Y19812D02*
X52188D01*
X53204Y20150D02*
X53034Y20320D01*
X52696D01*
X52527Y20150D01*
Y19981D01*
X52696Y19812D01*
X53034D01*
X53204Y19643D01*
Y19473D01*
X53034Y19304D01*
X52696D01*
X52527Y19473D01*
X54050Y19304D02*
X53711D01*
X53542Y19473D01*
Y19812D01*
X53711Y19981D01*
X54050D01*
X54219Y19812D01*
Y19643D01*
X53542D01*
X54896Y18965D02*
X55066D01*
X55235Y19135D01*
Y19981D01*
X54727D01*
X54558Y19812D01*
Y19473D01*
X54727Y19304D01*
X55235D01*
X56589Y20320D02*
Y19304D01*
X57097D01*
X57266Y19473D01*
Y20150D01*
X57097Y20320D01*
X56589D01*
X57605Y19304D02*
X57943D01*
X57774D01*
Y19981D01*
X57605D01*
X58451Y19304D02*
X58959D01*
X59128Y19473D01*
X58959Y19643D01*
X58621D01*
X58451Y19812D01*
X58621Y19981D01*
X59128D01*
X59467Y18965D02*
Y19981D01*
X59975D01*
X60144Y19812D01*
Y19473D01*
X59975Y19304D01*
X59467D01*
X60483D02*
X60821D01*
X60652D01*
Y20320D01*
X60483D01*
X61498Y19981D02*
X61837D01*
X62006Y19812D01*
Y19304D01*
X61498D01*
X61329Y19473D01*
X61498Y19643D01*
X62006D01*
X62345Y19981D02*
Y19473D01*
X62514Y19304D01*
X63022D01*
Y19135D01*
X62853Y18965D01*
X62683D01*
X63022Y19304D02*
Y19981D01*
X51308Y6807D02*
Y7484D01*
X51477D01*
X51647Y7315D01*
Y6807D01*
Y7315D01*
X51816Y7484D01*
X51985Y7315D01*
Y6807D01*
X52324D02*
X52662D01*
X52493D01*
Y7484D01*
X52324D01*
X53847D02*
X53339D01*
X53170Y7315D01*
Y6976D01*
X53339Y6807D01*
X53847D01*
X54186Y7484D02*
Y6807D01*
Y7146D01*
X54355Y7315D01*
X54524Y7484D01*
X54694D01*
X55371Y6807D02*
X55709D01*
X55879Y6976D01*
Y7315D01*
X55709Y7484D01*
X55371D01*
X55201Y7315D01*
Y6976D01*
X55371Y6807D01*
X56894Y7654D02*
X56725Y7823D01*
X56386D01*
X56217Y7654D01*
Y7484D01*
X56386Y7315D01*
X56725D01*
X56894Y7146D01*
Y6976D01*
X56725Y6807D01*
X56386D01*
X56217Y6976D01*
X57233Y7823D02*
Y6807D01*
X57741D01*
X57910Y6976D01*
Y7654D01*
X57741Y7823D01*
X57233D01*
X59941Y7654D02*
X59772Y7823D01*
X59433D01*
X59264Y7654D01*
Y6976D01*
X59433Y6807D01*
X59772D01*
X59941Y6976D01*
X60449Y7484D02*
X60788D01*
X60957Y7315D01*
Y6807D01*
X60449D01*
X60280Y6976D01*
X60449Y7146D01*
X60957D01*
X61295Y7484D02*
Y6807D01*
Y7146D01*
X61465Y7315D01*
X61634Y7484D01*
X61803D01*
X62988Y7823D02*
Y6807D01*
X62480D01*
X62311Y6976D01*
Y7315D01*
X62480Y7484D01*
X62988D01*
X21413Y13767D02*
Y13005D01*
X21984D01*
Y13386D01*
Y13005D01*
X22555D01*
X21413Y14147D02*
Y14528D01*
Y14338D01*
X22555D01*
Y14147D01*
Y14528D01*
Y15100D02*
X21413D01*
X22555Y15861D01*
X21413D01*
X22555Y16242D02*
X21793D01*
X21413Y16623D01*
X21793Y17004D01*
X22555D01*
X21984D01*
Y16242D01*
X21413Y17385D02*
X22555D01*
Y18147D01*
X21984Y18528D02*
Y19289D01*
X21603Y20432D02*
X21413Y20241D01*
Y19861D01*
X21603Y19670D01*
X21793D01*
X21984Y19861D01*
Y20241D01*
X22174Y20432D01*
X22365D01*
X22555Y20241D01*
Y19861D01*
X22365Y19670D01*
X21413Y20813D02*
Y21194D01*
Y21003D01*
X22555D01*
Y20813D01*
Y21194D01*
X21603Y22527D02*
X21413Y22336D01*
Y21955D01*
X21603Y21765D01*
X22365D01*
X22555Y21955D01*
Y22336D01*
X22365Y22527D01*
X21984D01*
Y22146D01*
X22555Y22908D02*
X21413D01*
X22555Y23669D01*
X21413D01*
X22555Y24050D02*
X21793D01*
X21413Y24431D01*
X21793Y24812D01*
X22555D01*
X21984D01*
Y24050D01*
X21413Y25193D02*
X22555D01*
Y25955D01*
X20218Y12903D02*
X18695D01*
X20218Y13919D01*
X18695D01*
X19203Y14427D02*
X19964D01*
X20218Y14681D01*
Y15442D01*
X19203D01*
Y16966D02*
Y16204D01*
X19457Y15950D01*
X19964D01*
X20218Y16204D01*
Y16966D01*
X19457Y17474D02*
Y18489D01*
X20218Y18997D02*
X19203D01*
X18695Y19505D01*
X19203Y20013D01*
X20218D01*
X19457D01*
Y18997D01*
X18949Y20521D02*
X18695Y20775D01*
Y21282D01*
X18949Y21536D01*
X19203D01*
X19457Y21282D01*
Y21029D01*
Y21282D01*
X19711Y21536D01*
X19964D01*
X20218Y21282D01*
Y20775D01*
X19964Y20521D01*
X17475Y12903D02*
X16460D01*
X15952Y13411D01*
X16460Y13919D01*
X17475D01*
X16713D01*
Y12903D01*
X16206Y15442D02*
X15952Y15188D01*
Y14681D01*
X16206Y14427D01*
X17221D01*
X17475Y14681D01*
Y15188D01*
X17221Y15442D01*
X16713D01*
Y14935D01*
X17475Y15950D02*
X15952D01*
X17475Y16966D01*
X15952D01*
Y17474D02*
X17475D01*
Y18235D01*
X17221Y18489D01*
X16206D01*
X15952Y18235D01*
Y17474D01*
X14834Y12903D02*
X13818D01*
X13310Y13411D01*
X13818Y13919D01*
X14834D01*
X14072D01*
Y12903D01*
X13564Y14427D02*
X13310Y14681D01*
Y15188D01*
X13564Y15442D01*
X13818D01*
X14072Y15188D01*
Y14935D01*
Y15188D01*
X14326Y15442D01*
X14580D01*
X14834Y15188D01*
Y14681D01*
X14580Y14427D01*
X13310Y15950D02*
X14326D01*
X14834Y16458D01*
X14326Y16966D01*
X13310D01*
X13564Y17474D02*
X13310Y17728D01*
Y18235D01*
X13564Y18489D01*
X13818D01*
X14072Y18235D01*
Y17982D01*
Y18235D01*
X14326Y18489D01*
X14580D01*
X14834Y18235D01*
Y17728D01*
X14580Y17474D01*
X7010Y54305D02*
X8703D01*
X9550D02*
X11242D01*
X12089Y55574D02*
Y53035D01*
X13358D01*
X13782Y53458D01*
Y55151D01*
X13358Y55574D01*
X12089D01*
X16321D02*
X14628D01*
Y53035D01*
X16321D01*
X14628Y54305D02*
X15474D01*
X17167Y55574D02*
Y53035D01*
X18437D01*
X18860Y53458D01*
Y53882D01*
X18437Y54305D01*
X17167D01*
X18437D01*
X18860Y54728D01*
Y55151D01*
X18437Y55574D01*
X17167D01*
X19706D02*
Y53458D01*
X20129Y53035D01*
X20976D01*
X21399Y53458D01*
Y55574D01*
X23938Y55151D02*
X23515Y55574D01*
X22669D01*
X22245Y55151D01*
Y53458D01*
X22669Y53035D01*
X23515D01*
X23938Y53458D01*
Y54305D01*
X23092D01*
X24785D02*
X26477D01*
X27324D02*
X29017D01*
X5994Y73202D02*
X7687D01*
X8534D02*
X10226D01*
X11073Y74472D02*
X11919D01*
X11496D01*
Y71933D01*
X11073D01*
X11919D01*
X13189D02*
Y74472D01*
X14882Y71933D01*
Y74472D01*
X15728Y71933D02*
Y74472D01*
X16998D01*
X17421Y74049D01*
Y73202D01*
X16998Y72779D01*
X15728D01*
X18267Y74472D02*
Y72356D01*
X18690Y71933D01*
X19537D01*
X19960Y72356D01*
Y74472D01*
X20806D02*
X22499D01*
X21653D01*
Y71933D01*
X25038Y74049D02*
X24615Y74472D01*
X23769D01*
X23345Y74049D01*
Y73626D01*
X23769Y73202D01*
X24615D01*
X25038Y72779D01*
Y72356D01*
X24615Y71933D01*
X23769D01*
X23345Y72356D01*
X25885Y73202D02*
X27577D01*
X28424D02*
X30117D01*
X10668Y70002D02*
Y68478D01*
X11684D01*
X13207Y70002D02*
X12192D01*
Y68478D01*
X13207D01*
X12192Y69240D02*
X12699D01*
X14731Y70002D02*
X13715D01*
Y69240D01*
X14223D01*
X13715D01*
Y68478D01*
X15239Y70002D02*
X16254D01*
X15746D01*
Y68478D01*
X18286D02*
Y69494D01*
X18793Y70002D01*
X19301Y69494D01*
Y68478D01*
Y69240D01*
X18286D01*
X19809Y68478D02*
Y70002D01*
X20571D01*
X20825Y69748D01*
Y69240D01*
X20571Y68986D01*
X19809D01*
X20317D02*
X20825Y68478D01*
X21333D02*
Y70002D01*
X21840Y69494D01*
X22348Y70002D01*
Y68478D01*
X10668Y63398D02*
Y64922D01*
X11430D01*
X11684Y64668D01*
Y64160D01*
X11430Y63906D01*
X10668D01*
X11176D02*
X11684Y63398D01*
X12192Y64922D02*
X12699D01*
X12445D01*
Y63398D01*
X12192D01*
X12699D01*
X14477Y64668D02*
X14223Y64922D01*
X13715D01*
X13461Y64668D01*
Y63652D01*
X13715Y63398D01*
X14223D01*
X14477Y63652D01*
Y64160D01*
X13969D01*
X14985Y64922D02*
Y63398D01*
Y64160D01*
X16000D01*
Y64922D01*
Y63398D01*
X16508Y64922D02*
X17524D01*
X17016D01*
Y63398D01*
X19555D02*
Y64414D01*
X20063Y64922D01*
X20571Y64414D01*
Y63398D01*
Y64160D01*
X19555D01*
X21079Y63398D02*
Y64922D01*
X21840D01*
X22094Y64668D01*
Y64160D01*
X21840Y63906D01*
X21079D01*
X21586D02*
X22094Y63398D01*
X22602D02*
Y64922D01*
X23110Y64414D01*
X23618Y64922D01*
Y63398D01*
X10668Y59944D02*
Y58420D01*
X11684D01*
X13207Y59944D02*
X12192D01*
Y58420D01*
X13207D01*
X12192Y59182D02*
X12699D01*
X14731Y59944D02*
X13715D01*
Y59182D01*
X14223D01*
X13715D01*
Y58420D01*
X15239Y59944D02*
X16254D01*
X15746D01*
Y58420D01*
X18286Y59944D02*
Y58420D01*
X19301D01*
X20825Y59944D02*
X19809D01*
Y58420D01*
X20825D01*
X19809Y59182D02*
X20317D01*
X22348Y59690D02*
X22094Y59944D01*
X21586D01*
X21333Y59690D01*
Y58674D01*
X21586Y58420D01*
X22094D01*
X22348Y58674D01*
Y59182D01*
X21840D01*
X10668Y48158D02*
Y49174D01*
X11176Y49682D01*
X11684Y49174D01*
Y48158D01*
Y48920D01*
X10668D01*
X13207Y49428D02*
X12953Y49682D01*
X12445D01*
X12192Y49428D01*
Y48412D01*
X12445Y48158D01*
X12953D01*
X13207Y48412D01*
Y48920D01*
X12699D01*
X13715Y48158D02*
Y49682D01*
X14731Y48158D01*
Y49682D01*
X15239D02*
Y48158D01*
X16000D01*
X16254Y48412D01*
Y49428D01*
X16000Y49682D01*
X15239D01*
X10668Y45720D02*
Y44196D01*
X11684D01*
X12192Y45720D02*
X13207D01*
X12699D01*
Y44196D01*
X13715D02*
X14223D01*
X13969D01*
Y45720D01*
X13715Y45466D01*
X14985Y44450D02*
X15239Y44196D01*
X15746D01*
X16000Y44450D01*
Y45466D01*
X15746Y45720D01*
X15239D01*
X14985Y45466D01*
Y45212D01*
X15239Y44958D01*
X16000D01*
X17524Y44196D02*
X16508D01*
X17524Y45212D01*
Y45466D01*
X17270Y45720D01*
X16762D01*
X16508Y45466D01*
X18032D02*
X18286Y45720D01*
X18793D01*
X19047Y45466D01*
Y44450D01*
X18793Y44196D01*
X18286D01*
X18032Y44450D01*
Y45466D01*
X21840Y45720D02*
X21333D01*
X21079Y45466D01*
Y44450D01*
X21333Y44196D01*
X21840D01*
X22094Y44450D01*
Y45466D01*
X21840Y45720D01*
X22602Y45212D02*
Y44450D01*
X22856Y44196D01*
X23618D01*
Y45212D01*
X24380Y45466D02*
Y45212D01*
X24126D01*
X24633D01*
X24380D01*
Y44450D01*
X24633Y44196D01*
X25395Y43688D02*
Y45212D01*
X26157D01*
X26411Y44958D01*
Y44450D01*
X26157Y44196D01*
X25395D01*
X26919Y45212D02*
Y44450D01*
X27173Y44196D01*
X27934D01*
Y45212D01*
X28696Y45466D02*
Y45212D01*
X28442D01*
X28950D01*
X28696D01*
Y44450D01*
X28950Y44196D01*
X10363Y40030D02*
Y41046D01*
X10871Y41554D01*
X11379Y41046D01*
Y40030D01*
Y40792D01*
X10363D01*
X11887Y41300D02*
X12141Y41554D01*
X12648D01*
X12902Y41300D01*
Y41046D01*
X12648Y40792D01*
X12395D01*
X12648D01*
X12902Y40538D01*
Y40284D01*
X12648Y40030D01*
X12141D01*
X11887Y40284D01*
X13410Y41554D02*
Y40538D01*
X13918Y40030D01*
X14426Y40538D01*
Y41554D01*
X14934Y41300D02*
X15188Y41554D01*
X15695D01*
X15949Y41300D01*
Y41046D01*
X15695Y40792D01*
X15442D01*
X15695D01*
X15949Y40538D01*
Y40284D01*
X15695Y40030D01*
X15188D01*
X14934Y40284D01*
X10363Y37592D02*
Y36068D01*
X11125D01*
X11379Y36322D01*
Y36576D01*
X11125Y36830D01*
X10363D01*
X11125D01*
X11379Y37084D01*
Y37338D01*
X11125Y37592D01*
X10363D01*
X11887Y36068D02*
Y37592D01*
X12648D01*
X12902Y37338D01*
Y36830D01*
X12648Y36576D01*
X11887D01*
X15695Y37592D02*
X15188D01*
X14934Y37338D01*
Y36322D01*
X15188Y36068D01*
X15695D01*
X15949Y36322D01*
Y37338D01*
X15695Y37592D01*
X16457Y37084D02*
Y36322D01*
X16711Y36068D01*
X17473D01*
Y37084D01*
X18235Y37338D02*
Y37084D01*
X17981D01*
X18489D01*
X18235D01*
Y36322D01*
X18489Y36068D01*
X19250Y35560D02*
Y37084D01*
X20012D01*
X20266Y36830D01*
Y36322D01*
X20012Y36068D01*
X19250D01*
X20774Y37084D02*
Y36322D01*
X21028Y36068D01*
X21789D01*
Y37084D01*
X22551Y37338D02*
Y37084D01*
X22297D01*
X22805D01*
X22551D01*
Y36322D01*
X22805Y36068D01*
X74371Y24282D02*
Y25806D01*
X75133D01*
X75387Y25552D01*
Y25044D01*
X75133Y24790D01*
X74371D01*
X76910Y24282D02*
X75895D01*
X76910Y25298D01*
Y25552D01*
X76656Y25806D01*
X76149D01*
X75895Y25552D01*
X69291Y20930D02*
Y22453D01*
X70053D01*
X70307Y22199D01*
Y21691D01*
X70053Y21437D01*
X69291D01*
X70815Y22199D02*
X71069Y22453D01*
X71576D01*
X71830Y22199D01*
Y21945D01*
X71576Y21691D01*
X71323D01*
X71576D01*
X71830Y21437D01*
Y21184D01*
X71576Y20930D01*
X71069D01*
X70815Y21184D01*
X42672Y16358D02*
Y17881D01*
X43434D01*
X43688Y17627D01*
Y17119D01*
X43434Y16865D01*
X42672D01*
X43180D02*
X43688Y16358D01*
X44196Y16612D02*
X44449Y16358D01*
X44957D01*
X45211Y16612D01*
Y17627D01*
X44957Y17881D01*
X44449D01*
X44196Y17627D01*
Y17373D01*
X44449Y17119D01*
X45211D01*
X55880Y16256D02*
Y17780D01*
X56642D01*
X56896Y17526D01*
Y17018D01*
X56642Y16764D01*
X55880D01*
X56388D02*
X56896Y16256D01*
X57404Y17526D02*
X57657Y17780D01*
X58165D01*
X58419Y17526D01*
Y17272D01*
X58165Y17018D01*
X58419Y16764D01*
Y16510D01*
X58165Y16256D01*
X57657D01*
X57404Y16510D01*
Y16764D01*
X57657Y17018D01*
X57404Y17272D01*
Y17526D01*
X57657Y17018D02*
X58165D01*
X83986Y47985D02*
Y49509D01*
X84494Y49001D01*
X85002Y49509D01*
Y47985D01*
X86525Y49255D02*
X86271Y49509D01*
X85763D01*
X85510Y49255D01*
Y48239D01*
X85763Y47985D01*
X86271D01*
X86525Y48239D01*
X87033Y49509D02*
Y48239D01*
X87287Y47985D01*
X87795D01*
X88049Y48239D01*
Y49509D01*
X88557Y47985D02*
X89064D01*
X88810D01*
Y49509D01*
X88557Y49255D01*
X100686Y84023D02*
Y85547D01*
X101193Y85039D01*
X101701Y85547D01*
Y84023D01*
X102209Y85547D02*
Y84023D01*
Y84785D01*
X103225D01*
Y85547D01*
Y84023D01*
X104494D02*
Y85547D01*
X103733Y84785D01*
X104748D01*
X8941Y84023D02*
Y85547D01*
X9449Y85039D01*
X9956Y85547D01*
Y84023D01*
X10464Y85547D02*
Y84023D01*
Y84785D01*
X11480D01*
Y85547D01*
Y84023D01*
X11988Y85293D02*
X12242Y85547D01*
X12750D01*
X13003Y85293D01*
Y85039D01*
X12750Y84785D01*
X12496D01*
X12750D01*
X13003Y84531D01*
Y84277D01*
X12750Y84023D01*
X12242D01*
X11988Y84277D01*
X1613Y10376D02*
Y11899D01*
X2121Y11392D01*
X2629Y11899D01*
Y10376D01*
X3136Y11899D02*
Y10376D01*
Y11138D01*
X4152D01*
Y11899D01*
Y10376D01*
X5676D02*
X4660D01*
X5676Y11392D01*
Y11645D01*
X5422Y11899D01*
X4914D01*
X4660Y11645D01*
X106375Y10770D02*
Y12293D01*
X106883Y11785D01*
X107391Y12293D01*
Y10770D01*
X107899Y12293D02*
Y10770D01*
Y11531D01*
X108914D01*
Y12293D01*
Y10770D01*
X109422D02*
X109930D01*
X109676D01*
Y12293D01*
X109422Y12039D01*
X91542Y69011D02*
Y68059D01*
X91732Y67869D01*
X92113D01*
X92303Y68059D01*
Y69011D01*
X92684Y67869D02*
X93065D01*
X92875D01*
Y69011D01*
X92684Y68821D01*
X42774Y53365D02*
Y52413D01*
X42964Y52222D01*
X43345D01*
X43535Y52413D01*
Y53365D01*
X43916Y53175D02*
X44107Y53365D01*
X44488D01*
X44678Y53175D01*
Y52984D01*
X44488Y52794D01*
X44297D01*
X44488D01*
X44678Y52603D01*
Y52413D01*
X44488Y52222D01*
X44107D01*
X43916Y52413D01*
X38710Y71145D02*
Y70193D01*
X38900Y70002D01*
X39281D01*
X39471Y70193D01*
Y71145D01*
X40614Y70002D02*
X39852D01*
X40614Y70764D01*
Y70955D01*
X40424Y71145D01*
X40043D01*
X39852Y70955D01*
X5994Y60350D02*
X6672D01*
X6333D01*
Y59334D01*
X7010D02*
Y60350D01*
X7518D01*
X7687Y60181D01*
Y59842D01*
X7518Y59673D01*
X7010D01*
X8026Y59334D02*
X8364D01*
X8195D01*
Y60350D01*
X8026Y60181D01*
X9549Y59334D02*
X8872D01*
X9549Y60012D01*
Y60181D01*
X9380Y60350D01*
X9041D01*
X8872Y60181D01*
X5994Y65430D02*
X6672D01*
X6333D01*
Y64414D01*
X7010D02*
Y65430D01*
X7518D01*
X7687Y65261D01*
Y64922D01*
X7518Y64753D01*
X7010D01*
X8026Y64414D02*
X8364D01*
X8195D01*
Y65430D01*
X8026Y65261D01*
X8872Y64414D02*
X9211D01*
X9041D01*
Y65430D01*
X8872Y65261D01*
X6064Y38498D02*
X6741D01*
X6403D01*
Y37482D01*
X7080D02*
Y38498D01*
X7588D01*
X7757Y38329D01*
Y37990D01*
X7588Y37821D01*
X7080D01*
X8095Y38329D02*
X8265Y38498D01*
X8603D01*
X8772Y38329D01*
Y38160D01*
X8603Y37990D01*
X8772Y37821D01*
Y37652D01*
X8603Y37482D01*
X8265D01*
X8095Y37652D01*
Y37821D01*
X8265Y37990D01*
X8095Y38160D01*
Y38329D01*
X8265Y37990D02*
X8603D01*
X5994Y46329D02*
X6672D01*
X6333D01*
Y45314D01*
X7010D02*
Y46329D01*
X7518D01*
X7687Y46160D01*
Y45821D01*
X7518Y45652D01*
X7010D01*
X8026Y46329D02*
X8703D01*
Y46160D01*
X8026Y45483D01*
Y45314D01*
X5994Y70510D02*
X6672D01*
X6333D01*
Y69494D01*
X7010D02*
Y70510D01*
X7518D01*
X7687Y70341D01*
Y70002D01*
X7518Y69833D01*
X7010D01*
X8703Y70510D02*
X8364Y70341D01*
X8026Y70002D01*
Y69664D01*
X8195Y69494D01*
X8534D01*
X8703Y69664D01*
Y69833D01*
X8534Y70002D01*
X8026D01*
X5994Y42468D02*
X6672D01*
X6333D01*
Y41453D01*
X7010D02*
Y42468D01*
X7518D01*
X7687Y42299D01*
Y41961D01*
X7518Y41791D01*
X7010D01*
X8703Y42468D02*
X8026D01*
Y41961D01*
X8364Y42130D01*
X8534D01*
X8703Y41961D01*
Y41622D01*
X8534Y41453D01*
X8195D01*
X8026Y41622D01*
X108033Y61882D02*
X109048D01*
X108541D01*
Y60358D01*
X109556D02*
Y61882D01*
X110318D01*
X110572Y61628D01*
Y61120D01*
X110318Y60866D01*
X109556D01*
X111080Y61628D02*
X111334Y61882D01*
X111842D01*
X112095Y61628D01*
Y61374D01*
X111842Y61120D01*
X111588D01*
X111842D01*
X112095Y60866D01*
Y60612D01*
X111842Y60358D01*
X111334D01*
X111080Y60612D01*
X5994Y50190D02*
X6672D01*
X6333D01*
Y49174D01*
X7010D02*
Y50190D01*
X7518D01*
X7687Y50021D01*
Y49682D01*
X7518Y49513D01*
X7010D01*
X8703Y49174D02*
X8026D01*
X8703Y49852D01*
Y50021D01*
X8534Y50190D01*
X8195D01*
X8026Y50021D01*
X39319Y36678D02*
Y38201D01*
X40081D01*
X40335Y37947D01*
Y37439D01*
X40081Y37185D01*
X39319D01*
X39827D02*
X40335Y36678D01*
X40843Y38201D02*
X41858D01*
Y37947D01*
X40843Y36932D01*
Y36678D01*
X58788Y52540D02*
Y54063D01*
X59550D01*
X59804Y53809D01*
Y53302D01*
X59550Y53048D01*
X58788D01*
X59296D02*
X59804Y52540D01*
X61327Y54063D02*
X60820Y53809D01*
X60312Y53302D01*
Y52794D01*
X60566Y52540D01*
X61074D01*
X61327Y52794D01*
Y53048D01*
X61074Y53302D01*
X60312D01*
X68847Y52540D02*
Y54063D01*
X69608D01*
X69862Y53809D01*
Y53302D01*
X69608Y53048D01*
X68847D01*
X69355D02*
X69862Y52540D01*
X71386Y54063D02*
X70370D01*
Y53302D01*
X70878Y53556D01*
X71132D01*
X71386Y53302D01*
Y52794D01*
X71132Y52540D01*
X70624D01*
X70370Y52794D01*
X38368Y81437D02*
Y82960D01*
X39129D01*
X39383Y82706D01*
Y82199D01*
X39129Y81945D01*
X38368D01*
X38875D02*
X39383Y81437D01*
X40653D02*
Y82960D01*
X39891Y82199D01*
X40907D01*
X57570Y63530D02*
Y65053D01*
X58332D01*
X58586Y64799D01*
Y64292D01*
X58332Y64038D01*
X57570D01*
X58078D02*
X58586Y63530D01*
X59094Y64799D02*
X59347Y65053D01*
X59855D01*
X60109Y64799D01*
Y64545D01*
X59855Y64292D01*
X59601D01*
X59855D01*
X60109Y64038D01*
Y63784D01*
X59855Y63530D01*
X59347D01*
X59094Y63784D01*
X64986Y52540D02*
Y54063D01*
X65748D01*
X66002Y53809D01*
Y53302D01*
X65748Y53048D01*
X64986D01*
X65494D02*
X66002Y52540D01*
X67525D02*
X66509D01*
X67525Y53556D01*
Y53809D01*
X67271Y54063D01*
X66763D01*
X66509Y53809D01*
X37656Y52557D02*
Y54081D01*
X38418D01*
X38672Y53827D01*
Y53319D01*
X38418Y53065D01*
X37656D01*
X38164D02*
X38672Y52557D01*
X39180D02*
X39688D01*
X39434D01*
Y54081D01*
X39180Y53827D01*
X45415Y6096D02*
Y7620D01*
X46177D01*
X46431Y7366D01*
Y6858D01*
X46177Y6604D01*
X45415D01*
X46939Y6096D02*
X47447D01*
X47193D01*
Y7620D01*
X46939Y7366D01*
X73558Y54152D02*
Y52629D01*
X74574D01*
X76098D02*
X75082D01*
X76098Y53644D01*
Y53898D01*
X75844Y54152D01*
X75336D01*
X75082Y53898D01*
X73568Y59435D02*
X73558Y57912D01*
X74574Y57905D01*
X75082Y57902D02*
X75590Y57899D01*
X75336Y57900D01*
X75346Y59424D01*
X75090Y59172D01*
X53531Y72978D02*
X53277Y73232D01*
X52769D01*
X52515Y72978D01*
Y71963D01*
X52769Y71709D01*
X53277D01*
X53531Y71963D01*
X54801Y71709D02*
Y73232D01*
X54039Y72470D01*
X55055D01*
X34848Y54711D02*
X34595Y54965D01*
X34087D01*
X33833Y54711D01*
Y53696D01*
X34087Y53442D01*
X34595D01*
X34848Y53696D01*
X35356Y54711D02*
X35610Y54965D01*
X36118D01*
X36372Y54711D01*
Y54457D01*
X36118Y54203D01*
X35864D01*
X36118D01*
X36372Y53949D01*
Y53696D01*
X36118Y53442D01*
X35610D01*
X35356Y53696D01*
X94654Y55884D02*
X94400Y56138D01*
X93892D01*
X93638Y55884D01*
Y54868D01*
X93892Y54614D01*
X94400D01*
X94654Y54868D01*
X96177Y54614D02*
X95162D01*
X96177Y55630D01*
Y55884D01*
X95923Y56138D01*
X95415D01*
X95162Y55884D01*
X89065Y66611D02*
X88811Y66865D01*
X88303D01*
X88049Y66611D01*
Y65595D01*
X88303Y65341D01*
X88811D01*
X89065Y65595D01*
X89573Y65341D02*
X90080D01*
X89827D01*
Y66865D01*
X89573Y66611D01*
X8839Y10160D02*
Y8636D01*
Y9398D01*
X9855D01*
Y10160D01*
Y8636D01*
X11124D02*
Y10160D01*
X10363Y9398D01*
X11378D01*
X114503Y0D02*
Y87173D01*
X0D02*
X114503D01*
X0Y0D02*
Y87173D01*
Y0D02*
X114503D01*
Y87173D01*
D11*
X43434Y23724D02*
X72009D01*
X73914D01*
Y26264D01*
X43434D02*
X73914D01*
X43434Y23724D02*
Y26264D01*
X45263Y13157D02*
X63043D01*
X45263Y8077D02*
X63043D01*
Y13157D01*
X45263Y8077D02*
Y13157D01*
X32944Y41529D02*
Y52959D01*
Y41529D02*
X36754D01*
Y52959D01*
X32944D02*
X36754D01*
X52349Y59411D02*
X56159D01*
X52349D02*
Y70841D01*
X56159D01*
Y59411D02*
Y70841D01*
D12*
X11684Y26822D02*
X26924D01*
X11684Y7620D02*
Y26822D01*
X79146Y27026D02*
Y78334D01*
X32004Y26924D02*
X79045D01*
X32004Y1422D02*
Y26924D01*
X30277Y32715D02*
Y75082D01*
X5690Y32715D02*
X30277D01*
X11684Y7518D02*
X26924Y7518D01*
Y26822D01*
X5690Y32715D02*
X5690Y75082D01*
X5690Y75082D02*
X30277Y75082D01*
X105093Y7847D02*
X104851Y8089D01*
X105093Y8331D01*
X105335Y8089D01*
X105093Y7847D01*
X39929Y75590D02*
Y74066D01*
X40944D01*
X41452Y75590D02*
X42468D01*
X41960D01*
Y74066D01*
X42976D02*
X43484D01*
X43230D01*
Y75590D01*
X42976Y75336D01*
X44245Y74320D02*
X44499Y74066D01*
X45007D01*
X45261Y74320D01*
Y75336D01*
X45007Y75590D01*
X44499D01*
X44245Y75336D01*
Y75082D01*
X44499Y74828D01*
X45261D01*
X46785Y74066D02*
X45769D01*
X46785Y75082D01*
Y75336D01*
X46531Y75590D01*
X46023D01*
X45769Y75336D01*
X47292D02*
X47546Y75590D01*
X48054D01*
X48308Y75336D01*
Y74320D01*
X48054Y74066D01*
X47546D01*
X47292Y74320D01*
Y75336D01*
X92964Y73050D02*
X93980D01*
X93472D01*
Y71526D01*
X95503Y72796D02*
X95249Y73050D01*
X94741D01*
X94488Y72796D01*
Y71780D01*
X94741Y71526D01*
X95249D01*
X95503Y71780D01*
X96011D02*
X96265Y71526D01*
X96773D01*
X97027Y71780D01*
Y72796D01*
X96773Y73050D01*
X96265D01*
X96011Y72796D01*
Y72542D01*
X96265Y72288D01*
X97027D01*
X98550Y73050D02*
X98042Y72796D01*
X97535Y72288D01*
Y71780D01*
X97788Y71526D01*
X98296D01*
X98550Y71780D01*
Y72034D01*
X98296Y72288D01*
X97535D01*
X100074Y71526D02*
X99058D01*
X100074Y72542D01*
Y72796D01*
X99820Y73050D01*
X99312D01*
X99058Y72796D01*
X39827Y57200D02*
X40843D01*
X40335D01*
Y55677D01*
X41351Y57200D02*
Y55677D01*
X42366D01*
X42874Y56946D02*
X43128Y57200D01*
X43636D01*
X43890Y56946D01*
Y55931D01*
X43636Y55677D01*
X43128D01*
X42874Y55931D01*
Y56946D01*
X44398Y57200D02*
X45413D01*
Y56946D01*
X44398Y55931D01*
Y55677D01*
X46937D02*
X45921D01*
X46937Y56692D01*
Y56946D01*
X46683Y57200D01*
X46175D01*
X45921Y56946D01*
D13*
X44501Y12395D02*
X44078D01*
X44289D01*
Y11126D01*
X44501Y11337D01*
X43443D02*
X43231Y11126D01*
X42808D01*
X42596Y11337D01*
Y11549D01*
X42808Y11760D01*
X43020D01*
X42808D01*
X42596Y11972D01*
Y12184D01*
X42808Y12395D01*
X43231D01*
X43443Y12184D01*
X44501Y9855D02*
X44078D01*
X44289D01*
Y8586D01*
X44501Y8797D01*
X42808Y9855D02*
Y8586D01*
X43443Y9220D01*
X42596D01*
X64821Y12395D02*
X64398D01*
X64609D01*
Y11126D01*
X64821Y11337D01*
X63974Y9855D02*
X64821D01*
X63974Y9009D01*
Y8797D01*
X64186Y8586D01*
X64609D01*
X64821Y8797D01*
X92713Y7587D02*
X92675Y6159D01*
X92762Y5871D01*
X92947Y5675D01*
X93230Y5573D01*
X93421Y5567D01*
X93709Y5655D01*
X93904Y5840D01*
X94007Y6123D01*
X94046Y7551D01*
X95923Y7214D02*
X95737Y7410D01*
X95454Y7513D01*
X95074Y7523D01*
X94786Y7436D01*
X94590Y7250D01*
X94585Y7060D01*
X94675Y6867D01*
X94768Y6769D01*
X94955Y6669D01*
X95521Y6463D01*
X95709Y6363D01*
X95802Y6265D01*
X95892Y6072D01*
X95884Y5787D01*
X95689Y5601D01*
X95400Y5514D01*
X95020Y5524D01*
X94737Y5627D01*
X94552Y5823D01*
X96378Y7488D02*
X96324Y5489D01*
X96378Y7488D02*
X97234Y7465D01*
X97517Y7362D01*
X97610Y7264D01*
X97700Y7071D01*
X97695Y6881D01*
X97595Y6693D01*
X97497Y6600D01*
X97209Y6513D01*
X96352Y6536D02*
X97209Y6513D01*
X97492Y6410D01*
X97584Y6312D01*
X97674Y6119D01*
X97667Y5834D01*
X97566Y5646D01*
X97469Y5553D01*
X97180Y5466D01*
X96324Y5489D01*
D14*
X95809Y12294D02*
X93524Y12276D01*
X95797Y13817D01*
X93512Y13799D01*
X93506Y14561D02*
X95410Y14576D01*
X95788Y14960D01*
X95782Y15721D01*
X95399Y16099D01*
X93494Y16085D01*
X93858Y18373D02*
X93480Y17989D01*
X93486Y17227D01*
X93869Y16849D01*
X95393Y16861D01*
X95771Y17245D01*
X95765Y18007D01*
X95381Y18385D01*
X93471Y19132D02*
X95756Y19149D01*
X95744Y20673D01*
X93442Y22940D02*
X93453Y21417D01*
X95738Y21434D01*
X95727Y22958D01*
X94596Y21426D02*
X94590Y22187D01*
X93427Y24845D02*
X93433Y24083D01*
X93817Y23705D01*
X95340Y23717D01*
X95718Y24100D01*
X95712Y24862D01*
X95328Y25240D01*
X93805Y25228D01*
X93427Y24845D01*
X93371Y32081D02*
X93383Y30558D01*
X94526Y30566D01*
X94520Y31328D01*
X94526Y30566D01*
X95668Y30575D01*
X93746Y32846D02*
X93362Y33224D01*
X93357Y33985D01*
X93735Y34369D01*
X94115Y34372D01*
X94499Y33994D01*
X94502Y33613D01*
X94499Y33994D01*
X94877Y34378D01*
X95258Y34381D01*
X95642Y34003D01*
X95648Y33241D01*
X95270Y32857D01*
X93729Y35131D02*
X93345Y35509D01*
X93339Y36271D01*
X93717Y36654D01*
X95240Y36666D01*
X95624Y36288D01*
X95630Y35526D01*
X95252Y35143D01*
X93729Y35131D01*
X93711Y37416D02*
X93327Y37794D01*
X93321Y38556D01*
X93699Y38940D01*
X94080Y38942D01*
X94464Y38565D01*
X94467Y38184D01*
X94464Y38565D01*
X94842Y38948D01*
X95223Y38951D01*
X95607Y38573D01*
X95613Y37812D01*
X95235Y37428D01*
X93313Y39698D02*
X95598Y39716D01*
X94836Y39710D01*
X93301Y41222D01*
X94452Y40088D01*
X95586Y41239D01*
X93676Y41986D02*
X93292Y42364D01*
X93286Y43126D01*
X93664Y43510D01*
X94045Y43513D01*
X94429Y43135D01*
X94807Y43519D01*
X95188Y43522D01*
X95571Y43144D01*
X95577Y42382D01*
X95199Y41998D01*
X94819Y41995D01*
X94435Y42373D01*
X94057Y41989D01*
X93676Y41986D01*
X94435Y42373D02*
X94429Y43135D01*
M02*
