G04*
G04 #@! TF.GenerationSoftware,Altium Limited,Altium Designer,19.1.5 (86)*
G04*
G04 Layer_Physical_Order=2*
G04 Layer_Color=16711680*
%FSLAX43Y43*%
%MOMM*%
G71*
G01*
G75*
%ADD10C,0.254*%
%ADD12C,0.508*%
%ADD26C,0.635*%
%ADD27C,1.270*%
%ADD28C,1.500*%
%ADD29R,1.500X1.500*%
%ADD30C,1.524*%
%ADD31R,1.500X1.500*%
%ADD32C,3.810*%
%ADD33R,2.540X1.270*%
%ADD34O,2.540X1.270*%
%ADD35C,1.200*%
%ADD36C,1.397*%
%ADD37O,1.270X2.540*%
G36*
X77622Y82219D02*
X60084D01*
Y78918D01*
X77622D01*
Y60439D01*
X68843D01*
X68800Y60566D01*
X68898Y60642D01*
X69061Y60854D01*
X69163Y61101D01*
X69198Y61366D01*
X69163Y61632D01*
X69061Y61879D01*
X68898Y62091D01*
X68686Y62254D01*
X68439Y62356D01*
X68174Y62391D01*
X67908Y62356D01*
X67661Y62254D01*
X67449Y62091D01*
X67286Y61879D01*
X67184Y61632D01*
X67149Y61366D01*
X67184Y61101D01*
X67286Y60854D01*
X67449Y60642D01*
X67548Y60566D01*
X67505Y60439D01*
X58683D01*
X58640Y60566D01*
X58738Y60642D01*
X58901Y60854D01*
X59003Y61101D01*
X59038Y61366D01*
X59003Y61632D01*
X58901Y61879D01*
X58738Y62091D01*
X58526Y62254D01*
X58279Y62356D01*
X58014Y62391D01*
X57748Y62356D01*
X57501Y62254D01*
X57289Y62091D01*
X57126Y61879D01*
X57024Y61632D01*
X56989Y61366D01*
X57024Y61101D01*
X57126Y60854D01*
X57289Y60642D01*
X57388Y60566D01*
X57345Y60439D01*
X54932D01*
X54889Y60566D01*
X54954Y60616D01*
X55111Y60821D01*
X55210Y61060D01*
X55244Y61316D01*
X55210Y61572D01*
X55111Y61810D01*
X54954Y62015D01*
X54749Y62173D01*
X54510Y62271D01*
X54254Y62305D01*
X53998Y62271D01*
X53760Y62173D01*
X53555Y62015D01*
X53397Y61810D01*
X53299Y61572D01*
X53265Y61316D01*
X53299Y61060D01*
X53397Y60821D01*
X53555Y60616D01*
X53620Y60566D01*
X53577Y60439D01*
X49188D01*
X49118Y60545D01*
X49152Y60626D01*
X49165Y60731D01*
X47650D01*
Y60858D01*
X47523D01*
Y61755D01*
X47015D01*
X46783Y61725D01*
X46567Y61635D01*
X46381Y61492D01*
X46239Y61307D01*
X46205Y61225D01*
X46080Y61200D01*
X45965Y61316D01*
X45754Y61457D01*
X45507Y61506D01*
X41449D01*
X41390Y61583D01*
X41178Y61746D01*
X40931Y61848D01*
X40665Y61883D01*
X39395D01*
X39130Y61848D01*
X38883Y61746D01*
X38671Y61583D01*
X38508Y61371D01*
X38406Y61124D01*
X38371Y60858D01*
X38406Y60593D01*
X38508Y60346D01*
X38549Y60293D01*
X37287Y59030D01*
X37146Y58820D01*
X37097Y58572D01*
Y49428D01*
X37146Y49181D01*
X37287Y48971D01*
X42613Y43644D01*
X42572Y43591D01*
X42470Y43344D01*
X42435Y43078D01*
X42470Y42813D01*
X42572Y42566D01*
X42735Y42354D01*
X42947Y42191D01*
X43194Y42089D01*
X43459Y42054D01*
X44729D01*
X44995Y42089D01*
X45242Y42191D01*
X45454Y42354D01*
X45617Y42566D01*
X45719Y42813D01*
X45754Y43078D01*
X45719Y43344D01*
X45617Y43591D01*
X45454Y43803D01*
X45242Y43966D01*
X44995Y44068D01*
X44729Y44103D01*
X43985D01*
X43494Y44595D01*
X43546Y44722D01*
X43967D01*
Y45618D01*
Y46515D01*
X43459D01*
X43227Y46485D01*
X43011Y46395D01*
X42825Y46252D01*
X42683Y46067D01*
X42593Y45850D01*
X42573Y45695D01*
X42439Y45650D01*
X38392Y49697D01*
Y50064D01*
X38497Y50135D01*
X38546Y50115D01*
X38811Y50080D01*
X39076Y50115D01*
X39324Y50217D01*
X39536Y50380D01*
X39694Y50587D01*
X42443D01*
Y49682D01*
X45745D01*
Y51617D01*
X45935Y51806D01*
X50784D01*
X50814Y51688D01*
X50567Y51586D01*
X50355Y51423D01*
X50192Y51211D01*
X50090Y50964D01*
X50055Y50698D01*
X50090Y50433D01*
X50192Y50186D01*
X50355Y49974D01*
X50567Y49811D01*
X50814Y49709D01*
X51079Y49674D01*
X52349D01*
X52615Y49709D01*
X52862Y49811D01*
X53074Y49974D01*
X53237Y50186D01*
X53339Y50433D01*
X53374Y50698D01*
X53339Y50964D01*
X53237Y51211D01*
X53074Y51423D01*
X52862Y51586D01*
X52615Y51688D01*
X52645Y51806D01*
X59058D01*
X59114Y51692D01*
X59057Y51617D01*
X58954Y51370D01*
X58919Y51105D01*
X58954Y50840D01*
X59057Y50592D01*
X59219Y50380D01*
X59432Y50217D01*
X59679Y50115D01*
X59944Y50080D01*
X60209Y50115D01*
X60456Y50217D01*
X60669Y50380D01*
X60831Y50592D01*
X60934Y50840D01*
X60969Y51105D01*
X60934Y51370D01*
X60831Y51617D01*
X60774Y51692D01*
X60830Y51806D01*
X64708D01*
X65151Y51363D01*
X65117Y51105D01*
X65152Y50840D01*
X65254Y50592D01*
X65417Y50380D01*
X65629Y50217D01*
X65876Y50115D01*
X66142Y50080D01*
X66407Y50115D01*
X66654Y50217D01*
X66866Y50380D01*
X67029Y50592D01*
X67131Y50840D01*
X67166Y51105D01*
X67131Y51370D01*
X67029Y51617D01*
X66866Y51829D01*
X66654Y51992D01*
X66407Y52095D01*
X66142Y52130D01*
X65883Y52096D01*
X65289Y52690D01*
X65121Y52803D01*
X64922Y52842D01*
X45720D01*
X45720Y52842D01*
X45522Y52803D01*
X45354Y52690D01*
X44378Y51714D01*
X42443D01*
Y51623D01*
X39694D01*
X39536Y51829D01*
X39324Y51992D01*
X39076Y52095D01*
X38811Y52130D01*
X38546Y52095D01*
X38497Y52075D01*
X38392Y52145D01*
Y58304D01*
X39921Y59834D01*
X40665D01*
X40931Y59869D01*
X41178Y59971D01*
X41390Y60134D01*
X41449Y60211D01*
X45239D01*
X46116Y59334D01*
X46326Y59193D01*
X46574Y59144D01*
X77622D01*
Y28042D01*
X30886D01*
Y1321D01*
X7511D01*
X7483Y1444D01*
X7745Y1574D01*
X8237Y1902D01*
X8681Y2292D01*
X9071Y2736D01*
X9399Y3228D01*
X9660Y3758D01*
X9850Y4317D01*
X9965Y4897D01*
X10004Y5486D01*
X9965Y6076D01*
X9850Y6656D01*
X9660Y7215D01*
X9399Y7745D01*
X9071Y8237D01*
X8681Y8681D01*
X8237Y9071D01*
X7745Y9399D01*
X7215Y9660D01*
X6656Y9850D01*
X6076Y9965D01*
X5486Y10004D01*
X4897Y9965D01*
X4317Y9850D01*
X3758Y9660D01*
X3228Y9399D01*
X2736Y9071D01*
X2292Y8681D01*
X1902Y8237D01*
X1574Y7745D01*
X1444Y7483D01*
X1321Y7511D01*
Y79661D01*
X1444Y79690D01*
X1574Y79428D01*
X1902Y78936D01*
X2292Y78492D01*
X2736Y78102D01*
X3228Y77774D01*
X3758Y77513D01*
X4317Y77323D01*
X4897Y77207D01*
X5486Y77169D01*
X6076Y77207D01*
X6656Y77323D01*
X7215Y77513D01*
X7745Y77774D01*
X8237Y78102D01*
X8681Y78492D01*
X9071Y78936D01*
X9399Y79428D01*
X9660Y79958D01*
X9850Y80517D01*
X9965Y81097D01*
X10004Y81686D01*
X9965Y82276D01*
X9850Y82856D01*
X9660Y83415D01*
X9399Y83945D01*
X9071Y84437D01*
X8681Y84881D01*
X8237Y85271D01*
X7745Y85599D01*
X7483Y85728D01*
X7511Y85852D01*
X77622D01*
Y82219D01*
D02*
G37*
G36*
X106890Y85852D02*
X106919Y85728D01*
X106656Y85599D01*
X106165Y85271D01*
X105721Y84881D01*
X105331Y84437D01*
X105003Y83945D01*
X104741Y83415D01*
X104551Y82856D01*
X104436Y82276D01*
X104398Y81686D01*
X104436Y81097D01*
X104551Y80517D01*
X104741Y79958D01*
X105003Y79428D01*
X105331Y78936D01*
X105721Y78492D01*
X106165Y78102D01*
X106656Y77774D01*
X107186Y77513D01*
X107746Y77323D01*
X108326Y77207D01*
X108915Y77169D01*
X109505Y77207D01*
X110084Y77323D01*
X110644Y77513D01*
X111174Y77774D01*
X111665Y78102D01*
X112110Y78492D01*
X112499Y78936D01*
X112828Y79428D01*
X113055Y79889D01*
X113182Y79860D01*
X113182Y7616D01*
X113059Y7587D01*
X113031Y7644D01*
X112703Y8135D01*
X112313Y8579D01*
X111869Y8969D01*
X111377Y9297D01*
X110847Y9559D01*
X110288Y9749D01*
X109708Y9864D01*
X109118Y9902D01*
X108529Y9864D01*
X107949Y9749D01*
X107390Y9559D01*
X106860Y9297D01*
X106368Y8969D01*
X105924Y8579D01*
X105534Y8135D01*
X105206Y7644D01*
X104945Y7114D01*
X104755Y6554D01*
X104639Y5974D01*
X104601Y5385D01*
X104639Y4795D01*
X104755Y4216D01*
X104945Y3656D01*
X105206Y3126D01*
X105534Y2635D01*
X105924Y2190D01*
X106368Y1801D01*
X106860Y1472D01*
X106916Y1444D01*
X106887Y1321D01*
X33325Y1321D01*
X33325Y2642D01*
Y25908D01*
X43849D01*
X43883Y25781D01*
X43716Y25564D01*
X43602Y25289D01*
X43563Y24994D01*
X43602Y24698D01*
X43716Y24423D01*
X43897Y24187D01*
X44134Y24006D01*
X44409Y23892D01*
X44704Y23853D01*
X44999Y23892D01*
X45274Y24006D01*
X45511Y24187D01*
X45692Y24423D01*
X45806Y24698D01*
X45845Y24994D01*
X45806Y25289D01*
X45692Y25564D01*
X45525Y25781D01*
X45559Y25908D01*
X46389D01*
X46423Y25781D01*
X46256Y25564D01*
X46142Y25289D01*
X46103Y24994D01*
X46142Y24698D01*
X46256Y24423D01*
X46437Y24187D01*
X46674Y24006D01*
X46949Y23892D01*
X47244Y23853D01*
X47539Y23892D01*
X47814Y24006D01*
X48051Y24187D01*
X48232Y24423D01*
X48346Y24698D01*
X48385Y24994D01*
X48346Y25289D01*
X48232Y25564D01*
X48065Y25781D01*
X48099Y25908D01*
X49118D01*
X49161Y25781D01*
X49068Y25710D01*
X48907Y25500D01*
X48806Y25256D01*
X48788Y25121D01*
X49784D01*
X50780D01*
X50762Y25256D01*
X50661Y25500D01*
X50500Y25710D01*
X50407Y25781D01*
X50450Y25908D01*
X51469D01*
X51503Y25781D01*
X51336Y25564D01*
X51222Y25289D01*
X51183Y24994D01*
X51222Y24698D01*
X51336Y24423D01*
X51517Y24187D01*
X51754Y24006D01*
X52029Y23892D01*
X52324Y23853D01*
X52619Y23892D01*
X52894Y24006D01*
X53131Y24187D01*
X53312Y24423D01*
X53426Y24698D01*
X53465Y24994D01*
X53426Y25289D01*
X53312Y25564D01*
X53145Y25781D01*
X53179Y25908D01*
X54009D01*
X54043Y25781D01*
X53876Y25564D01*
X53762Y25289D01*
X53723Y24994D01*
X53762Y24698D01*
X53876Y24423D01*
X54057Y24187D01*
X54294Y24006D01*
X54569Y23892D01*
X54864Y23853D01*
X55159Y23892D01*
X55434Y24006D01*
X55671Y24187D01*
X55852Y24423D01*
X55966Y24698D01*
X56005Y24994D01*
X55966Y25289D01*
X55852Y25564D01*
X55685Y25781D01*
X55719Y25908D01*
X56549D01*
X56583Y25781D01*
X56416Y25564D01*
X56302Y25289D01*
X56263Y24994D01*
X56302Y24698D01*
X56416Y24423D01*
X56597Y24187D01*
X56834Y24006D01*
X57109Y23892D01*
X57404Y23853D01*
X57699Y23892D01*
X57974Y24006D01*
X58211Y24187D01*
X58392Y24423D01*
X58506Y24698D01*
X58545Y24994D01*
X58506Y25289D01*
X58392Y25564D01*
X58225Y25781D01*
X58259Y25908D01*
X59089D01*
X59123Y25781D01*
X58956Y25564D01*
X58842Y25289D01*
X58803Y24994D01*
X58842Y24698D01*
X58956Y24423D01*
X59137Y24187D01*
X59374Y24006D01*
X59649Y23892D01*
X59944Y23853D01*
X60239Y23892D01*
X60514Y24006D01*
X60751Y24187D01*
X60932Y24423D01*
X61046Y24698D01*
X61085Y24994D01*
X61046Y25289D01*
X60932Y25564D01*
X60765Y25781D01*
X60799Y25908D01*
X61629D01*
X61663Y25781D01*
X61496Y25564D01*
X61382Y25289D01*
X61343Y24994D01*
X61382Y24698D01*
X61496Y24423D01*
X61677Y24187D01*
X61914Y24006D01*
X62189Y23892D01*
X62484Y23853D01*
X62779Y23892D01*
X63054Y24006D01*
X63291Y24187D01*
X63472Y24423D01*
X63586Y24698D01*
X63625Y24994D01*
X63586Y25289D01*
X63472Y25564D01*
X63305Y25781D01*
X63339Y25908D01*
X64169D01*
X64203Y25781D01*
X64036Y25564D01*
X63922Y25289D01*
X63883Y24994D01*
X63922Y24698D01*
X64036Y24423D01*
X64217Y24187D01*
X64454Y24006D01*
X64729Y23892D01*
X65024Y23853D01*
X65319Y23892D01*
X65594Y24006D01*
X65831Y24187D01*
X66012Y24423D01*
X66126Y24698D01*
X66165Y24994D01*
X66126Y25289D01*
X66012Y25564D01*
X65845Y25781D01*
X65879Y25908D01*
X66709D01*
X66743Y25781D01*
X66576Y25564D01*
X66462Y25289D01*
X66423Y24994D01*
X66462Y24698D01*
X66576Y24423D01*
X66757Y24187D01*
X66994Y24006D01*
X67269Y23892D01*
X67564Y23853D01*
X67859Y23892D01*
X68134Y24006D01*
X68371Y24187D01*
X68552Y24423D01*
X68666Y24698D01*
X68705Y24994D01*
X68666Y25289D01*
X68552Y25564D01*
X68385Y25781D01*
X68419Y25908D01*
X69249D01*
X69283Y25781D01*
X69116Y25564D01*
X69002Y25289D01*
X68963Y24994D01*
X69002Y24698D01*
X69116Y24423D01*
X69297Y24187D01*
X69534Y24006D01*
X69809Y23892D01*
X70104Y23853D01*
X70399Y23892D01*
X70667Y24003D01*
X72520Y22150D01*
X72520Y22150D01*
X72688Y22038D01*
X72886Y21998D01*
X72886Y21998D01*
X83736D01*
X83777Y21878D01*
X83725Y21838D01*
X83543Y21602D01*
X83429Y21326D01*
X83390Y21031D01*
X83429Y20736D01*
X83543Y20461D01*
X83725Y20225D01*
X83961Y20043D01*
X84236Y19929D01*
X84531Y19890D01*
X84826Y19929D01*
X85102Y20043D01*
X85338Y20225D01*
X85519Y20461D01*
X85633Y20736D01*
X85672Y21031D01*
X85633Y21326D01*
X85519Y21602D01*
X85338Y21838D01*
X85285Y21878D01*
X85326Y21998D01*
X86276D01*
X86317Y21878D01*
X86265Y21838D01*
X86083Y21602D01*
X85969Y21326D01*
X85930Y21031D01*
X85969Y20736D01*
X86083Y20461D01*
X86265Y20225D01*
X86501Y20043D01*
X86776Y19929D01*
X87071Y19890D01*
X87366Y19929D01*
X87642Y20043D01*
X87878Y20225D01*
X88059Y20461D01*
X88173Y20736D01*
X88212Y21031D01*
X88173Y21326D01*
X88059Y21602D01*
X87878Y21838D01*
X87825Y21878D01*
X87866Y21998D01*
X98716D01*
X98915Y22038D01*
X99083Y22150D01*
X101964Y25031D01*
X102016Y25009D01*
X102311Y24970D01*
X102606Y25009D01*
X102882Y25123D01*
X103118Y25305D01*
X103299Y25541D01*
X103413Y25816D01*
X103452Y26111D01*
X103413Y26406D01*
X103299Y26682D01*
X103118Y26918D01*
X102882Y27099D01*
X102606Y27213D01*
X102311Y27252D01*
X102016Y27213D01*
X101741Y27099D01*
X101505Y26918D01*
X101323Y26682D01*
X101209Y26406D01*
X101170Y26111D01*
X101209Y25816D01*
X101231Y25764D01*
X98502Y23034D01*
X88187D01*
X88117Y23140D01*
X88173Y23276D01*
X88212Y23571D01*
X88173Y23866D01*
X88059Y24142D01*
X87900Y24349D01*
X87943Y24476D01*
X98654D01*
X98852Y24515D01*
X99020Y24627D01*
X101964Y27571D01*
X102016Y27549D01*
X102311Y27510D01*
X102606Y27549D01*
X102882Y27663D01*
X103118Y27845D01*
X103299Y28081D01*
X103413Y28356D01*
X103452Y28651D01*
X103413Y28946D01*
X103299Y29222D01*
X103118Y29458D01*
X102882Y29639D01*
X102606Y29753D01*
X102311Y29792D01*
X102016Y29753D01*
X101741Y29639D01*
X101505Y29458D01*
X101323Y29222D01*
X101209Y28946D01*
X101170Y28651D01*
X101209Y28356D01*
X101231Y28304D01*
X98439Y25512D01*
X88184D01*
X88100Y25639D01*
X88173Y25816D01*
X88212Y26111D01*
X88173Y26406D01*
X88059Y26682D01*
X87878Y26918D01*
X87642Y27099D01*
X87366Y27213D01*
X87071Y27252D01*
X86776Y27213D01*
X86501Y27099D01*
X86265Y26918D01*
X86083Y26682D01*
X85969Y26406D01*
X85930Y26111D01*
X85969Y25816D01*
X86043Y25639D01*
X85958Y25512D01*
X85644D01*
X85560Y25639D01*
X85633Y25816D01*
X85672Y26111D01*
X85633Y26406D01*
X85519Y26682D01*
X85338Y26918D01*
X85102Y27099D01*
X84826Y27213D01*
X84531Y27252D01*
X84236Y27213D01*
X83961Y27099D01*
X83725Y26918D01*
X83543Y26682D01*
X83429Y26406D01*
X83390Y26111D01*
X83429Y25816D01*
X83503Y25639D01*
X83418Y25512D01*
X73775D01*
Y25908D01*
X80772D01*
X80772Y59144D01*
X87703D01*
X87799Y59017D01*
X87774Y58826D01*
X87809Y58561D01*
X87911Y58314D01*
X88074Y58102D01*
X88286Y57939D01*
X88533Y57837D01*
X88798Y57802D01*
X89064Y57837D01*
X89311Y57939D01*
X89523Y58102D01*
X89686Y58314D01*
X89788Y58561D01*
X89823Y58826D01*
X89788Y59092D01*
X89686Y59339D01*
X89523Y59551D01*
X89311Y59714D01*
X89262Y59734D01*
X89237Y59859D01*
X91215Y61836D01*
X91278Y61831D01*
X91361Y61700D01*
X91347Y61595D01*
X94377D01*
X94364Y61700D01*
X94330Y61782D01*
X94400Y61887D01*
X96607D01*
X99001Y59494D01*
X98960Y59440D01*
X98858Y59193D01*
X98823Y58928D01*
X98858Y58663D01*
X98960Y58416D01*
X99123Y58203D01*
X99335Y58041D01*
X99582Y57938D01*
X99835Y57905D01*
Y54421D01*
X99258Y53844D01*
X99162Y53857D01*
X98896Y53822D01*
X98649Y53719D01*
X98437Y53557D01*
X98274Y53344D01*
X98172Y53097D01*
X98137Y52832D01*
X98172Y52567D01*
X98274Y52320D01*
X98437Y52107D01*
X98649Y51945D01*
X98896Y51842D01*
X99162Y51807D01*
X99427Y51842D01*
X99674Y51945D01*
X99886Y52107D01*
X100049Y52320D01*
X100151Y52567D01*
X100186Y52832D01*
X100174Y52928D01*
X100940Y53695D01*
X101081Y53905D01*
X101130Y54153D01*
Y57905D01*
X101383Y57938D01*
X101630Y58041D01*
X101842Y58203D01*
X101901Y58281D01*
X109231D01*
X109396Y58064D01*
X109622Y57891D01*
X109885Y57783D01*
X110166Y57746D01*
X110448Y57783D01*
X110711Y57891D01*
X110936Y58064D01*
X111109Y58290D01*
X111218Y58553D01*
X111255Y58834D01*
X111218Y59116D01*
X111109Y59379D01*
X110936Y59604D01*
X110711Y59777D01*
X110448Y59886D01*
X110166Y59923D01*
X109885Y59886D01*
X109622Y59777D01*
X109396Y59604D01*
X109374Y59575D01*
X101901D01*
X101842Y59653D01*
X101630Y59815D01*
X101383Y59918D01*
X101117Y59953D01*
X100373D01*
X100000Y60326D01*
X100049Y60443D01*
X101117D01*
X101383Y60478D01*
X101630Y60581D01*
X101842Y60743D01*
X102005Y60956D01*
X102107Y61203D01*
X102142Y61468D01*
X102107Y61733D01*
X102005Y61980D01*
X101842Y62193D01*
X101630Y62355D01*
X101383Y62458D01*
X101117Y62493D01*
X99847D01*
X99582Y62458D01*
X99335Y62355D01*
X99123Y62193D01*
X98960Y61980D01*
X98858Y61733D01*
X98845Y61642D01*
X98725Y61601D01*
X97333Y62993D01*
X97123Y63133D01*
X96876Y63182D01*
X94282D01*
X94242Y63309D01*
X94385Y63496D01*
X94487Y63743D01*
X94522Y64008D01*
X94487Y64273D01*
X94385Y64520D01*
X94222Y64733D01*
X94010Y64895D01*
X93763Y64998D01*
X93497Y65033D01*
X92227D01*
X91962Y64998D01*
X91715Y64895D01*
X91503Y64733D01*
X91340Y64520D01*
X91238Y64273D01*
X91203Y64008D01*
X91238Y63743D01*
X91340Y63496D01*
X91483Y63309D01*
X91443Y63182D01*
X90998D01*
X90750Y63133D01*
X90540Y62993D01*
X87987Y60439D01*
X80772D01*
X80772Y78918D01*
X100711D01*
Y82219D01*
X80772D01*
Y85852D01*
X106890Y85852D01*
D02*
G37*
%LPC*%
G36*
X48971Y80171D02*
X48706Y80136D01*
X48459Y80034D01*
X48247Y79871D01*
X48084Y79659D01*
X47981Y79412D01*
X47946Y79146D01*
X47981Y78881D01*
X48084Y78634D01*
X48247Y78422D01*
X48459Y78259D01*
X48706Y78157D01*
X48971Y78122D01*
X49236Y78157D01*
X49484Y78259D01*
X49696Y78422D01*
X49859Y78634D01*
X49961Y78881D01*
X49996Y79146D01*
X49961Y79412D01*
X49859Y79659D01*
X49696Y79871D01*
X49484Y80034D01*
X49236Y80136D01*
X48971Y80171D01*
D02*
G37*
G36*
X38811D02*
X38546Y80136D01*
X38299Y80034D01*
X38087Y79871D01*
X37924Y79659D01*
X37821Y79412D01*
X37786Y79146D01*
X37821Y78881D01*
X37924Y78634D01*
X38087Y78422D01*
X38299Y78259D01*
X38546Y78157D01*
X38811Y78122D01*
X39076Y78157D01*
X39324Y78259D01*
X39536Y78422D01*
X39699Y78634D01*
X39801Y78881D01*
X39836Y79146D01*
X39801Y79412D01*
X39699Y79659D01*
X39536Y79871D01*
X39324Y80034D01*
X39076Y80136D01*
X38811Y80171D01*
D02*
G37*
G36*
X54254Y69925D02*
X53998Y69891D01*
X53760Y69793D01*
X53555Y69635D01*
X53397Y69430D01*
X53299Y69192D01*
X53265Y68936D01*
X53299Y68680D01*
X53397Y68441D01*
X53555Y68236D01*
X53760Y68079D01*
X53998Y67980D01*
X54254Y67946D01*
X54510Y67980D01*
X54749Y68079D01*
X54954Y68236D01*
X55111Y68441D01*
X55210Y68680D01*
X55244Y68936D01*
X55210Y69192D01*
X55111Y69430D01*
X54954Y69635D01*
X54749Y69793D01*
X54510Y69891D01*
X54254Y69925D01*
D02*
G37*
G36*
X41681Y69494D02*
X38379D01*
Y67462D01*
X41681D01*
Y69494D01*
D02*
G37*
G36*
X48285Y69503D02*
X47015D01*
X46750Y69468D01*
X46503Y69366D01*
X46291Y69203D01*
X46128Y68991D01*
X46026Y68744D01*
X45991Y68478D01*
X46026Y68213D01*
X46128Y67966D01*
X46291Y67754D01*
X46503Y67591D01*
X46750Y67489D01*
X47015Y67454D01*
X48285D01*
X48551Y67489D01*
X48798Y67591D01*
X49010Y67754D01*
X49173Y67966D01*
X49275Y68213D01*
X49310Y68478D01*
X49275Y68744D01*
X49173Y68991D01*
X49010Y69203D01*
X48798Y69366D01*
X48551Y69468D01*
X48285Y69503D01*
D02*
G37*
G36*
X7754Y69575D02*
X7472Y69538D01*
X7209Y69429D01*
X6984Y69256D01*
X6811Y69031D01*
X6702Y68768D01*
X6665Y68486D01*
X6702Y68205D01*
X6811Y67942D01*
X6984Y67716D01*
X7209Y67543D01*
X7472Y67435D01*
X7754Y67398D01*
X8035Y67435D01*
X8298Y67543D01*
X8524Y67716D01*
X8697Y67942D01*
X8805Y68205D01*
X8842Y68486D01*
X8805Y68768D01*
X8697Y69031D01*
X8524Y69256D01*
X8298Y69429D01*
X8035Y69538D01*
X7754Y69575D01*
D02*
G37*
G36*
X48285Y66963D02*
X47015D01*
X46750Y66928D01*
X46503Y66826D01*
X46291Y66663D01*
X46128Y66451D01*
X46026Y66204D01*
X45991Y65938D01*
X46026Y65673D01*
X46128Y65426D01*
X46291Y65214D01*
X46503Y65051D01*
X46750Y64949D01*
X47015Y64914D01*
X48285D01*
X48551Y64949D01*
X48798Y65051D01*
X49010Y65214D01*
X49173Y65426D01*
X49275Y65673D01*
X49310Y65938D01*
X49275Y66204D01*
X49173Y66451D01*
X49010Y66663D01*
X48798Y66826D01*
X48551Y66928D01*
X48285Y66963D01*
D02*
G37*
G36*
X40665D02*
X39395D01*
X39130Y66928D01*
X38883Y66826D01*
X38671Y66663D01*
X38508Y66451D01*
X38406Y66204D01*
X38371Y65938D01*
X38406Y65673D01*
X38508Y65426D01*
X38671Y65214D01*
X38883Y65051D01*
X39130Y64949D01*
X39395Y64914D01*
X40665D01*
X40931Y64949D01*
X41178Y65051D01*
X41390Y65214D01*
X41553Y65426D01*
X41655Y65673D01*
X41690Y65938D01*
X41655Y66204D01*
X41553Y66451D01*
X41390Y66663D01*
X41178Y66826D01*
X40931Y66928D01*
X40665Y66963D01*
D02*
G37*
G36*
X48285Y64423D02*
X47015D01*
X46750Y64388D01*
X46503Y64286D01*
X46291Y64123D01*
X46128Y63911D01*
X46026Y63664D01*
X45991Y63398D01*
X46026Y63133D01*
X46128Y62886D01*
X46291Y62674D01*
X46503Y62511D01*
X46750Y62409D01*
X47015Y62374D01*
X48285D01*
X48551Y62409D01*
X48798Y62511D01*
X49010Y62674D01*
X49173Y62886D01*
X49275Y63133D01*
X49310Y63398D01*
X49275Y63664D01*
X49173Y63911D01*
X49010Y64123D01*
X48798Y64286D01*
X48551Y64388D01*
X48285Y64423D01*
D02*
G37*
G36*
X40665D02*
X39395D01*
X39130Y64388D01*
X38883Y64286D01*
X38671Y64123D01*
X38508Y63911D01*
X38406Y63664D01*
X38371Y63398D01*
X38406Y63133D01*
X38508Y62886D01*
X38671Y62674D01*
X38883Y62511D01*
X39130Y62409D01*
X39395Y62374D01*
X40665D01*
X40931Y62409D01*
X41178Y62511D01*
X41390Y62674D01*
X41553Y62886D01*
X41655Y63133D01*
X41690Y63398D01*
X41655Y63664D01*
X41553Y63911D01*
X41390Y64123D01*
X41178Y64286D01*
X40931Y64388D01*
X40665Y64423D01*
D02*
G37*
G36*
X7754Y64495D02*
X7472Y64458D01*
X7209Y64349D01*
X6984Y64176D01*
X6811Y63951D01*
X6702Y63688D01*
X6665Y63406D01*
X6702Y63125D01*
X6811Y62862D01*
X6984Y62636D01*
X7209Y62463D01*
X7472Y62355D01*
X7754Y62318D01*
X8035Y62355D01*
X8298Y62463D01*
X8524Y62636D01*
X8697Y62862D01*
X8805Y63125D01*
X8842Y63406D01*
X8805Y63688D01*
X8697Y63951D01*
X8524Y64176D01*
X8298Y64349D01*
X8035Y64458D01*
X7754Y64495D01*
D02*
G37*
G36*
X48285Y61755D02*
X47777D01*
Y60985D01*
X49165D01*
X49152Y61090D01*
X49062Y61307D01*
X48919Y61492D01*
X48734Y61635D01*
X48517Y61725D01*
X48285Y61755D01*
D02*
G37*
G36*
X7849Y59262D02*
Y58445D01*
X8666D01*
X8650Y58567D01*
X8554Y58799D01*
X8401Y58998D01*
X8202Y59150D01*
X7970Y59246D01*
X7849Y59262D01*
D02*
G37*
G36*
X7595Y59262D02*
X7473Y59246D01*
X7241Y59150D01*
X7042Y58998D01*
X6890Y58799D01*
X6794Y58567D01*
X6778Y58445D01*
X7595D01*
Y59262D01*
D02*
G37*
G36*
Y58191D02*
X6778D01*
X6794Y58070D01*
X6890Y57838D01*
X7042Y57639D01*
X7241Y57486D01*
X7473Y57390D01*
X7595Y57374D01*
Y58191D01*
D02*
G37*
G36*
X8666D02*
X7849D01*
Y57374D01*
X7970Y57390D01*
X8202Y57486D01*
X8401Y57639D01*
X8554Y57838D01*
X8650Y58070D01*
X8666Y58191D01*
D02*
G37*
G36*
X74092Y56963D02*
Y56210D01*
X74845D01*
X74831Y56315D01*
X74741Y56532D01*
X74599Y56717D01*
X74413Y56860D01*
X74197Y56949D01*
X74092Y56963D01*
D02*
G37*
G36*
X73838D02*
X73733Y56949D01*
X73516Y56860D01*
X73331Y56717D01*
X73188Y56532D01*
X73099Y56315D01*
X73085Y56210D01*
X73838D01*
Y56963D01*
D02*
G37*
G36*
X74845Y55956D02*
X74092D01*
Y55203D01*
X74197Y55217D01*
X74413Y55307D01*
X74599Y55449D01*
X74741Y55635D01*
X74831Y55851D01*
X74845Y55956D01*
D02*
G37*
G36*
X73838D02*
X73085D01*
X73099Y55851D01*
X73188Y55635D01*
X73331Y55449D01*
X73516Y55307D01*
X73733Y55217D01*
X73838Y55203D01*
Y55956D01*
D02*
G37*
G36*
X70002Y52130D02*
X69737Y52095D01*
X69490Y51992D01*
X69278Y51829D01*
X69115Y51617D01*
X69013Y51370D01*
X68978Y51105D01*
X69013Y50840D01*
X69115Y50592D01*
X69278Y50380D01*
X69490Y50217D01*
X69737Y50115D01*
X70002Y50080D01*
X70268Y50115D01*
X70515Y50217D01*
X70727Y50380D01*
X70890Y50592D01*
X70992Y50840D01*
X71027Y51105D01*
X70992Y51370D01*
X70890Y51617D01*
X70727Y51829D01*
X70515Y51992D01*
X70268Y52095D01*
X70002Y52130D01*
D02*
G37*
G36*
X34849Y52043D02*
X34593Y52010D01*
X34354Y51911D01*
X34149Y51754D01*
X33992Y51549D01*
X33893Y51310D01*
X33859Y51054D01*
X33893Y50798D01*
X33992Y50559D01*
X34149Y50354D01*
X34354Y50197D01*
X34593Y50098D01*
X34849Y50065D01*
X35105Y50098D01*
X35344Y50197D01*
X35548Y50354D01*
X35706Y50559D01*
X35805Y50798D01*
X35838Y51054D01*
X35805Y51310D01*
X35706Y51549D01*
X35548Y51754D01*
X35344Y51911D01*
X35105Y52010D01*
X34849Y52043D01*
D02*
G37*
G36*
X73965Y51926D02*
X73700Y51891D01*
X73452Y51789D01*
X73240Y51626D01*
X73077Y51414D01*
X72975Y51167D01*
X72940Y50902D01*
X72975Y50636D01*
X73077Y50389D01*
X73240Y50177D01*
X73452Y50014D01*
X73700Y49912D01*
X73965Y49877D01*
X74230Y49912D01*
X74477Y50014D01*
X74689Y50177D01*
X74852Y50389D01*
X74955Y50636D01*
X74990Y50902D01*
X74955Y51167D01*
X74852Y51414D01*
X74689Y51626D01*
X74477Y51789D01*
X74230Y51891D01*
X73965Y51926D01*
D02*
G37*
G36*
X7881Y49110D02*
Y48293D01*
X8698D01*
X8682Y48415D01*
X8586Y48647D01*
X8433Y48846D01*
X8234Y48998D01*
X8002Y49094D01*
X7881Y49110D01*
D02*
G37*
G36*
X7627Y49110D02*
X7505Y49094D01*
X7273Y48998D01*
X7074Y48846D01*
X6922Y48647D01*
X6826Y48415D01*
X6810Y48293D01*
X7627D01*
Y49110D01*
D02*
G37*
G36*
X8698Y48039D02*
X7881D01*
Y47222D01*
X8002Y47238D01*
X8234Y47334D01*
X8433Y47487D01*
X8586Y47686D01*
X8682Y47918D01*
X8698Y48039D01*
D02*
G37*
G36*
X7627D02*
X6810D01*
X6826Y47918D01*
X6922Y47686D01*
X7074Y47487D01*
X7273Y47334D01*
X7505Y47238D01*
X7627Y47222D01*
Y48039D01*
D02*
G37*
G36*
X52349Y49183D02*
X51079D01*
X50814Y49148D01*
X50567Y49046D01*
X50355Y48883D01*
X50192Y48671D01*
X50090Y48424D01*
X50055Y48158D01*
X50090Y47893D01*
X50192Y47646D01*
X50355Y47434D01*
X50567Y47271D01*
X50814Y47169D01*
X51079Y47134D01*
X52349D01*
X52615Y47169D01*
X52862Y47271D01*
X53074Y47434D01*
X53237Y47646D01*
X53339Y47893D01*
X53374Y48158D01*
X53339Y48424D01*
X53237Y48671D01*
X53074Y48883D01*
X52862Y49046D01*
X52615Y49148D01*
X52349Y49183D01*
D02*
G37*
G36*
X44729D02*
X43459D01*
X43194Y49148D01*
X42947Y49046D01*
X42735Y48883D01*
X42572Y48671D01*
X42470Y48424D01*
X42435Y48158D01*
X42470Y47893D01*
X42572Y47646D01*
X42735Y47434D01*
X42947Y47271D01*
X43194Y47169D01*
X43459Y47134D01*
X44729D01*
X44995Y47169D01*
X45242Y47271D01*
X45454Y47434D01*
X45617Y47646D01*
X45719Y47893D01*
X45754Y48158D01*
X45719Y48424D01*
X45617Y48671D01*
X45454Y48883D01*
X45242Y49046D01*
X44995Y49148D01*
X44729Y49183D01*
D02*
G37*
G36*
Y46515D02*
X44221D01*
Y45745D01*
X45609D01*
X45596Y45850D01*
X45506Y46067D01*
X45363Y46252D01*
X45178Y46395D01*
X44961Y46485D01*
X44729Y46515D01*
D02*
G37*
G36*
X45609Y45491D02*
X44221D01*
Y44722D01*
X44729D01*
X44961Y44752D01*
X45178Y44842D01*
X45363Y44984D01*
X45506Y45170D01*
X45596Y45386D01*
X45609Y45491D01*
D02*
G37*
G36*
X52349Y46643D02*
X51079D01*
X50814Y46608D01*
X50567Y46506D01*
X50355Y46343D01*
X50192Y46131D01*
X50090Y45884D01*
X50055Y45618D01*
X50090Y45353D01*
X50192Y45106D01*
X50355Y44894D01*
X50567Y44731D01*
X50814Y44629D01*
X51079Y44594D01*
X52349D01*
X52615Y44629D01*
X52862Y44731D01*
X53074Y44894D01*
X53237Y45106D01*
X53339Y45353D01*
X53374Y45618D01*
X53339Y45884D01*
X53237Y46131D01*
X53074Y46343D01*
X52862Y46506D01*
X52615Y46608D01*
X52349Y46643D01*
D02*
G37*
G36*
X7722Y45386D02*
X7440Y45349D01*
X7177Y45241D01*
X6952Y45068D01*
X6779Y44842D01*
X6670Y44579D01*
X6633Y44298D01*
X6670Y44016D01*
X6779Y43753D01*
X6952Y43528D01*
X7177Y43355D01*
X7440Y43246D01*
X7722Y43209D01*
X8003Y43246D01*
X8266Y43355D01*
X8492Y43528D01*
X8665Y43753D01*
X8773Y44016D01*
X8810Y44298D01*
X8773Y44579D01*
X8665Y44842D01*
X8492Y45068D01*
X8266Y45241D01*
X8003Y45349D01*
X7722Y45386D01*
D02*
G37*
G36*
X34849Y44423D02*
X34593Y44390D01*
X34354Y44291D01*
X34149Y44134D01*
X33992Y43929D01*
X33893Y43690D01*
X33859Y43434D01*
X33893Y43178D01*
X33992Y42939D01*
X34149Y42734D01*
X34354Y42577D01*
X34593Y42478D01*
X34849Y42445D01*
X35105Y42478D01*
X35344Y42577D01*
X35548Y42734D01*
X35706Y42939D01*
X35805Y43178D01*
X35838Y43434D01*
X35805Y43690D01*
X35706Y43929D01*
X35548Y44134D01*
X35344Y44291D01*
X35105Y44390D01*
X34849Y44423D01*
D02*
G37*
G36*
X52349Y44103D02*
X51079D01*
X50814Y44068D01*
X50567Y43966D01*
X50355Y43803D01*
X50192Y43591D01*
X50090Y43344D01*
X50055Y43078D01*
X50090Y42813D01*
X50192Y42566D01*
X50355Y42354D01*
X50567Y42191D01*
X50814Y42089D01*
X51079Y42054D01*
X52349D01*
X52615Y42089D01*
X52862Y42191D01*
X53074Y42354D01*
X53237Y42566D01*
X53339Y42813D01*
X53374Y43078D01*
X53339Y43344D01*
X53237Y43591D01*
X53074Y43803D01*
X52862Y43966D01*
X52615Y44068D01*
X52349Y44103D01*
D02*
G37*
G36*
X70002Y41970D02*
X69737Y41935D01*
X69490Y41832D01*
X69278Y41669D01*
X69115Y41457D01*
X69013Y41210D01*
X68978Y40945D01*
X69013Y40680D01*
X69115Y40432D01*
X69278Y40220D01*
X69490Y40057D01*
X69737Y39955D01*
X70002Y39920D01*
X70268Y39955D01*
X70515Y40057D01*
X70727Y40220D01*
X70890Y40432D01*
X70992Y40680D01*
X71027Y40945D01*
X70992Y41210D01*
X70890Y41457D01*
X70727Y41669D01*
X70515Y41832D01*
X70268Y41935D01*
X70002Y41970D01*
D02*
G37*
G36*
X66142D02*
X65876Y41935D01*
X65629Y41832D01*
X65417Y41669D01*
X65254Y41457D01*
X65152Y41210D01*
X65117Y40945D01*
X65152Y40680D01*
X65254Y40432D01*
X65417Y40220D01*
X65629Y40057D01*
X65876Y39955D01*
X66142Y39920D01*
X66407Y39955D01*
X66654Y40057D01*
X66866Y40220D01*
X67029Y40432D01*
X67131Y40680D01*
X67166Y40945D01*
X67131Y41210D01*
X67029Y41457D01*
X66866Y41669D01*
X66654Y41832D01*
X66407Y41935D01*
X66142Y41970D01*
D02*
G37*
G36*
X59944D02*
X59679Y41935D01*
X59432Y41832D01*
X59219Y41669D01*
X59057Y41457D01*
X58954Y41210D01*
X58919Y40945D01*
X58954Y40680D01*
X59057Y40432D01*
X59219Y40220D01*
X59432Y40057D01*
X59679Y39955D01*
X59944Y39920D01*
X60209Y39955D01*
X60456Y40057D01*
X60669Y40220D01*
X60831Y40432D01*
X60934Y40680D01*
X60969Y40945D01*
X60934Y41210D01*
X60831Y41457D01*
X60669Y41669D01*
X60456Y41832D01*
X60209Y41935D01*
X59944Y41970D01*
D02*
G37*
G36*
X38811D02*
X38546Y41935D01*
X38299Y41832D01*
X38087Y41669D01*
X37924Y41457D01*
X37821Y41210D01*
X37786Y40945D01*
X37821Y40680D01*
X37924Y40432D01*
X38087Y40220D01*
X38299Y40057D01*
X38546Y39955D01*
X38811Y39920D01*
X39076Y39955D01*
X39324Y40057D01*
X39536Y40220D01*
X39699Y40432D01*
X39801Y40680D01*
X39836Y40945D01*
X39801Y41210D01*
X39699Y41457D01*
X39536Y41669D01*
X39324Y41832D01*
X39076Y41935D01*
X38811Y41970D01*
D02*
G37*
G36*
X7722Y41526D02*
X7440Y41489D01*
X7177Y41380D01*
X6952Y41207D01*
X6779Y40981D01*
X6670Y40719D01*
X6633Y40437D01*
X6670Y40155D01*
X6779Y39892D01*
X6952Y39667D01*
X7177Y39494D01*
X7440Y39385D01*
X7722Y39348D01*
X8003Y39385D01*
X8266Y39494D01*
X8492Y39667D01*
X8665Y39892D01*
X8773Y40155D01*
X8810Y40437D01*
X8773Y40719D01*
X8665Y40981D01*
X8492Y41207D01*
X8266Y41380D01*
X8003Y41489D01*
X7722Y41526D01*
D02*
G37*
G36*
X43104Y38370D02*
Y37617D01*
X43857D01*
X43843Y37722D01*
X43753Y37939D01*
X43611Y38124D01*
X43425Y38267D01*
X43209Y38357D01*
X43104Y38370D01*
D02*
G37*
G36*
X42850Y38370D02*
X42745Y38357D01*
X42528Y38267D01*
X42343Y38124D01*
X42200Y37939D01*
X42111Y37722D01*
X42097Y37617D01*
X42850D01*
Y38370D01*
D02*
G37*
G36*
Y37363D02*
X42097D01*
X42111Y37258D01*
X42200Y37042D01*
X42343Y36856D01*
X42528Y36714D01*
X42745Y36624D01*
X42850Y36610D01*
Y37363D01*
D02*
G37*
G36*
X43857D02*
X43104D01*
Y36610D01*
X43209Y36624D01*
X43425Y36714D01*
X43611Y36856D01*
X43753Y37042D01*
X43843Y37258D01*
X43857Y37363D01*
D02*
G37*
G36*
X53137Y38515D02*
X52872Y38480D01*
X52624Y38378D01*
X52412Y38215D01*
X52249Y38003D01*
X52147Y37756D01*
X52112Y37490D01*
X52147Y37225D01*
X52249Y36978D01*
X52412Y36766D01*
X52624Y36603D01*
X52872Y36501D01*
X53137Y36466D01*
X53402Y36501D01*
X53649Y36603D01*
X53861Y36766D01*
X54024Y36978D01*
X54127Y37225D01*
X54162Y37490D01*
X54127Y37756D01*
X54024Y38003D01*
X53861Y38215D01*
X53649Y38378D01*
X53402Y38480D01*
X53137Y38515D01*
D02*
G37*
G36*
X7823Y37563D02*
X7541Y37526D01*
X7279Y37417D01*
X7053Y37244D01*
X6880Y37019D01*
X6771Y36756D01*
X6734Y36474D01*
X6771Y36193D01*
X6880Y35930D01*
X7053Y35704D01*
X7279Y35531D01*
X7541Y35423D01*
X7823Y35386D01*
X8105Y35423D01*
X8368Y35531D01*
X8593Y35704D01*
X8766Y35930D01*
X8875Y36193D01*
X8912Y36474D01*
X8875Y36756D01*
X8766Y37019D01*
X8593Y37244D01*
X8368Y37417D01*
X8105Y37526D01*
X7823Y37563D01*
D02*
G37*
G36*
X16993Y10964D02*
Y9576D01*
X17762D01*
Y10084D01*
X17732Y10316D01*
X17642Y10532D01*
X17500Y10718D01*
X17314Y10860D01*
X17098Y10950D01*
X16993Y10964D01*
D02*
G37*
G36*
X16739Y10964D02*
X16634Y10950D01*
X16417Y10860D01*
X16232Y10718D01*
X16089Y10532D01*
X15999Y10316D01*
X15969Y10084D01*
Y9576D01*
X16739D01*
Y10964D01*
D02*
G37*
G36*
Y9322D02*
X15969D01*
Y8814D01*
X15999Y8582D01*
X16089Y8365D01*
X16232Y8180D01*
X16417Y8037D01*
X16634Y7948D01*
X16739Y7934D01*
Y9322D01*
D02*
G37*
G36*
X17762D02*
X16993D01*
Y7934D01*
X17098Y7948D01*
X17314Y8037D01*
X17500Y8180D01*
X17642Y8365D01*
X17732Y8582D01*
X17762Y8814D01*
Y9322D01*
D02*
G37*
G36*
X21946Y11109D02*
X21680Y11074D01*
X21433Y10971D01*
X21221Y10808D01*
X21058Y10596D01*
X20956Y10349D01*
X20921Y10084D01*
Y8814D01*
X20956Y8549D01*
X21058Y8301D01*
X21221Y8089D01*
X21433Y7926D01*
X21680Y7824D01*
X21946Y7789D01*
X22211Y7824D01*
X22458Y7926D01*
X22670Y8089D01*
X22833Y8301D01*
X22935Y8549D01*
X22970Y8814D01*
Y10084D01*
X22935Y10349D01*
X22833Y10596D01*
X22670Y10808D01*
X22458Y10971D01*
X22211Y11074D01*
X21946Y11109D01*
D02*
G37*
G36*
X19406D02*
X19140Y11074D01*
X18893Y10971D01*
X18681Y10808D01*
X18518Y10596D01*
X18416Y10349D01*
X18381Y10084D01*
Y8814D01*
X18416Y8549D01*
X18518Y8301D01*
X18681Y8089D01*
X18893Y7926D01*
X19140Y7824D01*
X19406Y7789D01*
X19671Y7824D01*
X19918Y7926D01*
X20130Y8089D01*
X20293Y8301D01*
X20395Y8549D01*
X20430Y8814D01*
Y10084D01*
X20395Y10349D01*
X20293Y10596D01*
X20130Y10808D01*
X19918Y10971D01*
X19671Y11074D01*
X19406Y11109D01*
D02*
G37*
G36*
X14326D02*
X14060Y11074D01*
X13813Y10971D01*
X13601Y10808D01*
X13438Y10596D01*
X13336Y10349D01*
X13301Y10084D01*
Y8814D01*
X13336Y8549D01*
X13438Y8301D01*
X13601Y8089D01*
X13813Y7926D01*
X14060Y7824D01*
X14326Y7789D01*
X14591Y7824D01*
X14838Y7926D01*
X15050Y8089D01*
X15213Y8301D01*
X15315Y8549D01*
X15350Y8814D01*
Y10084D01*
X15315Y10349D01*
X15213Y10596D01*
X15050Y10808D01*
X14838Y10971D01*
X14591Y11074D01*
X14326Y11109D01*
D02*
G37*
G36*
X94513Y67564D02*
X91211D01*
Y65532D01*
X94513D01*
Y67564D01*
D02*
G37*
G36*
X101117Y67573D02*
X99847D01*
X99582Y67538D01*
X99335Y67435D01*
X99123Y67273D01*
X98960Y67060D01*
X98858Y66813D01*
X98823Y66548D01*
X98858Y66283D01*
X98960Y66036D01*
X99123Y65823D01*
X99335Y65661D01*
X99582Y65558D01*
X99847Y65523D01*
X101117D01*
X101383Y65558D01*
X101630Y65661D01*
X101842Y65823D01*
X102005Y66036D01*
X102107Y66283D01*
X102142Y66548D01*
X102107Y66813D01*
X102005Y67060D01*
X101842Y67273D01*
X101630Y67435D01*
X101383Y67538D01*
X101117Y67573D01*
D02*
G37*
G36*
Y65033D02*
X99847D01*
X99582Y64998D01*
X99335Y64895D01*
X99123Y64733D01*
X98960Y64520D01*
X98858Y64273D01*
X98823Y64008D01*
X98858Y63743D01*
X98960Y63496D01*
X99123Y63283D01*
X99335Y63121D01*
X99582Y63018D01*
X99847Y62983D01*
X101117D01*
X101383Y63018D01*
X101630Y63121D01*
X101842Y63283D01*
X102005Y63496D01*
X102107Y63743D01*
X102142Y64008D01*
X102107Y64273D01*
X102005Y64520D01*
X101842Y64733D01*
X101630Y64895D01*
X101383Y64998D01*
X101117Y65033D01*
D02*
G37*
G36*
X88798Y64931D02*
X88533Y64896D01*
X88286Y64794D01*
X88074Y64631D01*
X87911Y64419D01*
X87809Y64172D01*
X87774Y63906D01*
X87809Y63641D01*
X87911Y63394D01*
X88074Y63182D01*
X88286Y63019D01*
X88533Y62917D01*
X88798Y62882D01*
X89064Y62917D01*
X89311Y63019D01*
X89523Y63182D01*
X89686Y63394D01*
X89788Y63641D01*
X89823Y63906D01*
X89788Y64172D01*
X89686Y64419D01*
X89523Y64631D01*
X89311Y64794D01*
X89064Y64896D01*
X88798Y64931D01*
D02*
G37*
G36*
X94377Y61341D02*
X92989D01*
Y60571D01*
X93497D01*
X93729Y60602D01*
X93946Y60691D01*
X94131Y60834D01*
X94274Y61020D01*
X94364Y61236D01*
X94377Y61341D01*
D02*
G37*
G36*
X92735D02*
X91347D01*
X91361Y61236D01*
X91451Y61020D01*
X91593Y60834D01*
X91779Y60691D01*
X91995Y60602D01*
X92227Y60571D01*
X92735D01*
Y61341D01*
D02*
G37*
G36*
X93497Y59953D02*
X92227D01*
X91962Y59918D01*
X91715Y59815D01*
X91503Y59653D01*
X91340Y59440D01*
X91238Y59193D01*
X91203Y58928D01*
X91238Y58663D01*
X91340Y58416D01*
X91503Y58203D01*
X91715Y58041D01*
X91962Y57938D01*
X92227Y57903D01*
X93497D01*
X93763Y57938D01*
X94010Y58041D01*
X94222Y58203D01*
X94385Y58416D01*
X94487Y58663D01*
X94522Y58928D01*
X94487Y59193D01*
X94385Y59440D01*
X94222Y59653D01*
X94010Y59815D01*
X93763Y59918D01*
X93497Y59953D01*
D02*
G37*
G36*
X84252Y56963D02*
Y56210D01*
X85005D01*
X84991Y56315D01*
X84901Y56532D01*
X84759Y56717D01*
X84573Y56860D01*
X84357Y56949D01*
X84252Y56963D01*
D02*
G37*
G36*
X83998D02*
X83893Y56949D01*
X83676Y56860D01*
X83491Y56717D01*
X83348Y56532D01*
X83259Y56315D01*
X83245Y56210D01*
X83998D01*
Y56963D01*
D02*
G37*
G36*
X85005Y55956D02*
X84252D01*
Y55203D01*
X84357Y55217D01*
X84573Y55307D01*
X84759Y55449D01*
X84901Y55635D01*
X84991Y55851D01*
X85005Y55956D01*
D02*
G37*
G36*
X83998D02*
X83245D01*
X83259Y55851D01*
X83348Y55635D01*
X83491Y55449D01*
X83676Y55307D01*
X83893Y55217D01*
X83998Y55203D01*
Y55956D01*
D02*
G37*
G36*
X94209Y53712D02*
Y52959D01*
X94962D01*
X94948Y53064D01*
X94858Y53280D01*
X94716Y53466D01*
X94530Y53609D01*
X94314Y53698D01*
X94209Y53712D01*
D02*
G37*
G36*
X93955D02*
X93850Y53698D01*
X93633Y53609D01*
X93448Y53466D01*
X93305Y53280D01*
X93215Y53064D01*
X93202Y52959D01*
X93955D01*
Y53712D01*
D02*
G37*
G36*
X94962Y52705D02*
X94209D01*
Y51952D01*
X94314Y51966D01*
X94530Y52055D01*
X94716Y52198D01*
X94858Y52384D01*
X94948Y52600D01*
X94962Y52705D01*
D02*
G37*
G36*
X93955D02*
X93202D01*
X93215Y52600D01*
X93305Y52384D01*
X93448Y52198D01*
X93633Y52055D01*
X93850Y51966D01*
X93955Y51952D01*
Y52705D01*
D02*
G37*
G36*
X84125Y51926D02*
X83860Y51891D01*
X83612Y51789D01*
X83400Y51626D01*
X83237Y51414D01*
X83135Y51167D01*
X83100Y50902D01*
X83135Y50636D01*
X83237Y50389D01*
X83400Y50177D01*
X83612Y50014D01*
X83860Y49912D01*
X84125Y49877D01*
X84390Y49912D01*
X84637Y50014D01*
X84849Y50177D01*
X85012Y50389D01*
X85115Y50636D01*
X85150Y50902D01*
X85115Y51167D01*
X85012Y51414D01*
X84849Y51626D01*
X84637Y51789D01*
X84390Y51891D01*
X84125Y51926D01*
D02*
G37*
G36*
X104851Y47572D02*
X104556Y47533D01*
X104281Y47419D01*
X104045Y47238D01*
X103863Y47002D01*
X103749Y46726D01*
X103710Y46431D01*
X103749Y46136D01*
X103863Y45861D01*
X104045Y45625D01*
X104281Y45443D01*
X104556Y45329D01*
X104851Y45290D01*
X105146Y45329D01*
X105422Y45443D01*
X105658Y45625D01*
X105839Y45861D01*
X105953Y46136D01*
X105992Y46431D01*
X105953Y46726D01*
X105839Y47002D01*
X105658Y47238D01*
X105422Y47419D01*
X105146Y47533D01*
X104851Y47572D01*
D02*
G37*
G36*
X102311D02*
X102016Y47533D01*
X101741Y47419D01*
X101505Y47238D01*
X101323Y47002D01*
X101209Y46726D01*
X101170Y46431D01*
X101209Y46136D01*
X101323Y45861D01*
X101505Y45625D01*
X101741Y45443D01*
X102016Y45329D01*
X102311Y45290D01*
X102606Y45329D01*
X102882Y45443D01*
X103118Y45625D01*
X103299Y45861D01*
X103413Y46136D01*
X103452Y46431D01*
X103413Y46726D01*
X103299Y47002D01*
X103118Y47238D01*
X102882Y47419D01*
X102606Y47533D01*
X102311Y47572D01*
D02*
G37*
G36*
X87071D02*
X86776Y47533D01*
X86501Y47419D01*
X86265Y47238D01*
X86083Y47002D01*
X85969Y46726D01*
X85930Y46431D01*
X85969Y46136D01*
X86083Y45861D01*
X86265Y45625D01*
X86501Y45443D01*
X86776Y45329D01*
X87071Y45290D01*
X87366Y45329D01*
X87642Y45443D01*
X87878Y45625D01*
X88059Y45861D01*
X88173Y46136D01*
X88212Y46431D01*
X88173Y46726D01*
X88059Y47002D01*
X87878Y47238D01*
X87642Y47419D01*
X87366Y47533D01*
X87071Y47572D01*
D02*
G37*
G36*
X84531D02*
X84236Y47533D01*
X83961Y47419D01*
X83725Y47238D01*
X83543Y47002D01*
X83429Y46726D01*
X83390Y46431D01*
X83429Y46136D01*
X83543Y45861D01*
X83725Y45625D01*
X83961Y45443D01*
X84236Y45329D01*
X84531Y45290D01*
X84826Y45329D01*
X85102Y45443D01*
X85338Y45625D01*
X85519Y45861D01*
X85633Y46136D01*
X85672Y46431D01*
X85633Y46726D01*
X85519Y47002D01*
X85338Y47238D01*
X85102Y47419D01*
X84826Y47533D01*
X84531Y47572D01*
D02*
G37*
G36*
X104851Y45032D02*
X104556Y44993D01*
X104281Y44879D01*
X104045Y44698D01*
X103863Y44462D01*
X103749Y44186D01*
X103710Y43891D01*
X103749Y43596D01*
X103863Y43321D01*
X104045Y43085D01*
X104281Y42903D01*
X104556Y42789D01*
X104851Y42750D01*
X105146Y42789D01*
X105422Y42903D01*
X105658Y43085D01*
X105839Y43321D01*
X105953Y43596D01*
X105992Y43891D01*
X105953Y44186D01*
X105839Y44462D01*
X105658Y44698D01*
X105422Y44879D01*
X105146Y44993D01*
X104851Y45032D01*
D02*
G37*
G36*
X102311D02*
X102016Y44993D01*
X101741Y44879D01*
X101505Y44698D01*
X101323Y44462D01*
X101209Y44186D01*
X101170Y43891D01*
X101209Y43596D01*
X101323Y43321D01*
X101505Y43085D01*
X101741Y42903D01*
X102016Y42789D01*
X102311Y42750D01*
X102606Y42789D01*
X102882Y42903D01*
X103118Y43085D01*
X103299Y43321D01*
X103413Y43596D01*
X103452Y43891D01*
X103413Y44186D01*
X103299Y44462D01*
X103118Y44698D01*
X102882Y44879D01*
X102606Y44993D01*
X102311Y45032D01*
D02*
G37*
G36*
X87071D02*
X86776Y44993D01*
X86501Y44879D01*
X86265Y44698D01*
X86083Y44462D01*
X85969Y44186D01*
X85930Y43891D01*
X85969Y43596D01*
X86083Y43321D01*
X86265Y43085D01*
X86501Y42903D01*
X86776Y42789D01*
X87071Y42750D01*
X87366Y42789D01*
X87642Y42903D01*
X87878Y43085D01*
X88059Y43321D01*
X88173Y43596D01*
X88212Y43891D01*
X88173Y44186D01*
X88059Y44462D01*
X87878Y44698D01*
X87642Y44879D01*
X87366Y44993D01*
X87071Y45032D01*
D02*
G37*
G36*
X84531D02*
X84236Y44993D01*
X83961Y44879D01*
X83725Y44698D01*
X83543Y44462D01*
X83429Y44186D01*
X83390Y43891D01*
X83429Y43596D01*
X83543Y43321D01*
X83725Y43085D01*
X83961Y42903D01*
X84236Y42789D01*
X84531Y42750D01*
X84826Y42789D01*
X85102Y42903D01*
X85338Y43085D01*
X85519Y43321D01*
X85633Y43596D01*
X85672Y43891D01*
X85633Y44186D01*
X85519Y44462D01*
X85338Y44698D01*
X85102Y44879D01*
X84826Y44993D01*
X84531Y45032D01*
D02*
G37*
G36*
X104851Y42492D02*
X104556Y42453D01*
X104281Y42339D01*
X104045Y42158D01*
X103863Y41922D01*
X103749Y41646D01*
X103710Y41351D01*
X103749Y41056D01*
X103863Y40781D01*
X104045Y40545D01*
X104281Y40363D01*
X104556Y40249D01*
X104851Y40210D01*
X105146Y40249D01*
X105422Y40363D01*
X105658Y40545D01*
X105839Y40781D01*
X105953Y41056D01*
X105992Y41351D01*
X105953Y41646D01*
X105839Y41922D01*
X105658Y42158D01*
X105422Y42339D01*
X105146Y42453D01*
X104851Y42492D01*
D02*
G37*
G36*
X102311D02*
X102016Y42453D01*
X101741Y42339D01*
X101505Y42158D01*
X101323Y41922D01*
X101209Y41646D01*
X101170Y41351D01*
X101209Y41056D01*
X101323Y40781D01*
X101505Y40545D01*
X101741Y40363D01*
X102016Y40249D01*
X102311Y40210D01*
X102606Y40249D01*
X102882Y40363D01*
X103118Y40545D01*
X103299Y40781D01*
X103413Y41056D01*
X103452Y41351D01*
X103413Y41646D01*
X103299Y41922D01*
X103118Y42158D01*
X102882Y42339D01*
X102606Y42453D01*
X102311Y42492D01*
D02*
G37*
G36*
X87071D02*
X86776Y42453D01*
X86501Y42339D01*
X86265Y42158D01*
X86083Y41922D01*
X85969Y41646D01*
X85930Y41351D01*
X85969Y41056D01*
X86083Y40781D01*
X86265Y40545D01*
X86501Y40363D01*
X86776Y40249D01*
X87071Y40210D01*
X87366Y40249D01*
X87642Y40363D01*
X87878Y40545D01*
X88059Y40781D01*
X88173Y41056D01*
X88212Y41351D01*
X88173Y41646D01*
X88059Y41922D01*
X87878Y42158D01*
X87642Y42339D01*
X87366Y42453D01*
X87071Y42492D01*
D02*
G37*
G36*
X84531D02*
X84236Y42453D01*
X83961Y42339D01*
X83725Y42158D01*
X83543Y41922D01*
X83429Y41646D01*
X83390Y41351D01*
X83429Y41056D01*
X83543Y40781D01*
X83725Y40545D01*
X83961Y40363D01*
X84236Y40249D01*
X84531Y40210D01*
X84826Y40249D01*
X85102Y40363D01*
X85338Y40545D01*
X85519Y40781D01*
X85633Y41056D01*
X85672Y41351D01*
X85633Y41646D01*
X85519Y41922D01*
X85338Y42158D01*
X85102Y42339D01*
X84826Y42453D01*
X84531Y42492D01*
D02*
G37*
G36*
X104851Y39952D02*
X104556Y39913D01*
X104281Y39799D01*
X104045Y39618D01*
X103863Y39382D01*
X103749Y39106D01*
X103710Y38811D01*
X103749Y38516D01*
X103863Y38241D01*
X104045Y38005D01*
X104281Y37823D01*
X104556Y37709D01*
X104851Y37670D01*
X105146Y37709D01*
X105422Y37823D01*
X105658Y38005D01*
X105839Y38241D01*
X105953Y38516D01*
X105992Y38811D01*
X105953Y39106D01*
X105839Y39382D01*
X105658Y39618D01*
X105422Y39799D01*
X105146Y39913D01*
X104851Y39952D01*
D02*
G37*
G36*
X102311D02*
X102016Y39913D01*
X101741Y39799D01*
X101505Y39618D01*
X101323Y39382D01*
X101209Y39106D01*
X101170Y38811D01*
X101209Y38516D01*
X101323Y38241D01*
X101505Y38005D01*
X101741Y37823D01*
X102016Y37709D01*
X102311Y37670D01*
X102606Y37709D01*
X102882Y37823D01*
X103118Y38005D01*
X103299Y38241D01*
X103413Y38516D01*
X103452Y38811D01*
X103413Y39106D01*
X103299Y39382D01*
X103118Y39618D01*
X102882Y39799D01*
X102606Y39913D01*
X102311Y39952D01*
D02*
G37*
G36*
X87071D02*
X86776Y39913D01*
X86501Y39799D01*
X86265Y39618D01*
X86083Y39382D01*
X85969Y39106D01*
X85930Y38811D01*
X85969Y38516D01*
X86083Y38241D01*
X86265Y38005D01*
X86501Y37823D01*
X86776Y37709D01*
X87071Y37670D01*
X87366Y37709D01*
X87642Y37823D01*
X87878Y38005D01*
X88059Y38241D01*
X88173Y38516D01*
X88212Y38811D01*
X88173Y39106D01*
X88059Y39382D01*
X87878Y39618D01*
X87642Y39799D01*
X87366Y39913D01*
X87071Y39952D01*
D02*
G37*
G36*
X84531D02*
X84236Y39913D01*
X83961Y39799D01*
X83725Y39618D01*
X83543Y39382D01*
X83429Y39106D01*
X83390Y38811D01*
X83429Y38516D01*
X83543Y38241D01*
X83725Y38005D01*
X83961Y37823D01*
X84236Y37709D01*
X84531Y37670D01*
X84826Y37709D01*
X85102Y37823D01*
X85338Y38005D01*
X85519Y38241D01*
X85633Y38516D01*
X85672Y38811D01*
X85633Y39106D01*
X85519Y39382D01*
X85338Y39618D01*
X85102Y39799D01*
X84826Y39913D01*
X84531Y39952D01*
D02*
G37*
G36*
X104851Y37412D02*
X104556Y37373D01*
X104281Y37259D01*
X104045Y37078D01*
X103863Y36842D01*
X103749Y36566D01*
X103710Y36271D01*
X103749Y35976D01*
X103863Y35701D01*
X104045Y35465D01*
X104281Y35283D01*
X104556Y35169D01*
X104851Y35130D01*
X105146Y35169D01*
X105422Y35283D01*
X105658Y35465D01*
X105839Y35701D01*
X105953Y35976D01*
X105992Y36271D01*
X105953Y36566D01*
X105839Y36842D01*
X105658Y37078D01*
X105422Y37259D01*
X105146Y37373D01*
X104851Y37412D01*
D02*
G37*
G36*
X102311D02*
X102016Y37373D01*
X101741Y37259D01*
X101505Y37078D01*
X101323Y36842D01*
X101209Y36566D01*
X101170Y36271D01*
X101209Y35976D01*
X101323Y35701D01*
X101505Y35465D01*
X101741Y35283D01*
X102016Y35169D01*
X102311Y35130D01*
X102606Y35169D01*
X102882Y35283D01*
X103118Y35465D01*
X103299Y35701D01*
X103413Y35976D01*
X103452Y36271D01*
X103413Y36566D01*
X103299Y36842D01*
X103118Y37078D01*
X102882Y37259D01*
X102606Y37373D01*
X102311Y37412D01*
D02*
G37*
G36*
X87071D02*
X86776Y37373D01*
X86501Y37259D01*
X86265Y37078D01*
X86083Y36842D01*
X85969Y36566D01*
X85930Y36271D01*
X85969Y35976D01*
X86083Y35701D01*
X86265Y35465D01*
X86501Y35283D01*
X86776Y35169D01*
X87071Y35130D01*
X87366Y35169D01*
X87642Y35283D01*
X87878Y35465D01*
X88059Y35701D01*
X88173Y35976D01*
X88212Y36271D01*
X88173Y36566D01*
X88059Y36842D01*
X87878Y37078D01*
X87642Y37259D01*
X87366Y37373D01*
X87071Y37412D01*
D02*
G37*
G36*
X84531D02*
X84236Y37373D01*
X83961Y37259D01*
X83725Y37078D01*
X83543Y36842D01*
X83429Y36566D01*
X83390Y36271D01*
X83429Y35976D01*
X83543Y35701D01*
X83725Y35465D01*
X83961Y35283D01*
X84236Y35169D01*
X84531Y35130D01*
X84826Y35169D01*
X85102Y35283D01*
X85338Y35465D01*
X85519Y35701D01*
X85633Y35976D01*
X85672Y36271D01*
X85633Y36566D01*
X85519Y36842D01*
X85338Y37078D01*
X85102Y37259D01*
X84826Y37373D01*
X84531Y37412D01*
D02*
G37*
G36*
X104851Y34872D02*
X104556Y34833D01*
X104281Y34719D01*
X104045Y34538D01*
X103863Y34302D01*
X103749Y34026D01*
X103710Y33731D01*
X103749Y33436D01*
X103863Y33161D01*
X104045Y32925D01*
X104281Y32743D01*
X104556Y32629D01*
X104851Y32590D01*
X105146Y32629D01*
X105422Y32743D01*
X105658Y32925D01*
X105839Y33161D01*
X105953Y33436D01*
X105992Y33731D01*
X105953Y34026D01*
X105839Y34302D01*
X105658Y34538D01*
X105422Y34719D01*
X105146Y34833D01*
X104851Y34872D01*
D02*
G37*
G36*
X102311D02*
X102016Y34833D01*
X101741Y34719D01*
X101505Y34538D01*
X101323Y34302D01*
X101209Y34026D01*
X101170Y33731D01*
X101209Y33436D01*
X101323Y33161D01*
X101505Y32925D01*
X101741Y32743D01*
X102016Y32629D01*
X102311Y32590D01*
X102606Y32629D01*
X102882Y32743D01*
X103118Y32925D01*
X103299Y33161D01*
X103413Y33436D01*
X103452Y33731D01*
X103413Y34026D01*
X103299Y34302D01*
X103118Y34538D01*
X102882Y34719D01*
X102606Y34833D01*
X102311Y34872D01*
D02*
G37*
G36*
X87071D02*
X86776Y34833D01*
X86501Y34719D01*
X86265Y34538D01*
X86083Y34302D01*
X85969Y34026D01*
X85930Y33731D01*
X85969Y33436D01*
X86083Y33161D01*
X86265Y32925D01*
X86501Y32743D01*
X86776Y32629D01*
X87071Y32590D01*
X87366Y32629D01*
X87642Y32743D01*
X87878Y32925D01*
X88059Y33161D01*
X88173Y33436D01*
X88212Y33731D01*
X88173Y34026D01*
X88059Y34302D01*
X87878Y34538D01*
X87642Y34719D01*
X87366Y34833D01*
X87071Y34872D01*
D02*
G37*
G36*
X84531D02*
X84236Y34833D01*
X83961Y34719D01*
X83725Y34538D01*
X83543Y34302D01*
X83429Y34026D01*
X83390Y33731D01*
X83429Y33436D01*
X83543Y33161D01*
X83725Y32925D01*
X83961Y32743D01*
X84236Y32629D01*
X84531Y32590D01*
X84826Y32629D01*
X85102Y32743D01*
X85338Y32925D01*
X85519Y33161D01*
X85633Y33436D01*
X85672Y33731D01*
X85633Y34026D01*
X85519Y34302D01*
X85338Y34538D01*
X85102Y34719D01*
X84826Y34833D01*
X84531Y34872D01*
D02*
G37*
G36*
X104851Y32332D02*
X104556Y32293D01*
X104281Y32179D01*
X104045Y31998D01*
X103863Y31762D01*
X103749Y31486D01*
X103710Y31191D01*
X103749Y30896D01*
X103863Y30621D01*
X104045Y30385D01*
X104281Y30203D01*
X104556Y30089D01*
X104851Y30050D01*
X105146Y30089D01*
X105422Y30203D01*
X105658Y30385D01*
X105839Y30621D01*
X105953Y30896D01*
X105992Y31191D01*
X105953Y31486D01*
X105839Y31762D01*
X105658Y31998D01*
X105422Y32179D01*
X105146Y32293D01*
X104851Y32332D01*
D02*
G37*
G36*
X102311D02*
X102016Y32293D01*
X101741Y32179D01*
X101505Y31998D01*
X101323Y31762D01*
X101209Y31486D01*
X101170Y31191D01*
X101209Y30896D01*
X101323Y30621D01*
X101505Y30385D01*
X101741Y30203D01*
X102016Y30089D01*
X102311Y30050D01*
X102606Y30089D01*
X102882Y30203D01*
X103118Y30385D01*
X103299Y30621D01*
X103413Y30896D01*
X103452Y31191D01*
X103413Y31486D01*
X103299Y31762D01*
X103118Y31998D01*
X102882Y32179D01*
X102606Y32293D01*
X102311Y32332D01*
D02*
G37*
G36*
X87071D02*
X86776Y32293D01*
X86501Y32179D01*
X86265Y31998D01*
X86083Y31762D01*
X85969Y31486D01*
X85930Y31191D01*
X85969Y30896D01*
X86083Y30621D01*
X86265Y30385D01*
X86501Y30203D01*
X86776Y30089D01*
X87071Y30050D01*
X87366Y30089D01*
X87642Y30203D01*
X87878Y30385D01*
X88059Y30621D01*
X88173Y30896D01*
X88212Y31191D01*
X88173Y31486D01*
X88059Y31762D01*
X87878Y31998D01*
X87642Y32179D01*
X87366Y32293D01*
X87071Y32332D01*
D02*
G37*
G36*
X84531D02*
X84236Y32293D01*
X83961Y32179D01*
X83725Y31998D01*
X83543Y31762D01*
X83429Y31486D01*
X83390Y31191D01*
X83429Y30896D01*
X83543Y30621D01*
X83725Y30385D01*
X83961Y30203D01*
X84236Y30089D01*
X84531Y30050D01*
X84826Y30089D01*
X85102Y30203D01*
X85338Y30385D01*
X85519Y30621D01*
X85633Y30896D01*
X85672Y31191D01*
X85633Y31486D01*
X85519Y31762D01*
X85338Y31998D01*
X85102Y32179D01*
X84826Y32293D01*
X84531Y32332D01*
D02*
G37*
G36*
X104851Y29792D02*
X104556Y29753D01*
X104281Y29639D01*
X104045Y29458D01*
X103863Y29222D01*
X103749Y28946D01*
X103710Y28651D01*
X103749Y28356D01*
X103863Y28081D01*
X104045Y27845D01*
X104281Y27663D01*
X104556Y27549D01*
X104851Y27510D01*
X105146Y27549D01*
X105422Y27663D01*
X105658Y27845D01*
X105839Y28081D01*
X105953Y28356D01*
X105992Y28651D01*
X105953Y28946D01*
X105839Y29222D01*
X105658Y29458D01*
X105422Y29639D01*
X105146Y29753D01*
X104851Y29792D01*
D02*
G37*
G36*
X87071D02*
X86776Y29753D01*
X86501Y29639D01*
X86265Y29458D01*
X86083Y29222D01*
X85969Y28946D01*
X85930Y28651D01*
X85969Y28356D01*
X86083Y28081D01*
X86265Y27845D01*
X86501Y27663D01*
X86776Y27549D01*
X87071Y27510D01*
X87366Y27549D01*
X87642Y27663D01*
X87878Y27845D01*
X88059Y28081D01*
X88173Y28356D01*
X88212Y28651D01*
X88173Y28946D01*
X88059Y29222D01*
X87878Y29458D01*
X87642Y29639D01*
X87366Y29753D01*
X87071Y29792D01*
D02*
G37*
G36*
X84531D02*
X84236Y29753D01*
X83961Y29639D01*
X83725Y29458D01*
X83543Y29222D01*
X83429Y28946D01*
X83390Y28651D01*
X83429Y28356D01*
X83543Y28081D01*
X83725Y27845D01*
X83961Y27663D01*
X84236Y27549D01*
X84531Y27510D01*
X84826Y27549D01*
X85102Y27663D01*
X85338Y27845D01*
X85519Y28081D01*
X85633Y28356D01*
X85672Y28651D01*
X85633Y28946D01*
X85519Y29222D01*
X85338Y29458D01*
X85102Y29639D01*
X84826Y29753D01*
X84531Y29792D01*
D02*
G37*
G36*
X104851Y27252D02*
X104556Y27213D01*
X104281Y27099D01*
X104045Y26918D01*
X103863Y26682D01*
X103749Y26406D01*
X103710Y26111D01*
X103749Y25816D01*
X103863Y25541D01*
X104045Y25305D01*
X104281Y25123D01*
X104556Y25009D01*
X104851Y24970D01*
X105146Y25009D01*
X105422Y25123D01*
X105658Y25305D01*
X105839Y25541D01*
X105953Y25816D01*
X105992Y26111D01*
X105953Y26406D01*
X105839Y26682D01*
X105658Y26918D01*
X105422Y27099D01*
X105146Y27213D01*
X104851Y27252D01*
D02*
G37*
G36*
X49657Y24867D02*
X48788D01*
X48806Y24732D01*
X48907Y24487D01*
X49068Y24278D01*
X49278Y24117D01*
X49522Y24015D01*
X49657Y23998D01*
Y24867D01*
D02*
G37*
G36*
X50780D02*
X49911D01*
Y23998D01*
X50046Y24015D01*
X50290Y24117D01*
X50500Y24278D01*
X50661Y24487D01*
X50762Y24732D01*
X50780Y24867D01*
D02*
G37*
G36*
X104851Y24712D02*
X104556Y24673D01*
X104281Y24559D01*
X104045Y24378D01*
X103863Y24142D01*
X103749Y23866D01*
X103710Y23571D01*
X103749Y23276D01*
X103863Y23001D01*
X104045Y22765D01*
X104281Y22583D01*
X104556Y22469D01*
X104851Y22430D01*
X105146Y22469D01*
X105422Y22583D01*
X105658Y22765D01*
X105839Y23001D01*
X105953Y23276D01*
X105992Y23571D01*
X105953Y23866D01*
X105839Y24142D01*
X105658Y24378D01*
X105422Y24559D01*
X105146Y24673D01*
X104851Y24712D01*
D02*
G37*
G36*
X102311D02*
X102016Y24673D01*
X101741Y24559D01*
X101505Y24378D01*
X101323Y24142D01*
X101209Y23866D01*
X101170Y23571D01*
X101209Y23276D01*
X101323Y23001D01*
X101505Y22765D01*
X101741Y22583D01*
X102016Y22469D01*
X102311Y22430D01*
X102606Y22469D01*
X102882Y22583D01*
X103118Y22765D01*
X103299Y23001D01*
X103413Y23276D01*
X103452Y23571D01*
X103413Y23866D01*
X103299Y24142D01*
X103118Y24378D01*
X102882Y24559D01*
X102606Y24673D01*
X102311Y24712D01*
D02*
G37*
G36*
X49911Y22649D02*
Y21768D01*
X50792D01*
X50774Y21906D01*
X50671Y22153D01*
X50509Y22365D01*
X50296Y22528D01*
X50049Y22631D01*
X49911Y22649D01*
D02*
G37*
G36*
X49657Y22649D02*
X49519Y22631D01*
X49272Y22528D01*
X49059Y22365D01*
X48897Y22153D01*
X48794Y21906D01*
X48776Y21768D01*
X49657D01*
Y22649D01*
D02*
G37*
G36*
Y21514D02*
X48776D01*
X48794Y21376D01*
X48897Y21128D01*
X49059Y20916D01*
X49272Y20753D01*
X49519Y20651D01*
X49657Y20633D01*
Y21514D01*
D02*
G37*
G36*
X50792D02*
X49911D01*
Y20633D01*
X50049Y20651D01*
X50296Y20753D01*
X50509Y20916D01*
X50671Y21128D01*
X50774Y21376D01*
X50792Y21514D01*
D02*
G37*
G36*
X67564Y22794D02*
X67266Y22754D01*
X66988Y22639D01*
X66749Y22456D01*
X66566Y22217D01*
X66450Y21939D01*
X66411Y21641D01*
X66450Y21342D01*
X66566Y21064D01*
X66749Y20826D01*
X66988Y20642D01*
X67266Y20527D01*
X67564Y20488D01*
X67862Y20527D01*
X68140Y20642D01*
X68379Y20826D01*
X68562Y21064D01*
X68678Y21342D01*
X68717Y21641D01*
X68678Y21939D01*
X68562Y22217D01*
X68379Y22456D01*
X68140Y22639D01*
X67862Y22754D01*
X67564Y22794D01*
D02*
G37*
G36*
X65024D02*
X64726Y22754D01*
X64448Y22639D01*
X64209Y22456D01*
X64026Y22217D01*
X63910Y21939D01*
X63871Y21641D01*
X63910Y21342D01*
X64026Y21064D01*
X64209Y20826D01*
X64448Y20642D01*
X64726Y20527D01*
X65024Y20488D01*
X65322Y20527D01*
X65600Y20642D01*
X65839Y20826D01*
X66022Y21064D01*
X66138Y21342D01*
X66177Y21641D01*
X66138Y21939D01*
X66022Y22217D01*
X65839Y22456D01*
X65600Y22639D01*
X65322Y22754D01*
X65024Y22794D01*
D02*
G37*
G36*
X62484D02*
X62186Y22754D01*
X61908Y22639D01*
X61669Y22456D01*
X61486Y22217D01*
X61370Y21939D01*
X61331Y21641D01*
X61370Y21342D01*
X61486Y21064D01*
X61669Y20826D01*
X61908Y20642D01*
X62186Y20527D01*
X62484Y20488D01*
X62782Y20527D01*
X63060Y20642D01*
X63299Y20826D01*
X63482Y21064D01*
X63598Y21342D01*
X63637Y21641D01*
X63598Y21939D01*
X63482Y22217D01*
X63299Y22456D01*
X63060Y22639D01*
X62782Y22754D01*
X62484Y22794D01*
D02*
G37*
G36*
X59944D02*
X59646Y22754D01*
X59368Y22639D01*
X59129Y22456D01*
X58946Y22217D01*
X58830Y21939D01*
X58791Y21641D01*
X58830Y21342D01*
X58946Y21064D01*
X59129Y20826D01*
X59368Y20642D01*
X59646Y20527D01*
X59944Y20488D01*
X60242Y20527D01*
X60520Y20642D01*
X60759Y20826D01*
X60942Y21064D01*
X61058Y21342D01*
X61097Y21641D01*
X61058Y21939D01*
X60942Y22217D01*
X60759Y22456D01*
X60520Y22639D01*
X60242Y22754D01*
X59944Y22794D01*
D02*
G37*
G36*
X57404D02*
X57106Y22754D01*
X56828Y22639D01*
X56589Y22456D01*
X56406Y22217D01*
X56290Y21939D01*
X56251Y21641D01*
X56290Y21342D01*
X56406Y21064D01*
X56589Y20826D01*
X56828Y20642D01*
X57106Y20527D01*
X57404Y20488D01*
X57702Y20527D01*
X57980Y20642D01*
X58219Y20826D01*
X58402Y21064D01*
X58518Y21342D01*
X58557Y21641D01*
X58518Y21939D01*
X58402Y22217D01*
X58219Y22456D01*
X57980Y22639D01*
X57702Y22754D01*
X57404Y22794D01*
D02*
G37*
G36*
X54864D02*
X54566Y22754D01*
X54288Y22639D01*
X54049Y22456D01*
X53866Y22217D01*
X53750Y21939D01*
X53711Y21641D01*
X53750Y21342D01*
X53866Y21064D01*
X54049Y20826D01*
X54288Y20642D01*
X54566Y20527D01*
X54864Y20488D01*
X55162Y20527D01*
X55440Y20642D01*
X55679Y20826D01*
X55862Y21064D01*
X55978Y21342D01*
X56017Y21641D01*
X55978Y21939D01*
X55862Y22217D01*
X55679Y22456D01*
X55440Y22639D01*
X55162Y22754D01*
X54864Y22794D01*
D02*
G37*
G36*
X47244D02*
X46946Y22754D01*
X46668Y22639D01*
X46429Y22456D01*
X46246Y22217D01*
X46130Y21939D01*
X46091Y21641D01*
X46130Y21342D01*
X46246Y21064D01*
X46429Y20826D01*
X46668Y20642D01*
X46946Y20527D01*
X47244Y20488D01*
X47542Y20527D01*
X47820Y20642D01*
X48059Y20826D01*
X48242Y21064D01*
X48358Y21342D01*
X48397Y21641D01*
X48358Y21939D01*
X48242Y22217D01*
X48059Y22456D01*
X47820Y22639D01*
X47542Y22754D01*
X47244Y22794D01*
D02*
G37*
G36*
X44704D02*
X44406Y22754D01*
X44128Y22639D01*
X43889Y22456D01*
X43706Y22217D01*
X43590Y21939D01*
X43551Y21641D01*
X43590Y21342D01*
X43706Y21064D01*
X43889Y20826D01*
X44128Y20642D01*
X44406Y20527D01*
X44704Y20488D01*
X45002Y20527D01*
X45280Y20642D01*
X45519Y20826D01*
X45702Y21064D01*
X45818Y21342D01*
X45857Y21641D01*
X45818Y21939D01*
X45702Y22217D01*
X45519Y22456D01*
X45280Y22639D01*
X45002Y22754D01*
X44704Y22794D01*
D02*
G37*
G36*
X37694D02*
X37395Y22754D01*
X37117Y22639D01*
X36878Y22456D01*
X36695Y22217D01*
X36580Y21939D01*
X36541Y21641D01*
X36580Y21342D01*
X36695Y21064D01*
X36878Y20826D01*
X37117Y20642D01*
X37395Y20527D01*
X37694Y20488D01*
X37992Y20527D01*
X38270Y20642D01*
X38509Y20826D01*
X38692Y21064D01*
X38807Y21342D01*
X38846Y21641D01*
X38807Y21939D01*
X38692Y22217D01*
X38509Y22456D01*
X38270Y22639D01*
X37992Y22754D01*
X37694Y22794D01*
D02*
G37*
G36*
X104851Y22172D02*
X104556Y22133D01*
X104281Y22019D01*
X104045Y21838D01*
X103863Y21602D01*
X103749Y21326D01*
X103710Y21031D01*
X103749Y20736D01*
X103863Y20461D01*
X104045Y20225D01*
X104281Y20043D01*
X104556Y19929D01*
X104851Y19890D01*
X105146Y19929D01*
X105422Y20043D01*
X105658Y20225D01*
X105839Y20461D01*
X105953Y20736D01*
X105992Y21031D01*
X105953Y21326D01*
X105839Y21602D01*
X105658Y21838D01*
X105422Y22019D01*
X105146Y22133D01*
X104851Y22172D01*
D02*
G37*
G36*
X102311D02*
X102016Y22133D01*
X101741Y22019D01*
X101505Y21838D01*
X101323Y21602D01*
X101209Y21326D01*
X101170Y21031D01*
X101209Y20736D01*
X101323Y20461D01*
X101505Y20225D01*
X101741Y20043D01*
X102016Y19929D01*
X102311Y19890D01*
X102606Y19929D01*
X102882Y20043D01*
X103118Y20225D01*
X103299Y20461D01*
X103413Y20736D01*
X103452Y21031D01*
X103413Y21326D01*
X103299Y21602D01*
X103118Y21838D01*
X102882Y22019D01*
X102606Y22133D01*
X102311Y22172D01*
D02*
G37*
G36*
X104978Y19487D02*
Y18618D01*
X105847D01*
X105829Y18753D01*
X105728Y18998D01*
X105567Y19207D01*
X105358Y19368D01*
X105113Y19469D01*
X104978Y19487D01*
D02*
G37*
G36*
X102438D02*
Y18618D01*
X103307D01*
X103289Y18753D01*
X103188Y18998D01*
X103027Y19207D01*
X102818Y19368D01*
X102573Y19469D01*
X102438Y19487D01*
D02*
G37*
G36*
X104724Y19487D02*
X104589Y19469D01*
X104345Y19368D01*
X104135Y19207D01*
X103974Y18998D01*
X103873Y18753D01*
X103855Y18618D01*
X104724D01*
Y19487D01*
D02*
G37*
G36*
X102184D02*
X102049Y19469D01*
X101805Y19368D01*
X101595Y19207D01*
X101434Y18998D01*
X101333Y18753D01*
X101315Y18618D01*
X102184D01*
Y19487D01*
D02*
G37*
G36*
X37694Y20254D02*
X37395Y20214D01*
X37117Y20099D01*
X36878Y19916D01*
X36695Y19677D01*
X36580Y19399D01*
X36541Y19101D01*
X36580Y18802D01*
X36695Y18524D01*
X36878Y18286D01*
X37117Y18102D01*
X37395Y17987D01*
X37694Y17948D01*
X37992Y17987D01*
X38270Y18102D01*
X38509Y18286D01*
X38692Y18524D01*
X38807Y18802D01*
X38846Y19101D01*
X38807Y19399D01*
X38692Y19677D01*
X38509Y19916D01*
X38270Y20099D01*
X37992Y20214D01*
X37694Y20254D01*
D02*
G37*
G36*
X104724Y18364D02*
X103855D01*
X103873Y18229D01*
X103974Y17985D01*
X104135Y17775D01*
X104345Y17614D01*
X104589Y17513D01*
X104724Y17495D01*
Y18364D01*
D02*
G37*
G36*
X102184D02*
X101315D01*
X101333Y18229D01*
X101434Y17985D01*
X101595Y17775D01*
X101805Y17614D01*
X102049Y17513D01*
X102184Y17495D01*
Y18364D01*
D02*
G37*
G36*
X105847D02*
X104978D01*
Y17495D01*
X105113Y17513D01*
X105358Y17614D01*
X105567Y17775D01*
X105728Y17985D01*
X105829Y18229D01*
X105847Y18364D01*
D02*
G37*
G36*
X103307D02*
X102438D01*
Y17495D01*
X102573Y17513D01*
X102818Y17614D01*
X103027Y17775D01*
X103188Y17985D01*
X103289Y18229D01*
X103307Y18364D01*
D02*
G37*
G36*
X87071Y19632D02*
X86776Y19593D01*
X86501Y19479D01*
X86265Y19298D01*
X86083Y19062D01*
X85969Y18786D01*
X85930Y18491D01*
X85969Y18196D01*
X86083Y17921D01*
X86265Y17685D01*
X86501Y17503D01*
X86776Y17389D01*
X87071Y17350D01*
X87366Y17389D01*
X87642Y17503D01*
X87878Y17685D01*
X88059Y17921D01*
X88173Y18196D01*
X88212Y18491D01*
X88173Y18786D01*
X88059Y19062D01*
X87878Y19298D01*
X87642Y19479D01*
X87366Y19593D01*
X87071Y19632D01*
D02*
G37*
G36*
X84531D02*
X84236Y19593D01*
X83961Y19479D01*
X83725Y19298D01*
X83543Y19062D01*
X83429Y18786D01*
X83390Y18491D01*
X83429Y18196D01*
X83543Y17921D01*
X83725Y17685D01*
X83961Y17503D01*
X84236Y17389D01*
X84531Y17350D01*
X84826Y17389D01*
X85102Y17503D01*
X85338Y17685D01*
X85519Y17921D01*
X85633Y18196D01*
X85672Y18491D01*
X85633Y18786D01*
X85519Y19062D01*
X85338Y19298D01*
X85102Y19479D01*
X84826Y19593D01*
X84531Y19632D01*
D02*
G37*
G36*
X104851Y17092D02*
X104556Y17053D01*
X104281Y16939D01*
X104045Y16758D01*
X103863Y16522D01*
X103749Y16246D01*
X103710Y15951D01*
X103749Y15656D01*
X103863Y15381D01*
X104045Y15145D01*
X104281Y14963D01*
X104556Y14849D01*
X104851Y14810D01*
X105146Y14849D01*
X105422Y14963D01*
X105658Y15145D01*
X105839Y15381D01*
X105953Y15656D01*
X105992Y15951D01*
X105953Y16246D01*
X105839Y16522D01*
X105658Y16758D01*
X105422Y16939D01*
X105146Y17053D01*
X104851Y17092D01*
D02*
G37*
G36*
X102311D02*
X102016Y17053D01*
X101741Y16939D01*
X101505Y16758D01*
X101323Y16522D01*
X101209Y16246D01*
X101170Y15951D01*
X101209Y15656D01*
X101323Y15381D01*
X101505Y15145D01*
X101741Y14963D01*
X102016Y14849D01*
X102311Y14810D01*
X102606Y14849D01*
X102882Y14963D01*
X103118Y15145D01*
X103299Y15381D01*
X103413Y15656D01*
X103452Y15951D01*
X103413Y16246D01*
X103299Y16522D01*
X103118Y16758D01*
X102882Y16939D01*
X102606Y17053D01*
X102311Y17092D01*
D02*
G37*
G36*
X87071D02*
X86776Y17053D01*
X86501Y16939D01*
X86265Y16758D01*
X86083Y16522D01*
X85969Y16246D01*
X85930Y15951D01*
X85969Y15656D01*
X86083Y15381D01*
X86265Y15145D01*
X86501Y14963D01*
X86776Y14849D01*
X87071Y14810D01*
X87366Y14849D01*
X87642Y14963D01*
X87878Y15145D01*
X88059Y15381D01*
X88173Y15656D01*
X88212Y15951D01*
X88173Y16246D01*
X88059Y16522D01*
X87878Y16758D01*
X87642Y16939D01*
X87366Y17053D01*
X87071Y17092D01*
D02*
G37*
G36*
X84531D02*
X84236Y17053D01*
X83961Y16939D01*
X83725Y16758D01*
X83543Y16522D01*
X83429Y16246D01*
X83390Y15951D01*
X83429Y15656D01*
X83543Y15381D01*
X83725Y15145D01*
X83961Y14963D01*
X84236Y14849D01*
X84531Y14810D01*
X84826Y14849D01*
X85102Y14963D01*
X85338Y15145D01*
X85519Y15381D01*
X85633Y15656D01*
X85672Y15951D01*
X85633Y16246D01*
X85519Y16522D01*
X85338Y16758D01*
X85102Y16939D01*
X84826Y17053D01*
X84531Y17092D01*
D02*
G37*
G36*
X65634Y16468D02*
X65368Y16433D01*
X65121Y16331D01*
X64909Y16168D01*
X64746Y15956D01*
X64644Y15708D01*
X64609Y15443D01*
X64644Y15178D01*
X64746Y14931D01*
X64909Y14719D01*
X65121Y14556D01*
X65368Y14453D01*
X65634Y14418D01*
X65899Y14453D01*
X66146Y14556D01*
X66358Y14719D01*
X66521Y14931D01*
X66623Y15178D01*
X66658Y15443D01*
X66623Y15708D01*
X66521Y15956D01*
X66358Y16168D01*
X66146Y16331D01*
X65899Y16433D01*
X65634Y16468D01*
D02*
G37*
G36*
X55474D02*
X55208Y16433D01*
X54961Y16331D01*
X54749Y16168D01*
X54586Y15956D01*
X54484Y15708D01*
X54449Y15443D01*
X54484Y15178D01*
X54586Y14931D01*
X54749Y14719D01*
X54961Y14556D01*
X55208Y14453D01*
X55474Y14418D01*
X55739Y14453D01*
X55986Y14556D01*
X56198Y14719D01*
X56361Y14931D01*
X56463Y15178D01*
X56498Y15443D01*
X56463Y15708D01*
X56361Y15956D01*
X56198Y16168D01*
X55986Y16331D01*
X55739Y16433D01*
X55474Y16468D01*
D02*
G37*
G36*
X52324Y22794D02*
X52026Y22754D01*
X51748Y22639D01*
X51509Y22456D01*
X51326Y22217D01*
X51210Y21939D01*
X51171Y21641D01*
X51210Y21342D01*
X51326Y21064D01*
X51509Y20826D01*
X51619Y20741D01*
Y16183D01*
X51599Y16168D01*
X51437Y15956D01*
X51334Y15708D01*
X51299Y15443D01*
X51334Y15178D01*
X51437Y14931D01*
X51599Y14719D01*
X51812Y14556D01*
X52059Y14453D01*
X52324Y14418D01*
X52589Y14453D01*
X52836Y14556D01*
X53049Y14719D01*
X53211Y14931D01*
X53314Y15178D01*
X53349Y15443D01*
X53314Y15708D01*
X53211Y15956D01*
X53049Y16168D01*
X53029Y16183D01*
Y20741D01*
X53139Y20826D01*
X53322Y21064D01*
X53438Y21342D01*
X53477Y21641D01*
X53438Y21939D01*
X53322Y22217D01*
X53139Y22456D01*
X52900Y22639D01*
X52622Y22754D01*
X52324Y22794D01*
D02*
G37*
G36*
X42164Y16468D02*
X41899Y16433D01*
X41652Y16331D01*
X41439Y16168D01*
X41277Y15956D01*
X41174Y15708D01*
X41139Y15443D01*
X41174Y15178D01*
X41277Y14931D01*
X41439Y14719D01*
X41652Y14556D01*
X41899Y14453D01*
X42164Y14418D01*
X42429Y14453D01*
X42676Y14556D01*
X42889Y14719D01*
X43051Y14931D01*
X43154Y15178D01*
X43189Y15443D01*
X43154Y15708D01*
X43051Y15956D01*
X42889Y16168D01*
X42676Y16331D01*
X42429Y16433D01*
X42164Y16468D01*
D02*
G37*
G36*
X87198Y14407D02*
Y13538D01*
X88067D01*
X88049Y13673D01*
X87948Y13918D01*
X87787Y14127D01*
X87578Y14288D01*
X87333Y14389D01*
X87198Y14407D01*
D02*
G37*
G36*
X84658D02*
Y13538D01*
X85527D01*
X85509Y13673D01*
X85408Y13918D01*
X85247Y14127D01*
X85038Y14288D01*
X84793Y14389D01*
X84658Y14407D01*
D02*
G37*
G36*
X86944Y14407D02*
X86809Y14389D01*
X86565Y14288D01*
X86355Y14127D01*
X86194Y13918D01*
X86093Y13673D01*
X86075Y13538D01*
X86944D01*
Y14407D01*
D02*
G37*
G36*
X84404D02*
X84269Y14389D01*
X84025Y14288D01*
X83815Y14127D01*
X83654Y13918D01*
X83553Y13673D01*
X83535Y13538D01*
X84404D01*
Y14407D01*
D02*
G37*
G36*
X86944Y13284D02*
X86075D01*
X86093Y13149D01*
X86194Y12905D01*
X86355Y12695D01*
X86565Y12534D01*
X86809Y12433D01*
X86944Y12415D01*
Y13284D01*
D02*
G37*
G36*
X84404D02*
X83535D01*
X83553Y13149D01*
X83654Y12905D01*
X83815Y12695D01*
X84025Y12534D01*
X84269Y12433D01*
X84404Y12415D01*
Y13284D01*
D02*
G37*
G36*
X88067D02*
X87198D01*
Y12415D01*
X87333Y12433D01*
X87578Y12534D01*
X87787Y12695D01*
X87948Y12905D01*
X88049Y13149D01*
X88067Y13284D01*
D02*
G37*
G36*
X85527D02*
X84658D01*
Y12415D01*
X84793Y12433D01*
X85038Y12534D01*
X85247Y12695D01*
X85408Y12905D01*
X85509Y13149D01*
X85527Y13284D01*
D02*
G37*
G36*
X104851Y14552D02*
X104556Y14513D01*
X104281Y14399D01*
X104045Y14218D01*
X103863Y13982D01*
X103749Y13706D01*
X103710Y13411D01*
X103749Y13116D01*
X103863Y12841D01*
X104045Y12605D01*
X104281Y12423D01*
X104556Y12309D01*
X104851Y12270D01*
X105146Y12309D01*
X105422Y12423D01*
X105658Y12605D01*
X105839Y12841D01*
X105953Y13116D01*
X105992Y13411D01*
X105953Y13706D01*
X105839Y13982D01*
X105658Y14218D01*
X105422Y14399D01*
X105146Y14513D01*
X104851Y14552D01*
D02*
G37*
G36*
X102311D02*
X102016Y14513D01*
X101741Y14399D01*
X101505Y14218D01*
X101323Y13982D01*
X101209Y13706D01*
X101170Y13411D01*
X101209Y13116D01*
X101323Y12841D01*
X101505Y12605D01*
X101741Y12423D01*
X102016Y12309D01*
X102311Y12270D01*
X102606Y12309D01*
X102882Y12423D01*
X103118Y12605D01*
X103299Y12841D01*
X103413Y13116D01*
X103452Y13411D01*
X103413Y13706D01*
X103299Y13982D01*
X103118Y14218D01*
X102882Y14399D01*
X102606Y14513D01*
X102311Y14552D01*
D02*
G37*
G36*
X51740Y12883D02*
Y12014D01*
X52609D01*
X52591Y12149D01*
X52490Y12394D01*
X52329Y12603D01*
X52119Y12764D01*
X51875Y12865D01*
X51740Y12883D01*
D02*
G37*
G36*
X51486Y12883D02*
X51351Y12865D01*
X51106Y12764D01*
X50897Y12603D01*
X50736Y12394D01*
X50635Y12149D01*
X50617Y12014D01*
X51486D01*
Y12883D01*
D02*
G37*
G36*
X105982Y12002D02*
X103720D01*
Y9740D01*
X105982D01*
Y12002D01*
D02*
G37*
G36*
X103442D02*
X101180D01*
Y9740D01*
X103442D01*
Y12002D01*
D02*
G37*
G36*
X87071Y12012D02*
X86776Y11973D01*
X86501Y11859D01*
X86265Y11678D01*
X86083Y11442D01*
X85969Y11166D01*
X85930Y10871D01*
X85969Y10576D01*
X86083Y10301D01*
X86265Y10065D01*
X86501Y9883D01*
X86776Y9769D01*
X87071Y9730D01*
X87366Y9769D01*
X87642Y9883D01*
X87878Y10065D01*
X88059Y10301D01*
X88173Y10576D01*
X88212Y10871D01*
X88173Y11166D01*
X88059Y11442D01*
X87878Y11678D01*
X87642Y11859D01*
X87366Y11973D01*
X87071Y12012D01*
D02*
G37*
G36*
X84531D02*
X84236Y11973D01*
X83961Y11859D01*
X83725Y11678D01*
X83543Y11442D01*
X83429Y11166D01*
X83390Y10871D01*
X83429Y10576D01*
X83543Y10301D01*
X83725Y10065D01*
X83961Y9883D01*
X84236Y9769D01*
X84531Y9730D01*
X84826Y9769D01*
X85102Y9883D01*
X85338Y10065D01*
X85519Y10301D01*
X85633Y10576D01*
X85672Y10871D01*
X85633Y11166D01*
X85519Y11442D01*
X85338Y11678D01*
X85102Y11859D01*
X84826Y11973D01*
X84531Y12012D01*
D02*
G37*
G36*
X52609Y11760D02*
X51613D01*
X50617D01*
X50635Y11625D01*
X50736Y11381D01*
X50897Y11171D01*
X51095Y11019D01*
Y10215D01*
X50897Y10063D01*
X50736Y9854D01*
X50635Y9609D01*
X50617Y9474D01*
X51613D01*
X52609D01*
X52591Y9609D01*
X52490Y9854D01*
X52329Y10063D01*
X52131Y10215D01*
Y11019D01*
X52329Y11171D01*
X52490Y11381D01*
X52591Y11625D01*
X52609Y11760D01*
D02*
G37*
G36*
X51486Y9220D02*
X50617D01*
X50635Y9085D01*
X50736Y8841D01*
X50897Y8631D01*
X51106Y8470D01*
X51351Y8369D01*
X51486Y8351D01*
Y9220D01*
D02*
G37*
G36*
X52609D02*
X51740D01*
Y8351D01*
X51875Y8369D01*
X52119Y8470D01*
X52329Y8631D01*
X52490Y8841D01*
X52591Y9085D01*
X52609Y9220D01*
D02*
G37*
G36*
X62904Y13018D02*
X60642D01*
Y10756D01*
X61255D01*
Y10357D01*
X61202Y10335D01*
X60966Y10154D01*
X60785Y9918D01*
X60671Y9642D01*
X60632Y9347D01*
X60671Y9052D01*
X60785Y8777D01*
X60966Y8541D01*
X61202Y8359D01*
X61478Y8245D01*
X61773Y8206D01*
X62068Y8245D01*
X62343Y8359D01*
X62579Y8541D01*
X62761Y8777D01*
X62875Y9052D01*
X62914Y9347D01*
X62875Y9642D01*
X62761Y9918D01*
X62579Y10154D01*
X62343Y10335D01*
X62291Y10357D01*
Y10756D01*
X62904D01*
Y13018D01*
D02*
G37*
G36*
X59233Y13028D02*
X58938Y12989D01*
X58662Y12875D01*
X58426Y12694D01*
X58245Y12458D01*
X58131Y12182D01*
X58092Y11887D01*
X58131Y11592D01*
X58245Y11317D01*
X58426Y11081D01*
X58662Y10899D01*
X58715Y10878D01*
Y10357D01*
X58662Y10335D01*
X58426Y10154D01*
X58245Y9918D01*
X58131Y9642D01*
X58092Y9347D01*
X58131Y9052D01*
X58245Y8777D01*
X58426Y8541D01*
X58662Y8359D01*
X58938Y8245D01*
X59233Y8206D01*
X59528Y8245D01*
X59803Y8359D01*
X60039Y8541D01*
X60221Y8777D01*
X60335Y9052D01*
X60374Y9347D01*
X60335Y9642D01*
X60221Y9918D01*
X60039Y10154D01*
X59803Y10335D01*
X59751Y10357D01*
Y10878D01*
X59803Y10899D01*
X60039Y11081D01*
X60221Y11317D01*
X60335Y11592D01*
X60374Y11887D01*
X60335Y12182D01*
X60221Y12458D01*
X60039Y12694D01*
X59803Y12875D01*
X59528Y12989D01*
X59233Y13028D01*
D02*
G37*
G36*
X56693D02*
X56398Y12989D01*
X56122Y12875D01*
X55886Y12694D01*
X55705Y12458D01*
X55591Y12182D01*
X55552Y11887D01*
X55591Y11592D01*
X55705Y11317D01*
X55886Y11081D01*
X56122Y10899D01*
X56175Y10878D01*
Y10357D01*
X56122Y10335D01*
X55886Y10154D01*
X55705Y9918D01*
X55591Y9642D01*
X55552Y9347D01*
X55591Y9052D01*
X55705Y8777D01*
X55886Y8541D01*
X56122Y8359D01*
X56398Y8245D01*
X56693Y8206D01*
X56988Y8245D01*
X57263Y8359D01*
X57499Y8541D01*
X57681Y8777D01*
X57795Y9052D01*
X57834Y9347D01*
X57795Y9642D01*
X57681Y9918D01*
X57499Y10154D01*
X57263Y10335D01*
X57211Y10357D01*
Y10878D01*
X57263Y10899D01*
X57499Y11081D01*
X57681Y11317D01*
X57795Y11592D01*
X57834Y11887D01*
X57795Y12182D01*
X57681Y12458D01*
X57499Y12694D01*
X57263Y12875D01*
X56988Y12989D01*
X56693Y13028D01*
D02*
G37*
G36*
X54153D02*
X53858Y12989D01*
X53582Y12875D01*
X53346Y12694D01*
X53165Y12458D01*
X53051Y12182D01*
X53012Y11887D01*
X53051Y11592D01*
X53165Y11317D01*
X53346Y11081D01*
X53582Y10899D01*
X53635Y10878D01*
Y10357D01*
X53582Y10335D01*
X53346Y10154D01*
X53165Y9918D01*
X53051Y9642D01*
X53012Y9347D01*
X53051Y9052D01*
X53165Y8777D01*
X53346Y8541D01*
X53582Y8359D01*
X53858Y8245D01*
X54153Y8206D01*
X54448Y8245D01*
X54723Y8359D01*
X54959Y8541D01*
X55141Y8777D01*
X55255Y9052D01*
X55294Y9347D01*
X55255Y9642D01*
X55141Y9918D01*
X54959Y10154D01*
X54723Y10335D01*
X54671Y10357D01*
Y10878D01*
X54723Y10899D01*
X54959Y11081D01*
X55141Y11317D01*
X55255Y11592D01*
X55294Y11887D01*
X55255Y12182D01*
X55141Y12458D01*
X54959Y12694D01*
X54723Y12875D01*
X54448Y12989D01*
X54153Y13028D01*
D02*
G37*
G36*
X49073D02*
X48778Y12989D01*
X48502Y12875D01*
X48266Y12694D01*
X48085Y12458D01*
X47971Y12182D01*
X47932Y11887D01*
X47971Y11592D01*
X48085Y11317D01*
X48266Y11081D01*
X48502Y10899D01*
X48555Y10878D01*
Y10357D01*
X48502Y10335D01*
X48266Y10154D01*
X48085Y9918D01*
X47971Y9642D01*
X47932Y9347D01*
X47971Y9052D01*
X48085Y8777D01*
X48266Y8541D01*
X48502Y8359D01*
X48778Y8245D01*
X49073Y8206D01*
X49368Y8245D01*
X49643Y8359D01*
X49879Y8541D01*
X50061Y8777D01*
X50175Y9052D01*
X50214Y9347D01*
X50175Y9642D01*
X50061Y9918D01*
X49879Y10154D01*
X49643Y10335D01*
X49591Y10357D01*
Y10878D01*
X49643Y10899D01*
X49879Y11081D01*
X50061Y11317D01*
X50175Y11592D01*
X50214Y11887D01*
X50175Y12182D01*
X50061Y12458D01*
X49879Y12694D01*
X49643Y12875D01*
X49368Y12989D01*
X49073Y13028D01*
D02*
G37*
G36*
X46533D02*
X46238Y12989D01*
X45962Y12875D01*
X45726Y12694D01*
X45545Y12458D01*
X45431Y12182D01*
X45392Y11887D01*
X45431Y11592D01*
X45545Y11317D01*
X45726Y11081D01*
X45962Y10899D01*
X46015Y10878D01*
Y10357D01*
X45962Y10335D01*
X45726Y10154D01*
X45545Y9918D01*
X45431Y9642D01*
X45392Y9347D01*
X45431Y9052D01*
X45545Y8777D01*
X45726Y8541D01*
X45962Y8359D01*
X46238Y8245D01*
X46533Y8206D01*
X46828Y8245D01*
X47103Y8359D01*
X47339Y8541D01*
X47521Y8777D01*
X47635Y9052D01*
X47674Y9347D01*
X47635Y9642D01*
X47521Y9918D01*
X47339Y10154D01*
X47103Y10335D01*
X47051Y10357D01*
Y10878D01*
X47103Y10899D01*
X47339Y11081D01*
X47521Y11317D01*
X47635Y11592D01*
X47674Y11887D01*
X47635Y12182D01*
X47521Y12458D01*
X47339Y12694D01*
X47103Y12875D01*
X46828Y12989D01*
X46533Y13028D01*
D02*
G37*
%LPD*%
D10*
X70409Y24994D02*
X72886Y22516D01*
X98716D02*
X102311Y26111D01*
X72886Y22516D02*
X98716D01*
X72644Y24994D02*
X98654D01*
X70104D02*
X70409D01*
X98654D02*
X102311Y28651D01*
X61773Y9347D02*
Y11887D01*
X59233Y9347D02*
Y11887D01*
X56693Y9347D02*
Y11887D01*
X54153Y9347D02*
Y11887D01*
X51613Y9347D02*
Y11887D01*
X49073Y9347D02*
Y11887D01*
X46533Y9347D02*
Y11887D01*
X79045Y26924D02*
X79146Y27026D01*
X44094Y50698D02*
X45720Y52324D01*
X64922D01*
X66142Y51105D01*
X43688D02*
X44094Y50698D01*
X38811Y51105D02*
X43688D01*
X99060Y81330D02*
X99314Y81584D01*
X99822D01*
X100076Y81330D01*
Y80315D01*
X99822Y80061D01*
X99314D01*
X99060Y80315D01*
X98552Y81076D02*
Y80061D01*
Y80569D01*
X98299Y80823D01*
X98045Y81076D01*
X97791D01*
X96267Y80061D02*
X96775D01*
X97029Y80315D01*
Y80823D01*
X96775Y81076D01*
X96267D01*
X96013Y80823D01*
Y80569D01*
X97029D01*
X95252Y81076D02*
X94744D01*
X94490Y80823D01*
Y80061D01*
X95252D01*
X95505Y80315D01*
X95252Y80569D01*
X94490D01*
X93728Y81330D02*
Y81076D01*
X93982D01*
X93474D01*
X93728D01*
Y80315D01*
X93474Y80061D01*
X91951D02*
X92458D01*
X92712Y80315D01*
Y80823D01*
X92458Y81076D01*
X91951D01*
X91697Y80823D01*
Y80569D01*
X92712D01*
X90173Y81584D02*
Y80061D01*
X90935D01*
X91189Y80315D01*
Y80823D01*
X90935Y81076D01*
X90173D01*
X88142Y81584D02*
Y80061D01*
X87380D01*
X87126Y80315D01*
Y80569D01*
Y80823D01*
X87380Y81076D01*
X88142D01*
X86618D02*
Y80315D01*
X86364Y80061D01*
X85603D01*
Y79807D01*
X85857Y79553D01*
X86111D01*
X85603Y80061D02*
Y81076D01*
X85095D02*
X84841D01*
Y80823D01*
X85095D01*
Y81076D01*
Y80315D02*
X84841D01*
Y80061D01*
X85095D01*
Y80315D01*
X82302Y81584D02*
X81286D01*
Y81330D01*
X82302Y80315D01*
Y80061D01*
X81286D01*
X80524Y81076D02*
X80016D01*
X79763Y80823D01*
Y80061D01*
X80524D01*
X80778Y80315D01*
X80524Y80569D01*
X79763D01*
X78239Y81076D02*
X79001D01*
X79255Y80823D01*
Y80315D01*
X79001Y80061D01*
X78239D01*
X77731Y81584D02*
Y80061D01*
Y80823D01*
X77477Y81076D01*
X76969D01*
X76716Y80823D01*
Y80061D01*
X74684Y81584D02*
Y80061D01*
X73922D01*
X73669Y80315D01*
Y80569D01*
X73922Y80823D01*
X74684D01*
X73922D01*
X73669Y81076D01*
Y81330D01*
X73922Y81584D01*
X74684D01*
X73161Y81076D02*
Y80315D01*
X72907Y80061D01*
X72145D01*
Y81076D01*
X71637D02*
Y80061D01*
Y80569D01*
X71383Y80823D01*
X71129Y81076D01*
X70875D01*
X70114Y80061D02*
Y81076D01*
X69860D01*
X69606Y80823D01*
Y80061D01*
Y80823D01*
X69352Y81076D01*
X69098Y80823D01*
Y80061D01*
X67828D02*
X68336D01*
X68590Y80315D01*
Y80823D01*
X68336Y81076D01*
X67828D01*
X67575Y80823D01*
Y80569D01*
X68590D01*
X67067Y80061D02*
X66559D01*
X66813D01*
Y81076D01*
X67067D01*
X65797Y80061D02*
X65035D01*
X64781Y80315D01*
X65035Y80569D01*
X65543D01*
X65797Y80823D01*
X65543Y81076D01*
X64781D01*
X64020Y81330D02*
Y81076D01*
X64274D01*
X63766D01*
X64020D01*
Y80315D01*
X63766Y80061D01*
X62242D02*
X62750D01*
X63004Y80315D01*
Y80823D01*
X62750Y81076D01*
X62242D01*
X61988Y80823D01*
Y80569D01*
X63004D01*
X61480Y81076D02*
Y80061D01*
Y80569D01*
X61227Y80823D01*
X60973Y81076D01*
X60719D01*
X114503Y0D02*
Y87173D01*
X0D02*
X114503D01*
X0Y0D02*
Y87173D01*
Y0D02*
X114503D01*
Y87173D01*
D12*
X37744Y58572D02*
X40030Y60858D01*
X37744Y49428D02*
Y58572D01*
X100482Y58928D02*
X110073D01*
X110166Y58834D01*
X96876Y62535D02*
X100482Y58928D01*
X90998Y62535D02*
X96876D01*
X100482Y54153D02*
Y58928D01*
X99162Y52832D02*
X100482Y54153D01*
X88255Y59792D02*
X90998Y62535D01*
X37744Y49428D02*
X44094Y43078D01*
X40030Y60858D02*
X45507D01*
X46574Y59792D01*
X88255D01*
D26*
X52324Y15443D02*
Y21641D01*
D27*
X42164Y15443D02*
D03*
X52324D02*
D03*
X55474D02*
D03*
X65634D02*
D03*
X84125Y50902D02*
D03*
X73965D02*
D03*
X42977Y37490D02*
D03*
X53137D02*
D03*
X84125Y56083D02*
D03*
X73965D02*
D03*
X88798Y63906D02*
D03*
Y58826D02*
D03*
X99162Y52832D02*
D03*
X94082D02*
D03*
X70002Y40945D02*
D03*
Y51105D02*
D03*
X66142Y40945D02*
D03*
Y51105D02*
D03*
X38811Y40945D02*
D03*
Y51105D02*
D03*
X58014Y61366D02*
D03*
X68174D02*
D03*
X48971Y79146D02*
D03*
X38811D02*
D03*
X59944Y40945D02*
D03*
Y51105D02*
D03*
D28*
X44704Y24994D02*
D03*
X47244D02*
D03*
X49784D02*
D03*
X52324D02*
D03*
X54864D02*
D03*
X57404D02*
D03*
X59944D02*
D03*
X62484D02*
D03*
X65024D02*
D03*
X67564D02*
D03*
X70104D02*
D03*
X46533Y9347D02*
D03*
Y11887D02*
D03*
X49073Y9347D02*
D03*
Y11887D02*
D03*
X51613Y9347D02*
D03*
Y11887D02*
D03*
X54153Y9347D02*
D03*
Y11887D02*
D03*
X56693Y9347D02*
D03*
Y11887D02*
D03*
X59233Y9347D02*
D03*
Y11887D02*
D03*
X61773Y9347D02*
D03*
X84531Y46431D02*
D03*
Y10871D02*
D03*
Y13411D02*
D03*
Y43891D02*
D03*
Y41351D02*
D03*
Y38811D02*
D03*
Y36271D02*
D03*
Y33731D02*
D03*
Y31191D02*
D03*
Y28651D02*
D03*
Y26111D02*
D03*
Y23571D02*
D03*
Y21031D02*
D03*
Y18491D02*
D03*
Y15951D02*
D03*
X104851D02*
D03*
Y18491D02*
D03*
Y21031D02*
D03*
Y23571D02*
D03*
Y26111D02*
D03*
Y28651D02*
D03*
Y31191D02*
D03*
Y33731D02*
D03*
Y36271D02*
D03*
Y38811D02*
D03*
Y41351D02*
D03*
Y43891D02*
D03*
Y13411D02*
D03*
Y46431D02*
D03*
X87071Y15951D02*
D03*
Y18491D02*
D03*
Y21031D02*
D03*
Y23571D02*
D03*
Y26111D02*
D03*
Y28651D02*
D03*
Y31191D02*
D03*
Y33731D02*
D03*
Y36271D02*
D03*
Y38811D02*
D03*
Y41351D02*
D03*
Y43891D02*
D03*
Y13411D02*
D03*
Y10871D02*
D03*
Y46431D02*
D03*
X102311D02*
D03*
Y13411D02*
D03*
Y43891D02*
D03*
Y41351D02*
D03*
Y38811D02*
D03*
Y36271D02*
D03*
Y33731D02*
D03*
Y31191D02*
D03*
Y28651D02*
D03*
Y26111D02*
D03*
Y23571D02*
D03*
Y21031D02*
D03*
Y18491D02*
D03*
Y15951D02*
D03*
D29*
X72644Y24994D02*
D03*
X61773Y11887D02*
D03*
D30*
X37694Y19101D02*
D03*
Y21641D02*
D03*
X49784D02*
D03*
X44704D02*
D03*
X67564D02*
D03*
X65024D02*
D03*
X62484D02*
D03*
X59944D02*
D03*
X57404D02*
D03*
X54864D02*
D03*
X52324D02*
D03*
X47244D02*
D03*
D31*
X104851Y10871D02*
D03*
X102311D02*
D03*
D32*
X5486Y81686D02*
D03*
X108915D02*
D03*
X109118Y5385D02*
D03*
X5486Y5486D02*
D03*
D33*
X40030Y68478D02*
D03*
X92862Y66548D02*
D03*
X44094Y50698D02*
D03*
D34*
X40030Y65938D02*
D03*
Y63398D02*
D03*
Y60858D02*
D03*
X47650Y68478D02*
D03*
Y65938D02*
D03*
Y63398D02*
D03*
Y60858D02*
D03*
X100482Y58928D02*
D03*
Y61468D02*
D03*
Y64008D02*
D03*
Y66548D02*
D03*
X92862Y58928D02*
D03*
Y61468D02*
D03*
Y64008D02*
D03*
X44094Y48158D02*
D03*
Y45618D02*
D03*
Y43078D02*
D03*
X51714Y50698D02*
D03*
Y48158D02*
D03*
Y45618D02*
D03*
Y43078D02*
D03*
D35*
X34849Y43434D02*
D03*
Y51054D02*
D03*
X54254Y61316D02*
D03*
Y68936D02*
D03*
D36*
X110166Y58834D02*
D03*
X7823Y36474D02*
D03*
X7722Y40437D02*
D03*
Y44298D02*
D03*
X7754Y48166D02*
D03*
X7722Y58318D02*
D03*
X7754Y68486D02*
D03*
Y63406D02*
D03*
D37*
X14326Y9449D02*
D03*
X16866D02*
D03*
X19406D02*
D03*
X21946D02*
D03*
M02*
