G04*
G04 #@! TF.GenerationSoftware,Altium Limited,Altium Designer,19.1.2 (11)*
G04*
G04 Layer_Physical_Order=2*
G04 Layer_Color=16711680*
%FSLAX43Y43*%
%MOMM*%
G71*
G01*
G75*
%ADD10C,0.254*%
%ADD20C,1.500*%
%ADD21R,1.500X1.500*%
%ADD22R,1.270X2.540*%
%ADD23O,1.270X2.540*%
%ADD24C,1.397*%
%ADD25C,1.270*%
%ADD26O,2.540X1.270*%
G36*
X62103Y43561D02*
X61976Y43434D01*
Y39123D01*
X57311D01*
X54435Y41999D01*
X54460Y42059D01*
X54491Y42291D01*
X54460Y42523D01*
X54371Y42739D01*
X54228Y42925D01*
X54042Y43068D01*
X53826Y43157D01*
X53594Y43188D01*
X53362Y43157D01*
X53146Y43068D01*
X52960Y42925D01*
X52817Y42739D01*
X52728Y42523D01*
X52697Y42291D01*
X52728Y42059D01*
X52817Y41843D01*
X52960Y41657D01*
X53146Y41514D01*
X53362Y41425D01*
X53594Y41394D01*
X53826Y41425D01*
X53886Y41450D01*
X56875Y38460D01*
X57001Y38376D01*
X57150Y38347D01*
X61976D01*
Y36871D01*
X59910Y34805D01*
X59571D01*
Y35052D01*
X59540Y35284D01*
X59451Y35500D01*
X59308Y35686D01*
X59122Y35829D01*
X58906Y35918D01*
X58674Y35949D01*
X58442Y35918D01*
X58226Y35829D01*
X58040Y35686D01*
X57897Y35500D01*
X57808Y35284D01*
X57777Y35052D01*
Y33782D01*
X57808Y33550D01*
X57897Y33334D01*
X58040Y33148D01*
X58226Y33005D01*
X58442Y32916D01*
X58674Y32885D01*
X58906Y32916D01*
X59122Y33005D01*
X59308Y33148D01*
X59451Y33334D01*
X59540Y33550D01*
X59571Y33782D01*
Y34029D01*
X60071D01*
X60220Y34058D01*
X60346Y34142D01*
X61741Y35538D01*
X61976Y35441D01*
Y34417D01*
X83218D01*
X83343Y34163D01*
X83297Y34103D01*
X83208Y33887D01*
X83194Y33782D01*
X84709D01*
X86224D01*
X86210Y33887D01*
X86121Y34103D01*
X86075Y34163D01*
X86200Y34417D01*
X105918D01*
Y381D01*
X105664Y127D01*
X127D01*
Y46482D01*
X59182D01*
X62103Y43561D01*
D02*
G37*
G36*
X105791Y35052D02*
X85419D01*
X85402Y35306D01*
X85576Y35329D01*
X85792Y35418D01*
X85978Y35561D01*
X86121Y35747D01*
X86210Y35963D01*
X86241Y36195D01*
X86210Y36427D01*
X86121Y36643D01*
X85978Y36829D01*
X85792Y36972D01*
X85576Y37061D01*
X85459Y37077D01*
X85476Y37331D01*
X96012D01*
X96161Y37360D01*
X96287Y37444D01*
X96863Y38021D01*
X96923Y37996D01*
X97155Y37965D01*
X97387Y37996D01*
X97603Y38085D01*
X97789Y38228D01*
X97932Y38414D01*
X98021Y38630D01*
X98052Y38862D01*
X98021Y39094D01*
X97996Y39154D01*
X99081Y40238D01*
X99165Y40364D01*
X99194Y40513D01*
Y50507D01*
X99254Y50531D01*
X99440Y50674D01*
X99583Y50860D01*
X99672Y51076D01*
X99703Y51308D01*
X99672Y51540D01*
X99583Y51756D01*
X99440Y51942D01*
X99254Y52085D01*
X99038Y52174D01*
X98806Y52205D01*
X98574Y52174D01*
X98358Y52085D01*
X98172Y51942D01*
X98029Y51756D01*
X97940Y51540D01*
X97909Y51308D01*
X97940Y51076D01*
X98029Y50860D01*
X98172Y50674D01*
X98358Y50531D01*
X98418Y50507D01*
Y40674D01*
X97447Y39703D01*
X97387Y39728D01*
X97155Y39759D01*
X96923Y39728D01*
X96707Y39639D01*
X96521Y39496D01*
X96378Y39310D01*
X96289Y39094D01*
X96258Y38862D01*
X96289Y38630D01*
X96314Y38570D01*
X95851Y38107D01*
X86273D01*
X86152Y38361D01*
X86210Y38503D01*
X86241Y38735D01*
X86210Y38967D01*
X86121Y39183D01*
X85978Y39369D01*
X85792Y39512D01*
X85576Y39601D01*
X85344Y39632D01*
X84074D01*
X83842Y39601D01*
X83626Y39512D01*
X83440Y39369D01*
X83297Y39183D01*
X83273Y39123D01*
X62738D01*
Y43561D01*
X59309Y46990D01*
X180D01*
X127Y47117D01*
Y81407D01*
X105791D01*
Y35052D01*
D02*
G37*
%LPC*%
G36*
X31496Y42553D02*
X31264Y42522D01*
X31048Y42433D01*
X30862Y42290D01*
X30719Y42104D01*
X30630Y41888D01*
X30599Y41656D01*
X30630Y41424D01*
X30719Y41208D01*
X30862Y41022D01*
X31048Y40879D01*
X31264Y40790D01*
X31496Y40759D01*
X31728Y40790D01*
X31944Y40879D01*
X32130Y41022D01*
X32273Y41208D01*
X32362Y41424D01*
X32393Y41656D01*
X32362Y41888D01*
X32273Y42104D01*
X32130Y42290D01*
X31944Y42433D01*
X31728Y42522D01*
X31496Y42553D01*
D02*
G37*
G36*
X17685Y45038D02*
X17436Y45005D01*
X17205Y44909D01*
X17006Y44756D01*
X16853Y44557D01*
X16757Y44326D01*
X16724Y44077D01*
X16757Y43828D01*
X16853Y43597D01*
X17006Y43398D01*
X17205Y43245D01*
X17436Y43149D01*
X17685Y43116D01*
X17934Y43149D01*
X18026Y43187D01*
X19831Y41381D01*
X19957Y41297D01*
X20106Y41268D01*
X25615D01*
X25639Y41208D01*
X25782Y41022D01*
X25968Y40879D01*
X26184Y40790D01*
X26416Y40759D01*
X26648Y40790D01*
X26864Y40879D01*
X27050Y41022D01*
X27193Y41208D01*
X27282Y41424D01*
X27313Y41656D01*
X27282Y41888D01*
X27193Y42104D01*
X27050Y42290D01*
X26864Y42433D01*
X26648Y42522D01*
X26416Y42553D01*
X26184Y42522D01*
X25968Y42433D01*
X25782Y42290D01*
X25639Y42104D01*
X25615Y42044D01*
X20267D01*
X18575Y43736D01*
X18613Y43828D01*
X18646Y44077D01*
X18613Y44326D01*
X18517Y44557D01*
X18364Y44756D01*
X18165Y44909D01*
X17934Y45005D01*
X17685Y45038D01*
D02*
G37*
G36*
X29845Y38155D02*
Y37338D01*
X30662D01*
X30646Y37460D01*
X30550Y37691D01*
X30397Y37890D01*
X30198Y38043D01*
X29967Y38139D01*
X29845Y38155D01*
D02*
G37*
G36*
X29591D02*
X29469Y38139D01*
X29238Y38043D01*
X29039Y37890D01*
X28886Y37691D01*
X28790Y37460D01*
X28774Y37338D01*
X29591D01*
Y38155D01*
D02*
G37*
G36*
X30662Y37084D02*
X29845D01*
Y36267D01*
X29967Y36283D01*
X30198Y36379D01*
X30397Y36532D01*
X30550Y36731D01*
X30646Y36962D01*
X30662Y37084D01*
D02*
G37*
G36*
X29591D02*
X28774D01*
X28790Y36962D01*
X28886Y36731D01*
X29039Y36532D01*
X29238Y36379D01*
X29469Y36283D01*
X29591Y36267D01*
Y37084D01*
D02*
G37*
G36*
X24638Y36948D02*
Y35560D01*
X25408D01*
Y36068D01*
X25377Y36300D01*
X25288Y36516D01*
X25145Y36702D01*
X24959Y36845D01*
X24743Y36934D01*
X24638Y36948D01*
D02*
G37*
G36*
X24384D02*
X24279Y36934D01*
X24063Y36845D01*
X23877Y36702D01*
X23734Y36516D01*
X23645Y36300D01*
X23614Y36068D01*
Y35560D01*
X24384D01*
Y36948D01*
D02*
G37*
G36*
X25408Y35306D02*
X24638D01*
Y33918D01*
X24743Y33932D01*
X24959Y34021D01*
X25145Y34164D01*
X25288Y34350D01*
X25377Y34566D01*
X25408Y34798D01*
Y35306D01*
D02*
G37*
G36*
X24384D02*
X23614D01*
Y34798D01*
X23645Y34566D01*
X23734Y34350D01*
X23877Y34164D01*
X24063Y34021D01*
X24279Y33932D01*
X24384Y33918D01*
Y35306D01*
D02*
G37*
G36*
X21971Y36965D02*
X21739Y36934D01*
X21523Y36845D01*
X21337Y36702D01*
X21194Y36516D01*
X21105Y36300D01*
X21074Y36068D01*
Y34798D01*
X21105Y34566D01*
X21194Y34350D01*
X21337Y34164D01*
X21523Y34021D01*
X21739Y33932D01*
X21971Y33901D01*
X22203Y33932D01*
X22419Y34021D01*
X22605Y34164D01*
X22748Y34350D01*
X22837Y34566D01*
X22868Y34798D01*
Y36068D01*
X22837Y36300D01*
X22748Y36516D01*
X22605Y36702D01*
X22419Y36845D01*
X22203Y36934D01*
X21971Y36965D01*
D02*
G37*
G36*
X19431D02*
X19199Y36934D01*
X18983Y36845D01*
X18797Y36702D01*
X18654Y36516D01*
X18565Y36300D01*
X18534Y36068D01*
Y34798D01*
X18565Y34566D01*
X18654Y34350D01*
X18797Y34164D01*
X18983Y34021D01*
X19199Y33932D01*
X19431Y33901D01*
X19663Y33932D01*
X19879Y34021D01*
X20065Y34164D01*
X20208Y34350D01*
X20297Y34566D01*
X20328Y34798D01*
Y36068D01*
X20297Y36300D01*
X20208Y36516D01*
X20065Y36702D01*
X19879Y36845D01*
X19663Y36934D01*
X19431Y36965D01*
D02*
G37*
G36*
X10287Y37346D02*
X10055Y37315D01*
X9839Y37226D01*
X9653Y37083D01*
X9510Y36897D01*
X9421Y36681D01*
X9390Y36449D01*
X9421Y36217D01*
X9510Y36001D01*
X9653Y35815D01*
X9839Y35672D01*
X10055Y35583D01*
X10287Y35552D01*
X10519Y35583D01*
X10579Y35608D01*
X11028Y35158D01*
X11154Y35074D01*
X11303Y35045D01*
X15994D01*
Y34798D01*
X16025Y34566D01*
X16114Y34350D01*
X16257Y34164D01*
X16443Y34021D01*
X16659Y33932D01*
X16891Y33901D01*
X17123Y33932D01*
X17339Y34021D01*
X17525Y34164D01*
X17668Y34350D01*
X17757Y34566D01*
X17788Y34798D01*
Y36068D01*
X17757Y36300D01*
X17668Y36516D01*
X17525Y36702D01*
X17339Y36845D01*
X17123Y36934D01*
X16891Y36965D01*
X16659Y36934D01*
X16443Y36845D01*
X16257Y36702D01*
X16114Y36516D01*
X16025Y36300D01*
X15994Y36068D01*
Y35821D01*
X11464D01*
X11128Y36157D01*
X11153Y36217D01*
X11184Y36449D01*
X11153Y36681D01*
X11064Y36897D01*
X10921Y37083D01*
X10735Y37226D01*
X10519Y37315D01*
X10287Y37346D01*
D02*
G37*
G36*
X43434Y43188D02*
X43202Y43157D01*
X42986Y43068D01*
X42800Y42925D01*
X42657Y42739D01*
X42568Y42523D01*
X42537Y42291D01*
X42568Y42059D01*
X42657Y41843D01*
X42800Y41657D01*
X42986Y41514D01*
X43202Y41425D01*
X43434Y41394D01*
X43666Y41425D01*
X43726Y41450D01*
X46436Y38740D01*
X46562Y38656D01*
X46711Y38626D01*
X54703D01*
X55746Y37583D01*
Y35853D01*
X55686Y35829D01*
X55500Y35686D01*
X55357Y35500D01*
X55268Y35284D01*
X55237Y35052D01*
Y33782D01*
X55268Y33550D01*
X55357Y33334D01*
X55500Y33148D01*
X55686Y33005D01*
X55902Y32916D01*
X56134Y32885D01*
X56366Y32916D01*
X56582Y33005D01*
X56768Y33148D01*
X56911Y33334D01*
X57000Y33550D01*
X57031Y33782D01*
Y35052D01*
X57000Y35284D01*
X56911Y35500D01*
X56768Y35686D01*
X56582Y35829D01*
X56522Y35853D01*
Y37744D01*
X56493Y37893D01*
X56409Y38019D01*
X55139Y39289D01*
X55013Y39373D01*
X54864Y39403D01*
X46872D01*
X44275Y41999D01*
X44300Y42059D01*
X44331Y42291D01*
X44300Y42523D01*
X44211Y42739D01*
X44068Y42925D01*
X43882Y43068D01*
X43666Y43157D01*
X43434Y43188D01*
D02*
G37*
G36*
X53594Y35949D02*
X53362Y35918D01*
X53146Y35829D01*
X52960Y35686D01*
X52817Y35500D01*
X52728Y35284D01*
X52697Y35052D01*
Y33782D01*
X52728Y33550D01*
X52817Y33334D01*
X52960Y33148D01*
X53146Y33005D01*
X53362Y32916D01*
X53594Y32885D01*
X53826Y32916D01*
X54042Y33005D01*
X54228Y33148D01*
X54371Y33334D01*
X54460Y33550D01*
X54491Y33782D01*
Y35052D01*
X54460Y35284D01*
X54371Y35500D01*
X54228Y35686D01*
X54042Y35829D01*
X53826Y35918D01*
X53594Y35949D01*
D02*
G37*
G36*
X51054D02*
X50822Y35918D01*
X50606Y35829D01*
X50420Y35686D01*
X50277Y35500D01*
X50188Y35284D01*
X50157Y35052D01*
Y33782D01*
X50188Y33550D01*
X50277Y33334D01*
X50420Y33148D01*
X50606Y33005D01*
X50822Y32916D01*
X51054Y32885D01*
X51286Y32916D01*
X51502Y33005D01*
X51688Y33148D01*
X51831Y33334D01*
X51920Y33550D01*
X51951Y33782D01*
Y35052D01*
X51920Y35284D01*
X51831Y35500D01*
X51688Y35686D01*
X51502Y35829D01*
X51286Y35918D01*
X51054Y35949D01*
D02*
G37*
G36*
X86224Y33528D02*
X84836D01*
Y32758D01*
X85344D01*
X85576Y32789D01*
X85792Y32878D01*
X85978Y33021D01*
X86121Y33207D01*
X86210Y33423D01*
X86224Y33528D01*
D02*
G37*
G36*
X84582D02*
X83194D01*
X83208Y33423D01*
X83297Y33207D01*
X83440Y33021D01*
X83626Y32878D01*
X83842Y32789D01*
X84074Y32758D01*
X84582D01*
Y33528D01*
D02*
G37*
G36*
X43434Y34044D02*
X43202Y34013D01*
X42986Y33924D01*
X42800Y33781D01*
X42657Y33595D01*
X42568Y33379D01*
X42537Y33147D01*
X42568Y32915D01*
X42657Y32699D01*
X42800Y32513D01*
X42986Y32370D01*
X43202Y32281D01*
X43434Y32250D01*
X43666Y32281D01*
X43882Y32370D01*
X44068Y32513D01*
X44211Y32699D01*
X44300Y32915D01*
X44331Y33147D01*
X44300Y33379D01*
X44211Y33595D01*
X44068Y33781D01*
X43882Y33924D01*
X43666Y34013D01*
X43434Y34044D01*
D02*
G37*
G36*
X69215Y32122D02*
Y31369D01*
X69968D01*
X69954Y31474D01*
X69865Y31690D01*
X69722Y31876D01*
X69536Y32019D01*
X69320Y32108D01*
X69215Y32122D01*
D02*
G37*
G36*
X68961D02*
X68856Y32108D01*
X68640Y32019D01*
X68454Y31876D01*
X68311Y31690D01*
X68222Y31474D01*
X68208Y31369D01*
X68961D01*
Y32122D01*
D02*
G37*
G36*
X69968Y31115D02*
X69215D01*
Y30362D01*
X69320Y30376D01*
X69536Y30465D01*
X69722Y30608D01*
X69865Y30794D01*
X69954Y31010D01*
X69968Y31115D01*
D02*
G37*
G36*
X68961D02*
X68208D01*
X68222Y31010D01*
X68311Y30794D01*
X68454Y30608D01*
X68640Y30465D01*
X68856Y30376D01*
X68961Y30362D01*
Y31115D01*
D02*
G37*
G36*
X75692Y32139D02*
X75460Y32108D01*
X75244Y32019D01*
X75058Y31876D01*
X74915Y31690D01*
X74826Y31474D01*
X74795Y31242D01*
X74826Y31010D01*
X74915Y30794D01*
X75058Y30608D01*
X75244Y30465D01*
X75460Y30376D01*
X75692Y30345D01*
X75924Y30376D01*
X76140Y30465D01*
X76326Y30608D01*
X76469Y30794D01*
X76558Y31010D01*
X76589Y31242D01*
X76558Y31474D01*
X76469Y31690D01*
X76326Y31876D01*
X76140Y32019D01*
X75924Y32108D01*
X75692Y32139D01*
D02*
G37*
G36*
X85344Y32012D02*
X84074D01*
X83842Y31981D01*
X83626Y31892D01*
X83440Y31749D01*
X83297Y31563D01*
X83208Y31347D01*
X83177Y31115D01*
X83208Y30883D01*
X83297Y30667D01*
X83440Y30481D01*
X83626Y30338D01*
X83842Y30249D01*
X84074Y30218D01*
X85344D01*
X85576Y30249D01*
X85792Y30338D01*
X85978Y30481D01*
X86121Y30667D01*
X86210Y30883D01*
X86241Y31115D01*
X86210Y31347D01*
X86121Y31563D01*
X85978Y31749D01*
X85792Y31892D01*
X85576Y31981D01*
X85344Y32012D01*
D02*
G37*
G36*
X34925Y31250D02*
X34693Y31219D01*
X34477Y31130D01*
X34291Y30987D01*
X34148Y30801D01*
X34059Y30585D01*
X34028Y30353D01*
X34059Y30121D01*
X34148Y29905D01*
X34291Y29719D01*
X34477Y29576D01*
X34693Y29487D01*
X34925Y29456D01*
X35157Y29487D01*
X35373Y29576D01*
X35559Y29719D01*
X35702Y29905D01*
X35791Y30121D01*
X35822Y30353D01*
X35791Y30585D01*
X35702Y30801D01*
X35559Y30987D01*
X35373Y31130D01*
X35157Y31219D01*
X34925Y31250D01*
D02*
G37*
G36*
X97155Y29599D02*
X96923Y29568D01*
X96707Y29479D01*
X96521Y29336D01*
X96378Y29150D01*
X96329Y29031D01*
X89396D01*
X89383Y29063D01*
X89230Y29262D01*
X89031Y29415D01*
X88800Y29511D01*
X88551Y29544D01*
X88302Y29511D01*
X88071Y29415D01*
X87872Y29262D01*
X87719Y29063D01*
X87623Y28832D01*
X87590Y28583D01*
X87623Y28334D01*
X87719Y28103D01*
X87872Y27904D01*
X88071Y27751D01*
X88302Y27655D01*
X88551Y27622D01*
X88800Y27655D01*
X89031Y27751D01*
X89230Y27904D01*
X89383Y28103D01*
X89446Y28254D01*
X96378D01*
X96378Y28254D01*
X96521Y28068D01*
X96707Y27925D01*
X96923Y27836D01*
X97155Y27805D01*
X97387Y27836D01*
X97603Y27925D01*
X97789Y28068D01*
X97932Y28254D01*
X98021Y28470D01*
X98052Y28702D01*
X98021Y28934D01*
X97932Y29150D01*
X97789Y29336D01*
X97603Y29479D01*
X97387Y29568D01*
X97155Y29599D01*
D02*
G37*
G36*
X56261Y28312D02*
Y26924D01*
X57031D01*
Y27432D01*
X57000Y27664D01*
X56911Y27880D01*
X56768Y28066D01*
X56582Y28209D01*
X56366Y28298D01*
X56261Y28312D01*
D02*
G37*
G36*
X56007D02*
X55902Y28298D01*
X55686Y28209D01*
X55500Y28066D01*
X55357Y27880D01*
X55268Y27664D01*
X55237Y27432D01*
Y26924D01*
X56007D01*
Y28312D01*
D02*
G37*
G36*
X69215Y27614D02*
Y26797D01*
X70032D01*
X70016Y26919D01*
X69920Y27150D01*
X69767Y27349D01*
X69568Y27502D01*
X69337Y27598D01*
X69215Y27614D01*
D02*
G37*
G36*
X68961D02*
X68839Y27598D01*
X68608Y27502D01*
X68409Y27349D01*
X68256Y27150D01*
X68160Y26919D01*
X68144Y26797D01*
X68961D01*
Y27614D01*
D02*
G37*
G36*
X17780Y29337D02*
X16002D01*
Y28201D01*
X11811D01*
X11662Y28172D01*
X11536Y28088D01*
X10579Y27130D01*
X10519Y27155D01*
X10287Y27186D01*
X10055Y27155D01*
X9839Y27066D01*
X9653Y26923D01*
X9510Y26737D01*
X9421Y26521D01*
X9390Y26289D01*
X9421Y26057D01*
X9510Y25841D01*
X9653Y25655D01*
X9839Y25512D01*
X10055Y25423D01*
X10287Y25392D01*
X10519Y25423D01*
X10735Y25512D01*
X10921Y25655D01*
X11064Y25841D01*
X11153Y26057D01*
X11184Y26289D01*
X11153Y26521D01*
X11128Y26581D01*
X11972Y27425D01*
X16002D01*
Y26289D01*
X17780D01*
Y29337D01*
D02*
G37*
G36*
X21971Y29345D02*
X21739Y29314D01*
X21523Y29225D01*
X21337Y29082D01*
X21194Y28896D01*
X21105Y28680D01*
X21074Y28448D01*
Y27178D01*
X21105Y26946D01*
X21194Y26730D01*
X21337Y26544D01*
X21523Y26401D01*
X21739Y26312D01*
X21971Y26281D01*
X22203Y26312D01*
X22419Y26401D01*
X22605Y26544D01*
X22748Y26730D01*
X22837Y26946D01*
X22868Y27178D01*
Y28448D01*
X22837Y28680D01*
X22748Y28896D01*
X22605Y29082D01*
X22419Y29225D01*
X22203Y29314D01*
X21971Y29345D01*
D02*
G37*
G36*
X19431D02*
X19199Y29314D01*
X18983Y29225D01*
X18797Y29082D01*
X18654Y28896D01*
X18565Y28680D01*
X18534Y28448D01*
Y27178D01*
X18565Y26946D01*
X18654Y26730D01*
X18797Y26544D01*
X18983Y26401D01*
X19199Y26312D01*
X19431Y26281D01*
X19663Y26312D01*
X19879Y26401D01*
X20065Y26544D01*
X20208Y26730D01*
X20297Y26946D01*
X20328Y27178D01*
Y28448D01*
X20297Y28680D01*
X20208Y28896D01*
X20065Y29082D01*
X19879Y29225D01*
X19663Y29314D01*
X19431Y29345D01*
D02*
G37*
G36*
X70032Y26543D02*
X69215D01*
Y25726D01*
X69337Y25742D01*
X69568Y25838D01*
X69767Y25991D01*
X69920Y26190D01*
X70016Y26421D01*
X70032Y26543D01*
D02*
G37*
G36*
X68961D02*
X68144D01*
X68160Y26421D01*
X68256Y26190D01*
X68409Y25991D01*
X68608Y25838D01*
X68839Y25742D01*
X68961Y25726D01*
Y26543D01*
D02*
G37*
G36*
X24511Y29345D02*
X24279Y29314D01*
X24063Y29225D01*
X23877Y29082D01*
X23734Y28896D01*
X23645Y28680D01*
X23614Y28448D01*
Y27178D01*
X23645Y26946D01*
X23734Y26730D01*
X23877Y26544D01*
X24063Y26401D01*
X24123Y26377D01*
Y25527D01*
X24152Y25378D01*
X24236Y25252D01*
X24617Y24871D01*
X24743Y24787D01*
X24892Y24758D01*
X58420D01*
X58569Y24787D01*
X58695Y24871D01*
X58949Y25125D01*
X59033Y25251D01*
X59054Y25357D01*
X59122Y25385D01*
X59308Y25528D01*
X59451Y25714D01*
X59540Y25930D01*
X59571Y26162D01*
Y27432D01*
X59540Y27664D01*
X59451Y27880D01*
X59308Y28066D01*
X59122Y28209D01*
X58906Y28298D01*
X58674Y28329D01*
X58442Y28298D01*
X58226Y28209D01*
X58040Y28066D01*
X57897Y27880D01*
X57808Y27664D01*
X57777Y27432D01*
Y26162D01*
X57808Y25930D01*
X57866Y25788D01*
X57745Y25534D01*
X57063D01*
X56942Y25788D01*
X57000Y25930D01*
X57031Y26162D01*
Y26670D01*
X56134D01*
X55237D01*
Y26162D01*
X55268Y25930D01*
X55326Y25788D01*
X55205Y25534D01*
X54523D01*
X54402Y25788D01*
X54460Y25930D01*
X54491Y26162D01*
Y27432D01*
X54460Y27664D01*
X54371Y27880D01*
X54228Y28066D01*
X54042Y28209D01*
X53826Y28298D01*
X53594Y28329D01*
X53362Y28298D01*
X53146Y28209D01*
X52960Y28066D01*
X52817Y27880D01*
X52728Y27664D01*
X52697Y27432D01*
Y26162D01*
X52728Y25930D01*
X52786Y25788D01*
X52665Y25534D01*
X51943D01*
Y28321D01*
X50165D01*
Y25534D01*
X25053D01*
X24899Y25688D01*
Y26377D01*
X24959Y26401D01*
X25145Y26544D01*
X25288Y26730D01*
X25377Y26946D01*
X25408Y27178D01*
Y28448D01*
X25377Y28680D01*
X25288Y28896D01*
X25145Y29082D01*
X24959Y29225D01*
X24743Y29314D01*
X24511Y29345D01*
D02*
G37*
G36*
X43434Y23884D02*
X43202Y23853D01*
X42986Y23764D01*
X42800Y23621D01*
X42657Y23435D01*
X42568Y23219D01*
X42537Y22987D01*
X42568Y22755D01*
X42657Y22539D01*
X42800Y22353D01*
X42986Y22210D01*
X43202Y22121D01*
X43434Y22090D01*
X43666Y22121D01*
X43726Y22146D01*
X45191Y20680D01*
X45317Y20596D01*
X45466Y20567D01*
X48788D01*
X48841Y20480D01*
X48700Y20226D01*
X42503D01*
X42261Y20468D01*
X42135Y20552D01*
X41986Y20581D01*
X35726D01*
X35702Y20641D01*
X35559Y20827D01*
X35373Y20970D01*
X35157Y21059D01*
X34925Y21090D01*
X34693Y21059D01*
X34477Y20970D01*
X34291Y20827D01*
X34148Y20641D01*
X34059Y20425D01*
X34028Y20193D01*
X34059Y19961D01*
X34148Y19745D01*
X34291Y19559D01*
X34477Y19416D01*
X34693Y19327D01*
X34925Y19296D01*
X35157Y19327D01*
X35373Y19416D01*
X35559Y19559D01*
X35702Y19745D01*
X35726Y19805D01*
X41825D01*
X42067Y19563D01*
X42193Y19479D01*
X42342Y19449D01*
X53746D01*
X53895Y19479D01*
X54021Y19563D01*
X54572Y20114D01*
X54632Y20089D01*
X54864Y20058D01*
X55096Y20089D01*
X55312Y20178D01*
X55498Y20321D01*
X55641Y20507D01*
X55730Y20723D01*
X55761Y20955D01*
X55730Y21187D01*
X55641Y21403D01*
X55498Y21589D01*
X55312Y21732D01*
X55096Y21821D01*
X54864Y21852D01*
X54632Y21821D01*
X54416Y21732D01*
X54230Y21589D01*
X54087Y21403D01*
X53998Y21187D01*
X53967Y20955D01*
X53998Y20723D01*
X54023Y20663D01*
X53585Y20226D01*
X50665D01*
X50540Y20480D01*
X50561Y20507D01*
X50650Y20723D01*
X50681Y20955D01*
X50650Y21187D01*
X50561Y21403D01*
X50418Y21589D01*
X50232Y21732D01*
X50016Y21821D01*
X49784Y21852D01*
X49552Y21821D01*
X49336Y21732D01*
X49150Y21589D01*
X49007Y21403D01*
X48983Y21343D01*
X45627D01*
X44275Y22695D01*
X44300Y22755D01*
X44331Y22987D01*
X44300Y23219D01*
X44211Y23435D01*
X44068Y23621D01*
X43882Y23764D01*
X43666Y23853D01*
X43434Y23884D01*
D02*
G37*
G36*
X22479Y21027D02*
X22230Y20994D01*
X21999Y20898D01*
X21800Y20745D01*
X21647Y20546D01*
X21551Y20315D01*
X21518Y20066D01*
X21551Y19817D01*
X21647Y19586D01*
X21800Y19387D01*
X21999Y19234D01*
X22230Y19138D01*
X22479Y19105D01*
X22728Y19138D01*
X22959Y19234D01*
X23158Y19387D01*
X23311Y19586D01*
X23407Y19817D01*
X23440Y20066D01*
X23407Y20315D01*
X23311Y20546D01*
X23158Y20745D01*
X22959Y20898D01*
X22728Y20994D01*
X22479Y21027D01*
D02*
G37*
G36*
X18955Y20908D02*
X18706Y20875D01*
X18475Y20779D01*
X18276Y20626D01*
X18123Y20427D01*
X18027Y20196D01*
X17994Y19947D01*
X18027Y19698D01*
X18123Y19467D01*
X18276Y19268D01*
X18475Y19115D01*
X18706Y19019D01*
X18955Y18986D01*
X19204Y19019D01*
X19435Y19115D01*
X19634Y19268D01*
X19787Y19467D01*
X19883Y19698D01*
X19916Y19947D01*
X19883Y20196D01*
X19787Y20427D01*
X19634Y20626D01*
X19435Y20779D01*
X19204Y20875D01*
X18955Y20908D01*
D02*
G37*
G36*
X57658Y14740D02*
X57426Y14709D01*
X57210Y14620D01*
X57024Y14477D01*
X56881Y14291D01*
X56792Y14075D01*
X56761Y13843D01*
X56792Y13611D01*
X56881Y13395D01*
X57024Y13209D01*
X57210Y13066D01*
X57426Y12977D01*
X57658Y12946D01*
X57890Y12977D01*
X58106Y13066D01*
X58292Y13209D01*
X58435Y13395D01*
X58524Y13611D01*
X58555Y13843D01*
X58524Y14075D01*
X58435Y14291D01*
X58292Y14477D01*
X58106Y14620D01*
X57890Y14709D01*
X57658Y14740D01*
D02*
G37*
G36*
X47498D02*
X47266Y14709D01*
X47050Y14620D01*
X46864Y14477D01*
X46721Y14291D01*
X46632Y14075D01*
X46601Y13843D01*
X46632Y13611D01*
X46721Y13395D01*
X46864Y13209D01*
X47050Y13066D01*
X47266Y12977D01*
X47498Y12946D01*
X47730Y12977D01*
X47946Y13066D01*
X48132Y13209D01*
X48275Y13395D01*
X48364Y13611D01*
X48395Y13843D01*
X48364Y14075D01*
X48275Y14291D01*
X48132Y14477D01*
X47946Y14620D01*
X47730Y14709D01*
X47498Y14740D01*
D02*
G37*
G36*
X47276Y8970D02*
X47027Y8937D01*
X46796Y8841D01*
X46597Y8688D01*
X46444Y8489D01*
X46348Y8258D01*
X46315Y8009D01*
X46348Y7760D01*
X46444Y7529D01*
X46597Y7330D01*
X46796Y7177D01*
X47027Y7081D01*
X47276Y7048D01*
X47525Y7081D01*
X47756Y7177D01*
X47955Y7330D01*
X48108Y7529D01*
X48204Y7760D01*
X48237Y8009D01*
X48204Y8258D01*
X48108Y8489D01*
X47955Y8688D01*
X47756Y8841D01*
X47525Y8937D01*
X47276Y8970D01*
D02*
G37*
G36*
X12827Y76561D02*
Y75692D01*
X13696D01*
X13678Y75827D01*
X13577Y76071D01*
X13416Y76281D01*
X13206Y76442D01*
X12962Y76543D01*
X12827Y76561D01*
D02*
G37*
G36*
X12573D02*
X12438Y76543D01*
X12194Y76442D01*
X11984Y76281D01*
X11823Y76071D01*
X11722Y75827D01*
X11704Y75692D01*
X12573D01*
Y76561D01*
D02*
G37*
G36*
X45720Y76578D02*
X45458Y76543D01*
X45214Y76442D01*
X45004Y76281D01*
X44843Y76071D01*
X44742Y75827D01*
X44707Y75565D01*
X44742Y75303D01*
X44843Y75059D01*
X44936Y74937D01*
X44821Y74683D01*
X44079D01*
X43964Y74937D01*
X44057Y75059D01*
X44158Y75303D01*
X44193Y75565D01*
X44158Y75827D01*
X44057Y76071D01*
X43896Y76281D01*
X43686Y76442D01*
X43442Y76543D01*
X43180Y76578D01*
X42918Y76543D01*
X42674Y76442D01*
X42464Y76281D01*
X42303Y76071D01*
X42202Y75827D01*
X42167Y75565D01*
X42202Y75303D01*
X42303Y75059D01*
X42396Y74937D01*
X42281Y74683D01*
X41539D01*
X41424Y74937D01*
X41517Y75059D01*
X41618Y75303D01*
X41653Y75565D01*
X41618Y75827D01*
X41517Y76071D01*
X41356Y76281D01*
X41146Y76442D01*
X40902Y76543D01*
X40640Y76578D01*
X40378Y76543D01*
X40134Y76442D01*
X39924Y76281D01*
X39763Y76071D01*
X39662Y75827D01*
X39627Y75565D01*
X39662Y75303D01*
X39763Y75059D01*
X39856Y74937D01*
X39741Y74683D01*
X38999D01*
X38884Y74937D01*
X38977Y75059D01*
X39078Y75303D01*
X39113Y75565D01*
X39078Y75827D01*
X38977Y76071D01*
X38816Y76281D01*
X38606Y76442D01*
X38362Y76543D01*
X38100Y76578D01*
X37838Y76543D01*
X37594Y76442D01*
X37384Y76281D01*
X37223Y76071D01*
X37122Y75827D01*
X37087Y75565D01*
X37122Y75303D01*
X37223Y75059D01*
X37316Y74937D01*
X37201Y74683D01*
X36459D01*
X36344Y74937D01*
X36437Y75059D01*
X36538Y75303D01*
X36573Y75565D01*
X36538Y75827D01*
X36437Y76071D01*
X36276Y76281D01*
X36066Y76442D01*
X35822Y76543D01*
X35560Y76578D01*
X35298Y76543D01*
X35054Y76442D01*
X34844Y76281D01*
X34683Y76071D01*
X34582Y75827D01*
X34547Y75565D01*
X34582Y75303D01*
X34683Y75059D01*
X34776Y74937D01*
X34661Y74683D01*
X33919D01*
X33804Y74937D01*
X33897Y75059D01*
X33998Y75303D01*
X34033Y75565D01*
X33998Y75827D01*
X33897Y76071D01*
X33736Y76281D01*
X33526Y76442D01*
X33282Y76543D01*
X33020Y76578D01*
X32758Y76543D01*
X32514Y76442D01*
X32304Y76281D01*
X32143Y76071D01*
X32042Y75827D01*
X32007Y75565D01*
X32042Y75303D01*
X32143Y75059D01*
X32236Y74937D01*
X32121Y74683D01*
X31750D01*
X31601Y74654D01*
X31475Y74570D01*
X30860Y73954D01*
X30742Y74003D01*
X30480Y74038D01*
X30218Y74003D01*
X29974Y73902D01*
X29764Y73741D01*
X29603Y73531D01*
X29502Y73287D01*
X29467Y73025D01*
X29502Y72763D01*
X29603Y72519D01*
X29764Y72309D01*
X29974Y72148D01*
X30218Y72047D01*
X30480Y72012D01*
X30742Y72047D01*
X30986Y72148D01*
X31196Y72309D01*
X31357Y72519D01*
X31458Y72763D01*
X31493Y73025D01*
X31458Y73287D01*
X31409Y73405D01*
X31887Y73883D01*
X32123Y73858D01*
X32222Y73635D01*
X32143Y73531D01*
X32042Y73287D01*
X32007Y73025D01*
X32042Y72763D01*
X32143Y72519D01*
X32304Y72309D01*
X32514Y72148D01*
X32758Y72047D01*
X33020Y72012D01*
X33282Y72047D01*
X33526Y72148D01*
X33736Y72309D01*
X33897Y72519D01*
X33998Y72763D01*
X34033Y73025D01*
X33998Y73287D01*
X33897Y73531D01*
X33804Y73653D01*
X33919Y73907D01*
X34661D01*
X34776Y73653D01*
X34683Y73531D01*
X34582Y73287D01*
X34547Y73025D01*
X34582Y72763D01*
X34683Y72519D01*
X34844Y72309D01*
X35054Y72148D01*
X35298Y72047D01*
X35560Y72012D01*
X35822Y72047D01*
X36066Y72148D01*
X36276Y72309D01*
X36437Y72519D01*
X36538Y72763D01*
X36573Y73025D01*
X36538Y73287D01*
X36437Y73531D01*
X36344Y73653D01*
X36459Y73907D01*
X37201D01*
X37316Y73653D01*
X37223Y73531D01*
X37122Y73287D01*
X37087Y73025D01*
X37122Y72763D01*
X37223Y72519D01*
X37384Y72309D01*
X37594Y72148D01*
X37838Y72047D01*
X38100Y72012D01*
X38362Y72047D01*
X38606Y72148D01*
X38816Y72309D01*
X38977Y72519D01*
X39078Y72763D01*
X39113Y73025D01*
X39078Y73287D01*
X38977Y73531D01*
X38884Y73653D01*
X38999Y73907D01*
X39741D01*
X39856Y73653D01*
X39763Y73531D01*
X39662Y73287D01*
X39627Y73025D01*
X39662Y72763D01*
X39763Y72519D01*
X39924Y72309D01*
X40134Y72148D01*
X40378Y72047D01*
X40640Y72012D01*
X40902Y72047D01*
X41146Y72148D01*
X41356Y72309D01*
X41517Y72519D01*
X41618Y72763D01*
X41653Y73025D01*
X41618Y73287D01*
X41517Y73531D01*
X41424Y73653D01*
X41539Y73907D01*
X42281D01*
X42396Y73653D01*
X42303Y73531D01*
X42202Y73287D01*
X42167Y73025D01*
X42202Y72763D01*
X42303Y72519D01*
X42464Y72309D01*
X42674Y72148D01*
X42918Y72047D01*
X43180Y72012D01*
X43442Y72047D01*
X43686Y72148D01*
X43896Y72309D01*
X44057Y72519D01*
X44158Y72763D01*
X44193Y73025D01*
X44158Y73287D01*
X44057Y73531D01*
X43964Y73653D01*
X44079Y73907D01*
X44821D01*
X44936Y73653D01*
X44843Y73531D01*
X44742Y73287D01*
X44707Y73025D01*
X44742Y72763D01*
X44843Y72519D01*
X45004Y72309D01*
X45214Y72148D01*
X45458Y72047D01*
X45720Y72012D01*
X45982Y72047D01*
X46226Y72148D01*
X46436Y72309D01*
X46597Y72519D01*
X46698Y72763D01*
X46733Y73025D01*
X46698Y73287D01*
X46597Y73531D01*
X46504Y73653D01*
X46619Y73907D01*
X63974D01*
X67162Y70718D01*
X67288Y70634D01*
X67437Y70605D01*
X70192D01*
X70216Y70545D01*
X70328Y70399D01*
X70360Y70243D01*
Y70219D01*
X70328Y70063D01*
X70216Y69917D01*
X70127Y69701D01*
X70113Y69596D01*
X70993D01*
Y69469D01*
D01*
Y69596D01*
X71873D01*
X71859Y69701D01*
X71770Y69917D01*
X71658Y70063D01*
X71626Y70219D01*
Y70243D01*
X71658Y70399D01*
X71770Y70545D01*
X71859Y70761D01*
X71890Y70993D01*
X71859Y71225D01*
X71770Y71441D01*
X71627Y71627D01*
X71441Y71770D01*
X71225Y71859D01*
X70993Y71890D01*
X70761Y71859D01*
X70545Y71770D01*
X70359Y71627D01*
X70216Y71441D01*
X70192Y71381D01*
X67598D01*
X64410Y74570D01*
X64284Y74654D01*
X64135Y74683D01*
X46619D01*
X46504Y74937D01*
X46597Y75059D01*
X46698Y75303D01*
X46733Y75565D01*
X46698Y75827D01*
X46597Y76071D01*
X46436Y76281D01*
X46226Y76442D01*
X45982Y76543D01*
X45720Y76578D01*
D02*
G37*
G36*
X13696Y75438D02*
X12827D01*
Y74569D01*
X12962Y74587D01*
X13206Y74688D01*
X13416Y74849D01*
X13577Y75059D01*
X13678Y75303D01*
X13696Y75438D01*
D02*
G37*
G36*
X12573D02*
X11704D01*
X11722Y75303D01*
X11823Y75059D01*
X11984Y74849D01*
X12194Y74688D01*
X12438Y74587D01*
X12573Y74569D01*
Y75438D01*
D02*
G37*
G36*
X30480Y76578D02*
X30218Y76543D01*
X29974Y76442D01*
X29764Y76281D01*
X29603Y76071D01*
X29502Y75827D01*
X29467Y75565D01*
X29502Y75303D01*
X29603Y75059D01*
X29764Y74849D01*
X29974Y74688D01*
X30218Y74587D01*
X30480Y74552D01*
X30742Y74587D01*
X30986Y74688D01*
X31196Y74849D01*
X31357Y75059D01*
X31458Y75303D01*
X31493Y75565D01*
X31458Y75827D01*
X31357Y76071D01*
X31196Y76281D01*
X30986Y76442D01*
X30742Y76543D01*
X30480Y76578D01*
D02*
G37*
G36*
X27940D02*
X27678Y76543D01*
X27434Y76442D01*
X27224Y76281D01*
X27063Y76071D01*
X26962Y75827D01*
X26927Y75565D01*
X26962Y75303D01*
X27063Y75059D01*
X27224Y74849D01*
X27434Y74688D01*
X27678Y74587D01*
X27940Y74552D01*
X28202Y74587D01*
X28446Y74688D01*
X28656Y74849D01*
X28817Y75059D01*
X28918Y75303D01*
X28953Y75565D01*
X28918Y75827D01*
X28817Y76071D01*
X28656Y76281D01*
X28446Y76442D01*
X28202Y76543D01*
X27940Y76578D01*
D02*
G37*
G36*
X25400D02*
X25138Y76543D01*
X24894Y76442D01*
X24684Y76281D01*
X24523Y76071D01*
X24422Y75827D01*
X24387Y75565D01*
X24422Y75303D01*
X24523Y75059D01*
X24684Y74849D01*
X24894Y74688D01*
X25138Y74587D01*
X25400Y74552D01*
X25662Y74587D01*
X25906Y74688D01*
X26116Y74849D01*
X26277Y75059D01*
X26378Y75303D01*
X26413Y75565D01*
X26378Y75827D01*
X26277Y76071D01*
X26116Y76281D01*
X25906Y76442D01*
X25662Y76543D01*
X25400Y76578D01*
D02*
G37*
G36*
X22860D02*
X22598Y76543D01*
X22354Y76442D01*
X22144Y76281D01*
X21983Y76071D01*
X21882Y75827D01*
X21847Y75565D01*
X21882Y75303D01*
X21983Y75059D01*
X22144Y74849D01*
X22354Y74688D01*
X22598Y74587D01*
X22860Y74552D01*
X23122Y74587D01*
X23366Y74688D01*
X23576Y74849D01*
X23737Y75059D01*
X23838Y75303D01*
X23873Y75565D01*
X23838Y75827D01*
X23737Y76071D01*
X23576Y76281D01*
X23366Y76442D01*
X23122Y76543D01*
X22860Y76578D01*
D02*
G37*
G36*
X20320D02*
X20058Y76543D01*
X19814Y76442D01*
X19604Y76281D01*
X19443Y76071D01*
X19342Y75827D01*
X19307Y75565D01*
X19342Y75303D01*
X19443Y75059D01*
X19604Y74849D01*
X19814Y74688D01*
X20058Y74587D01*
X20320Y74552D01*
X20582Y74587D01*
X20826Y74688D01*
X21036Y74849D01*
X21197Y75059D01*
X21298Y75303D01*
X21333Y75565D01*
X21298Y75827D01*
X21197Y76071D01*
X21036Y76281D01*
X20826Y76442D01*
X20582Y76543D01*
X20320Y76578D01*
D02*
G37*
G36*
X17780D02*
X17518Y76543D01*
X17274Y76442D01*
X17064Y76281D01*
X16903Y76071D01*
X16802Y75827D01*
X16767Y75565D01*
X16802Y75303D01*
X16903Y75059D01*
X17064Y74849D01*
X17274Y74688D01*
X17518Y74587D01*
X17780Y74552D01*
X18042Y74587D01*
X18286Y74688D01*
X18496Y74849D01*
X18657Y75059D01*
X18758Y75303D01*
X18793Y75565D01*
X18758Y75827D01*
X18657Y76071D01*
X18496Y76281D01*
X18286Y76442D01*
X18042Y76543D01*
X17780Y76578D01*
D02*
G37*
G36*
X15240D02*
X14978Y76543D01*
X14734Y76442D01*
X14524Y76281D01*
X14363Y76071D01*
X14262Y75827D01*
X14227Y75565D01*
X14262Y75303D01*
X14363Y75059D01*
X14524Y74849D01*
X14734Y74688D01*
X14978Y74587D01*
X15240Y74552D01*
X15502Y74587D01*
X15746Y74688D01*
X15956Y74849D01*
X16117Y75059D01*
X16218Y75303D01*
X16253Y75565D01*
X16218Y75827D01*
X16117Y76071D01*
X15956Y76281D01*
X15746Y76442D01*
X15502Y76543D01*
X15240Y76578D01*
D02*
G37*
G36*
X10160D02*
X9898Y76543D01*
X9654Y76442D01*
X9444Y76281D01*
X9283Y76071D01*
X9182Y75827D01*
X9147Y75565D01*
X9182Y75303D01*
X9283Y75059D01*
X9444Y74849D01*
X9654Y74688D01*
X9898Y74587D01*
X10160Y74552D01*
X10422Y74587D01*
X10666Y74688D01*
X10876Y74849D01*
X11037Y75059D01*
X11138Y75303D01*
X11173Y75565D01*
X11138Y75827D01*
X11037Y76071D01*
X10876Y76281D01*
X10666Y76442D01*
X10422Y76543D01*
X10160Y76578D01*
D02*
G37*
G36*
X12827Y74021D02*
Y73152D01*
X13696D01*
X13678Y73287D01*
X13577Y73531D01*
X13416Y73741D01*
X13206Y73902D01*
X12962Y74003D01*
X12827Y74021D01*
D02*
G37*
G36*
X12573D02*
X12438Y74003D01*
X12194Y73902D01*
X11984Y73741D01*
X11823Y73531D01*
X11722Y73287D01*
X11704Y73152D01*
X12573D01*
Y74021D01*
D02*
G37*
G36*
X69755Y74375D02*
X69506Y74342D01*
X69275Y74246D01*
X69076Y74093D01*
X68923Y73894D01*
X68827Y73663D01*
X68794Y73414D01*
X68827Y73165D01*
X68923Y72934D01*
X69076Y72735D01*
X69275Y72582D01*
X69506Y72486D01*
X69755Y72453D01*
X70004Y72486D01*
X70235Y72582D01*
X70434Y72735D01*
X70587Y72934D01*
X70683Y73165D01*
X70716Y73414D01*
X70683Y73663D01*
X70587Y73894D01*
X70434Y74093D01*
X70235Y74246D01*
X70004Y74342D01*
X69755Y74375D01*
D02*
G37*
G36*
X13696Y72898D02*
X12827D01*
Y72029D01*
X12962Y72047D01*
X13206Y72148D01*
X13416Y72309D01*
X13577Y72519D01*
X13678Y72763D01*
X13696Y72898D01*
D02*
G37*
G36*
X12573D02*
X11704D01*
X11722Y72763D01*
X11823Y72519D01*
X11984Y72309D01*
X12194Y72148D01*
X12438Y72047D01*
X12573Y72029D01*
Y72898D01*
D02*
G37*
G36*
X27940Y74038D02*
X27678Y74003D01*
X27434Y73902D01*
X27224Y73741D01*
X27063Y73531D01*
X26962Y73287D01*
X26927Y73025D01*
X26962Y72763D01*
X27063Y72519D01*
X27224Y72309D01*
X27434Y72148D01*
X27678Y72047D01*
X27940Y72012D01*
X28202Y72047D01*
X28446Y72148D01*
X28656Y72309D01*
X28817Y72519D01*
X28918Y72763D01*
X28953Y73025D01*
X28918Y73287D01*
X28817Y73531D01*
X28656Y73741D01*
X28446Y73902D01*
X28202Y74003D01*
X27940Y74038D01*
D02*
G37*
G36*
X25400D02*
X25138Y74003D01*
X24894Y73902D01*
X24684Y73741D01*
X24523Y73531D01*
X24422Y73287D01*
X24387Y73025D01*
X24422Y72763D01*
X24523Y72519D01*
X24684Y72309D01*
X24894Y72148D01*
X25138Y72047D01*
X25400Y72012D01*
X25662Y72047D01*
X25906Y72148D01*
X26116Y72309D01*
X26277Y72519D01*
X26378Y72763D01*
X26413Y73025D01*
X26378Y73287D01*
X26277Y73531D01*
X26116Y73741D01*
X25906Y73902D01*
X25662Y74003D01*
X25400Y74038D01*
D02*
G37*
G36*
X22860D02*
X22598Y74003D01*
X22354Y73902D01*
X22144Y73741D01*
X21983Y73531D01*
X21882Y73287D01*
X21847Y73025D01*
X21882Y72763D01*
X21983Y72519D01*
X22144Y72309D01*
X22354Y72148D01*
X22598Y72047D01*
X22860Y72012D01*
X23122Y72047D01*
X23366Y72148D01*
X23576Y72309D01*
X23737Y72519D01*
X23838Y72763D01*
X23873Y73025D01*
X23838Y73287D01*
X23737Y73531D01*
X23576Y73741D01*
X23366Y73902D01*
X23122Y74003D01*
X22860Y74038D01*
D02*
G37*
G36*
X20320D02*
X20058Y74003D01*
X19814Y73902D01*
X19604Y73741D01*
X19443Y73531D01*
X19342Y73287D01*
X19307Y73025D01*
X19342Y72763D01*
X19443Y72519D01*
X19604Y72309D01*
X19814Y72148D01*
X20058Y72047D01*
X20320Y72012D01*
X20582Y72047D01*
X20826Y72148D01*
X21036Y72309D01*
X21197Y72519D01*
X21298Y72763D01*
X21333Y73025D01*
X21298Y73287D01*
X21197Y73531D01*
X21036Y73741D01*
X20826Y73902D01*
X20582Y74003D01*
X20320Y74038D01*
D02*
G37*
G36*
X17780D02*
X17518Y74003D01*
X17274Y73902D01*
X17064Y73741D01*
X16903Y73531D01*
X16802Y73287D01*
X16767Y73025D01*
X16802Y72763D01*
X16903Y72519D01*
X17064Y72309D01*
X17274Y72148D01*
X17518Y72047D01*
X17780Y72012D01*
X18042Y72047D01*
X18286Y72148D01*
X18496Y72309D01*
X18657Y72519D01*
X18758Y72763D01*
X18793Y73025D01*
X18758Y73287D01*
X18657Y73531D01*
X18496Y73741D01*
X18286Y73902D01*
X18042Y74003D01*
X17780Y74038D01*
D02*
G37*
G36*
X15240D02*
X14978Y74003D01*
X14734Y73902D01*
X14524Y73741D01*
X14363Y73531D01*
X14262Y73287D01*
X14227Y73025D01*
X14262Y72763D01*
X14363Y72519D01*
X14524Y72309D01*
X14734Y72148D01*
X14978Y72047D01*
X15240Y72012D01*
X15502Y72047D01*
X15746Y72148D01*
X15956Y72309D01*
X16117Y72519D01*
X16218Y72763D01*
X16253Y73025D01*
X16218Y73287D01*
X16117Y73531D01*
X15956Y73741D01*
X15746Y73902D01*
X15502Y74003D01*
X15240Y74038D01*
D02*
G37*
G36*
X10160D02*
X9898Y74003D01*
X9654Y73902D01*
X9444Y73741D01*
X9283Y73531D01*
X9182Y73287D01*
X9147Y73025D01*
X9182Y72763D01*
X9283Y72519D01*
X9444Y72309D01*
X9654Y72148D01*
X9898Y72047D01*
X10160Y72012D01*
X10422Y72047D01*
X10666Y72148D01*
X10876Y72309D01*
X11037Y72519D01*
X11138Y72763D01*
X11173Y73025D01*
X11138Y73287D01*
X11037Y73531D01*
X10876Y73741D01*
X10666Y73902D01*
X10422Y74003D01*
X10160Y74038D01*
D02*
G37*
G36*
X71873Y69342D02*
X71120D01*
Y68589D01*
X71225Y68603D01*
X71441Y68692D01*
X71627Y68835D01*
X71770Y69021D01*
X71859Y69237D01*
X71873Y69342D01*
D02*
G37*
G36*
X70866D02*
X70113D01*
X70127Y69237D01*
X70216Y69021D01*
X70359Y68835D01*
X70545Y68692D01*
X70761Y68603D01*
X70866Y68589D01*
Y69342D01*
D02*
G37*
G36*
X62357Y71001D02*
X62125Y70970D01*
X61909Y70881D01*
X61723Y70738D01*
X61580Y70552D01*
X61491Y70336D01*
X61460Y70104D01*
Y68834D01*
X61491Y68602D01*
X61580Y68386D01*
X61723Y68200D01*
X61909Y68057D01*
X62125Y67968D01*
X62357Y67937D01*
X62589Y67968D01*
X62805Y68057D01*
X62991Y68200D01*
X63134Y68386D01*
X63223Y68602D01*
X63254Y68834D01*
Y69081D01*
X65112D01*
X65136Y69021D01*
X65279Y68835D01*
X65465Y68692D01*
X65681Y68603D01*
X65913Y68572D01*
X66145Y68603D01*
X66361Y68692D01*
X66547Y68835D01*
X66690Y69021D01*
X66779Y69237D01*
X66810Y69469D01*
X66779Y69701D01*
X66690Y69917D01*
X66547Y70103D01*
X66361Y70246D01*
X66145Y70335D01*
X65913Y70366D01*
X65681Y70335D01*
X65465Y70246D01*
X65279Y70103D01*
X65136Y69917D01*
X65112Y69857D01*
X63254D01*
Y70104D01*
X63223Y70336D01*
X63134Y70552D01*
X62991Y70738D01*
X62805Y70881D01*
X62589Y70970D01*
X62357Y71001D01*
D02*
G37*
G36*
X59817D02*
X59585Y70970D01*
X59369Y70881D01*
X59183Y70738D01*
X59040Y70552D01*
X58951Y70336D01*
X58920Y70104D01*
Y68834D01*
X58951Y68602D01*
X59040Y68386D01*
X59183Y68200D01*
X59369Y68057D01*
X59585Y67968D01*
X59817Y67937D01*
X60049Y67968D01*
X60265Y68057D01*
X60451Y68200D01*
X60594Y68386D01*
X60683Y68602D01*
X60714Y68834D01*
Y70104D01*
X60683Y70336D01*
X60594Y70552D01*
X60451Y70738D01*
X60265Y70881D01*
X60049Y70970D01*
X59817Y71001D01*
D02*
G37*
G36*
X57277D02*
X57045Y70970D01*
X56829Y70881D01*
X56643Y70738D01*
X56500Y70552D01*
X56411Y70336D01*
X56380Y70104D01*
Y68834D01*
X56411Y68602D01*
X56500Y68386D01*
X56643Y68200D01*
X56829Y68057D01*
X57045Y67968D01*
X57277Y67937D01*
X57509Y67968D01*
X57725Y68057D01*
X57911Y68200D01*
X58054Y68386D01*
X58143Y68602D01*
X58174Y68834D01*
Y70104D01*
X58143Y70336D01*
X58054Y70552D01*
X57911Y70738D01*
X57725Y70881D01*
X57509Y70970D01*
X57277Y71001D01*
D02*
G37*
G36*
X54737D02*
X54505Y70970D01*
X54289Y70881D01*
X54103Y70738D01*
X53960Y70552D01*
X53871Y70336D01*
X53840Y70104D01*
Y68834D01*
X53871Y68602D01*
X53960Y68386D01*
X54103Y68200D01*
X54289Y68057D01*
X54505Y67968D01*
X54737Y67937D01*
X54969Y67968D01*
X55185Y68057D01*
X55371Y68200D01*
X55514Y68386D01*
X55603Y68602D01*
X55634Y68834D01*
Y70104D01*
X55603Y70336D01*
X55514Y70552D01*
X55371Y70738D01*
X55185Y70881D01*
X54969Y70970D01*
X54737Y71001D01*
D02*
G37*
G36*
X59944Y63364D02*
Y61976D01*
X60714D01*
Y62484D01*
X60683Y62716D01*
X60594Y62932D01*
X60451Y63118D01*
X60265Y63261D01*
X60049Y63350D01*
X59944Y63364D01*
D02*
G37*
G36*
X59690D02*
X59585Y63350D01*
X59369Y63261D01*
X59183Y63118D01*
X59040Y62932D01*
X58951Y62716D01*
X58920Y62484D01*
Y61976D01*
X59690D01*
Y63364D01*
D02*
G37*
G36*
X98933Y62348D02*
Y61595D01*
X99686D01*
X99672Y61700D01*
X99583Y61916D01*
X99440Y62102D01*
X99254Y62245D01*
X99038Y62334D01*
X98933Y62348D01*
D02*
G37*
G36*
X98679D02*
X98574Y62334D01*
X98358Y62245D01*
X98172Y62102D01*
X98029Y61916D01*
X97940Y61700D01*
X97926Y61595D01*
X98679D01*
Y62348D01*
D02*
G37*
G36*
X99686Y61341D02*
X98933D01*
Y60588D01*
X99038Y60602D01*
X99254Y60691D01*
X99440Y60834D01*
X99583Y61020D01*
X99672Y61236D01*
X99686Y61341D01*
D02*
G37*
G36*
X98679D02*
X97926D01*
X97940Y61236D01*
X98029Y61020D01*
X98172Y60834D01*
X98358Y60691D01*
X98574Y60602D01*
X98679Y60588D01*
Y61341D01*
D02*
G37*
G36*
X60714Y61722D02*
X59944D01*
Y60334D01*
X60049Y60348D01*
X60265Y60437D01*
X60451Y60580D01*
X60594Y60766D01*
X60683Y60982D01*
X60714Y61214D01*
Y61722D01*
D02*
G37*
G36*
X59690D02*
X58920D01*
Y61214D01*
X58951Y60982D01*
X59040Y60766D01*
X59183Y60580D01*
X59369Y60437D01*
X59585Y60348D01*
X59690Y60334D01*
Y61722D01*
D02*
G37*
G36*
X55626Y63373D02*
X53848D01*
Y60325D01*
X55626D01*
Y63373D01*
D02*
G37*
G36*
X62357Y63381D02*
X62125Y63350D01*
X61909Y63261D01*
X61723Y63118D01*
X61580Y62932D01*
X61491Y62716D01*
X61460Y62484D01*
Y61214D01*
X61491Y60982D01*
X61580Y60766D01*
X61723Y60580D01*
X61909Y60437D01*
X62125Y60348D01*
X62357Y60317D01*
X62589Y60348D01*
X62805Y60437D01*
X62991Y60580D01*
X63134Y60766D01*
X63223Y60982D01*
X63254Y61214D01*
Y62484D01*
X63223Y62716D01*
X63134Y62932D01*
X62991Y63118D01*
X62805Y63261D01*
X62589Y63350D01*
X62357Y63381D01*
D02*
G37*
G36*
X57277D02*
X57045Y63350D01*
X56829Y63261D01*
X56643Y63118D01*
X56500Y62932D01*
X56411Y62716D01*
X56380Y62484D01*
Y61214D01*
X56411Y60982D01*
X56500Y60766D01*
X56643Y60580D01*
X56829Y60437D01*
X57045Y60348D01*
X57277Y60317D01*
X57509Y60348D01*
X57725Y60437D01*
X57911Y60580D01*
X58054Y60766D01*
X58143Y60982D01*
X58174Y61214D01*
Y62484D01*
X58143Y62716D01*
X58054Y62932D01*
X57911Y63118D01*
X57725Y63261D01*
X57509Y63350D01*
X57277Y63381D01*
D02*
G37*
G36*
X17907Y58781D02*
Y57912D01*
X18776D01*
X18758Y58047D01*
X18657Y58291D01*
X18496Y58501D01*
X18286Y58662D01*
X18042Y58763D01*
X17907Y58781D01*
D02*
G37*
G36*
X17653D02*
X17518Y58763D01*
X17274Y58662D01*
X17064Y58501D01*
X16903Y58291D01*
X16802Y58047D01*
X16784Y57912D01*
X17653D01*
Y58781D01*
D02*
G37*
G36*
X18776Y57658D02*
X17907D01*
Y56789D01*
X18042Y56807D01*
X18286Y56908D01*
X18496Y57069D01*
X18657Y57279D01*
X18758Y57523D01*
X18776Y57658D01*
D02*
G37*
G36*
X17653D02*
X16784D01*
X16802Y57523D01*
X16903Y57279D01*
X17064Y57069D01*
X17274Y56908D01*
X17518Y56807D01*
X17653Y56789D01*
Y57658D01*
D02*
G37*
G36*
X11164Y58789D02*
X9156D01*
Y56781D01*
X11164D01*
Y58789D01*
D02*
G37*
G36*
X45720Y58798D02*
X45458Y58763D01*
X45214Y58662D01*
X45004Y58501D01*
X44843Y58291D01*
X44742Y58047D01*
X44707Y57785D01*
X44742Y57523D01*
X44843Y57279D01*
X45004Y57069D01*
X45214Y56908D01*
X45458Y56807D01*
X45720Y56772D01*
X45982Y56807D01*
X46226Y56908D01*
X46436Y57069D01*
X46597Y57279D01*
X46698Y57523D01*
X46733Y57785D01*
X46698Y58047D01*
X46597Y58291D01*
X46436Y58501D01*
X46226Y58662D01*
X45982Y58763D01*
X45720Y58798D01*
D02*
G37*
G36*
X43180D02*
X42918Y58763D01*
X42674Y58662D01*
X42464Y58501D01*
X42303Y58291D01*
X42202Y58047D01*
X42167Y57785D01*
X42202Y57523D01*
X42303Y57279D01*
X42464Y57069D01*
X42674Y56908D01*
X42918Y56807D01*
X43180Y56772D01*
X43442Y56807D01*
X43686Y56908D01*
X43896Y57069D01*
X44057Y57279D01*
X44158Y57523D01*
X44193Y57785D01*
X44158Y58047D01*
X44057Y58291D01*
X43896Y58501D01*
X43686Y58662D01*
X43442Y58763D01*
X43180Y58798D01*
D02*
G37*
G36*
X40640D02*
X40378Y58763D01*
X40134Y58662D01*
X39924Y58501D01*
X39763Y58291D01*
X39662Y58047D01*
X39627Y57785D01*
X39662Y57523D01*
X39763Y57279D01*
X39924Y57069D01*
X40134Y56908D01*
X40378Y56807D01*
X40640Y56772D01*
X40902Y56807D01*
X41146Y56908D01*
X41356Y57069D01*
X41517Y57279D01*
X41618Y57523D01*
X41653Y57785D01*
X41618Y58047D01*
X41517Y58291D01*
X41356Y58501D01*
X41146Y58662D01*
X40902Y58763D01*
X40640Y58798D01*
D02*
G37*
G36*
X38100D02*
X37838Y58763D01*
X37594Y58662D01*
X37384Y58501D01*
X37223Y58291D01*
X37122Y58047D01*
X37087Y57785D01*
X37122Y57523D01*
X37223Y57279D01*
X37384Y57069D01*
X37594Y56908D01*
X37838Y56807D01*
X38100Y56772D01*
X38362Y56807D01*
X38606Y56908D01*
X38816Y57069D01*
X38977Y57279D01*
X39078Y57523D01*
X39113Y57785D01*
X39078Y58047D01*
X38977Y58291D01*
X38816Y58501D01*
X38606Y58662D01*
X38362Y58763D01*
X38100Y58798D01*
D02*
G37*
G36*
X35560D02*
X35298Y58763D01*
X35054Y58662D01*
X34844Y58501D01*
X34683Y58291D01*
X34582Y58047D01*
X34547Y57785D01*
X34582Y57523D01*
X34683Y57279D01*
X34844Y57069D01*
X35054Y56908D01*
X35298Y56807D01*
X35560Y56772D01*
X35822Y56807D01*
X36066Y56908D01*
X36276Y57069D01*
X36437Y57279D01*
X36538Y57523D01*
X36573Y57785D01*
X36538Y58047D01*
X36437Y58291D01*
X36276Y58501D01*
X36066Y58662D01*
X35822Y58763D01*
X35560Y58798D01*
D02*
G37*
G36*
X33020D02*
X32758Y58763D01*
X32514Y58662D01*
X32304Y58501D01*
X32143Y58291D01*
X32042Y58047D01*
X32007Y57785D01*
X32042Y57523D01*
X32143Y57279D01*
X32304Y57069D01*
X32514Y56908D01*
X32758Y56807D01*
X33020Y56772D01*
X33282Y56807D01*
X33526Y56908D01*
X33736Y57069D01*
X33897Y57279D01*
X33998Y57523D01*
X34033Y57785D01*
X33998Y58047D01*
X33897Y58291D01*
X33736Y58501D01*
X33526Y58662D01*
X33282Y58763D01*
X33020Y58798D01*
D02*
G37*
G36*
X30480D02*
X30218Y58763D01*
X29974Y58662D01*
X29764Y58501D01*
X29603Y58291D01*
X29502Y58047D01*
X29467Y57785D01*
X29502Y57523D01*
X29603Y57279D01*
X29764Y57069D01*
X29974Y56908D01*
X30218Y56807D01*
X30480Y56772D01*
X30742Y56807D01*
X30986Y56908D01*
X31196Y57069D01*
X31357Y57279D01*
X31458Y57523D01*
X31493Y57785D01*
X31458Y58047D01*
X31357Y58291D01*
X31196Y58501D01*
X30986Y58662D01*
X30742Y58763D01*
X30480Y58798D01*
D02*
G37*
G36*
X27940D02*
X27678Y58763D01*
X27434Y58662D01*
X27224Y58501D01*
X27063Y58291D01*
X26962Y58047D01*
X26927Y57785D01*
X26962Y57523D01*
X27063Y57279D01*
X27224Y57069D01*
X27434Y56908D01*
X27678Y56807D01*
X27940Y56772D01*
X28202Y56807D01*
X28446Y56908D01*
X28656Y57069D01*
X28817Y57279D01*
X28918Y57523D01*
X28953Y57785D01*
X28918Y58047D01*
X28817Y58291D01*
X28656Y58501D01*
X28446Y58662D01*
X28202Y58763D01*
X27940Y58798D01*
D02*
G37*
G36*
X25400D02*
X25138Y58763D01*
X24894Y58662D01*
X24684Y58501D01*
X24523Y58291D01*
X24422Y58047D01*
X24387Y57785D01*
X24422Y57523D01*
X24523Y57279D01*
X24684Y57069D01*
X24894Y56908D01*
X25138Y56807D01*
X25400Y56772D01*
X25662Y56807D01*
X25906Y56908D01*
X26116Y57069D01*
X26277Y57279D01*
X26378Y57523D01*
X26413Y57785D01*
X26378Y58047D01*
X26277Y58291D01*
X26116Y58501D01*
X25906Y58662D01*
X25662Y58763D01*
X25400Y58798D01*
D02*
G37*
G36*
X22860D02*
X22598Y58763D01*
X22354Y58662D01*
X22144Y58501D01*
X21983Y58291D01*
X21882Y58047D01*
X21847Y57785D01*
X21882Y57523D01*
X21983Y57279D01*
X22144Y57069D01*
X22354Y56908D01*
X22598Y56807D01*
X22860Y56772D01*
X23122Y56807D01*
X23366Y56908D01*
X23576Y57069D01*
X23737Y57279D01*
X23838Y57523D01*
X23873Y57785D01*
X23838Y58047D01*
X23737Y58291D01*
X23576Y58501D01*
X23366Y58662D01*
X23122Y58763D01*
X22860Y58798D01*
D02*
G37*
G36*
X20320D02*
X20058Y58763D01*
X19814Y58662D01*
X19604Y58501D01*
X19443Y58291D01*
X19342Y58047D01*
X19307Y57785D01*
X19342Y57523D01*
X19443Y57279D01*
X19604Y57069D01*
X19814Y56908D01*
X20058Y56807D01*
X20320Y56772D01*
X20582Y56807D01*
X20826Y56908D01*
X21036Y57069D01*
X21197Y57279D01*
X21298Y57523D01*
X21333Y57785D01*
X21298Y58047D01*
X21197Y58291D01*
X21036Y58501D01*
X20826Y58662D01*
X20582Y58763D01*
X20320Y58798D01*
D02*
G37*
G36*
X15240D02*
X14978Y58763D01*
X14734Y58662D01*
X14524Y58501D01*
X14363Y58291D01*
X14262Y58047D01*
X14227Y57785D01*
X14262Y57523D01*
X14363Y57279D01*
X14524Y57069D01*
X14734Y56908D01*
X14978Y56807D01*
X15240Y56772D01*
X15502Y56807D01*
X15746Y56908D01*
X15956Y57069D01*
X16117Y57279D01*
X16218Y57523D01*
X16253Y57785D01*
X16218Y58047D01*
X16117Y58291D01*
X15956Y58501D01*
X15746Y58662D01*
X15502Y58763D01*
X15240Y58798D01*
D02*
G37*
G36*
X12700D02*
X12438Y58763D01*
X12194Y58662D01*
X11984Y58501D01*
X11823Y58291D01*
X11722Y58047D01*
X11687Y57785D01*
X11722Y57523D01*
X11823Y57279D01*
X11984Y57069D01*
X12194Y56908D01*
X12438Y56807D01*
X12700Y56772D01*
X12962Y56807D01*
X13206Y56908D01*
X13416Y57069D01*
X13577Y57279D01*
X13678Y57523D01*
X13713Y57785D01*
X13678Y58047D01*
X13577Y58291D01*
X13416Y58501D01*
X13206Y58662D01*
X12962Y58763D01*
X12700Y58798D01*
D02*
G37*
G36*
X17907Y56241D02*
Y55372D01*
X18776D01*
X18758Y55507D01*
X18657Y55751D01*
X18496Y55961D01*
X18286Y56122D01*
X18042Y56223D01*
X17907Y56241D01*
D02*
G37*
G36*
X17653D02*
X17518Y56223D01*
X17274Y56122D01*
X17064Y55961D01*
X16903Y55751D01*
X16802Y55507D01*
X16784Y55372D01*
X17653D01*
Y56241D01*
D02*
G37*
G36*
X61976Y56523D02*
X61744Y56492D01*
X61528Y56403D01*
X61342Y56260D01*
X61199Y56074D01*
X61110Y55858D01*
X61079Y55626D01*
X61110Y55394D01*
X61199Y55178D01*
X61342Y54992D01*
X61528Y54849D01*
X61744Y54760D01*
X61976Y54729D01*
X62208Y54760D01*
X62424Y54849D01*
X62610Y54992D01*
X62753Y55178D01*
X62842Y55394D01*
X62873Y55626D01*
X62842Y55858D01*
X62753Y56074D01*
X62610Y56260D01*
X62424Y56403D01*
X62208Y56492D01*
X61976Y56523D01*
D02*
G37*
G36*
X56896D02*
X56664Y56492D01*
X56448Y56403D01*
X56262Y56260D01*
X56119Y56074D01*
X56030Y55858D01*
X55999Y55626D01*
X56030Y55394D01*
X56119Y55178D01*
X56262Y54992D01*
X56448Y54849D01*
X56664Y54760D01*
X56896Y54729D01*
X57128Y54760D01*
X57344Y54849D01*
X57530Y54992D01*
X57673Y55178D01*
X57762Y55394D01*
X57793Y55626D01*
X57762Y55858D01*
X57673Y56074D01*
X57530Y56260D01*
X57344Y56403D01*
X57128Y56492D01*
X56896Y56523D01*
D02*
G37*
G36*
X18776Y55118D02*
X17907D01*
Y54249D01*
X18042Y54267D01*
X18286Y54368D01*
X18496Y54529D01*
X18657Y54739D01*
X18758Y54983D01*
X18776Y55118D01*
D02*
G37*
G36*
X17653D02*
X16784D01*
X16802Y54983D01*
X16903Y54739D01*
X17064Y54529D01*
X17274Y54368D01*
X17518Y54267D01*
X17653Y54249D01*
Y55118D01*
D02*
G37*
G36*
X11164Y56249D02*
X9156D01*
Y54241D01*
X11164D01*
Y56249D01*
D02*
G37*
G36*
X45720Y56258D02*
X45458Y56223D01*
X45214Y56122D01*
X45004Y55961D01*
X44843Y55751D01*
X44742Y55507D01*
X44707Y55245D01*
X44742Y54983D01*
X44843Y54739D01*
X45004Y54529D01*
X45214Y54368D01*
X45458Y54267D01*
X45720Y54232D01*
X45982Y54267D01*
X46226Y54368D01*
X46436Y54529D01*
X46597Y54739D01*
X46698Y54983D01*
X46733Y55245D01*
X46698Y55507D01*
X46597Y55751D01*
X46436Y55961D01*
X46226Y56122D01*
X45982Y56223D01*
X45720Y56258D01*
D02*
G37*
G36*
X43180D02*
X42918Y56223D01*
X42674Y56122D01*
X42464Y55961D01*
X42303Y55751D01*
X42202Y55507D01*
X42167Y55245D01*
X42202Y54983D01*
X42303Y54739D01*
X42464Y54529D01*
X42674Y54368D01*
X42918Y54267D01*
X43180Y54232D01*
X43442Y54267D01*
X43686Y54368D01*
X43896Y54529D01*
X44057Y54739D01*
X44158Y54983D01*
X44193Y55245D01*
X44158Y55507D01*
X44057Y55751D01*
X43896Y55961D01*
X43686Y56122D01*
X43442Y56223D01*
X43180Y56258D01*
D02*
G37*
G36*
X40640D02*
X40378Y56223D01*
X40134Y56122D01*
X39924Y55961D01*
X39763Y55751D01*
X39662Y55507D01*
X39627Y55245D01*
X39662Y54983D01*
X39763Y54739D01*
X39924Y54529D01*
X40134Y54368D01*
X40378Y54267D01*
X40640Y54232D01*
X40902Y54267D01*
X41146Y54368D01*
X41356Y54529D01*
X41517Y54739D01*
X41618Y54983D01*
X41653Y55245D01*
X41618Y55507D01*
X41517Y55751D01*
X41356Y55961D01*
X41146Y56122D01*
X40902Y56223D01*
X40640Y56258D01*
D02*
G37*
G36*
X38100D02*
X37838Y56223D01*
X37594Y56122D01*
X37384Y55961D01*
X37223Y55751D01*
X37122Y55507D01*
X37087Y55245D01*
X37122Y54983D01*
X37223Y54739D01*
X37384Y54529D01*
X37594Y54368D01*
X37838Y54267D01*
X38100Y54232D01*
X38362Y54267D01*
X38606Y54368D01*
X38816Y54529D01*
X38977Y54739D01*
X39078Y54983D01*
X39113Y55245D01*
X39078Y55507D01*
X38977Y55751D01*
X38816Y55961D01*
X38606Y56122D01*
X38362Y56223D01*
X38100Y56258D01*
D02*
G37*
G36*
X35560D02*
X35298Y56223D01*
X35054Y56122D01*
X34844Y55961D01*
X34683Y55751D01*
X34582Y55507D01*
X34547Y55245D01*
X34582Y54983D01*
X34683Y54739D01*
X34844Y54529D01*
X35054Y54368D01*
X35298Y54267D01*
X35560Y54232D01*
X35822Y54267D01*
X36066Y54368D01*
X36276Y54529D01*
X36437Y54739D01*
X36538Y54983D01*
X36573Y55245D01*
X36538Y55507D01*
X36437Y55751D01*
X36276Y55961D01*
X36066Y56122D01*
X35822Y56223D01*
X35560Y56258D01*
D02*
G37*
G36*
X33020D02*
X32758Y56223D01*
X32514Y56122D01*
X32304Y55961D01*
X32143Y55751D01*
X32042Y55507D01*
X32007Y55245D01*
X32042Y54983D01*
X32143Y54739D01*
X32304Y54529D01*
X32514Y54368D01*
X32758Y54267D01*
X33020Y54232D01*
X33282Y54267D01*
X33526Y54368D01*
X33736Y54529D01*
X33897Y54739D01*
X33998Y54983D01*
X34033Y55245D01*
X33998Y55507D01*
X33897Y55751D01*
X33736Y55961D01*
X33526Y56122D01*
X33282Y56223D01*
X33020Y56258D01*
D02*
G37*
G36*
X30480D02*
X30218Y56223D01*
X29974Y56122D01*
X29764Y55961D01*
X29603Y55751D01*
X29502Y55507D01*
X29467Y55245D01*
X29502Y54983D01*
X29603Y54739D01*
X29764Y54529D01*
X29974Y54368D01*
X30218Y54267D01*
X30480Y54232D01*
X30742Y54267D01*
X30986Y54368D01*
X31196Y54529D01*
X31357Y54739D01*
X31458Y54983D01*
X31493Y55245D01*
X31458Y55507D01*
X31357Y55751D01*
X31196Y55961D01*
X30986Y56122D01*
X30742Y56223D01*
X30480Y56258D01*
D02*
G37*
G36*
X27940D02*
X27678Y56223D01*
X27434Y56122D01*
X27224Y55961D01*
X27063Y55751D01*
X26962Y55507D01*
X26927Y55245D01*
X26962Y54983D01*
X27063Y54739D01*
X27224Y54529D01*
X27434Y54368D01*
X27678Y54267D01*
X27940Y54232D01*
X28202Y54267D01*
X28446Y54368D01*
X28656Y54529D01*
X28817Y54739D01*
X28918Y54983D01*
X28953Y55245D01*
X28918Y55507D01*
X28817Y55751D01*
X28656Y55961D01*
X28446Y56122D01*
X28202Y56223D01*
X27940Y56258D01*
D02*
G37*
G36*
X25400D02*
X25138Y56223D01*
X24894Y56122D01*
X24684Y55961D01*
X24523Y55751D01*
X24422Y55507D01*
X24387Y55245D01*
X24422Y54983D01*
X24523Y54739D01*
X24684Y54529D01*
X24894Y54368D01*
X25138Y54267D01*
X25400Y54232D01*
X25662Y54267D01*
X25906Y54368D01*
X26116Y54529D01*
X26277Y54739D01*
X26378Y54983D01*
X26413Y55245D01*
X26378Y55507D01*
X26277Y55751D01*
X26116Y55961D01*
X25906Y56122D01*
X25662Y56223D01*
X25400Y56258D01*
D02*
G37*
G36*
X22860D02*
X22598Y56223D01*
X22354Y56122D01*
X22144Y55961D01*
X21983Y55751D01*
X21882Y55507D01*
X21847Y55245D01*
X21882Y54983D01*
X21983Y54739D01*
X22144Y54529D01*
X22354Y54368D01*
X22598Y54267D01*
X22860Y54232D01*
X23122Y54267D01*
X23366Y54368D01*
X23576Y54529D01*
X23737Y54739D01*
X23838Y54983D01*
X23873Y55245D01*
X23838Y55507D01*
X23737Y55751D01*
X23576Y55961D01*
X23366Y56122D01*
X23122Y56223D01*
X22860Y56258D01*
D02*
G37*
G36*
X20320D02*
X20058Y56223D01*
X19814Y56122D01*
X19604Y55961D01*
X19443Y55751D01*
X19342Y55507D01*
X19307Y55245D01*
X19342Y54983D01*
X19443Y54739D01*
X19604Y54529D01*
X19814Y54368D01*
X20058Y54267D01*
X20320Y54232D01*
X20582Y54267D01*
X20826Y54368D01*
X21036Y54529D01*
X21197Y54739D01*
X21298Y54983D01*
X21333Y55245D01*
X21298Y55507D01*
X21197Y55751D01*
X21036Y55961D01*
X20826Y56122D01*
X20582Y56223D01*
X20320Y56258D01*
D02*
G37*
G36*
X15240D02*
X14978Y56223D01*
X14734Y56122D01*
X14524Y55961D01*
X14363Y55751D01*
X14262Y55507D01*
X14227Y55245D01*
X14262Y54983D01*
X14363Y54739D01*
X14524Y54529D01*
X14734Y54368D01*
X14978Y54267D01*
X15240Y54232D01*
X15502Y54267D01*
X15746Y54368D01*
X15956Y54529D01*
X16117Y54739D01*
X16218Y54983D01*
X16253Y55245D01*
X16218Y55507D01*
X16117Y55751D01*
X15956Y55961D01*
X15746Y56122D01*
X15502Y56223D01*
X15240Y56258D01*
D02*
G37*
G36*
X12700D02*
X12438Y56223D01*
X12194Y56122D01*
X11984Y55961D01*
X11823Y55751D01*
X11722Y55507D01*
X11687Y55245D01*
X11722Y54983D01*
X11823Y54739D01*
X11984Y54529D01*
X12194Y54368D01*
X12438Y54267D01*
X12700Y54232D01*
X12962Y54267D01*
X13206Y54368D01*
X13416Y54529D01*
X13577Y54739D01*
X13678Y54983D01*
X13713Y55245D01*
X13678Y55507D01*
X13577Y55751D01*
X13416Y55961D01*
X13206Y56122D01*
X12962Y56223D01*
X12700Y56258D01*
D02*
G37*
G36*
X69215Y42282D02*
Y41529D01*
X69968D01*
X69954Y41634D01*
X69865Y41850D01*
X69722Y42036D01*
X69536Y42179D01*
X69320Y42268D01*
X69215Y42282D01*
D02*
G37*
G36*
X68961D02*
X68856Y42268D01*
X68640Y42179D01*
X68454Y42036D01*
X68311Y41850D01*
X68222Y41634D01*
X68208Y41529D01*
X68961D01*
Y42282D01*
D02*
G37*
G36*
X69968Y41275D02*
X69215D01*
Y40522D01*
X69320Y40536D01*
X69536Y40625D01*
X69722Y40768D01*
X69865Y40954D01*
X69954Y41170D01*
X69968Y41275D01*
D02*
G37*
G36*
X68961D02*
X68208D01*
X68222Y41170D01*
X68311Y40954D01*
X68454Y40768D01*
X68640Y40625D01*
X68856Y40536D01*
X68961Y40522D01*
Y41275D01*
D02*
G37*
G36*
X75692Y42299D02*
X75460Y42268D01*
X75244Y42179D01*
X75058Y42036D01*
X74915Y41850D01*
X74826Y41634D01*
X74795Y41402D01*
X74826Y41170D01*
X74915Y40954D01*
X75058Y40768D01*
X75244Y40625D01*
X75460Y40536D01*
X75692Y40505D01*
X75924Y40536D01*
X76140Y40625D01*
X76326Y40768D01*
X76469Y40954D01*
X76558Y41170D01*
X76589Y41402D01*
X76558Y41634D01*
X76469Y41850D01*
X76326Y42036D01*
X76140Y42179D01*
X75924Y42268D01*
X75692Y42299D01*
D02*
G37*
%LPD*%
D10*
X58674Y34417D02*
X60071D01*
X63373Y37719D01*
X96012D01*
X97155Y38862D01*
X98806Y40513D01*
Y51308D01*
X88551Y28583D02*
X88610Y28642D01*
X97095D01*
X97155Y28702D01*
X34925Y20193D02*
X41986D01*
X42342Y19837D01*
X53746D01*
X54864Y20955D01*
X20106Y41656D02*
X26416D01*
X17685Y44077D02*
X20106Y41656D01*
X11811Y27813D02*
X16891D01*
X10287Y26289D02*
X11811Y27813D01*
X11303Y35433D02*
X16891D01*
X10287Y36449D02*
X11303Y35433D01*
X45466Y20955D02*
X49784D01*
X43434Y22987D02*
X45466Y20955D01*
X56007Y29032D02*
X56134Y28905D01*
X67437Y70993D02*
X70993D01*
X64135Y74295D02*
X67437Y70993D01*
X31750Y74295D02*
X64135D01*
X30480Y73025D02*
X31750Y74295D01*
X43434Y42291D02*
X46711Y39014D01*
X54864D01*
X56134Y37744D01*
Y34417D02*
Y37744D01*
X57150Y38735D02*
X84709D01*
X53594Y42291D02*
X57150Y38735D01*
X58674Y25400D02*
Y26797D01*
X58420Y25146D02*
X58674Y25400D01*
X24892Y25146D02*
X58420D01*
X24511Y25527D02*
X24892Y25146D01*
X24511Y25527D02*
Y27813D01*
X62357Y69469D02*
X65913D01*
D20*
X45720Y75565D02*
D03*
X10160D02*
D03*
X12700D02*
D03*
X43180D02*
D03*
X40640D02*
D03*
X38100D02*
D03*
X35560D02*
D03*
X33020D02*
D03*
X30480D02*
D03*
X27940D02*
D03*
X25400D02*
D03*
X22860D02*
D03*
X20320D02*
D03*
X17780D02*
D03*
X15240D02*
D03*
Y55245D02*
D03*
X17780D02*
D03*
X20320D02*
D03*
X22860D02*
D03*
X25400D02*
D03*
X27940D02*
D03*
X30480D02*
D03*
X33020D02*
D03*
X35560D02*
D03*
X38100D02*
D03*
X40640D02*
D03*
X43180D02*
D03*
X12700D02*
D03*
X45720D02*
D03*
X15240Y73025D02*
D03*
X17780D02*
D03*
X20320D02*
D03*
X22860D02*
D03*
X25400D02*
D03*
X27940D02*
D03*
X30480D02*
D03*
X33020D02*
D03*
X35560D02*
D03*
X38100D02*
D03*
X40640D02*
D03*
X43180D02*
D03*
X12700D02*
D03*
X10160D02*
D03*
X45720D02*
D03*
Y57785D02*
D03*
X12700D02*
D03*
X43180D02*
D03*
X40640D02*
D03*
X38100D02*
D03*
X35560D02*
D03*
X33020D02*
D03*
X30480D02*
D03*
X27940D02*
D03*
X25400D02*
D03*
X22860D02*
D03*
X20320D02*
D03*
X17780D02*
D03*
X15240D02*
D03*
D21*
X10160Y55245D02*
D03*
Y57785D02*
D03*
D22*
X54737Y61849D02*
D03*
X16891Y27813D02*
D03*
X51054Y26797D02*
D03*
D23*
X57277Y61849D02*
D03*
X59817D02*
D03*
X62357D02*
D03*
X54737Y69469D02*
D03*
X57277D02*
D03*
X59817D02*
D03*
X62357D02*
D03*
X24511Y35433D02*
D03*
X21971D02*
D03*
X19431D02*
D03*
X16891D02*
D03*
X24511Y27813D02*
D03*
X21971D02*
D03*
X19431D02*
D03*
X58674Y34417D02*
D03*
X56134D02*
D03*
X53594D02*
D03*
X51054D02*
D03*
X58674Y26797D02*
D03*
X56134D02*
D03*
X53594D02*
D03*
D24*
X69088Y26670D02*
D03*
X69755Y73414D02*
D03*
X88551Y28583D02*
D03*
X47276Y8009D02*
D03*
X18955Y19947D02*
D03*
X17685Y44077D02*
D03*
X22479Y20066D02*
D03*
X29718Y37211D02*
D03*
D25*
X69088Y31242D02*
D03*
Y41402D02*
D03*
X56896Y55626D02*
D03*
X61976D02*
D03*
X65913Y69469D02*
D03*
X70993D02*
D03*
X75692Y31242D02*
D03*
Y41402D02*
D03*
X54864Y20955D02*
D03*
X49784D02*
D03*
X57658Y13843D02*
D03*
X47498D02*
D03*
X43434Y42291D02*
D03*
X53594D02*
D03*
X43434Y22987D02*
D03*
Y33147D02*
D03*
X26416Y41656D02*
D03*
X31496D02*
D03*
X34925Y30353D02*
D03*
Y20193D02*
D03*
X10287Y26289D02*
D03*
Y36449D02*
D03*
X97155Y28702D02*
D03*
Y38862D02*
D03*
X98806Y51308D02*
D03*
Y61468D02*
D03*
X70993Y70993D02*
D03*
D26*
X84709Y38735D02*
D03*
Y36195D02*
D03*
Y33655D02*
D03*
Y31115D02*
D03*
M02*
