M48
;Layer_Color=9474304
;FILE_FORMAT=4:3
METRIC,LZ
;TYPE=PLATED
T1F00S00C0.635
T2F00S00C0.711
T3F00S00C0.900
T4F00S00C1.000
T5F00S00C1.194
%
T01
X0010287Y0026289
X0016891Y0027813
X0019431
X0021971
X0024511
Y0035433
X0021971
X0019431
X0016891
X0010287Y0036449
X0034925Y0030353
Y0020193
X0043434Y0022987
Y0033147
X0051054Y0034417
X0053594
X0056134
X0058674
Y0026797
X0056134
X0053594
X0051054
X0047498Y0013843
X0057658
X0069088Y0031242
X0075692
X0097155Y0028702
Y0038862
X0098806Y0051308
Y0061468
X0062357Y0061849
X0059817
X0057277
X0054737
Y0069469
X0057277
X0059817
X0062357
X0069088Y0041402
X0075692
X0053594Y0042291
X0043434
T02
X0049784Y0020955
X0054864
X0056896Y0055626
X0061976
X0065913Y0069469
X0070993
Y0070993
X0031496Y0041656
X0026416
T03
X0084709Y0031115
Y0033655
Y0036195
Y0038735
T04
X004064Y0055245
X004318
X004572
Y0057785
X004318
X004064
Y0073025
Y0075565
X004318
X004572
Y0073025
X004318
X00381
Y0075565
X003556
X003302
X003048
X002794
X00254
X002286
X002032
X001778
X001524
X00127
X001016
Y0073025
X00127
X001524
X001778
X002032
X002286
X00254
X002794
X003048
X003302
X003556
Y0057785
Y0055245
X003302
X003048
X002794
X00254
X002286
X002032
X001778
X001524
X00127
X001016
Y0057785
X00127
X001524
X001778
X002032
X002286
X00254
X002794
X003048
X003302
X00381
Y0055245
T05
X0018955Y0019947
X0022479Y0020066
X0029718Y0037211
X0047276Y0008009
X0069088Y002667
X0088551Y0028583
X0069755Y0073414
X0017685Y0044077
M30
