G04*
G04 #@! TF.GenerationSoftware,Altium Limited,Altium Designer,19.1.2 (11)*
G04*
G04 Layer_Color=16711935*
%FSLAX43Y43*%
%MOMM*%
G71*
G01*
G75*
%ADD13C,1.703*%
%ADD14R,1.703X1.703*%
%ADD15R,1.473X2.743*%
%ADD16O,1.473X2.743*%
%ADD17C,1.549*%
%ADD18C,1.473*%
%ADD19O,2.743X1.473*%
D13*
X45720Y75565D02*
D03*
X10160D02*
D03*
X12700D02*
D03*
X43180D02*
D03*
X40640D02*
D03*
X38100D02*
D03*
X35560D02*
D03*
X33020D02*
D03*
X30480D02*
D03*
X27940D02*
D03*
X25400D02*
D03*
X22860D02*
D03*
X20320D02*
D03*
X17780D02*
D03*
X15240D02*
D03*
Y55245D02*
D03*
X17780D02*
D03*
X20320D02*
D03*
X22860D02*
D03*
X25400D02*
D03*
X27940D02*
D03*
X30480D02*
D03*
X33020D02*
D03*
X35560D02*
D03*
X38100D02*
D03*
X40640D02*
D03*
X43180D02*
D03*
X12700D02*
D03*
X45720D02*
D03*
X15240Y73025D02*
D03*
X17780D02*
D03*
X20320D02*
D03*
X22860D02*
D03*
X25400D02*
D03*
X27940D02*
D03*
X30480D02*
D03*
X33020D02*
D03*
X35560D02*
D03*
X38100D02*
D03*
X40640D02*
D03*
X43180D02*
D03*
X12700D02*
D03*
X10160D02*
D03*
X45720D02*
D03*
Y57785D02*
D03*
X12700D02*
D03*
X43180D02*
D03*
X40640D02*
D03*
X38100D02*
D03*
X35560D02*
D03*
X33020D02*
D03*
X30480D02*
D03*
X27940D02*
D03*
X25400D02*
D03*
X22860D02*
D03*
X20320D02*
D03*
X17780D02*
D03*
X15240D02*
D03*
D14*
X10160Y55245D02*
D03*
Y57785D02*
D03*
D15*
X54737Y61849D02*
D03*
X16891Y27813D02*
D03*
X51054Y26797D02*
D03*
D16*
X57277Y61849D02*
D03*
X59817D02*
D03*
X62357D02*
D03*
X54737Y69469D02*
D03*
X57277D02*
D03*
X59817D02*
D03*
X62357D02*
D03*
X24511Y35433D02*
D03*
X21971D02*
D03*
X19431D02*
D03*
X16891D02*
D03*
X24511Y27813D02*
D03*
X21971D02*
D03*
X19431D02*
D03*
X58674Y34417D02*
D03*
X56134D02*
D03*
X53594D02*
D03*
X51054D02*
D03*
X58674Y26797D02*
D03*
X56134D02*
D03*
X53594D02*
D03*
D17*
X69088Y26670D02*
D03*
X69755Y73414D02*
D03*
X88551Y28583D02*
D03*
X47276Y8009D02*
D03*
X18955Y19947D02*
D03*
X17685Y44077D02*
D03*
X22479Y20066D02*
D03*
X29718Y37211D02*
D03*
D18*
X69088Y31242D02*
D03*
Y41402D02*
D03*
X56896Y55626D02*
D03*
X61976D02*
D03*
X65913Y69469D02*
D03*
X70993D02*
D03*
X75692Y31242D02*
D03*
Y41402D02*
D03*
X54864Y20955D02*
D03*
X49784D02*
D03*
X57658Y13843D02*
D03*
X47498D02*
D03*
X43434Y42291D02*
D03*
X53594D02*
D03*
X43434Y22987D02*
D03*
Y33147D02*
D03*
X26416Y41656D02*
D03*
X31496D02*
D03*
X34925Y30353D02*
D03*
Y20193D02*
D03*
X10287Y26289D02*
D03*
Y36449D02*
D03*
X97155Y28702D02*
D03*
Y38862D02*
D03*
X98806Y51308D02*
D03*
Y61468D02*
D03*
X70993Y70993D02*
D03*
D19*
X84709Y38735D02*
D03*
Y36195D02*
D03*
Y33655D02*
D03*
Y31115D02*
D03*
M02*
