G04*
G04 #@! TF.GenerationSoftware,Altium Limited,Altium Designer,18.0.9 (584)*
G04*
G04 Layer_Physical_Order=1*
G04 Layer_Color=255*
%FSLAX25Y25*%
%MOIN*%
G70*
G01*
G75*
%ADD10C,0.01000*%
%ADD12C,0.02000*%
%ADD26C,0.02500*%
%ADD27C,0.05000*%
%ADD28C,0.05906*%
%ADD29R,0.05906X0.05906*%
%ADD30C,0.06000*%
%ADD31R,0.05906X0.05906*%
%ADD32C,0.15000*%
%ADD33R,0.10000X0.05000*%
%ADD34O,0.10000X0.05000*%
%ADD35C,0.04724*%
%ADD36C,0.05500*%
%ADD37O,0.05000X0.10000*%
G36*
X305758Y174579D02*
X305296Y174388D01*
X279501Y200183D01*
X279634Y201200D01*
X279497Y202244D01*
X279094Y203217D01*
X278453Y204053D01*
X277617Y204694D01*
X276644Y205097D01*
X275600Y205235D01*
X274556Y205097D01*
X273583Y204694D01*
X272747Y204053D01*
X272106Y203217D01*
X271703Y202244D01*
X271566Y201200D01*
X271699Y200183D01*
X263155Y191639D01*
X209577D01*
X208953Y192453D01*
X208117Y193094D01*
X207144Y193497D01*
X206100Y193634D01*
X201100D01*
X200056Y193497D01*
X199083Y193094D01*
X198247Y192453D01*
X197623Y191639D01*
X195200D01*
X194420Y191484D01*
X193758Y191042D01*
X185358Y182642D01*
X184916Y181980D01*
X184761Y181200D01*
Y110845D01*
X184316Y110400D01*
X122000D01*
Y107639D01*
X109200D01*
X109200Y107639D01*
X108420Y107484D01*
X107758Y107042D01*
X104558Y103842D01*
X104116Y103180D01*
X103961Y102400D01*
Y57645D01*
X89036Y42720D01*
X88417Y43194D01*
X87444Y43597D01*
X86400Y43734D01*
X85356Y43597D01*
X84383Y43194D01*
X83547Y42553D01*
X82906Y41717D01*
X82503Y40744D01*
X82366Y39700D01*
Y34826D01*
X81923Y34561D01*
X80435Y36049D01*
Y39700D01*
X80297Y40744D01*
X79894Y41717D01*
X79253Y42553D01*
X78417Y43194D01*
X77444Y43597D01*
X76400Y43734D01*
X75356Y43597D01*
X74383Y43194D01*
X73547Y42553D01*
X72906Y41717D01*
X72503Y40744D01*
X72365Y39700D01*
Y34700D01*
X72503Y33656D01*
X72906Y32683D01*
X73547Y31847D01*
X74383Y31206D01*
X75356Y30803D01*
X76400Y30665D01*
X77444Y30803D01*
X78417Y31206D01*
X79036Y31681D01*
X82558Y28158D01*
X83220Y27716D01*
X84000Y27561D01*
X102755D01*
X118158Y12158D01*
X118820Y11716D01*
X119600Y11561D01*
X122000D01*
Y5200D01*
X29573D01*
X29459Y5687D01*
X30493Y6197D01*
X32427Y7489D01*
X34177Y9023D01*
X35711Y10773D01*
X37003Y12707D01*
X38032Y14794D01*
X38780Y16997D01*
X39234Y19278D01*
X39386Y21600D01*
X39234Y23922D01*
X38780Y26203D01*
X38032Y28407D01*
X37003Y30493D01*
X35711Y32427D01*
X34177Y34177D01*
X32427Y35711D01*
X30493Y37003D01*
X28407Y38032D01*
X26203Y38780D01*
X23922Y39234D01*
X21600Y39386D01*
X19278Y39234D01*
X16997Y38780D01*
X14794Y38032D01*
X12707Y37003D01*
X10773Y35711D01*
X9023Y34177D01*
X7489Y32427D01*
X6197Y30493D01*
X5687Y29459D01*
X5200Y29573D01*
Y313627D01*
X5687Y313741D01*
X6197Y312707D01*
X7489Y310772D01*
X9023Y309023D01*
X10773Y307489D01*
X12707Y306197D01*
X14794Y305168D01*
X16997Y304420D01*
X19278Y303966D01*
X21600Y303814D01*
X23922Y303966D01*
X26203Y304420D01*
X28407Y305168D01*
X30493Y306197D01*
X32427Y307489D01*
X34177Y309023D01*
X35711Y310772D01*
X37003Y312707D01*
X38032Y314794D01*
X38780Y316997D01*
X39234Y319279D01*
X39386Y321600D01*
X39234Y323921D01*
X38780Y326203D01*
X38032Y328406D01*
X37003Y330493D01*
X35711Y332428D01*
X34177Y334177D01*
X32427Y335711D01*
X30493Y337003D01*
X29459Y337513D01*
X29573Y338000D01*
X305758D01*
Y174579D01*
D02*
G37*
G36*
X420827Y338000D02*
X420941Y337513D01*
X419907Y337003D01*
X417973Y335711D01*
X416223Y334177D01*
X414689Y332428D01*
X413397Y330493D01*
X412368Y328406D01*
X411620Y326203D01*
X411166Y323921D01*
X411014Y321600D01*
X411166Y319279D01*
X411620Y316997D01*
X412368Y314794D01*
X413397Y312707D01*
X414689Y310772D01*
X416223Y309023D01*
X417973Y307489D01*
X419907Y306197D01*
X421993Y305168D01*
X424197Y304420D01*
X426478Y303966D01*
X428800Y303814D01*
X431122Y303966D01*
X433403Y304420D01*
X435606Y305168D01*
X437693Y306197D01*
X439628Y307489D01*
X441377Y309023D01*
X442911Y310772D01*
X444203Y312707D01*
X445100Y314525D01*
X445600Y314409D01*
Y29984D01*
X445113Y29870D01*
X445003Y30093D01*
X443711Y32028D01*
X442177Y33777D01*
X440427Y35311D01*
X438493Y36603D01*
X436407Y37632D01*
X434203Y38380D01*
X431922Y38834D01*
X429600Y38986D01*
X427278Y38834D01*
X424997Y38380D01*
X422793Y37632D01*
X420707Y36603D01*
X418773Y35311D01*
X417023Y33777D01*
X415489Y32028D01*
X414197Y30093D01*
X413168Y28007D01*
X412420Y25803D01*
X411966Y23521D01*
X411814Y21200D01*
X411966Y18879D01*
X412420Y16597D01*
X413168Y14393D01*
X414197Y12307D01*
X415489Y10373D01*
X417023Y8623D01*
X418773Y7089D01*
X420707Y5797D01*
X420930Y5687D01*
X420816Y5200D01*
X130800Y5200D01*
Y11561D01*
X320800Y11561D01*
X321580Y11716D01*
X322242Y12158D01*
X349842Y39758D01*
X349842Y39758D01*
X350284Y40420D01*
X350439Y41200D01*
Y120800D01*
X350284Y121580D01*
X349842Y122242D01*
X347842Y124242D01*
X347180Y124684D01*
X346809Y124758D01*
X346690Y125046D01*
X345976Y125976D01*
X345046Y126690D01*
X343962Y127138D01*
X342800Y127291D01*
X341638Y127138D01*
X340554Y126690D01*
X339624Y125976D01*
X339143Y125349D01*
X336457D01*
X335976Y125976D01*
X335046Y126690D01*
X333962Y127138D01*
X332800Y127291D01*
X331638Y127138D01*
X330554Y126690D01*
X329624Y125976D01*
X328910Y125046D01*
X328462Y123962D01*
X328309Y122800D01*
X328462Y121638D01*
X328910Y120554D01*
X329624Y119624D01*
X330554Y118911D01*
X331638Y118462D01*
X332800Y118309D01*
X333962Y118462D01*
X335046Y118911D01*
X335976Y119624D01*
X336457Y120251D01*
X339143D01*
X339624Y119624D01*
X340554Y118911D01*
X341638Y118462D01*
X342800Y118309D01*
X343962Y118462D01*
X345046Y118911D01*
X345861Y119536D01*
X346246Y119406D01*
X346361Y119313D01*
Y116233D01*
X345861Y116064D01*
X345046Y116690D01*
X343962Y117138D01*
X342800Y117291D01*
X341638Y117138D01*
X340554Y116690D01*
X339624Y115976D01*
X339143Y115349D01*
X336457D01*
X335976Y115976D01*
X335046Y116690D01*
X333962Y117138D01*
X332800Y117291D01*
X331638Y117138D01*
X330554Y116690D01*
X329624Y115976D01*
X328910Y115046D01*
X328462Y113962D01*
X328309Y112800D01*
X328462Y111638D01*
X328910Y110554D01*
X329624Y109624D01*
X330554Y108911D01*
X331638Y108462D01*
X332800Y108309D01*
X333962Y108462D01*
X335046Y108911D01*
X335976Y109624D01*
X336457Y110251D01*
X339143D01*
X339624Y109624D01*
X340554Y108911D01*
X341638Y108462D01*
X342800Y108309D01*
X343962Y108462D01*
X345046Y108911D01*
X345861Y109536D01*
X346361Y109367D01*
Y106233D01*
X345861Y106064D01*
X345046Y106690D01*
X343962Y107138D01*
X342800Y107291D01*
X341638Y107138D01*
X340554Y106690D01*
X339624Y105976D01*
X339143Y105349D01*
X336457D01*
X335976Y105976D01*
X335046Y106690D01*
X333962Y107138D01*
X332800Y107291D01*
X331638Y107138D01*
X330554Y106690D01*
X329624Y105976D01*
X328910Y105046D01*
X328462Y103962D01*
X328309Y102800D01*
X328462Y101638D01*
X328910Y100554D01*
X329624Y99624D01*
X330554Y98910D01*
X331638Y98462D01*
X332800Y98309D01*
X333962Y98462D01*
X335046Y98910D01*
X335976Y99624D01*
X336457Y100251D01*
X339143D01*
X339624Y99624D01*
X340554Y98910D01*
X341638Y98462D01*
X342800Y98309D01*
X343962Y98462D01*
X345046Y98910D01*
X345861Y99536D01*
X346361Y99367D01*
Y96233D01*
X345861Y96064D01*
X345046Y96689D01*
X343962Y97138D01*
X342800Y97291D01*
X341638Y97138D01*
X340554Y96689D01*
X339624Y95976D01*
X339143Y95349D01*
X336457D01*
X335976Y95976D01*
X335046Y96689D01*
X333962Y97138D01*
X332800Y97291D01*
X331638Y97138D01*
X330554Y96689D01*
X329624Y95976D01*
X328910Y95046D01*
X328462Y93962D01*
X328309Y92800D01*
X328462Y91638D01*
X328910Y90554D01*
X329624Y89624D01*
X330554Y88911D01*
X331638Y88462D01*
X332800Y88309D01*
X333962Y88462D01*
X335046Y88911D01*
X335976Y89624D01*
X336457Y90251D01*
X339143D01*
X339624Y89624D01*
X340554Y88911D01*
X341638Y88462D01*
X342800Y88309D01*
X343962Y88462D01*
X345046Y88911D01*
X345861Y89536D01*
X346361Y89367D01*
Y86233D01*
X345861Y86064D01*
X345046Y86690D01*
X343962Y87138D01*
X342800Y87291D01*
X341638Y87138D01*
X340554Y86690D01*
X339624Y85976D01*
X339143Y85349D01*
X336457D01*
X335976Y85976D01*
X335046Y86690D01*
X333962Y87138D01*
X332800Y87291D01*
X331638Y87138D01*
X330554Y86690D01*
X329624Y85976D01*
X328910Y85046D01*
X328462Y83962D01*
X328309Y82800D01*
X328462Y81638D01*
X328910Y80554D01*
X329624Y79624D01*
X330554Y78910D01*
X331638Y78462D01*
X332800Y78309D01*
X333962Y78462D01*
X335046Y78910D01*
X335976Y79624D01*
X336457Y80251D01*
X339143D01*
X339624Y79624D01*
X340554Y78910D01*
X341638Y78462D01*
X342800Y78309D01*
X343962Y78462D01*
X345046Y78910D01*
X345861Y79536D01*
X346361Y79367D01*
Y76233D01*
X345861Y76064D01*
X345046Y76689D01*
X343962Y77138D01*
X342800Y77291D01*
X341638Y77138D01*
X340554Y76689D01*
X339624Y75976D01*
X339143Y75349D01*
X336457D01*
X335976Y75976D01*
X335046Y76689D01*
X333962Y77138D01*
X332800Y77291D01*
X331638Y77138D01*
X330554Y76689D01*
X329624Y75976D01*
X328910Y75046D01*
X328462Y73962D01*
X328309Y72800D01*
X328375Y72298D01*
X312851Y56774D01*
X260439D01*
X260339Y57274D01*
X260417Y57306D01*
X261253Y57947D01*
X261894Y58783D01*
X262297Y59756D01*
X262435Y60800D01*
X262297Y61844D01*
X262189Y62105D01*
X262845Y62761D01*
X283600D01*
X284380Y62916D01*
X285042Y63358D01*
X287442Y65758D01*
X287884Y66420D01*
X288039Y67200D01*
Y93947D01*
X290453D01*
Y102000D01*
X318000D01*
X318000Y155263D01*
X318462Y155454D01*
X322158Y151758D01*
X322820Y151316D01*
X323600Y151161D01*
X328659D01*
X328910Y150554D01*
X329624Y149624D01*
X330554Y148910D01*
X331638Y148462D01*
X332800Y148309D01*
X333962Y148462D01*
X335046Y148910D01*
X335976Y149624D01*
X336457Y150251D01*
X339143D01*
X339624Y149624D01*
X340554Y148910D01*
X341638Y148462D01*
X342800Y148309D01*
X343962Y148462D01*
X345046Y148910D01*
X345976Y149624D01*
X346690Y150554D01*
X347138Y151638D01*
X347291Y152800D01*
X347138Y153962D01*
X346690Y155046D01*
X345976Y155976D01*
X345046Y156690D01*
X343962Y157138D01*
X342800Y157291D01*
X341638Y157138D01*
X340554Y156690D01*
X339624Y155976D01*
X339143Y155349D01*
X336457D01*
X335976Y155976D01*
X335046Y156690D01*
X333962Y157138D01*
X332800Y157291D01*
X331638Y157138D01*
X330554Y156690D01*
X329624Y155976D01*
X329059Y155239D01*
X324445D01*
X318000Y161684D01*
X318000Y338000D01*
X420827Y338000D01*
D02*
G37*
G36*
X161854Y101538D02*
X149805Y89489D01*
X149575Y89584D01*
X148400Y89739D01*
X147225Y89584D01*
X146131Y89131D01*
X145191Y88409D01*
X144469Y87469D01*
X144016Y86375D01*
X143861Y85200D01*
X144016Y84025D01*
X144111Y83795D01*
X140558Y80242D01*
X140116Y79580D01*
X139961Y78800D01*
Y68000D01*
X140116Y67220D01*
X140558Y66558D01*
X147758Y59358D01*
X148420Y58916D01*
X149200Y58761D01*
X162523D01*
X163147Y57947D01*
X163983Y57306D01*
X164956Y56903D01*
X166000Y56766D01*
X167044Y56903D01*
X168017Y57306D01*
X168853Y57947D01*
X169494Y58783D01*
X169897Y59756D01*
X170035Y60800D01*
X169897Y61844D01*
X169494Y62817D01*
X168853Y63653D01*
X168017Y64294D01*
X167044Y64697D01*
X166000Y64834D01*
X164956Y64697D01*
X163983Y64294D01*
X163147Y63653D01*
X162523Y62839D01*
X150045D01*
X144039Y68845D01*
Y72751D01*
X144539Y72839D01*
X145191Y71991D01*
X146131Y71269D01*
X147225Y70816D01*
X148400Y70661D01*
X149575Y70816D01*
X150669Y71269D01*
X151609Y71991D01*
X152331Y72931D01*
X152426Y73161D01*
X168755D01*
X178858Y63058D01*
X178858Y63058D01*
X179520Y62616D01*
X180300Y62461D01*
X180300Y62461D01*
X201908D01*
X202186Y62045D01*
X202103Y61844D01*
X201965Y60800D01*
X202103Y59756D01*
X202506Y58783D01*
X203147Y57947D01*
X203983Y57306D01*
X204956Y56903D01*
X206000Y56766D01*
X207044Y56903D01*
X208017Y57306D01*
X208853Y57947D01*
X208913Y58026D01*
X215487D01*
X215547Y57947D01*
X216383Y57306D01*
X217356Y56903D01*
X218400Y56766D01*
X218499Y56779D01*
X223239Y52039D01*
X223813Y51598D01*
X224482Y51321D01*
X225200Y51226D01*
X230944D01*
X231043Y50726D01*
X230954Y50690D01*
X230024Y49976D01*
X229310Y49046D01*
X228862Y47962D01*
X228709Y46800D01*
X228862Y45638D01*
X229310Y44554D01*
X230024Y43624D01*
X230954Y42911D01*
X232038Y42462D01*
X233200Y42309D01*
X234362Y42462D01*
X235446Y42911D01*
X236376Y43624D01*
X237089Y44554D01*
X237538Y45638D01*
X237691Y46800D01*
X237538Y47962D01*
X237089Y49046D01*
X236376Y49976D01*
X235446Y50690D01*
X235357Y50726D01*
X235456Y51226D01*
X238747D01*
Y42347D01*
X247653D01*
Y51226D01*
X314000D01*
X314718Y51321D01*
X315387Y51598D01*
X315961Y52039D01*
X327988Y64065D01*
X328442Y63812D01*
X328309Y62800D01*
X328462Y61638D01*
X328910Y60554D01*
X329624Y59624D01*
X330554Y58911D01*
X331638Y58462D01*
X332800Y58309D01*
X333962Y58462D01*
X335046Y58911D01*
X335976Y59624D01*
X336457Y60251D01*
X339143D01*
X339624Y59624D01*
X340554Y58911D01*
X341638Y58462D01*
X342800Y58309D01*
X343962Y58462D01*
X345046Y58911D01*
X345861Y59536D01*
X346361Y59367D01*
Y56233D01*
X345861Y56064D01*
X345046Y56690D01*
X343962Y57138D01*
X342800Y57291D01*
X341638Y57138D01*
X340554Y56690D01*
X339624Y55976D01*
X339143Y55349D01*
X336457D01*
X335976Y55976D01*
X335046Y56690D01*
X333962Y57138D01*
X332800Y57291D01*
X331638Y57138D01*
X330554Y56690D01*
X329624Y55976D01*
X328910Y55046D01*
X328462Y53962D01*
X328309Y52800D01*
X328462Y51638D01*
X328910Y50554D01*
X329624Y49624D01*
X330554Y48910D01*
X331638Y48462D01*
X332800Y48309D01*
X333962Y48462D01*
X335046Y48910D01*
X335976Y49624D01*
X336457Y50251D01*
X339143D01*
X339624Y49624D01*
X340554Y48910D01*
X341638Y48462D01*
X342800Y48309D01*
X343962Y48462D01*
X345046Y48910D01*
X345861Y49536D01*
X346361Y49367D01*
Y46233D01*
X345861Y46064D01*
X345046Y46690D01*
X343962Y47138D01*
X342800Y47291D01*
X341638Y47138D01*
X340554Y46690D01*
X339624Y45976D01*
X339143Y45349D01*
X336457D01*
X335976Y45976D01*
X335046Y46690D01*
X333962Y47138D01*
X332800Y47291D01*
X331638Y47138D01*
X330554Y46690D01*
X329624Y45976D01*
X328910Y45046D01*
X328462Y43962D01*
X328309Y42800D01*
X328462Y41638D01*
X328910Y40554D01*
X329624Y39624D01*
X330554Y38910D01*
X331638Y38462D01*
X332800Y38309D01*
X333962Y38462D01*
X335046Y38910D01*
X335976Y39624D01*
X336457Y40251D01*
X339143D01*
X339624Y39624D01*
X340554Y38910D01*
X341638Y38462D01*
X342085Y38403D01*
X342246Y37929D01*
X319955Y15639D01*
X130800Y15639D01*
Y102000D01*
X161663D01*
X161854Y101538D01*
D02*
G37*
%LPC*%
G36*
X192800Y315634D02*
X191756Y315497D01*
X190783Y315094D01*
X189947Y314453D01*
X189306Y313617D01*
X188903Y312644D01*
X188766Y311600D01*
X188903Y310556D01*
X189306Y309583D01*
X189947Y308747D01*
X190783Y308106D01*
X191161Y307949D01*
Y276045D01*
X188751Y273635D01*
X185100D01*
X184056Y273497D01*
X183083Y273094D01*
X182247Y272453D01*
X181606Y271617D01*
X181203Y270644D01*
X181065Y269600D01*
X181203Y268556D01*
X181606Y267583D01*
X182247Y266747D01*
X182731Y266376D01*
X182754Y266247D01*
X182676Y265788D01*
X182158Y265442D01*
X177758Y261042D01*
X177316Y260380D01*
X177161Y259600D01*
Y255200D01*
X177316Y254420D01*
X177758Y253758D01*
X181164Y250352D01*
X181065Y249600D01*
X181203Y248556D01*
X181606Y247583D01*
X182080Y246964D01*
X181555Y246439D01*
X163343D01*
X163100Y246939D01*
X163594Y247583D01*
X163997Y248556D01*
X164135Y249600D01*
X163997Y250644D01*
X163594Y251617D01*
X162953Y252453D01*
X162117Y253094D01*
X161144Y253497D01*
X160100Y253635D01*
X155100D01*
X154056Y253497D01*
X153083Y253094D01*
X152247Y252453D01*
X151623Y251639D01*
X112927D01*
X112768Y251671D01*
X34282D01*
X34238Y251775D01*
X33557Y252663D01*
X32669Y253344D01*
X31635Y253772D01*
X30526Y253918D01*
X29416Y253772D01*
X28383Y253344D01*
X27495Y252663D01*
X26814Y251775D01*
X26385Y250741D01*
X26239Y249632D01*
X26385Y248522D01*
X26814Y247488D01*
X27495Y246600D01*
X28383Y245919D01*
X29416Y245491D01*
X30526Y245345D01*
X31635Y245491D01*
X32669Y245919D01*
X33557Y246600D01*
X34238Y247488D01*
X34282Y247592D01*
X111042D01*
X111200Y247561D01*
X151623D01*
X152100Y246939D01*
X151857Y246439D01*
X121200D01*
X120420Y246284D01*
X119758Y245842D01*
X111358Y237442D01*
X110916Y236780D01*
X110761Y236000D01*
Y190445D01*
X96755Y176439D01*
X34155D01*
X34112Y176543D01*
X33431Y177431D01*
X32543Y178112D01*
X31510Y178541D01*
X30400Y178687D01*
X29291Y178541D01*
X28257Y178112D01*
X27369Y177431D01*
X26688Y176543D01*
X26259Y175510D01*
X26113Y174400D01*
X26259Y173291D01*
X26688Y172257D01*
X27369Y171369D01*
X28257Y170688D01*
X29291Y170259D01*
X30400Y170113D01*
X31510Y170259D01*
X32543Y170688D01*
X33431Y171369D01*
X34112Y172257D01*
X34155Y172361D01*
X97600D01*
X98380Y172516D01*
X99042Y172958D01*
X114242Y188158D01*
X114684Y188820D01*
X114839Y189600D01*
X114839Y189600D01*
Y235155D01*
X122045Y242361D01*
X151611D01*
X151832Y241912D01*
X151606Y241617D01*
X151203Y240644D01*
X151066Y239600D01*
X151203Y238556D01*
X151606Y237583D01*
X152247Y236747D01*
X153083Y236106D01*
X154056Y235703D01*
X155100Y235565D01*
X160100D01*
X161144Y235703D01*
X162117Y236106D01*
X162953Y236747D01*
X163594Y237583D01*
X163997Y238556D01*
X164135Y239600D01*
X163997Y240644D01*
X163594Y241617D01*
X163368Y241912D01*
X163589Y242361D01*
X181611D01*
X181832Y241912D01*
X181606Y241617D01*
X181203Y240644D01*
X181065Y239600D01*
X181203Y238556D01*
X181606Y237583D01*
X182247Y236747D01*
X183083Y236106D01*
X184056Y235703D01*
X185100Y235565D01*
X190100D01*
X191144Y235703D01*
X192117Y236106D01*
X192953Y236747D01*
X193594Y237583D01*
X193997Y238556D01*
X194134Y239600D01*
X193997Y240644D01*
X193594Y241617D01*
X192953Y242453D01*
X192117Y243094D01*
X191144Y243497D01*
X190100Y243635D01*
X185225D01*
X184961Y244077D01*
X186449Y245566D01*
X190100D01*
X191144Y245703D01*
X192117Y246106D01*
X192953Y246747D01*
X193594Y247583D01*
X193997Y248556D01*
X194134Y249600D01*
X193997Y250644D01*
X193594Y251617D01*
X192953Y252453D01*
X192117Y253094D01*
X191144Y253497D01*
X190100Y253635D01*
X185100D01*
X184056Y253497D01*
X183866Y253418D01*
X181239Y256045D01*
Y258468D01*
X181720Y258564D01*
X181745Y258554D01*
X182043Y257835D01*
X182604Y257104D01*
X183335Y256543D01*
X184186Y256190D01*
X185100Y256070D01*
X187100D01*
Y259600D01*
X187600D01*
Y260100D01*
X193564D01*
X193510Y260514D01*
X193157Y261365D01*
X193044Y261512D01*
X193265Y261961D01*
X194800D01*
X195580Y262116D01*
X196242Y262558D01*
X203045Y269361D01*
X210297D01*
X210845Y268645D01*
X211652Y268026D01*
X212592Y267637D01*
X213600Y267505D01*
X214608Y267637D01*
X215548Y268026D01*
X216355Y268645D01*
X216974Y269452D01*
X217363Y270392D01*
X217495Y271400D01*
X217363Y272408D01*
X216974Y273348D01*
X216355Y274155D01*
X215548Y274774D01*
X214608Y275163D01*
X213600Y275295D01*
X212592Y275163D01*
X211652Y274774D01*
X210845Y274155D01*
X210297Y273439D01*
X202200D01*
X201420Y273284D01*
X200758Y272842D01*
X193955Y266039D01*
X192851D01*
X192682Y266539D01*
X192953Y266747D01*
X193594Y267583D01*
X193997Y268556D01*
X194134Y269600D01*
X193997Y270644D01*
X193594Y271617D01*
X193120Y272236D01*
X194642Y273758D01*
X195084Y274420D01*
X195239Y275200D01*
X195239Y275200D01*
Y308430D01*
X195653Y308747D01*
X196294Y309583D01*
X196697Y310556D01*
X196835Y311600D01*
X196697Y312644D01*
X196294Y313617D01*
X195653Y314453D01*
X194817Y315094D01*
X193844Y315497D01*
X192800Y315634D01*
D02*
G37*
G36*
X152800D02*
X151756Y315497D01*
X150783Y315094D01*
X149947Y314453D01*
X149306Y313617D01*
X148903Y312644D01*
X148766Y311600D01*
X148903Y310556D01*
X149306Y309583D01*
X149947Y308747D01*
X150761Y308123D01*
Y274400D01*
X150916Y273620D01*
X151100Y273344D01*
Y265600D01*
X164100D01*
Y273600D01*
X156484D01*
X154839Y275245D01*
Y308123D01*
X155653Y308747D01*
X156294Y309583D01*
X156697Y310556D01*
X156834Y311600D01*
X156697Y312644D01*
X156294Y313617D01*
X155653Y314453D01*
X154817Y315094D01*
X153844Y315497D01*
X152800Y315634D01*
D02*
G37*
G36*
X193564Y259100D02*
X188100D01*
Y256070D01*
X190100D01*
X191014Y256190D01*
X191865Y256543D01*
X192596Y257104D01*
X193157Y257835D01*
X193510Y258686D01*
X193564Y259100D01*
D02*
G37*
G36*
X30526Y273918D02*
X29416Y273772D01*
X28383Y273344D01*
X27495Y272663D01*
X26814Y271775D01*
X26385Y270741D01*
X26239Y269632D01*
X26385Y268522D01*
X26814Y267488D01*
X27495Y266600D01*
X28383Y265919D01*
X29416Y265491D01*
X30526Y265345D01*
X31635Y265491D01*
X32669Y265919D01*
X33557Y266600D01*
X34238Y267488D01*
X34282Y267592D01*
X118242D01*
X118400Y267561D01*
X127155D01*
X136558Y258158D01*
X136558Y258158D01*
X137220Y257716D01*
X138000Y257561D01*
X138000Y257561D01*
X151623D01*
X152247Y256747D01*
X153083Y256106D01*
X154056Y255703D01*
X155100Y255566D01*
X160100D01*
X161144Y255703D01*
X162117Y256106D01*
X162953Y256747D01*
X163594Y257583D01*
X163997Y258556D01*
X164135Y259600D01*
X163997Y260644D01*
X163594Y261617D01*
X162953Y262453D01*
X162117Y263094D01*
X161144Y263497D01*
X160100Y263634D01*
X155100D01*
X154056Y263497D01*
X153083Y263094D01*
X152247Y262453D01*
X151623Y261639D01*
X138845D01*
X129442Y271042D01*
X128780Y271484D01*
X128000Y271639D01*
X118927D01*
X118769Y271671D01*
X34282D01*
X34238Y271775D01*
X33557Y272663D01*
X32669Y273344D01*
X31635Y273772D01*
X30526Y273918D01*
D02*
G37*
G36*
X228400Y245635D02*
X227356Y245497D01*
X226383Y245094D01*
X225547Y244453D01*
X224906Y243617D01*
X224832Y243439D01*
X216903D01*
X216355Y244155D01*
X215548Y244774D01*
X214608Y245163D01*
X213600Y245296D01*
X212592Y245163D01*
X211652Y244774D01*
X210845Y244155D01*
X210226Y243348D01*
X209837Y242408D01*
X209704Y241400D01*
X209837Y240392D01*
X210226Y239452D01*
X210845Y238645D01*
X211652Y238026D01*
X212592Y237637D01*
X213600Y237505D01*
X214608Y237637D01*
X215548Y238026D01*
X216355Y238645D01*
X216903Y239361D01*
X225076D01*
X225547Y238747D01*
X226383Y238106D01*
X227356Y237703D01*
X228400Y237565D01*
X229444Y237703D01*
X230417Y238106D01*
X231253Y238747D01*
X231894Y239583D01*
X232297Y240556D01*
X232435Y241600D01*
X232297Y242644D01*
X231894Y243617D01*
X231253Y244453D01*
X230417Y245094D01*
X229444Y245497D01*
X228400Y245635D01*
D02*
G37*
G36*
X30400Y233887D02*
X29291Y233741D01*
X28257Y233312D01*
X27369Y232631D01*
X26688Y231743D01*
X26259Y230710D01*
X26113Y229600D01*
X26259Y228490D01*
X26688Y227457D01*
X27369Y226569D01*
X28257Y225888D01*
X29291Y225459D01*
X30400Y225313D01*
X31510Y225459D01*
X32543Y225888D01*
X33431Y226569D01*
X34112Y227457D01*
X34541Y228490D01*
X34687Y229600D01*
X34541Y230710D01*
X34112Y231743D01*
X33431Y232631D01*
X32543Y233312D01*
X31510Y233741D01*
X30400Y233887D01*
D02*
G37*
G36*
X291200Y224834D02*
X290156Y224697D01*
X289183Y224294D01*
X288347Y223653D01*
X287706Y222817D01*
X287303Y221844D01*
X287165Y220800D01*
X287303Y219756D01*
X287706Y218783D01*
X288347Y217947D01*
X289183Y217306D01*
X290156Y216903D01*
X291200Y216765D01*
X292244Y216903D01*
X293217Y217306D01*
X294053Y217947D01*
X294694Y218783D01*
X295097Y219756D01*
X295234Y220800D01*
X295097Y221844D01*
X294694Y222817D01*
X294053Y223653D01*
X293217Y224294D01*
X292244Y224697D01*
X291200Y224834D01*
D02*
G37*
G36*
X152800Y205235D02*
X151756Y205097D01*
X150783Y204694D01*
X149947Y204053D01*
X149306Y203217D01*
X149232Y203039D01*
X140504D01*
X139955Y203755D01*
X139148Y204374D01*
X138208Y204763D01*
X137200Y204895D01*
X136192Y204763D01*
X135252Y204374D01*
X134445Y203755D01*
X133897Y203039D01*
X133800D01*
X133020Y202884D01*
X132358Y202442D01*
X112558Y182642D01*
X112116Y181980D01*
X111961Y181200D01*
Y145639D01*
X34556D01*
X34512Y145743D01*
X33831Y146631D01*
X32943Y147312D01*
X31909Y147741D01*
X30800Y147887D01*
X29691Y147741D01*
X28657Y147312D01*
X27769Y146631D01*
X27088Y145743D01*
X26659Y144710D01*
X26513Y143600D01*
X26659Y142490D01*
X27088Y141457D01*
X27769Y140569D01*
X28657Y139888D01*
X29691Y139459D01*
X30800Y139313D01*
X31909Y139459D01*
X32943Y139888D01*
X33831Y140569D01*
X34512Y141457D01*
X34556Y141561D01*
X114000D01*
X114780Y141716D01*
X115442Y142158D01*
X115884Y142820D01*
X116039Y143600D01*
Y180355D01*
X133961Y198277D01*
X134446Y198245D01*
X135252Y197626D01*
X136192Y197237D01*
X137200Y197105D01*
X138208Y197237D01*
X139148Y197626D01*
X139955Y198245D01*
X140504Y198961D01*
X149476D01*
X149947Y198347D01*
X150783Y197706D01*
X151756Y197303D01*
X152800Y197166D01*
X153844Y197303D01*
X154817Y197706D01*
X155653Y198347D01*
X156294Y199183D01*
X156697Y200156D01*
X156834Y201200D01*
X156697Y202244D01*
X156294Y203217D01*
X155653Y204053D01*
X154817Y204694D01*
X153844Y205097D01*
X152800Y205235D01*
D02*
G37*
G36*
X236500Y204664D02*
Y201700D01*
X239464D01*
X239410Y202114D01*
X239057Y202965D01*
X238496Y203696D01*
X237765Y204257D01*
X236914Y204610D01*
X236500Y204664D01*
D02*
G37*
G36*
X235500Y204664D02*
X235086Y204610D01*
X234235Y204257D01*
X233504Y203696D01*
X232943Y202965D01*
X232590Y202114D01*
X232536Y201700D01*
X235500D01*
Y204664D01*
D02*
G37*
G36*
X291700Y203864D02*
Y200900D01*
X294664D01*
X294610Y201314D01*
X294257Y202165D01*
X293696Y202896D01*
X292965Y203457D01*
X292114Y203810D01*
X291700Y203864D01*
D02*
G37*
G36*
X290700D02*
X290286Y203810D01*
X289435Y203457D01*
X288704Y202896D01*
X288143Y202165D01*
X287790Y201314D01*
X287736Y200900D01*
X290700D01*
Y203864D01*
D02*
G37*
G36*
X206100Y203130D02*
X204100D01*
Y200100D01*
X209564D01*
X209510Y200514D01*
X209157Y201365D01*
X208596Y202096D01*
X207865Y202657D01*
X207014Y203010D01*
X206100Y203130D01*
D02*
G37*
G36*
X203100D02*
X201100D01*
X200186Y203010D01*
X199335Y202657D01*
X198604Y202096D01*
X198043Y201365D01*
X197690Y200514D01*
X197636Y200100D01*
X203100D01*
Y203130D01*
D02*
G37*
G36*
X235500Y200700D02*
X232536D01*
X232590Y200286D01*
X232943Y199435D01*
X233504Y198704D01*
X234235Y198143D01*
X235086Y197790D01*
X235500Y197736D01*
Y200700D01*
D02*
G37*
G36*
X239464D02*
X236500D01*
Y197736D01*
X236914Y197790D01*
X237765Y198143D01*
X238496Y198704D01*
X239057Y199435D01*
X239410Y200286D01*
X239464Y200700D01*
D02*
G37*
G36*
X260400Y205235D02*
X259356Y205097D01*
X258383Y204694D01*
X257547Y204053D01*
X256906Y203217D01*
X256503Y202244D01*
X256365Y201200D01*
X256503Y200156D01*
X256906Y199183D01*
X257547Y198347D01*
X258383Y197706D01*
X259356Y197303D01*
X260400Y197166D01*
X261444Y197303D01*
X262417Y197706D01*
X263253Y198347D01*
X263894Y199183D01*
X264297Y200156D01*
X264435Y201200D01*
X264297Y202244D01*
X263894Y203217D01*
X263253Y204053D01*
X262417Y204694D01*
X261444Y205097D01*
X260400Y205235D01*
D02*
G37*
G36*
X294664Y199900D02*
X291700D01*
Y196936D01*
X292114Y196990D01*
X292965Y197343D01*
X293696Y197904D01*
X294257Y198635D01*
X294610Y199486D01*
X294664Y199900D01*
D02*
G37*
G36*
X290700D02*
X287736D01*
X287790Y199486D01*
X288143Y198635D01*
X288704Y197904D01*
X289435Y197343D01*
X290286Y196990D01*
X290700Y196936D01*
Y199900D01*
D02*
G37*
G36*
X209564Y199100D02*
X204100D01*
Y196070D01*
X206100D01*
X207014Y196190D01*
X207865Y196543D01*
X208596Y197104D01*
X209157Y197835D01*
X209510Y198686D01*
X209564Y199100D01*
D02*
G37*
G36*
X203100D02*
X197636D01*
X197690Y198686D01*
X198043Y197835D01*
X198604Y197104D01*
X199335Y196543D01*
X200186Y196190D01*
X201100Y196070D01*
X203100D01*
Y199100D01*
D02*
G37*
G36*
X30526Y193918D02*
X29416Y193772D01*
X28383Y193344D01*
X27495Y192663D01*
X26814Y191775D01*
X26385Y190741D01*
X26239Y189631D01*
X26385Y188522D01*
X26814Y187488D01*
X27495Y186600D01*
X28383Y185919D01*
X29416Y185491D01*
X30526Y185345D01*
X31635Y185491D01*
X32669Y185919D01*
X33557Y186600D01*
X34238Y187488D01*
X34667Y188522D01*
X34813Y189631D01*
X34667Y190741D01*
X34238Y191775D01*
X33557Y192663D01*
X32669Y193344D01*
X31635Y193772D01*
X30526Y193918D01*
D02*
G37*
G36*
X268400Y245635D02*
X267356Y245497D01*
X266383Y245094D01*
X265547Y244453D01*
X264906Y243617D01*
X264503Y242644D01*
X264366Y241600D01*
X264503Y240556D01*
X264906Y239583D01*
X265547Y238747D01*
X266361Y238123D01*
Y230045D01*
X262755Y226439D01*
X180800D01*
X180020Y226284D01*
X179358Y225842D01*
X179358Y225842D01*
X165758Y212242D01*
X165316Y211580D01*
X165161Y210800D01*
Y196000D01*
X165316Y195220D01*
X165758Y194558D01*
X168080Y192236D01*
X167606Y191617D01*
X167203Y190644D01*
X167066Y189600D01*
X167203Y188556D01*
X167606Y187583D01*
X168080Y186964D01*
X165758Y184642D01*
X165316Y183980D01*
X165161Y183200D01*
Y165645D01*
X162755Y163239D01*
X156277D01*
X155653Y164053D01*
X154817Y164694D01*
X153844Y165097D01*
X152800Y165234D01*
X151756Y165097D01*
X150783Y164694D01*
X149947Y164053D01*
X149323Y163239D01*
X141245D01*
X139239Y165245D01*
Y167696D01*
X139955Y168245D01*
X140574Y169052D01*
X140963Y169992D01*
X141095Y171000D01*
X140963Y172008D01*
X140574Y172948D01*
X139955Y173755D01*
X139148Y174374D01*
X138208Y174763D01*
X137200Y174896D01*
X136192Y174763D01*
X135252Y174374D01*
X134445Y173755D01*
X133826Y172948D01*
X133437Y172008D01*
X133305Y171000D01*
X133437Y169992D01*
X133826Y169052D01*
X134445Y168245D01*
X135161Y167696D01*
Y164400D01*
X135316Y163620D01*
X135758Y162958D01*
X138958Y159758D01*
X139620Y159316D01*
X140400Y159161D01*
X149323D01*
X149947Y158347D01*
X150783Y157706D01*
X151756Y157303D01*
X152800Y157166D01*
X153844Y157303D01*
X154817Y157706D01*
X155653Y158347D01*
X156277Y159161D01*
X163600D01*
X164380Y159316D01*
X165042Y159758D01*
X168642Y163358D01*
X169084Y164020D01*
X169239Y164800D01*
Y165591D01*
X169655Y165869D01*
X170056Y165703D01*
X171100Y165566D01*
X176100D01*
X177144Y165703D01*
X178117Y166106D01*
X178953Y166747D01*
X179594Y167583D01*
X179997Y168556D01*
X180134Y169600D01*
X179997Y170644D01*
X179594Y171617D01*
X178953Y172453D01*
X178117Y173094D01*
X177144Y173497D01*
X176100Y173635D01*
X171100D01*
X170056Y173497D01*
X169655Y173331D01*
X169239Y173609D01*
Y175591D01*
X169655Y175869D01*
X170056Y175703D01*
X171100Y175566D01*
X176100D01*
X177144Y175703D01*
X178117Y176106D01*
X178953Y176747D01*
X179594Y177583D01*
X179997Y178556D01*
X180134Y179600D01*
X179997Y180644D01*
X179594Y181617D01*
X178953Y182453D01*
X178117Y183094D01*
X177144Y183497D01*
X176100Y183634D01*
X171226D01*
X170961Y184077D01*
X172449Y185565D01*
X176100D01*
X177144Y185703D01*
X178117Y186106D01*
X178953Y186747D01*
X179594Y187583D01*
X179997Y188556D01*
X180134Y189600D01*
X179997Y190644D01*
X179594Y191617D01*
X178953Y192453D01*
X178117Y193094D01*
X177144Y193497D01*
X176100Y193634D01*
X172449D01*
X170946Y195138D01*
X171137Y195600D01*
X180100D01*
Y203600D01*
X169239D01*
Y209955D01*
X181645Y222361D01*
X263600D01*
X264380Y222516D01*
X265042Y222958D01*
X269842Y227758D01*
X269842Y227758D01*
X270284Y228420D01*
X270439Y229200D01*
X270439Y229200D01*
Y238123D01*
X271253Y238747D01*
X271894Y239583D01*
X272297Y240556D01*
X272434Y241600D01*
X272297Y242644D01*
X271894Y243617D01*
X271253Y244453D01*
X270417Y245094D01*
X269444Y245497D01*
X268400Y245635D01*
D02*
G37*
G36*
X30900Y162917D02*
Y159700D01*
X34117D01*
X34054Y160179D01*
X33676Y161091D01*
X33075Y161874D01*
X32291Y162476D01*
X31379Y162854D01*
X30900Y162917D01*
D02*
G37*
G36*
X29900Y162917D02*
X29421Y162854D01*
X28509Y162476D01*
X27725Y161874D01*
X27124Y161091D01*
X26746Y160179D01*
X26684Y159700D01*
X29900D01*
Y162917D01*
D02*
G37*
G36*
Y158700D02*
X26684D01*
X26746Y158221D01*
X27124Y157309D01*
X27725Y156526D01*
X28509Y155924D01*
X29421Y155546D01*
X29900Y155483D01*
Y158700D01*
D02*
G37*
G36*
X34117D02*
X30900D01*
Y155483D01*
X31379Y155546D01*
X32291Y155924D01*
X33075Y156526D01*
X33676Y157309D01*
X34054Y158221D01*
X34117Y158700D01*
D02*
G37*
G36*
X169200Y151635D02*
X168156Y151497D01*
X167183Y151094D01*
X166347Y150453D01*
X165706Y149617D01*
X165303Y148644D01*
X165165Y147600D01*
X165303Y146556D01*
X165706Y145583D01*
X166347Y144747D01*
X167183Y144106D01*
X168156Y143703D01*
X169200Y143565D01*
X170244Y143703D01*
X171217Y144106D01*
X172053Y144747D01*
X172694Y145583D01*
X173097Y146556D01*
X173234Y147600D01*
X173097Y148644D01*
X172694Y149617D01*
X172053Y150453D01*
X171217Y151094D01*
X170244Y151497D01*
X169200Y151635D01*
D02*
G37*
G36*
X56900Y43164D02*
Y37700D01*
X59930D01*
Y39700D01*
X59810Y40614D01*
X59457Y41465D01*
X58896Y42196D01*
X58165Y42757D01*
X57314Y43110D01*
X56900Y43164D01*
D02*
G37*
G36*
X55900Y43164D02*
X55486Y43110D01*
X54635Y42757D01*
X53904Y42196D01*
X53343Y41465D01*
X52990Y40614D01*
X52870Y39700D01*
Y37700D01*
X55900D01*
Y43164D01*
D02*
G37*
G36*
Y36700D02*
X52870D01*
Y34700D01*
X52990Y33786D01*
X53343Y32935D01*
X53904Y32204D01*
X54635Y31643D01*
X55486Y31290D01*
X55900Y31236D01*
Y36700D01*
D02*
G37*
G36*
X59930D02*
X56900D01*
Y31236D01*
X57314Y31290D01*
X58165Y31643D01*
X58896Y32204D01*
X59457Y32935D01*
X59810Y33786D01*
X59930Y34700D01*
Y36700D01*
D02*
G37*
G36*
X66400Y43734D02*
X65356Y43597D01*
X64383Y43194D01*
X63547Y42553D01*
X62906Y41717D01*
X62503Y40744D01*
X62366Y39700D01*
Y34700D01*
X62503Y33656D01*
X62906Y32683D01*
X63547Y31847D01*
X64383Y31206D01*
X65356Y30803D01*
X66400Y30665D01*
X67444Y30803D01*
X68417Y31206D01*
X69253Y31847D01*
X69894Y32683D01*
X70297Y33656D01*
X70434Y34700D01*
Y39700D01*
X70297Y40744D01*
X69894Y41717D01*
X69253Y42553D01*
X68417Y43194D01*
X67444Y43597D01*
X66400Y43734D01*
D02*
G37*
G36*
X398100Y265530D02*
X396100D01*
Y262500D01*
X401564D01*
X401510Y262914D01*
X401157Y263765D01*
X400596Y264496D01*
X399865Y265057D01*
X399014Y265410D01*
X398100Y265530D01*
D02*
G37*
G36*
X395100D02*
X393100D01*
X392186Y265410D01*
X391335Y265057D01*
X390604Y264496D01*
X390043Y263765D01*
X389690Y262914D01*
X389636Y262500D01*
X395100D01*
Y265530D01*
D02*
G37*
G36*
X401564Y261500D02*
X396100D01*
Y258470D01*
X398100D01*
X399014Y258590D01*
X399865Y258943D01*
X400596Y259504D01*
X401157Y260235D01*
X401510Y261086D01*
X401564Y261500D01*
D02*
G37*
G36*
X395100D02*
X389636D01*
X389690Y261086D01*
X390043Y260235D01*
X390604Y259504D01*
X391335Y258943D01*
X392186Y258590D01*
X393100Y258470D01*
X395100D01*
Y261500D01*
D02*
G37*
G36*
X372100Y266000D02*
X359100D01*
Y258000D01*
X372100D01*
Y266000D01*
D02*
G37*
G36*
X368100Y256034D02*
X363100D01*
X362056Y255897D01*
X361083Y255494D01*
X360247Y254853D01*
X359606Y254017D01*
X359449Y253639D01*
X353077D01*
X352453Y254453D01*
X351617Y255094D01*
X350644Y255497D01*
X349600Y255634D01*
X348556Y255497D01*
X347583Y255094D01*
X346747Y254453D01*
X346106Y253617D01*
X345703Y252644D01*
X345566Y251600D01*
X345703Y250556D01*
X346106Y249583D01*
X346747Y248747D01*
X347583Y248106D01*
X348556Y247703D01*
X349600Y247566D01*
X350644Y247703D01*
X351617Y248106D01*
X352453Y248747D01*
X353077Y249561D01*
X359930D01*
X360247Y249147D01*
X361083Y248506D01*
X362056Y248103D01*
X363100Y247966D01*
X368100D01*
X369144Y248103D01*
X370117Y248506D01*
X370953Y249147D01*
X371594Y249983D01*
X371997Y250956D01*
X372134Y252000D01*
X371997Y253044D01*
X371594Y254017D01*
X370953Y254853D01*
X370117Y255494D01*
X369144Y255897D01*
X368100Y256034D01*
D02*
G37*
G36*
X398100D02*
X393100D01*
X392056Y255897D01*
X391083Y255494D01*
X390247Y254853D01*
X389606Y254017D01*
X389203Y253044D01*
X389066Y252000D01*
X389203Y250956D01*
X389606Y249983D01*
X390247Y249147D01*
X391083Y248506D01*
X392056Y248103D01*
X393100Y247966D01*
X398100D01*
X399144Y248103D01*
X400117Y248506D01*
X400953Y249147D01*
X401594Y249983D01*
X401997Y250956D01*
X402135Y252000D01*
X401997Y253044D01*
X401594Y254017D01*
X400953Y254853D01*
X400117Y255494D01*
X399144Y255897D01*
X398100Y256034D01*
D02*
G37*
G36*
Y246035D02*
X393100D01*
X392056Y245897D01*
X391083Y245494D01*
X390247Y244853D01*
X389606Y244017D01*
X389203Y243044D01*
X389066Y242000D01*
X389203Y240956D01*
X389606Y239983D01*
X390247Y239147D01*
X391083Y238506D01*
X392056Y238103D01*
X393100Y237965D01*
X398100D01*
X399144Y238103D01*
X400117Y238506D01*
X400953Y239147D01*
X401594Y239983D01*
X401997Y240956D01*
X402135Y242000D01*
X401997Y243044D01*
X401594Y244017D01*
X400953Y244853D01*
X400117Y245494D01*
X399144Y245897D01*
X398100Y246035D01*
D02*
G37*
G36*
X368100D02*
X363100D01*
X362056Y245897D01*
X361083Y245494D01*
X360247Y244853D01*
X359606Y244017D01*
X359203Y243044D01*
X359066Y242000D01*
X359203Y240956D01*
X359606Y239983D01*
X360247Y239147D01*
X361083Y238506D01*
X362056Y238103D01*
X363100Y237965D01*
X368100D01*
X369144Y238103D01*
X370117Y238506D01*
X370953Y239147D01*
X371594Y239983D01*
X371997Y240956D01*
X372134Y242000D01*
X371997Y243044D01*
X371594Y244017D01*
X370953Y244853D01*
X370117Y245494D01*
X369144Y245897D01*
X368100Y246035D01*
D02*
G37*
G36*
Y236034D02*
X363100D01*
X362056Y235897D01*
X361083Y235494D01*
X360247Y234853D01*
X359606Y234017D01*
X359449Y233639D01*
X353077D01*
X352453Y234453D01*
X351617Y235094D01*
X350644Y235497D01*
X349600Y235634D01*
X348556Y235497D01*
X347583Y235094D01*
X346747Y234453D01*
X346106Y233617D01*
X345703Y232644D01*
X345566Y231600D01*
X345703Y230556D01*
X346106Y229583D01*
X346747Y228747D01*
X347583Y228106D01*
X348556Y227703D01*
X349600Y227566D01*
X350644Y227703D01*
X351617Y228106D01*
X352453Y228747D01*
X353077Y229561D01*
X359930D01*
X360247Y229147D01*
X361083Y228506D01*
X362056Y228103D01*
X363100Y227965D01*
X368100D01*
X369144Y228103D01*
X370117Y228506D01*
X370953Y229147D01*
X371594Y229983D01*
X371997Y230956D01*
X372134Y232000D01*
X371997Y233044D01*
X371594Y234017D01*
X370953Y234853D01*
X370117Y235494D01*
X369144Y235897D01*
X368100Y236034D01*
D02*
G37*
G36*
X398100D02*
X393100D01*
X392056Y235897D01*
X391083Y235494D01*
X390247Y234853D01*
X389606Y234017D01*
X389203Y233044D01*
X389066Y232000D01*
X389203Y230956D01*
X389606Y229983D01*
X390247Y229147D01*
X391083Y228506D01*
X392056Y228103D01*
X393100Y227965D01*
X398100D01*
X399144Y228103D01*
X400117Y228506D01*
X400953Y229147D01*
X401594Y229983D01*
X401997Y230956D01*
X402135Y232000D01*
X401997Y233044D01*
X401594Y234017D01*
X400953Y234853D01*
X400117Y235494D01*
X399144Y235897D01*
X398100Y236034D01*
D02*
G37*
G36*
X433726Y235918D02*
X432617Y235772D01*
X431583Y235344D01*
X430695Y234663D01*
X430014Y233775D01*
X429585Y232741D01*
X429439Y231631D01*
X429585Y230522D01*
X430014Y229488D01*
X430695Y228600D01*
X431583Y227919D01*
X432617Y227491D01*
X433726Y227345D01*
X434835Y227491D01*
X435869Y227919D01*
X436757Y228600D01*
X437438Y229488D01*
X437867Y230522D01*
X438013Y231631D01*
X437867Y232741D01*
X437438Y233775D01*
X436757Y234663D01*
X435869Y235344D01*
X434835Y235772D01*
X433726Y235918D01*
D02*
G37*
G36*
X331200Y224834D02*
X330156Y224697D01*
X329183Y224294D01*
X328347Y223653D01*
X327706Y222817D01*
X327303Y221844D01*
X327166Y220800D01*
X327303Y219756D01*
X327706Y218783D01*
X328347Y217947D01*
X329183Y217306D01*
X330156Y216903D01*
X331200Y216765D01*
X332244Y216903D01*
X333217Y217306D01*
X334053Y217947D01*
X334694Y218783D01*
X335097Y219756D01*
X335234Y220800D01*
X335097Y221844D01*
X334694Y222817D01*
X334053Y223653D01*
X333217Y224294D01*
X332244Y224697D01*
X331200Y224834D01*
D02*
G37*
G36*
X390400Y212035D02*
X389356Y211897D01*
X388383Y211494D01*
X387547Y210853D01*
X386906Y210017D01*
X386503Y209044D01*
X386366Y208000D01*
X386503Y206956D01*
X386906Y205983D01*
X387547Y205147D01*
X388383Y204506D01*
X389356Y204103D01*
X390400Y203965D01*
X391444Y204103D01*
X392417Y204506D01*
X393253Y205147D01*
X393894Y205983D01*
X394297Y206956D01*
X394434Y208000D01*
X394297Y209044D01*
X393894Y210017D01*
X393253Y210853D01*
X392417Y211494D01*
X391444Y211897D01*
X390400Y212035D01*
D02*
G37*
G36*
X370400D02*
X369356Y211897D01*
X368383Y211494D01*
X367547Y210853D01*
X366906Y210017D01*
X366503Y209044D01*
X366366Y208000D01*
X366503Y206956D01*
X366906Y205983D01*
X367547Y205147D01*
X368383Y204506D01*
X369356Y204103D01*
X370400Y203965D01*
X371444Y204103D01*
X372417Y204506D01*
X373253Y205147D01*
X373894Y205983D01*
X374297Y206956D01*
X374434Y208000D01*
X374297Y209044D01*
X373894Y210017D01*
X373253Y210853D01*
X372417Y211494D01*
X371444Y211897D01*
X370400Y212035D01*
D02*
G37*
G36*
X331700Y203864D02*
Y200900D01*
X334664D01*
X334610Y201314D01*
X334257Y202165D01*
X333696Y202896D01*
X332965Y203457D01*
X332114Y203810D01*
X331700Y203864D01*
D02*
G37*
G36*
X330700D02*
X330286Y203810D01*
X329435Y203457D01*
X328704Y202896D01*
X328143Y202165D01*
X327790Y201314D01*
X327736Y200900D01*
X330700D01*
Y203864D01*
D02*
G37*
G36*
X334664Y199900D02*
X331700D01*
Y196936D01*
X332114Y196990D01*
X332965Y197343D01*
X333696Y197904D01*
X334257Y198635D01*
X334610Y199486D01*
X334664Y199900D01*
D02*
G37*
G36*
X330700D02*
X327736D01*
X327790Y199486D01*
X328143Y198635D01*
X328704Y197904D01*
X329435Y197343D01*
X330286Y196990D01*
X330700Y196936D01*
Y199900D01*
D02*
G37*
G36*
X342800Y187291D02*
X341638Y187138D01*
X340554Y186689D01*
X339624Y185976D01*
X339297Y185549D01*
X336303D01*
X335976Y185976D01*
X335046Y186689D01*
X333962Y187138D01*
X332800Y187291D01*
X331638Y187138D01*
X330554Y186689D01*
X329624Y185976D01*
X328910Y185046D01*
X328462Y183962D01*
X328309Y182800D01*
X328462Y181638D01*
X328910Y180554D01*
X329624Y179624D01*
X330554Y178911D01*
X331638Y178462D01*
X332800Y178309D01*
X333962Y178462D01*
X335046Y178911D01*
X335976Y179624D01*
X336610Y180451D01*
X338990D01*
X339624Y179624D01*
X340554Y178911D01*
X341638Y178462D01*
X342800Y178309D01*
X343962Y178462D01*
X345046Y178911D01*
X345976Y179624D01*
X346690Y180554D01*
X347138Y181638D01*
X347291Y182800D01*
X347138Y183962D01*
X346690Y185046D01*
X345976Y185976D01*
X345046Y186689D01*
X343962Y187138D01*
X342800Y187291D01*
D02*
G37*
G36*
X412800D02*
X411638Y187138D01*
X410554Y186689D01*
X409624Y185976D01*
X409143Y185349D01*
X406457D01*
X405976Y185976D01*
X405046Y186689D01*
X403962Y187138D01*
X402800Y187291D01*
X401638Y187138D01*
X400554Y186689D01*
X399624Y185976D01*
X398910Y185046D01*
X398462Y183962D01*
X398309Y182800D01*
X398462Y181638D01*
X398910Y180554D01*
X399624Y179624D01*
X400554Y178911D01*
X401638Y178462D01*
X402800Y178309D01*
X403962Y178462D01*
X405046Y178911D01*
X405976Y179624D01*
X406457Y180251D01*
X409143D01*
X409624Y179624D01*
X410554Y178911D01*
X411638Y178462D01*
X412800Y178309D01*
X413962Y178462D01*
X415046Y178911D01*
X415976Y179624D01*
X416689Y180554D01*
X417138Y181638D01*
X417291Y182800D01*
X417138Y183962D01*
X416689Y185046D01*
X415976Y185976D01*
X415046Y186689D01*
X413962Y187138D01*
X412800Y187291D01*
D02*
G37*
G36*
Y177291D02*
X411638Y177138D01*
X410554Y176690D01*
X409624Y175976D01*
X409143Y175349D01*
X406457D01*
X405976Y175976D01*
X405046Y176690D01*
X403962Y177138D01*
X402800Y177291D01*
X401638Y177138D01*
X400554Y176690D01*
X399624Y175976D01*
X398910Y175046D01*
X398462Y173962D01*
X398309Y172800D01*
X398462Y171638D01*
X398910Y170554D01*
X399624Y169624D01*
X400554Y168911D01*
X401638Y168462D01*
X402800Y168309D01*
X403962Y168462D01*
X405046Y168911D01*
X405976Y169624D01*
X406457Y170251D01*
X409143D01*
X409624Y169624D01*
X410554Y168911D01*
X411638Y168462D01*
X412800Y168309D01*
X413962Y168462D01*
X415046Y168911D01*
X415976Y169624D01*
X416689Y170554D01*
X417138Y171638D01*
X417291Y172800D01*
X417138Y173962D01*
X416689Y175046D01*
X415976Y175976D01*
X415046Y176690D01*
X413962Y177138D01*
X412800Y177291D01*
D02*
G37*
G36*
X343300Y176721D02*
Y173300D01*
X346721D01*
X346651Y173832D01*
X346253Y174793D01*
X345619Y175619D01*
X344793Y176253D01*
X343832Y176651D01*
X343300Y176721D01*
D02*
G37*
G36*
X332300Y176721D02*
X331768Y176651D01*
X330807Y176253D01*
X329981Y175619D01*
X329347Y174793D01*
X328949Y173832D01*
X328879Y173300D01*
X332300D01*
Y176721D01*
D02*
G37*
G36*
X333300Y176721D02*
Y172800D01*
Y168879D01*
X333832Y168949D01*
X334793Y169347D01*
X335619Y169981D01*
X335903Y170351D01*
X339697D01*
X339981Y169981D01*
X340807Y169347D01*
X341768Y168949D01*
X342300Y168879D01*
Y172800D01*
Y176721D01*
X341768Y176651D01*
X340807Y176253D01*
X339981Y175619D01*
X339850Y175449D01*
X335750D01*
X335619Y175619D01*
X334793Y176253D01*
X333832Y176651D01*
X333300Y176721D01*
D02*
G37*
G36*
X332300Y172300D02*
X328879D01*
X328949Y171768D01*
X329347Y170807D01*
X329981Y169981D01*
X330807Y169347D01*
X331768Y168949D01*
X332300Y168879D01*
Y172300D01*
D02*
G37*
G36*
X346721D02*
X343300D01*
Y168879D01*
X343832Y168949D01*
X344793Y169347D01*
X345619Y169981D01*
X346253Y170807D01*
X346651Y171768D01*
X346721Y172300D01*
D02*
G37*
G36*
X412800Y167291D02*
X411638Y167138D01*
X410554Y166690D01*
X409624Y165976D01*
X409143Y165349D01*
X406457D01*
X405976Y165976D01*
X405046Y166690D01*
X403962Y167138D01*
X402800Y167291D01*
X401638Y167138D01*
X400554Y166690D01*
X399624Y165976D01*
X398910Y165046D01*
X398462Y163962D01*
X398309Y162800D01*
X398462Y161638D01*
X398910Y160554D01*
X399624Y159624D01*
X400554Y158911D01*
X401638Y158462D01*
X402800Y158309D01*
X403962Y158462D01*
X405046Y158911D01*
X405976Y159624D01*
X406457Y160251D01*
X409143D01*
X409624Y159624D01*
X410554Y158911D01*
X411638Y158462D01*
X412800Y158309D01*
X413962Y158462D01*
X415046Y158911D01*
X415976Y159624D01*
X416689Y160554D01*
X417138Y161638D01*
X417291Y162800D01*
X417138Y163962D01*
X416689Y165046D01*
X415976Y165976D01*
X415046Y166690D01*
X413962Y167138D01*
X412800Y167291D01*
D02*
G37*
G36*
X342800D02*
X341638Y167138D01*
X340554Y166690D01*
X339624Y165976D01*
X339143Y165349D01*
X336457D01*
X335976Y165976D01*
X335046Y166690D01*
X333962Y167138D01*
X332800Y167291D01*
X331638Y167138D01*
X330554Y166690D01*
X329624Y165976D01*
X328910Y165046D01*
X328462Y163962D01*
X328309Y162800D01*
X328462Y161638D01*
X328910Y160554D01*
X329624Y159624D01*
X330554Y158911D01*
X331638Y158462D01*
X332800Y158309D01*
X333962Y158462D01*
X335046Y158911D01*
X335976Y159624D01*
X336457Y160251D01*
X339143D01*
X339624Y159624D01*
X340554Y158911D01*
X341638Y158462D01*
X342800Y158309D01*
X343962Y158462D01*
X345046Y158911D01*
X345976Y159624D01*
X346690Y160554D01*
X347138Y161638D01*
X347291Y162800D01*
X347138Y163962D01*
X346690Y165046D01*
X345976Y165976D01*
X345046Y166690D01*
X343962Y167138D01*
X342800Y167291D01*
D02*
G37*
G36*
X412800Y157291D02*
X411638Y157138D01*
X410554Y156690D01*
X409624Y155976D01*
X409143Y155349D01*
X406457D01*
X405976Y155976D01*
X405046Y156690D01*
X403962Y157138D01*
X402800Y157291D01*
X401638Y157138D01*
X400554Y156690D01*
X399624Y155976D01*
X398910Y155046D01*
X398462Y153962D01*
X398309Y152800D01*
X398462Y151638D01*
X398910Y150554D01*
X399624Y149624D01*
X400554Y148910D01*
X401638Y148462D01*
X402800Y148309D01*
X403962Y148462D01*
X405046Y148910D01*
X405976Y149624D01*
X406457Y150251D01*
X409143D01*
X409624Y149624D01*
X410554Y148910D01*
X411638Y148462D01*
X412800Y148309D01*
X413962Y148462D01*
X415046Y148910D01*
X415976Y149624D01*
X416689Y150554D01*
X417138Y151638D01*
X417291Y152800D01*
X417138Y153962D01*
X416689Y155046D01*
X415976Y155976D01*
X415046Y156690D01*
X413962Y157138D01*
X412800Y157291D01*
D02*
G37*
G36*
Y147291D02*
X411638Y147138D01*
X410554Y146689D01*
X409624Y145976D01*
X409143Y145349D01*
X406457D01*
X405976Y145976D01*
X405046Y146689D01*
X403962Y147138D01*
X402800Y147291D01*
X401638Y147138D01*
X400554Y146689D01*
X399624Y145976D01*
X398910Y145046D01*
X398462Y143962D01*
X398309Y142800D01*
X398462Y141638D01*
X398910Y140554D01*
X399624Y139624D01*
X400554Y138910D01*
X401638Y138462D01*
X402800Y138309D01*
X403962Y138462D01*
X405046Y138910D01*
X405976Y139624D01*
X406457Y140251D01*
X409143D01*
X409624Y139624D01*
X410554Y138910D01*
X411638Y138462D01*
X412800Y138309D01*
X413962Y138462D01*
X415046Y138910D01*
X415976Y139624D01*
X416689Y140554D01*
X417138Y141638D01*
X417291Y142800D01*
X417138Y143962D01*
X416689Y145046D01*
X415976Y145976D01*
X415046Y146689D01*
X413962Y147138D01*
X412800Y147291D01*
D02*
G37*
G36*
X342800D02*
X341638Y147138D01*
X340554Y146689D01*
X339624Y145976D01*
X339143Y145349D01*
X336457D01*
X335976Y145976D01*
X335046Y146689D01*
X333962Y147138D01*
X332800Y147291D01*
X331638Y147138D01*
X330554Y146689D01*
X329624Y145976D01*
X328910Y145046D01*
X328462Y143962D01*
X328309Y142800D01*
X328462Y141638D01*
X328910Y140554D01*
X329624Y139624D01*
X330554Y138910D01*
X331638Y138462D01*
X332800Y138309D01*
X333962Y138462D01*
X335046Y138910D01*
X335976Y139624D01*
X336457Y140251D01*
X339143D01*
X339624Y139624D01*
X340554Y138910D01*
X341638Y138462D01*
X342800Y138309D01*
X343962Y138462D01*
X345046Y138910D01*
X345976Y139624D01*
X346690Y140554D01*
X347138Y141638D01*
X347291Y142800D01*
X347138Y143962D01*
X346690Y145046D01*
X345976Y145976D01*
X345046Y146689D01*
X343962Y147138D01*
X342800Y147291D01*
D02*
G37*
G36*
X412800Y137291D02*
X411638Y137138D01*
X410554Y136689D01*
X409624Y135976D01*
X409143Y135349D01*
X406457D01*
X405976Y135976D01*
X405046Y136689D01*
X403962Y137138D01*
X402800Y137291D01*
X401638Y137138D01*
X400554Y136689D01*
X399624Y135976D01*
X398910Y135046D01*
X398462Y133962D01*
X398309Y132800D01*
X398462Y131638D01*
X398910Y130554D01*
X399624Y129624D01*
X400554Y128911D01*
X401638Y128462D01*
X402800Y128309D01*
X403962Y128462D01*
X405046Y128911D01*
X405976Y129624D01*
X406457Y130251D01*
X409143D01*
X409624Y129624D01*
X410554Y128911D01*
X411638Y128462D01*
X412800Y128309D01*
X413962Y128462D01*
X415046Y128911D01*
X415976Y129624D01*
X416689Y130554D01*
X417138Y131638D01*
X417291Y132800D01*
X417138Y133962D01*
X416689Y135046D01*
X415976Y135976D01*
X415046Y136689D01*
X413962Y137138D01*
X412800Y137291D01*
D02*
G37*
G36*
X342800D02*
X341638Y137138D01*
X340554Y136689D01*
X339624Y135976D01*
X339143Y135349D01*
X336457D01*
X335976Y135976D01*
X335046Y136689D01*
X333962Y137138D01*
X332800Y137291D01*
X331638Y137138D01*
X330554Y136689D01*
X329624Y135976D01*
X328910Y135046D01*
X328462Y133962D01*
X328309Y132800D01*
X328462Y131638D01*
X328910Y130554D01*
X329624Y129624D01*
X330554Y128911D01*
X331638Y128462D01*
X332800Y128309D01*
X333962Y128462D01*
X335046Y128911D01*
X335976Y129624D01*
X336457Y130251D01*
X339143D01*
X339624Y129624D01*
X340554Y128911D01*
X341638Y128462D01*
X342800Y128309D01*
X343962Y128462D01*
X345046Y128911D01*
X345976Y129624D01*
X346690Y130554D01*
X347138Y131638D01*
X347291Y132800D01*
X347138Y133962D01*
X346690Y135046D01*
X345976Y135976D01*
X345046Y136689D01*
X343962Y137138D01*
X342800Y137291D01*
D02*
G37*
G36*
X412800Y127291D02*
X411638Y127138D01*
X410554Y126690D01*
X409624Y125976D01*
X409143Y125349D01*
X406457D01*
X405976Y125976D01*
X405046Y126690D01*
X403962Y127138D01*
X402800Y127291D01*
X401638Y127138D01*
X400554Y126690D01*
X399624Y125976D01*
X398910Y125046D01*
X398462Y123962D01*
X398309Y122800D01*
X398462Y121638D01*
X398910Y120554D01*
X399624Y119624D01*
X400554Y118911D01*
X401638Y118462D01*
X402800Y118309D01*
X403962Y118462D01*
X405046Y118911D01*
X405976Y119624D01*
X406457Y120251D01*
X409143D01*
X409624Y119624D01*
X410554Y118911D01*
X411638Y118462D01*
X412800Y118309D01*
X413962Y118462D01*
X415046Y118911D01*
X415976Y119624D01*
X416689Y120554D01*
X417138Y121638D01*
X417291Y122800D01*
X417138Y123962D01*
X416689Y125046D01*
X415976Y125976D01*
X415046Y126690D01*
X413962Y127138D01*
X412800Y127291D01*
D02*
G37*
G36*
Y117291D02*
X411638Y117138D01*
X410554Y116690D01*
X409624Y115976D01*
X409143Y115349D01*
X406457D01*
X405976Y115976D01*
X405046Y116690D01*
X403962Y117138D01*
X402800Y117291D01*
X401638Y117138D01*
X400554Y116690D01*
X399624Y115976D01*
X398910Y115046D01*
X398462Y113962D01*
X398309Y112800D01*
X398462Y111638D01*
X398910Y110554D01*
X399624Y109624D01*
X400554Y108911D01*
X401638Y108462D01*
X402800Y108309D01*
X403962Y108462D01*
X405046Y108911D01*
X405976Y109624D01*
X406457Y110251D01*
X409143D01*
X409624Y109624D01*
X410554Y108911D01*
X411638Y108462D01*
X412800Y108309D01*
X413962Y108462D01*
X415046Y108911D01*
X415976Y109624D01*
X416689Y110554D01*
X417138Y111638D01*
X417291Y112800D01*
X417138Y113962D01*
X416689Y115046D01*
X415976Y115976D01*
X415046Y116690D01*
X413962Y117138D01*
X412800Y117291D01*
D02*
G37*
G36*
Y107291D02*
X411638Y107138D01*
X410554Y106690D01*
X409624Y105976D01*
X409143Y105349D01*
X406457D01*
X405976Y105976D01*
X405046Y106690D01*
X403962Y107138D01*
X402800Y107291D01*
X401638Y107138D01*
X400554Y106690D01*
X399624Y105976D01*
X398910Y105046D01*
X398462Y103962D01*
X398309Y102800D01*
X398462Y101638D01*
X398910Y100554D01*
X399624Y99624D01*
X400554Y98910D01*
X401638Y98462D01*
X402800Y98309D01*
X403962Y98462D01*
X405046Y98910D01*
X405976Y99624D01*
X406457Y100251D01*
X409143D01*
X409624Y99624D01*
X410554Y98910D01*
X411638Y98462D01*
X412800Y98309D01*
X413962Y98462D01*
X415046Y98910D01*
X415976Y99624D01*
X416689Y100554D01*
X417138Y101638D01*
X417291Y102800D01*
X417138Y103962D01*
X416689Y105046D01*
X415976Y105976D01*
X415046Y106690D01*
X413962Y107138D01*
X412800Y107291D01*
D02*
G37*
G36*
Y97291D02*
X411638Y97138D01*
X410554Y96689D01*
X409624Y95976D01*
X409143Y95349D01*
X406457D01*
X405976Y95976D01*
X405046Y96689D01*
X403962Y97138D01*
X402800Y97291D01*
X401638Y97138D01*
X400554Y96689D01*
X399624Y95976D01*
X398910Y95046D01*
X398462Y93962D01*
X398309Y92800D01*
X398462Y91638D01*
X398910Y90554D01*
X399624Y89624D01*
X400554Y88911D01*
X401638Y88462D01*
X402800Y88309D01*
X403962Y88462D01*
X405046Y88911D01*
X405976Y89624D01*
X406457Y90251D01*
X409143D01*
X409624Y89624D01*
X410554Y88911D01*
X411638Y88462D01*
X412800Y88309D01*
X413962Y88462D01*
X415046Y88911D01*
X415976Y89624D01*
X416689Y90554D01*
X417138Y91638D01*
X417291Y92800D01*
X417138Y93962D01*
X416689Y95046D01*
X415976Y95976D01*
X415046Y96689D01*
X413962Y97138D01*
X412800Y97291D01*
D02*
G37*
G36*
Y87291D02*
X411638Y87138D01*
X410554Y86690D01*
X409624Y85976D01*
X409143Y85349D01*
X406457D01*
X405976Y85976D01*
X405046Y86690D01*
X403962Y87138D01*
X402800Y87291D01*
X401638Y87138D01*
X400554Y86690D01*
X399624Y85976D01*
X398910Y85046D01*
X398462Y83962D01*
X398309Y82800D01*
X398462Y81638D01*
X398910Y80554D01*
X399624Y79624D01*
X400554Y78910D01*
X401638Y78462D01*
X402800Y78309D01*
X403962Y78462D01*
X405046Y78910D01*
X405976Y79624D01*
X406457Y80251D01*
X409143D01*
X409624Y79624D01*
X410554Y78910D01*
X411638Y78462D01*
X412800Y78309D01*
X413962Y78462D01*
X415046Y78910D01*
X415976Y79624D01*
X416689Y80554D01*
X417138Y81638D01*
X417291Y82800D01*
X417138Y83962D01*
X416689Y85046D01*
X415976Y85976D01*
X415046Y86690D01*
X413962Y87138D01*
X412800Y87291D01*
D02*
G37*
G36*
Y77291D02*
X411638Y77138D01*
X410554Y76689D01*
X409624Y75976D01*
X409143Y75349D01*
X406457D01*
X405976Y75976D01*
X405046Y76689D01*
X403962Y77138D01*
X402800Y77291D01*
X401638Y77138D01*
X400554Y76689D01*
X399624Y75976D01*
X398910Y75046D01*
X398462Y73962D01*
X398309Y72800D01*
X398462Y71638D01*
X398910Y70554D01*
X399624Y69624D01*
X400554Y68910D01*
X401638Y68462D01*
X402800Y68309D01*
X403962Y68462D01*
X405046Y68910D01*
X405976Y69624D01*
X406457Y70251D01*
X409143D01*
X409624Y69624D01*
X410554Y68910D01*
X411638Y68462D01*
X412800Y68309D01*
X413962Y68462D01*
X415046Y68910D01*
X415976Y69624D01*
X416689Y70554D01*
X417138Y71638D01*
X417291Y72800D01*
X417138Y73962D01*
X416689Y75046D01*
X415976Y75976D01*
X415046Y76689D01*
X413962Y77138D01*
X412800Y77291D01*
D02*
G37*
G36*
Y67291D02*
X411638Y67138D01*
X410554Y66689D01*
X409624Y65976D01*
X409143Y65349D01*
X406457D01*
X405976Y65976D01*
X405046Y66689D01*
X403962Y67138D01*
X402800Y67291D01*
X401638Y67138D01*
X400554Y66689D01*
X399624Y65976D01*
X398910Y65046D01*
X398462Y63962D01*
X398309Y62800D01*
X398462Y61638D01*
X398910Y60554D01*
X399624Y59624D01*
X400554Y58911D01*
X401638Y58462D01*
X402800Y58309D01*
X403962Y58462D01*
X405046Y58911D01*
X405976Y59624D01*
X406457Y60251D01*
X409143D01*
X409624Y59624D01*
X410554Y58911D01*
X411638Y58462D01*
X412800Y58309D01*
X413962Y58462D01*
X415046Y58911D01*
X415976Y59624D01*
X416689Y60554D01*
X417138Y61638D01*
X417291Y62800D01*
X417138Y63962D01*
X416689Y65046D01*
X415976Y65976D01*
X415046Y66689D01*
X413962Y67138D01*
X412800Y67291D01*
D02*
G37*
G36*
Y57291D02*
X411638Y57138D01*
X410554Y56690D01*
X409624Y55976D01*
X409143Y55349D01*
X406457D01*
X405976Y55976D01*
X405046Y56690D01*
X403962Y57138D01*
X402800Y57291D01*
X401638Y57138D01*
X400554Y56690D01*
X399624Y55976D01*
X398910Y55046D01*
X398462Y53962D01*
X398309Y52800D01*
X398462Y51638D01*
X398910Y50554D01*
X399624Y49624D01*
X400554Y48910D01*
X401638Y48462D01*
X402800Y48309D01*
X403962Y48462D01*
X405046Y48910D01*
X405976Y49624D01*
X406457Y50251D01*
X409143D01*
X409624Y49624D01*
X410554Y48910D01*
X411638Y48462D01*
X412800Y48309D01*
X413962Y48462D01*
X415046Y48910D01*
X415976Y49624D01*
X416689Y50554D01*
X417138Y51638D01*
X417291Y52800D01*
X417138Y53962D01*
X416689Y55046D01*
X415976Y55976D01*
X415046Y56690D01*
X413962Y57138D01*
X412800Y57291D01*
D02*
G37*
G36*
X417253Y47253D02*
X408347D01*
Y45349D01*
X407253D01*
Y47253D01*
X398347D01*
Y38347D01*
X407253D01*
Y40251D01*
X408347D01*
Y38347D01*
X417253D01*
Y47253D01*
D02*
G37*
G36*
X223700Y50721D02*
Y47300D01*
X227121D01*
X227051Y47832D01*
X226653Y48793D01*
X226019Y49619D01*
X225193Y50253D01*
X224232Y50651D01*
X223700Y50721D01*
D02*
G37*
G36*
X222700Y50721D02*
X222168Y50651D01*
X221207Y50253D01*
X220381Y49619D01*
X219747Y48793D01*
X219349Y47832D01*
X219279Y47300D01*
X222700D01*
Y50721D01*
D02*
G37*
G36*
Y46300D02*
X219279D01*
X219349Y45768D01*
X219747Y44807D01*
X220381Y43981D01*
X221207Y43347D01*
X222168Y42949D01*
X222700Y42879D01*
Y46300D01*
D02*
G37*
G36*
X227121D02*
X223700D01*
Y42879D01*
X224232Y42949D01*
X225193Y43347D01*
X226019Y43981D01*
X226653Y44807D01*
X227051Y45768D01*
X227121Y46300D01*
D02*
G37*
G36*
X213200Y51291D02*
X212038Y51138D01*
X210954Y50690D01*
X210024Y49976D01*
X209311Y49046D01*
X208862Y47962D01*
X208709Y46800D01*
X208862Y45638D01*
X209311Y44554D01*
X210024Y43624D01*
X210954Y42911D01*
X212038Y42462D01*
X213200Y42309D01*
X214362Y42462D01*
X215446Y42911D01*
X216376Y43624D01*
X217090Y44554D01*
X217538Y45638D01*
X217691Y46800D01*
X217538Y47962D01*
X217090Y49046D01*
X216376Y49976D01*
X215446Y50690D01*
X214362Y51138D01*
X213200Y51291D01*
D02*
G37*
G36*
X203200D02*
X202038Y51138D01*
X200954Y50690D01*
X200024Y49976D01*
X199311Y49046D01*
X198862Y47962D01*
X198709Y46800D01*
X198862Y45638D01*
X199311Y44554D01*
X200024Y43624D01*
X200954Y42911D01*
X202038Y42462D01*
X203200Y42309D01*
X204362Y42462D01*
X205446Y42911D01*
X206376Y43624D01*
X207089Y44554D01*
X207538Y45638D01*
X207691Y46800D01*
X207538Y47962D01*
X207089Y49046D01*
X206376Y49976D01*
X205446Y50690D01*
X204362Y51138D01*
X203200Y51291D01*
D02*
G37*
G36*
X193200D02*
X192038Y51138D01*
X190954Y50690D01*
X190024Y49976D01*
X189311Y49046D01*
X188862Y47962D01*
X188709Y46800D01*
X188862Y45638D01*
X189311Y44554D01*
X190024Y43624D01*
X190954Y42911D01*
X192038Y42462D01*
X193200Y42309D01*
X194362Y42462D01*
X195446Y42911D01*
X196376Y43624D01*
X197090Y44554D01*
X197538Y45638D01*
X197691Y46800D01*
X197538Y47962D01*
X197090Y49046D01*
X196376Y49976D01*
X195446Y50690D01*
X194362Y51138D01*
X193200Y51291D01*
D02*
G37*
G36*
X183200D02*
X182038Y51138D01*
X180954Y50690D01*
X180024Y49976D01*
X179311Y49046D01*
X178862Y47962D01*
X178709Y46800D01*
X178862Y45638D01*
X179311Y44554D01*
X180024Y43624D01*
X180954Y42911D01*
X182038Y42462D01*
X183200Y42309D01*
X184362Y42462D01*
X185446Y42911D01*
X186376Y43624D01*
X187090Y44554D01*
X187538Y45638D01*
X187691Y46800D01*
X187538Y47962D01*
X187090Y49046D01*
X186376Y49976D01*
X185446Y50690D01*
X184362Y51138D01*
X183200Y51291D01*
D02*
G37*
G36*
X223700Y40721D02*
Y37300D01*
X227121D01*
X227051Y37832D01*
X226653Y38793D01*
X226019Y39619D01*
X225193Y40253D01*
X224232Y40651D01*
X223700Y40721D01*
D02*
G37*
G36*
X222700Y40721D02*
X222168Y40651D01*
X221207Y40253D01*
X220381Y39619D01*
X219747Y38793D01*
X219349Y37832D01*
X219279Y37300D01*
X222700D01*
Y40721D01*
D02*
G37*
G36*
Y36300D02*
X219279D01*
X219349Y35768D01*
X219747Y34807D01*
X220381Y33981D01*
X221207Y33347D01*
X222168Y32949D01*
X222700Y32879D01*
Y36300D01*
D02*
G37*
G36*
X227121D02*
X223700D01*
Y32879D01*
X224232Y32949D01*
X225193Y33347D01*
X226019Y33981D01*
X226653Y34807D01*
X227051Y35768D01*
X227121Y36300D01*
D02*
G37*
G36*
X243200Y41291D02*
X242038Y41138D01*
X240954Y40690D01*
X240024Y39976D01*
X239311Y39046D01*
X238862Y37962D01*
X238709Y36800D01*
X238862Y35638D01*
X239311Y34554D01*
X240024Y33624D01*
X240954Y32910D01*
X242038Y32462D01*
X243200Y32309D01*
X244362Y32462D01*
X245446Y32910D01*
X246376Y33624D01*
X247090Y34554D01*
X247538Y35638D01*
X247691Y36800D01*
X247538Y37962D01*
X247090Y39046D01*
X246376Y39976D01*
X245446Y40690D01*
X244362Y41138D01*
X243200Y41291D01*
D02*
G37*
G36*
X233200D02*
X232038Y41138D01*
X230954Y40690D01*
X230024Y39976D01*
X229310Y39046D01*
X228862Y37962D01*
X228709Y36800D01*
X228862Y35638D01*
X229310Y34554D01*
X230024Y33624D01*
X230954Y32910D01*
X232038Y32462D01*
X233200Y32309D01*
X234362Y32462D01*
X235446Y32910D01*
X236376Y33624D01*
X237089Y34554D01*
X237538Y35638D01*
X237691Y36800D01*
X237538Y37962D01*
X237089Y39046D01*
X236376Y39976D01*
X235446Y40690D01*
X234362Y41138D01*
X233200Y41291D01*
D02*
G37*
G36*
X213200D02*
X212038Y41138D01*
X210954Y40690D01*
X210024Y39976D01*
X209311Y39046D01*
X208862Y37962D01*
X208709Y36800D01*
X208862Y35638D01*
X209311Y34554D01*
X210024Y33624D01*
X210954Y32910D01*
X212038Y32462D01*
X213200Y32309D01*
X214362Y32462D01*
X215446Y32910D01*
X216376Y33624D01*
X217090Y34554D01*
X217538Y35638D01*
X217691Y36800D01*
X217538Y37962D01*
X217090Y39046D01*
X216376Y39976D01*
X215446Y40690D01*
X214362Y41138D01*
X213200Y41291D01*
D02*
G37*
G36*
X203200D02*
X202038Y41138D01*
X200954Y40690D01*
X200024Y39976D01*
X199311Y39046D01*
X198862Y37962D01*
X198709Y36800D01*
X198862Y35638D01*
X199311Y34554D01*
X200024Y33624D01*
X200954Y32910D01*
X202038Y32462D01*
X203200Y32309D01*
X204362Y32462D01*
X205446Y32910D01*
X206376Y33624D01*
X207089Y34554D01*
X207538Y35638D01*
X207691Y36800D01*
X207538Y37962D01*
X207089Y39046D01*
X206376Y39976D01*
X205446Y40690D01*
X204362Y41138D01*
X203200Y41291D01*
D02*
G37*
G36*
X193200D02*
X192038Y41138D01*
X190954Y40690D01*
X190024Y39976D01*
X189311Y39046D01*
X188862Y37962D01*
X188709Y36800D01*
X188862Y35638D01*
X189311Y34554D01*
X190024Y33624D01*
X190954Y32910D01*
X192038Y32462D01*
X193200Y32309D01*
X194362Y32462D01*
X195446Y32910D01*
X196376Y33624D01*
X197090Y34554D01*
X197538Y35638D01*
X197691Y36800D01*
X197538Y37962D01*
X197090Y39046D01*
X196376Y39976D01*
X195446Y40690D01*
X194362Y41138D01*
X193200Y41291D01*
D02*
G37*
G36*
X183200D02*
X182038Y41138D01*
X180954Y40690D01*
X180024Y39976D01*
X179311Y39046D01*
X178862Y37962D01*
X178709Y36800D01*
X178862Y35638D01*
X179311Y34554D01*
X180024Y33624D01*
X180954Y32910D01*
X182038Y32462D01*
X183200Y32309D01*
X184362Y32462D01*
X185446Y32910D01*
X186376Y33624D01*
X187090Y34554D01*
X187538Y35638D01*
X187691Y36800D01*
X187538Y37962D01*
X187090Y39046D01*
X186376Y39976D01*
X185446Y40690D01*
X184362Y41138D01*
X183200Y41291D01*
D02*
G37*
%LPD*%
D10*
X254700Y64500D02*
X258400Y60800D01*
X180300Y64500D02*
X254700D01*
X286000Y67200D02*
Y98400D01*
X276000D02*
X278000D01*
X283600Y64800D02*
X286000Y67200D01*
X262000Y64800D02*
X283600D01*
X258400Y61200D02*
X262000Y64800D01*
X258400Y60800D02*
Y61200D01*
X119600Y13600D02*
X320800Y13600D01*
X103600Y29600D02*
X119600Y13600D01*
X84000Y29600D02*
X103600D01*
X76400Y37200D02*
X84000Y29600D01*
X106000Y102400D02*
X109200Y105600D01*
X106000Y56800D02*
Y102400D01*
X109200Y105600D02*
X182400Y105600D01*
X86400Y37200D02*
X106000Y56800D01*
X186800Y110000D02*
Y181200D01*
X182400Y105600D02*
X186800Y110000D01*
X169600Y75200D02*
X180300Y64500D01*
X148400Y75200D02*
X169600D01*
X142000Y78800D02*
X148400Y85200D01*
X142000Y68000D02*
Y78800D01*
Y68000D02*
X149200Y60800D01*
X166000D01*
X320800Y13600D02*
X348400Y41200D01*
Y120800D01*
X346400Y122800D02*
X348400Y120800D01*
X271200Y103200D02*
X276000Y98400D01*
X166400Y103200D02*
X271200D01*
X148400Y85200D02*
X166400Y103200D01*
X342800Y122800D02*
X346400D01*
X186800Y181200D02*
X195200Y189600D01*
X203600D01*
X176000Y85200D02*
Y98400D01*
X186000Y85200D02*
Y98400D01*
X196000Y85200D02*
Y98400D01*
X206000Y85200D02*
Y98400D01*
X216000Y85200D02*
Y98400D01*
X226000Y85200D02*
Y98400D01*
X236000Y85200D02*
Y98400D01*
X246000Y85200D02*
Y98400D01*
X256000Y85200D02*
Y98400D01*
X266000Y85200D02*
Y98400D01*
X332400Y153200D02*
X332800Y152800D01*
X323600Y153200D02*
X332400D01*
X306800Y170000D02*
X323600Y153200D01*
X275600Y201200D02*
X306800Y170000D01*
X167200Y196000D02*
Y210800D01*
X180800Y224400D01*
X263600D01*
X268400Y229200D01*
Y241600D01*
X228200Y241400D02*
X228400Y241600D01*
X213600Y241400D02*
X228200D01*
X114000Y181200D02*
X133800Y201000D01*
X114000Y143600D02*
Y181200D01*
X152800Y274400D02*
Y311600D01*
Y274400D02*
X157600Y269600D01*
X152800Y311600D02*
Y312400D01*
X192800Y311600D02*
X193200Y311200D01*
Y275200D02*
Y311200D01*
X86400Y37200D02*
X86400D01*
X209200Y147600D02*
Y164000D01*
X210400Y147600D02*
X230800D01*
X236000Y152800D02*
Y160800D01*
X230800Y147600D02*
X236000Y152800D01*
X140400Y161200D02*
X152800D01*
X137200Y164400D02*
X140400Y161200D01*
X137200Y164400D02*
Y171000D01*
X133800Y201000D02*
X137200D01*
X152600D02*
X152800Y201200D01*
X137200Y201000D02*
X152600D01*
X30800Y143600D02*
X114000D01*
X30400Y174400D02*
X97600D01*
X112800Y189600D01*
X118400Y269600D02*
X128000D01*
X365200Y231600D02*
X365600Y232000D01*
X349600Y231600D02*
X365200D01*
Y251600D02*
X365600Y252000D01*
X349600Y251600D02*
X365200D01*
X112800Y189600D02*
Y236000D01*
X121200Y244400D01*
X182400D01*
X187600Y249600D01*
X111200D02*
X157200D01*
X128000Y269600D02*
X138000Y259600D01*
X157600D01*
X30526Y269632D02*
X118769D01*
X30526Y249632D02*
X112768D01*
X264000Y189600D02*
X275600Y201200D01*
X203600Y189600D02*
X264000D01*
X76400Y37200D02*
X78000D01*
X167200Y183200D02*
X173600Y189600D01*
X167200Y164800D02*
Y183200D01*
X163600Y161200D02*
X167200Y164800D01*
X152800Y161200D02*
X163600D01*
X260400D02*
X275600D01*
X242000Y179600D02*
X260400Y161200D01*
X203600Y179600D02*
X242000D01*
X203600Y169600D02*
X209200Y164000D01*
X203200Y200000D02*
X203600Y199600D01*
X184800Y249600D02*
X187600D01*
X179200Y255200D02*
X184800Y249600D01*
X179200Y255200D02*
Y259600D01*
X183600Y264000D01*
X194800D01*
X202200Y271400D01*
X213600D01*
X167200Y196000D02*
X173600Y189600D01*
X187600Y269600D02*
X193200Y275200D01*
D12*
X332800Y142800D02*
X342800D01*
X332800Y152800D02*
X342800D01*
X332800Y162800D02*
X342800D01*
X332800Y92800D02*
X342800D01*
X332800Y102800D02*
X342800D01*
X332800Y112800D02*
X342800D01*
X332800Y122800D02*
X342800D01*
X332800Y132800D02*
X342800D01*
X332800Y82800D02*
X342800D01*
X332800Y72800D02*
X342800D01*
X332800Y62800D02*
X342800D01*
X332800Y52800D02*
X342800D01*
X332800Y42800D02*
X342800D01*
X402800D02*
X412800D01*
X402800Y52800D02*
X412800D01*
X402800Y62800D02*
X412800D01*
X402800Y72800D02*
X412800D01*
X402800Y82800D02*
X412800D01*
X402800Y132800D02*
X412800D01*
X402800Y122800D02*
X412800D01*
X402800Y112800D02*
X412800D01*
X402800Y102800D02*
X412800D01*
X402800Y92800D02*
X412800D01*
X402800Y182800D02*
X412800D01*
X402800Y172800D02*
X412800D01*
X402800Y162800D02*
X412800D01*
X402800Y152800D02*
X412800D01*
X402800Y142800D02*
X412800D01*
X333500Y172900D02*
X343500D01*
X332400Y183000D02*
X342400D01*
D26*
X225200Y54000D02*
X314000D01*
X218400Y60800D02*
X225200Y54000D01*
X314000D02*
X332800Y72800D01*
X206000Y60800D02*
X218400D01*
D27*
X166000D02*
D03*
X206000D02*
D03*
X218400D02*
D03*
X258400D02*
D03*
X331200Y200400D02*
D03*
X291200D02*
D03*
X169200Y147600D02*
D03*
X209200D02*
D03*
X331200Y220800D02*
D03*
X291200D02*
D03*
X349600Y251600D02*
D03*
Y231600D02*
D03*
X390400Y208000D02*
D03*
X370400D02*
D03*
X275600Y161200D02*
D03*
Y201200D02*
D03*
X260400Y161200D02*
D03*
Y201200D02*
D03*
X152800Y161200D02*
D03*
Y201200D02*
D03*
X228400Y241600D02*
D03*
X268400D02*
D03*
X192800Y311600D02*
D03*
X152800D02*
D03*
X236000Y161200D02*
D03*
Y201200D02*
D03*
D28*
X176000Y98400D02*
D03*
X186000D02*
D03*
X196000D02*
D03*
X206000D02*
D03*
X216000D02*
D03*
X226000D02*
D03*
X236000D02*
D03*
X246000D02*
D03*
X256000D02*
D03*
X266000D02*
D03*
X276000D02*
D03*
X183200Y36800D02*
D03*
Y46800D02*
D03*
X193200Y36800D02*
D03*
Y46800D02*
D03*
X203200Y36800D02*
D03*
Y46800D02*
D03*
X213200Y36800D02*
D03*
Y46800D02*
D03*
X223200Y36800D02*
D03*
Y46800D02*
D03*
X233200Y36800D02*
D03*
Y46800D02*
D03*
X243200Y36800D02*
D03*
X332800Y182800D02*
D03*
Y42800D02*
D03*
Y52800D02*
D03*
Y172800D02*
D03*
Y162800D02*
D03*
Y152800D02*
D03*
Y142800D02*
D03*
Y132800D02*
D03*
Y122800D02*
D03*
Y112800D02*
D03*
Y102800D02*
D03*
Y92800D02*
D03*
Y82800D02*
D03*
Y72800D02*
D03*
Y62800D02*
D03*
X412800D02*
D03*
Y72800D02*
D03*
Y82800D02*
D03*
Y92800D02*
D03*
Y102800D02*
D03*
Y112800D02*
D03*
Y122800D02*
D03*
Y132800D02*
D03*
Y142800D02*
D03*
Y152800D02*
D03*
Y162800D02*
D03*
Y172800D02*
D03*
Y52800D02*
D03*
Y182800D02*
D03*
X342800Y62800D02*
D03*
Y72800D02*
D03*
Y82800D02*
D03*
Y92800D02*
D03*
Y102800D02*
D03*
Y112800D02*
D03*
Y122800D02*
D03*
Y132800D02*
D03*
Y142800D02*
D03*
Y152800D02*
D03*
Y162800D02*
D03*
Y172800D02*
D03*
Y52800D02*
D03*
Y42800D02*
D03*
Y182800D02*
D03*
X402800D02*
D03*
Y52800D02*
D03*
Y172800D02*
D03*
Y162800D02*
D03*
Y152800D02*
D03*
Y142800D02*
D03*
Y132800D02*
D03*
Y122800D02*
D03*
Y112800D02*
D03*
Y102800D02*
D03*
Y92800D02*
D03*
Y82800D02*
D03*
Y72800D02*
D03*
Y62800D02*
D03*
D29*
X286000Y98400D02*
D03*
X243200Y46800D02*
D03*
D30*
X148400Y75200D02*
D03*
Y85200D02*
D03*
X196000D02*
D03*
X176000D02*
D03*
X266000D02*
D03*
X256000D02*
D03*
X246000D02*
D03*
X236000D02*
D03*
X226000D02*
D03*
X216000D02*
D03*
X206000D02*
D03*
X186000D02*
D03*
D31*
X412800Y42800D02*
D03*
X402800D02*
D03*
D32*
X21600Y321600D02*
D03*
X428800D02*
D03*
X429600Y21200D02*
D03*
X21600Y21600D02*
D03*
D33*
X157600Y269600D02*
D03*
X365600Y262000D02*
D03*
X173600Y199600D02*
D03*
D34*
X157600Y259600D02*
D03*
Y249600D02*
D03*
Y239600D02*
D03*
X187600Y269600D02*
D03*
Y259600D02*
D03*
Y249600D02*
D03*
Y239600D02*
D03*
X395600Y232000D02*
D03*
Y242000D02*
D03*
Y252000D02*
D03*
Y262000D02*
D03*
X365600Y232000D02*
D03*
Y242000D02*
D03*
Y252000D02*
D03*
X173600Y189600D02*
D03*
Y179600D02*
D03*
Y169600D02*
D03*
X203600Y199600D02*
D03*
Y189600D02*
D03*
Y179600D02*
D03*
Y169600D02*
D03*
D35*
X137200Y171000D02*
D03*
Y201000D02*
D03*
X213600Y241400D02*
D03*
Y271400D02*
D03*
D36*
X433726Y231631D02*
D03*
X30800Y143600D02*
D03*
X30400Y159200D02*
D03*
Y174400D02*
D03*
X30526Y189631D02*
D03*
X30400Y229600D02*
D03*
X30526Y269632D02*
D03*
Y249632D02*
D03*
D37*
X56400Y37200D02*
D03*
X66400D02*
D03*
X76400D02*
D03*
X86400D02*
D03*
M02*
