G04*
G04 #@! TF.GenerationSoftware,Altium Limited,Altium Designer,18.0.9 (584)*
G04*
G04 Layer_Color=8388736*
%FSLAX25Y25*%
%MOIN*%
G70*
G01*
G75*
%ADD15C,0.05400*%
%ADD16C,0.06306*%
%ADD17R,0.06306X0.06306*%
%ADD18C,0.06400*%
%ADD19R,0.06306X0.06306*%
%ADD20C,0.15400*%
%ADD21R,0.10400X0.05400*%
%ADD22O,0.10400X0.05400*%
%ADD23C,0.05124*%
%ADD24C,0.06100*%
%ADD25O,0.05400X0.10400*%
D15*
X166000Y60800D02*
D03*
X206000D02*
D03*
X218400D02*
D03*
X258400D02*
D03*
X331200Y200400D02*
D03*
X291200D02*
D03*
X169200Y147600D02*
D03*
X209200D02*
D03*
X331200Y220800D02*
D03*
X291200D02*
D03*
X349600Y251600D02*
D03*
Y231600D02*
D03*
X390400Y208000D02*
D03*
X370400D02*
D03*
X275600Y161200D02*
D03*
Y201200D02*
D03*
X260400Y161200D02*
D03*
Y201200D02*
D03*
X152800Y161200D02*
D03*
Y201200D02*
D03*
X228400Y241600D02*
D03*
X268400D02*
D03*
X192800Y311600D02*
D03*
X152800D02*
D03*
X236000Y161200D02*
D03*
Y201200D02*
D03*
D16*
X176000Y98400D02*
D03*
X186000D02*
D03*
X196000D02*
D03*
X206000D02*
D03*
X216000D02*
D03*
X226000D02*
D03*
X236000D02*
D03*
X246000D02*
D03*
X256000D02*
D03*
X266000D02*
D03*
X276000D02*
D03*
X183200Y36800D02*
D03*
Y46800D02*
D03*
X193200Y36800D02*
D03*
Y46800D02*
D03*
X203200Y36800D02*
D03*
Y46800D02*
D03*
X213200Y36800D02*
D03*
Y46800D02*
D03*
X223200Y36800D02*
D03*
Y46800D02*
D03*
X233200Y36800D02*
D03*
Y46800D02*
D03*
X243200Y36800D02*
D03*
X332800Y182800D02*
D03*
Y42800D02*
D03*
Y52800D02*
D03*
Y172800D02*
D03*
Y162800D02*
D03*
Y152800D02*
D03*
Y142800D02*
D03*
Y132800D02*
D03*
Y122800D02*
D03*
Y112800D02*
D03*
Y102800D02*
D03*
Y92800D02*
D03*
Y82800D02*
D03*
Y72800D02*
D03*
Y62800D02*
D03*
X412800D02*
D03*
Y72800D02*
D03*
Y82800D02*
D03*
Y92800D02*
D03*
Y102800D02*
D03*
Y112800D02*
D03*
Y122800D02*
D03*
Y132800D02*
D03*
Y142800D02*
D03*
Y152800D02*
D03*
Y162800D02*
D03*
Y172800D02*
D03*
Y52800D02*
D03*
Y182800D02*
D03*
X342800Y62800D02*
D03*
Y72800D02*
D03*
Y82800D02*
D03*
Y92800D02*
D03*
Y102800D02*
D03*
Y112800D02*
D03*
Y122800D02*
D03*
Y132800D02*
D03*
Y142800D02*
D03*
Y152800D02*
D03*
Y162800D02*
D03*
Y172800D02*
D03*
Y52800D02*
D03*
Y42800D02*
D03*
Y182800D02*
D03*
X402800D02*
D03*
Y52800D02*
D03*
Y172800D02*
D03*
Y162800D02*
D03*
Y152800D02*
D03*
Y142800D02*
D03*
Y132800D02*
D03*
Y122800D02*
D03*
Y112800D02*
D03*
Y102800D02*
D03*
Y92800D02*
D03*
Y82800D02*
D03*
Y72800D02*
D03*
Y62800D02*
D03*
D17*
X286000Y98400D02*
D03*
X243200Y46800D02*
D03*
D18*
X148400Y75200D02*
D03*
Y85200D02*
D03*
X196000D02*
D03*
X176000D02*
D03*
X266000D02*
D03*
X256000D02*
D03*
X246000D02*
D03*
X236000D02*
D03*
X226000D02*
D03*
X216000D02*
D03*
X206000D02*
D03*
X186000D02*
D03*
D19*
X412800Y42800D02*
D03*
X402800D02*
D03*
D20*
X21600Y321600D02*
D03*
X428800D02*
D03*
X429600Y21200D02*
D03*
X21600Y21600D02*
D03*
D21*
X157600Y269600D02*
D03*
X365600Y262000D02*
D03*
X173600Y199600D02*
D03*
D22*
X157600Y259600D02*
D03*
Y249600D02*
D03*
Y239600D02*
D03*
X187600Y269600D02*
D03*
Y259600D02*
D03*
Y249600D02*
D03*
Y239600D02*
D03*
X395600Y232000D02*
D03*
Y242000D02*
D03*
Y252000D02*
D03*
Y262000D02*
D03*
X365600Y232000D02*
D03*
Y242000D02*
D03*
Y252000D02*
D03*
X173600Y189600D02*
D03*
Y179600D02*
D03*
Y169600D02*
D03*
X203600Y199600D02*
D03*
Y189600D02*
D03*
Y179600D02*
D03*
Y169600D02*
D03*
D23*
X137200Y171000D02*
D03*
Y201000D02*
D03*
X213600Y241400D02*
D03*
Y271400D02*
D03*
D24*
X433726Y231631D02*
D03*
X30800Y143600D02*
D03*
X30400Y159200D02*
D03*
Y174400D02*
D03*
X30526Y189631D02*
D03*
X30400Y229600D02*
D03*
X30526Y269632D02*
D03*
Y249632D02*
D03*
D25*
X56400Y37200D02*
D03*
X66400D02*
D03*
X76400D02*
D03*
X86400D02*
D03*
M02*
